G04 #@! TF.GenerationSoftware,KiCad,Pcbnew,5.1.5+dfsg1-2build2*
G04 #@! TF.CreationDate,2022-10-01T19:43:28+01:00*
G04 #@! TF.ProjectId,zx-memory-16-32,7a782d6d-656d-46f7-9279-2d31362d3332,rev?*
G04 #@! TF.SameCoordinates,Original*
G04 #@! TF.FileFunction,Paste,Top*
G04 #@! TF.FilePolarity,Positive*
%FSLAX46Y46*%
G04 Gerber Fmt 4.6, Leading zero omitted, Abs format (unit mm)*
G04 Created by KiCad (PCBNEW 5.1.5+dfsg1-2build2) date 2022-10-01 19:43:28*
%MOMM*%
%LPD*%
G04 APERTURE LIST*
%ADD10R,1.500000X2.000000*%
%ADD11R,3.800000X2.000000*%
%ADD12C,0.100000*%
G04 APERTURE END LIST*
D10*
X30720000Y-92050000D03*
X35320000Y-92050000D03*
X33020000Y-92050000D03*
D11*
X33020000Y-85750000D03*
D12*
G36*
X31233504Y-75592204D02*
G01*
X31257773Y-75595804D01*
X31281571Y-75601765D01*
X31304671Y-75610030D01*
X31326849Y-75620520D01*
X31347893Y-75633133D01*
X31367598Y-75647747D01*
X31385777Y-75664223D01*
X31402253Y-75682402D01*
X31416867Y-75702107D01*
X31429480Y-75723151D01*
X31439970Y-75745329D01*
X31448235Y-75768429D01*
X31454196Y-75792227D01*
X31457796Y-75816496D01*
X31459000Y-75841000D01*
X31459000Y-76516000D01*
X31457796Y-76540504D01*
X31454196Y-76564773D01*
X31448235Y-76588571D01*
X31439970Y-76611671D01*
X31429480Y-76633849D01*
X31416867Y-76654893D01*
X31402253Y-76674598D01*
X31385777Y-76692777D01*
X31367598Y-76709253D01*
X31347893Y-76723867D01*
X31326849Y-76736480D01*
X31304671Y-76746970D01*
X31281571Y-76755235D01*
X31257773Y-76761196D01*
X31233504Y-76764796D01*
X31209000Y-76766000D01*
X30259000Y-76766000D01*
X30234496Y-76764796D01*
X30210227Y-76761196D01*
X30186429Y-76755235D01*
X30163329Y-76746970D01*
X30141151Y-76736480D01*
X30120107Y-76723867D01*
X30100402Y-76709253D01*
X30082223Y-76692777D01*
X30065747Y-76674598D01*
X30051133Y-76654893D01*
X30038520Y-76633849D01*
X30028030Y-76611671D01*
X30019765Y-76588571D01*
X30013804Y-76564773D01*
X30010204Y-76540504D01*
X30009000Y-76516000D01*
X30009000Y-75841000D01*
X30010204Y-75816496D01*
X30013804Y-75792227D01*
X30019765Y-75768429D01*
X30028030Y-75745329D01*
X30038520Y-75723151D01*
X30051133Y-75702107D01*
X30065747Y-75682402D01*
X30082223Y-75664223D01*
X30100402Y-75647747D01*
X30120107Y-75633133D01*
X30141151Y-75620520D01*
X30163329Y-75610030D01*
X30186429Y-75601765D01*
X30210227Y-75595804D01*
X30234496Y-75592204D01*
X30259000Y-75591000D01*
X31209000Y-75591000D01*
X31233504Y-75592204D01*
G37*
G36*
X31233504Y-77667204D02*
G01*
X31257773Y-77670804D01*
X31281571Y-77676765D01*
X31304671Y-77685030D01*
X31326849Y-77695520D01*
X31347893Y-77708133D01*
X31367598Y-77722747D01*
X31385777Y-77739223D01*
X31402253Y-77757402D01*
X31416867Y-77777107D01*
X31429480Y-77798151D01*
X31439970Y-77820329D01*
X31448235Y-77843429D01*
X31454196Y-77867227D01*
X31457796Y-77891496D01*
X31459000Y-77916000D01*
X31459000Y-78591000D01*
X31457796Y-78615504D01*
X31454196Y-78639773D01*
X31448235Y-78663571D01*
X31439970Y-78686671D01*
X31429480Y-78708849D01*
X31416867Y-78729893D01*
X31402253Y-78749598D01*
X31385777Y-78767777D01*
X31367598Y-78784253D01*
X31347893Y-78798867D01*
X31326849Y-78811480D01*
X31304671Y-78821970D01*
X31281571Y-78830235D01*
X31257773Y-78836196D01*
X31233504Y-78839796D01*
X31209000Y-78841000D01*
X30259000Y-78841000D01*
X30234496Y-78839796D01*
X30210227Y-78836196D01*
X30186429Y-78830235D01*
X30163329Y-78821970D01*
X30141151Y-78811480D01*
X30120107Y-78798867D01*
X30100402Y-78784253D01*
X30082223Y-78767777D01*
X30065747Y-78749598D01*
X30051133Y-78729893D01*
X30038520Y-78708849D01*
X30028030Y-78686671D01*
X30019765Y-78663571D01*
X30013804Y-78639773D01*
X30010204Y-78615504D01*
X30009000Y-78591000D01*
X30009000Y-77916000D01*
X30010204Y-77891496D01*
X30013804Y-77867227D01*
X30019765Y-77843429D01*
X30028030Y-77820329D01*
X30038520Y-77798151D01*
X30051133Y-77777107D01*
X30065747Y-77757402D01*
X30082223Y-77739223D01*
X30100402Y-77722747D01*
X30120107Y-77708133D01*
X30141151Y-77695520D01*
X30163329Y-77685030D01*
X30186429Y-77676765D01*
X30210227Y-77670804D01*
X30234496Y-77667204D01*
X30259000Y-77666000D01*
X31209000Y-77666000D01*
X31233504Y-77667204D01*
G37*
G36*
X30058504Y-95034204D02*
G01*
X30082773Y-95037804D01*
X30106571Y-95043765D01*
X30129671Y-95052030D01*
X30151849Y-95062520D01*
X30172893Y-95075133D01*
X30192598Y-95089747D01*
X30210777Y-95106223D01*
X30227253Y-95124402D01*
X30241867Y-95144107D01*
X30254480Y-95165151D01*
X30264970Y-95187329D01*
X30273235Y-95210429D01*
X30279196Y-95234227D01*
X30282796Y-95258496D01*
X30284000Y-95283000D01*
X30284000Y-96233000D01*
X30282796Y-96257504D01*
X30279196Y-96281773D01*
X30273235Y-96305571D01*
X30264970Y-96328671D01*
X30254480Y-96350849D01*
X30241867Y-96371893D01*
X30227253Y-96391598D01*
X30210777Y-96409777D01*
X30192598Y-96426253D01*
X30172893Y-96440867D01*
X30151849Y-96453480D01*
X30129671Y-96463970D01*
X30106571Y-96472235D01*
X30082773Y-96478196D01*
X30058504Y-96481796D01*
X30034000Y-96483000D01*
X29359000Y-96483000D01*
X29334496Y-96481796D01*
X29310227Y-96478196D01*
X29286429Y-96472235D01*
X29263329Y-96463970D01*
X29241151Y-96453480D01*
X29220107Y-96440867D01*
X29200402Y-96426253D01*
X29182223Y-96409777D01*
X29165747Y-96391598D01*
X29151133Y-96371893D01*
X29138520Y-96350849D01*
X29128030Y-96328671D01*
X29119765Y-96305571D01*
X29113804Y-96281773D01*
X29110204Y-96257504D01*
X29109000Y-96233000D01*
X29109000Y-95283000D01*
X29110204Y-95258496D01*
X29113804Y-95234227D01*
X29119765Y-95210429D01*
X29128030Y-95187329D01*
X29138520Y-95165151D01*
X29151133Y-95144107D01*
X29165747Y-95124402D01*
X29182223Y-95106223D01*
X29200402Y-95089747D01*
X29220107Y-95075133D01*
X29241151Y-95062520D01*
X29263329Y-95052030D01*
X29286429Y-95043765D01*
X29310227Y-95037804D01*
X29334496Y-95034204D01*
X29359000Y-95033000D01*
X30034000Y-95033000D01*
X30058504Y-95034204D01*
G37*
G36*
X32133504Y-95034204D02*
G01*
X32157773Y-95037804D01*
X32181571Y-95043765D01*
X32204671Y-95052030D01*
X32226849Y-95062520D01*
X32247893Y-95075133D01*
X32267598Y-95089747D01*
X32285777Y-95106223D01*
X32302253Y-95124402D01*
X32316867Y-95144107D01*
X32329480Y-95165151D01*
X32339970Y-95187329D01*
X32348235Y-95210429D01*
X32354196Y-95234227D01*
X32357796Y-95258496D01*
X32359000Y-95283000D01*
X32359000Y-96233000D01*
X32357796Y-96257504D01*
X32354196Y-96281773D01*
X32348235Y-96305571D01*
X32339970Y-96328671D01*
X32329480Y-96350849D01*
X32316867Y-96371893D01*
X32302253Y-96391598D01*
X32285777Y-96409777D01*
X32267598Y-96426253D01*
X32247893Y-96440867D01*
X32226849Y-96453480D01*
X32204671Y-96463970D01*
X32181571Y-96472235D01*
X32157773Y-96478196D01*
X32133504Y-96481796D01*
X32109000Y-96483000D01*
X31434000Y-96483000D01*
X31409496Y-96481796D01*
X31385227Y-96478196D01*
X31361429Y-96472235D01*
X31338329Y-96463970D01*
X31316151Y-96453480D01*
X31295107Y-96440867D01*
X31275402Y-96426253D01*
X31257223Y-96409777D01*
X31240747Y-96391598D01*
X31226133Y-96371893D01*
X31213520Y-96350849D01*
X31203030Y-96328671D01*
X31194765Y-96305571D01*
X31188804Y-96281773D01*
X31185204Y-96257504D01*
X31184000Y-96233000D01*
X31184000Y-95283000D01*
X31185204Y-95258496D01*
X31188804Y-95234227D01*
X31194765Y-95210429D01*
X31203030Y-95187329D01*
X31213520Y-95165151D01*
X31226133Y-95144107D01*
X31240747Y-95124402D01*
X31257223Y-95106223D01*
X31275402Y-95089747D01*
X31295107Y-95075133D01*
X31316151Y-95062520D01*
X31338329Y-95052030D01*
X31361429Y-95043765D01*
X31385227Y-95037804D01*
X31409496Y-95034204D01*
X31434000Y-95033000D01*
X32109000Y-95033000D01*
X32133504Y-95034204D01*
G37*
M02*
