<?xml version="1.0" encoding="UTF-8"?>
<svg xmlns="http://www.w3.org/2000/svg" xmlns:xlink="http://www.w3.org/1999/xlink" width="149pt" height="39pt" viewBox="0 0 149 39" version="1.1">
<g id="surface1888">
<path style=" stroke:none;fill-rule:evenodd;fill:rgb(45.098039%,45.098039%,87.058824%);fill-opacity:1;" d="M 31.84375 32.867188 L 31.871094 32.871094 L 31.898438 32.878906 L 31.921875 32.886719 L 31.949219 32.898438 L 31.996094 32.929688 L 32.035156 32.96875 L 32.066406 33.015625 L 32.078125 33.039062 L 32.09375 33.09375 L 32.097656 33.121094 L 32.097656 36.789062 L 32.09375 36.816406 L 32.078125 36.871094 L 32.066406 36.894531 L 32.050781 36.921875 L 32.035156 36.941406 L 32.015625 36.964844 L 31.996094 36.980469 L 31.972656 37 L 31.949219 37.011719 L 31.921875 37.023438 L 31.898438 37.035156 L 31.816406 37.046875 L 31.246094 37.046875 L 31.164062 37.035156 L 31.140625 37.023438 L 31.113281 37.011719 L 31.089844 37 L 31.066406 36.980469 L 31.046875 36.964844 L 31.027344 36.941406 L 31.011719 36.921875 L 30.996094 36.894531 L 30.984375 36.871094 L 30.96875 36.816406 L 30.964844 36.789062 L 30.964844 33.121094 L 30.96875 33.09375 L 30.984375 33.039062 L 30.996094 33.015625 L 31.027344 32.96875 L 31.066406 32.929688 L 31.113281 32.898438 L 31.140625 32.886719 L 31.164062 32.878906 L 31.191406 32.871094 L 31.246094 32.863281 L 31.816406 32.863281 Z M 31.84375 32.867188 "/>
<path style=" stroke:none;fill-rule:evenodd;fill:rgb(45.098039%,45.098039%,87.058824%);fill-opacity:1;" d="M 33.683594 32.867188 L 33.710938 32.871094 L 33.765625 32.886719 L 33.789062 32.898438 L 33.816406 32.914062 L 33.835938 32.929688 L 33.859375 32.949219 L 33.875 32.96875 L 33.894531 32.992188 L 33.917969 33.039062 L 33.929688 33.066406 L 33.941406 33.148438 L 33.941406 36.761719 L 33.929688 36.84375 L 33.917969 36.871094 L 33.90625 36.894531 L 33.894531 36.921875 L 33.875 36.941406 L 33.859375 36.964844 L 33.835938 36.980469 L 33.816406 37 L 33.789062 37.011719 L 33.765625 37.023438 L 33.738281 37.035156 L 33.65625 37.046875 L 33.089844 37.046875 L 33.007812 37.035156 L 32.980469 37.023438 L 32.933594 37 L 32.910156 36.980469 L 32.890625 36.964844 L 32.871094 36.941406 L 32.855469 36.921875 L 32.839844 36.894531 L 32.828125 36.871094 L 32.8125 36.816406 L 32.808594 36.789062 L 32.808594 33.121094 L 32.8125 33.09375 L 32.828125 33.039062 L 32.839844 33.015625 L 32.871094 32.96875 L 32.910156 32.929688 L 32.957031 32.898438 L 32.980469 32.886719 L 33.035156 32.871094 L 33.089844 32.863281 L 33.65625 32.863281 Z M 33.683594 32.867188 "/>
<path style=" stroke:none;fill-rule:evenodd;fill:rgb(45.098039%,45.098039%,87.058824%);fill-opacity:1;" d="M 35.527344 32.867188 L 35.554688 32.871094 L 35.609375 32.886719 L 35.632812 32.898438 L 35.679688 32.929688 L 35.71875 32.96875 L 35.75 33.015625 L 35.761719 33.039062 L 35.777344 33.09375 L 35.785156 33.148438 L 35.785156 36.761719 L 35.777344 36.816406 L 35.761719 36.871094 L 35.75 36.894531 L 35.734375 36.921875 L 35.71875 36.941406 L 35.699219 36.964844 L 35.679688 36.980469 L 35.65625 37 L 35.609375 37.023438 L 35.582031 37.035156 L 35.5 37.046875 L 34.933594 37.046875 L 34.851562 37.035156 L 34.824219 37.023438 L 34.777344 37 L 34.753906 36.980469 L 34.734375 36.964844 L 34.714844 36.941406 L 34.695312 36.921875 L 34.683594 36.894531 L 34.671875 36.871094 L 34.660156 36.84375 L 34.648438 36.761719 L 34.648438 33.148438 L 34.660156 33.066406 L 34.671875 33.039062 L 34.695312 32.992188 L 34.714844 32.96875 L 34.753906 32.929688 L 34.800781 32.898438 L 34.824219 32.886719 L 34.878906 32.871094 L 34.933594 32.863281 L 35.5 32.863281 Z M 35.527344 32.867188 "/>
<path style=" stroke:none;fill-rule:evenodd;fill:rgb(45.098039%,45.098039%,87.058824%);fill-opacity:1;" d="M 37.371094 32.867188 L 37.398438 32.871094 L 37.425781 32.878906 L 37.449219 32.886719 L 37.476562 32.898438 L 37.523438 32.929688 L 37.5625 32.96875 L 37.59375 33.015625 L 37.605469 33.039062 L 37.621094 33.09375 L 37.625 33.121094 L 37.625 36.789062 L 37.621094 36.816406 L 37.605469 36.871094 L 37.59375 36.894531 L 37.578125 36.921875 L 37.5625 36.941406 L 37.542969 36.964844 L 37.523438 36.980469 L 37.5 37 L 37.476562 37.011719 L 37.449219 37.023438 L 37.425781 37.035156 L 37.34375 37.046875 L 36.777344 37.046875 L 36.746094 37.042969 L 36.691406 37.035156 L 36.667969 37.023438 L 36.640625 37.011719 L 36.617188 37 L 36.59375 36.980469 L 36.574219 36.964844 L 36.554688 36.941406 L 36.539062 36.921875 L 36.527344 36.894531 L 36.511719 36.871094 L 36.496094 36.816406 L 36.492188 36.789062 L 36.492188 33.121094 L 36.496094 33.09375 L 36.511719 33.039062 L 36.527344 33.015625 L 36.539062 32.992188 L 36.554688 32.96875 L 36.59375 32.929688 L 36.640625 32.898438 L 36.667969 32.886719 L 36.691406 32.878906 L 36.71875 32.871094 L 36.746094 32.867188 L 36.777344 32.863281 L 37.34375 32.863281 Z M 37.371094 32.867188 "/>
<path style=" stroke:none;fill-rule:evenodd;fill:rgb(45.098039%,45.098039%,87.058824%);fill-opacity:1;" d="M 39.210938 32.867188 L 39.238281 32.871094 L 39.292969 32.886719 L 39.320312 32.898438 L 39.34375 32.914062 L 39.363281 32.929688 L 39.386719 32.949219 L 39.402344 32.96875 L 39.421875 32.992188 L 39.445312 33.039062 L 39.457031 33.066406 L 39.460938 33.09375 L 39.46875 33.121094 L 39.46875 36.789062 L 39.460938 36.816406 L 39.457031 36.84375 L 39.445312 36.871094 L 39.433594 36.894531 L 39.421875 36.921875 L 39.402344 36.941406 L 39.386719 36.964844 L 39.363281 36.980469 L 39.34375 37 L 39.320312 37.011719 L 39.265625 37.035156 L 39.183594 37.046875 L 38.617188 37.046875 L 38.535156 37.035156 L 38.507812 37.023438 L 38.460938 37 L 38.4375 36.980469 L 38.417969 36.964844 L 38.398438 36.941406 L 38.382812 36.921875 L 38.367188 36.894531 L 38.355469 36.871094 L 38.339844 36.816406 L 38.335938 36.789062 L 38.335938 33.121094 L 38.339844 33.09375 L 38.355469 33.039062 L 38.367188 33.015625 L 38.398438 32.96875 L 38.4375 32.929688 L 38.484375 32.898438 L 38.507812 32.886719 L 38.5625 32.871094 L 38.617188 32.863281 L 39.183594 32.863281 Z M 39.210938 32.867188 "/>
<path style=" stroke:none;fill-rule:evenodd;fill:rgb(45.098039%,45.098039%,87.058824%);fill-opacity:1;" d="M 41.054688 32.867188 L 41.082031 32.871094 L 41.136719 32.886719 L 41.160156 32.898438 L 41.207031 32.929688 L 41.246094 32.96875 L 41.277344 33.015625 L 41.289062 33.039062 L 41.304688 33.09375 L 41.3125 33.148438 L 41.3125 36.761719 L 41.304688 36.816406 L 41.289062 36.871094 L 41.277344 36.894531 L 41.261719 36.921875 L 41.246094 36.941406 L 41.226562 36.964844 L 41.207031 36.980469 L 41.183594 37 L 41.136719 37.023438 L 41.109375 37.035156 L 41.027344 37.046875 L 40.460938 37.046875 L 40.378906 37.035156 L 40.351562 37.023438 L 40.304688 37 L 40.28125 36.980469 L 40.261719 36.964844 L 40.242188 36.941406 L 40.226562 36.921875 L 40.210938 36.894531 L 40.199219 36.871094 L 40.1875 36.84375 L 40.175781 36.761719 L 40.175781 33.148438 L 40.1875 33.066406 L 40.199219 33.039062 L 40.210938 33.015625 L 40.242188 32.96875 L 40.28125 32.929688 L 40.328125 32.898438 L 40.351562 32.886719 L 40.40625 32.871094 L 40.460938 32.863281 L 41.027344 32.863281 Z M 41.054688 32.867188 "/>
<path style=" stroke:none;fill-rule:evenodd;fill:rgb(45.098039%,45.098039%,87.058824%);fill-opacity:1;" d="M 42.898438 32.867188 L 42.925781 32.871094 L 42.953125 32.878906 L 42.976562 32.886719 L 43.003906 32.898438 L 43.050781 32.929688 L 43.089844 32.96875 L 43.121094 33.015625 L 43.132812 33.039062 L 43.148438 33.09375 L 43.152344 33.121094 L 43.152344 36.789062 L 43.148438 36.816406 L 43.132812 36.871094 L 43.121094 36.894531 L 43.105469 36.921875 L 43.089844 36.941406 L 43.070312 36.964844 L 43.050781 36.980469 L 43.027344 37 L 43.003906 37.011719 L 42.976562 37.023438 L 42.953125 37.035156 L 42.871094 37.046875 L 42.304688 37.046875 L 42.273438 37.042969 L 42.21875 37.035156 L 42.195312 37.023438 L 42.167969 37.011719 L 42.144531 37 L 42.125 36.980469 L 42.101562 36.964844 L 42.082031 36.941406 L 42.066406 36.921875 L 42.054688 36.894531 L 42.042969 36.871094 L 42.03125 36.84375 L 42.023438 36.816406 L 42.019531 36.789062 L 42.019531 33.121094 L 42.023438 33.09375 L 42.03125 33.066406 L 42.042969 33.039062 L 42.066406 32.992188 L 42.082031 32.96875 L 42.101562 32.949219 L 42.125 32.929688 L 42.144531 32.914062 L 42.167969 32.898438 L 42.195312 32.886719 L 42.21875 32.878906 L 42.246094 32.871094 L 42.273438 32.867188 L 42.304688 32.863281 L 42.871094 32.863281 Z M 42.898438 32.867188 "/>
<path style=" stroke:none;fill-rule:evenodd;fill:rgb(45.098039%,45.098039%,87.058824%);fill-opacity:1;" d="M 44.738281 32.867188 L 44.769531 32.871094 L 44.792969 32.878906 L 44.820312 32.886719 L 44.847656 32.898438 L 44.871094 32.914062 L 44.890625 32.929688 L 44.914062 32.949219 L 44.929688 32.96875 L 44.949219 32.992188 L 44.972656 33.039062 L 44.984375 33.066406 L 44.992188 33.09375 L 44.996094 33.121094 L 44.996094 36.789062 L 44.992188 36.816406 L 44.984375 36.84375 L 44.972656 36.871094 L 44.960938 36.894531 L 44.949219 36.921875 L 44.929688 36.941406 L 44.914062 36.964844 L 44.890625 36.980469 L 44.871094 37 L 44.847656 37.011719 L 44.792969 37.035156 L 44.769531 37.039062 L 44.738281 37.042969 L 44.710938 37.046875 L 44.144531 37.046875 L 44.0625 37.035156 L 44.035156 37.023438 L 43.988281 37 L 43.964844 36.980469 L 43.945312 36.964844 L 43.925781 36.941406 L 43.910156 36.921875 L 43.894531 36.894531 L 43.882812 36.871094 L 43.867188 36.816406 L 43.863281 36.789062 L 43.863281 33.121094 L 43.867188 33.09375 L 43.882812 33.039062 L 43.894531 33.015625 L 43.925781 32.96875 L 43.964844 32.929688 L 44.011719 32.898438 L 44.035156 32.886719 L 44.089844 32.871094 L 44.144531 32.863281 L 44.710938 32.863281 Z M 44.738281 32.867188 "/>
<path style=" stroke:none;fill-rule:evenodd;fill:rgb(45.098039%,45.098039%,87.058824%);fill-opacity:1;" d="M 46.582031 32.867188 L 46.609375 32.871094 L 46.664062 32.886719 L 46.6875 32.898438 L 46.734375 32.929688 L 46.773438 32.96875 L 46.804688 33.015625 L 46.816406 33.039062 L 46.828125 33.066406 L 46.839844 33.148438 L 46.839844 36.761719 L 46.828125 36.84375 L 46.816406 36.871094 L 46.804688 36.894531 L 46.789062 36.921875 L 46.773438 36.941406 L 46.753906 36.964844 L 46.734375 36.980469 L 46.710938 37 L 46.664062 37.023438 L 46.636719 37.035156 L 46.554688 37.046875 L 45.988281 37.046875 L 45.90625 37.035156 L 45.878906 37.023438 L 45.832031 37 L 45.808594 36.980469 L 45.789062 36.964844 L 45.769531 36.941406 L 45.753906 36.921875 L 45.738281 36.894531 L 45.726562 36.871094 L 45.714844 36.84375 L 45.703125 36.761719 L 45.703125 33.148438 L 45.714844 33.066406 L 45.726562 33.039062 L 45.738281 33.015625 L 45.769531 32.96875 L 45.808594 32.929688 L 45.855469 32.898438 L 45.878906 32.886719 L 45.933594 32.871094 L 45.988281 32.863281 L 46.554688 32.863281 Z M 46.582031 32.867188 "/>
<path style=" stroke:none;fill-rule:evenodd;fill:rgb(45.098039%,45.098039%,87.058824%);fill-opacity:1;" d="M 48.425781 32.867188 L 48.453125 32.871094 L 48.507812 32.886719 L 48.53125 32.898438 L 48.578125 32.929688 L 48.617188 32.96875 L 48.648438 33.015625 L 48.660156 33.039062 L 48.675781 33.09375 L 48.679688 33.121094 L 48.679688 36.789062 L 48.675781 36.816406 L 48.660156 36.871094 L 48.648438 36.894531 L 48.632812 36.921875 L 48.617188 36.941406 L 48.597656 36.964844 L 48.578125 36.980469 L 48.554688 37 L 48.507812 37.023438 L 48.480469 37.035156 L 48.398438 37.046875 L 47.832031 37.046875 L 47.804688 37.042969 L 47.773438 37.039062 L 47.75 37.035156 L 47.695312 37.011719 L 47.671875 37 L 47.652344 36.980469 L 47.628906 36.964844 L 47.613281 36.941406 L 47.59375 36.921875 L 47.582031 36.894531 L 47.570312 36.871094 L 47.558594 36.84375 L 47.550781 36.816406 L 47.546875 36.789062 L 47.546875 33.121094 L 47.550781 33.09375 L 47.558594 33.066406 L 47.570312 33.039062 L 47.59375 32.992188 L 47.613281 32.96875 L 47.628906 32.949219 L 47.652344 32.929688 L 47.671875 32.914062 L 47.695312 32.898438 L 47.722656 32.886719 L 47.75 32.878906 L 47.773438 32.871094 L 47.804688 32.867188 L 47.832031 32.863281 L 48.398438 32.863281 Z M 48.425781 32.867188 "/>
<path style=" stroke:none;fill-rule:evenodd;fill:rgb(45.098039%,45.098039%,87.058824%);fill-opacity:1;" d="M 48.425781 16.636719 L 48.453125 16.640625 L 48.480469 16.648438 L 48.507812 16.660156 L 48.554688 16.683594 L 48.578125 16.699219 L 48.597656 16.71875 L 48.617188 16.742188 L 48.632812 16.761719 L 48.648438 16.785156 L 48.660156 16.8125 L 48.667969 16.835938 L 48.675781 16.863281 L 48.679688 16.890625 L 48.679688 20.5625 L 48.675781 20.589844 L 48.660156 20.644531 L 48.648438 20.667969 L 48.617188 20.714844 L 48.578125 20.753906 L 48.53125 20.785156 L 48.507812 20.796875 L 48.453125 20.8125 L 48.425781 20.816406 L 47.804688 20.816406 L 47.773438 20.8125 L 47.75 20.804688 L 47.722656 20.796875 L 47.695312 20.785156 L 47.671875 20.769531 L 47.652344 20.753906 L 47.628906 20.734375 L 47.613281 20.714844 L 47.59375 20.691406 L 47.570312 20.644531 L 47.558594 20.617188 L 47.550781 20.589844 L 47.546875 20.5625 L 47.546875 16.890625 L 47.550781 16.863281 L 47.558594 16.835938 L 47.570312 16.8125 L 47.582031 16.785156 L 47.59375 16.761719 L 47.613281 16.742188 L 47.628906 16.71875 L 47.652344 16.699219 L 47.671875 16.683594 L 47.695312 16.671875 L 47.75 16.648438 L 47.773438 16.640625 L 47.804688 16.636719 Z M 48.425781 16.636719 "/>
<path style=" stroke:none;fill-rule:evenodd;fill:rgb(45.098039%,45.098039%,87.058824%);fill-opacity:1;" d="M 46.582031 16.636719 L 46.609375 16.640625 L 46.636719 16.648438 L 46.664062 16.660156 L 46.710938 16.683594 L 46.734375 16.699219 L 46.753906 16.71875 L 46.773438 16.742188 L 46.789062 16.761719 L 46.804688 16.785156 L 46.816406 16.8125 L 46.828125 16.835938 L 46.835938 16.890625 L 46.839844 16.921875 L 46.839844 20.535156 L 46.828125 20.617188 L 46.816406 20.644531 L 46.804688 20.667969 L 46.773438 20.714844 L 46.734375 20.753906 L 46.6875 20.785156 L 46.664062 20.796875 L 46.609375 20.8125 L 46.582031 20.816406 L 45.960938 20.816406 L 45.933594 20.8125 L 45.878906 20.796875 L 45.855469 20.785156 L 45.808594 20.753906 L 45.769531 20.714844 L 45.738281 20.667969 L 45.726562 20.644531 L 45.714844 20.617188 L 45.703125 20.535156 L 45.703125 16.921875 L 45.707031 16.890625 L 45.714844 16.835938 L 45.726562 16.8125 L 45.738281 16.785156 L 45.753906 16.761719 L 45.769531 16.742188 L 45.789062 16.71875 L 45.808594 16.699219 L 45.832031 16.683594 L 45.878906 16.660156 L 45.90625 16.648438 L 45.933594 16.640625 L 45.960938 16.636719 Z M 46.582031 16.636719 "/>
<path style=" stroke:none;fill-rule:evenodd;fill:rgb(45.098039%,45.098039%,87.058824%);fill-opacity:1;" d="M 44.738281 16.636719 L 44.769531 16.640625 L 44.792969 16.648438 L 44.847656 16.671875 L 44.871094 16.683594 L 44.890625 16.699219 L 44.914062 16.71875 L 44.929688 16.742188 L 44.949219 16.761719 L 44.960938 16.785156 L 44.972656 16.8125 L 44.984375 16.835938 L 44.992188 16.863281 L 44.996094 16.890625 L 44.996094 20.5625 L 44.992188 20.589844 L 44.984375 20.617188 L 44.972656 20.644531 L 44.949219 20.691406 L 44.929688 20.714844 L 44.914062 20.734375 L 44.890625 20.753906 L 44.871094 20.769531 L 44.847656 20.785156 L 44.820312 20.796875 L 44.792969 20.804688 L 44.769531 20.8125 L 44.738281 20.816406 L 44.117188 20.816406 L 44.089844 20.8125 L 44.035156 20.796875 L 44.011719 20.785156 L 43.964844 20.753906 L 43.925781 20.714844 L 43.894531 20.667969 L 43.882812 20.644531 L 43.867188 20.589844 L 43.863281 20.5625 L 43.863281 16.890625 L 43.867188 16.863281 L 43.875 16.835938 L 43.882812 16.8125 L 43.894531 16.785156 L 43.910156 16.761719 L 43.925781 16.742188 L 43.945312 16.71875 L 43.964844 16.699219 L 43.988281 16.683594 L 44.035156 16.660156 L 44.0625 16.648438 L 44.089844 16.640625 L 44.117188 16.636719 Z M 44.738281 16.636719 "/>
<path style=" stroke:none;fill-rule:evenodd;fill:rgb(45.098039%,45.098039%,87.058824%);fill-opacity:1;" d="M 42.898438 16.636719 L 42.925781 16.640625 L 42.953125 16.648438 L 42.976562 16.660156 L 43.003906 16.671875 L 43.027344 16.683594 L 43.050781 16.699219 L 43.070312 16.71875 L 43.089844 16.742188 L 43.105469 16.761719 L 43.121094 16.785156 L 43.132812 16.8125 L 43.140625 16.835938 L 43.148438 16.863281 L 43.152344 16.890625 L 43.152344 20.5625 L 43.148438 20.589844 L 43.132812 20.644531 L 43.121094 20.667969 L 43.089844 20.714844 L 43.050781 20.753906 L 43.003906 20.785156 L 42.976562 20.796875 L 42.953125 20.804688 L 42.925781 20.8125 L 42.898438 20.816406 L 42.273438 20.816406 L 42.246094 20.8125 L 42.21875 20.804688 L 42.195312 20.796875 L 42.167969 20.785156 L 42.144531 20.769531 L 42.125 20.753906 L 42.101562 20.734375 L 42.082031 20.714844 L 42.066406 20.691406 L 42.042969 20.644531 L 42.03125 20.617188 L 42.023438 20.589844 L 42.019531 20.5625 L 42.019531 16.890625 L 42.023438 16.863281 L 42.03125 16.835938 L 42.042969 16.8125 L 42.054688 16.785156 L 42.066406 16.761719 L 42.082031 16.742188 L 42.101562 16.71875 L 42.125 16.699219 L 42.144531 16.683594 L 42.167969 16.671875 L 42.195312 16.660156 L 42.21875 16.648438 L 42.246094 16.640625 L 42.273438 16.636719 Z M 42.898438 16.636719 "/>
<path style=" stroke:none;fill-rule:evenodd;fill:rgb(45.098039%,45.098039%,87.058824%);fill-opacity:1;" d="M 41.054688 16.636719 L 41.082031 16.640625 L 41.109375 16.648438 L 41.136719 16.660156 L 41.183594 16.683594 L 41.207031 16.699219 L 41.226562 16.71875 L 41.246094 16.742188 L 41.261719 16.761719 L 41.277344 16.785156 L 41.289062 16.8125 L 41.296875 16.835938 L 41.304688 16.863281 L 41.308594 16.890625 L 41.3125 16.921875 L 41.3125 20.535156 L 41.304688 20.589844 L 41.289062 20.644531 L 41.277344 20.667969 L 41.246094 20.714844 L 41.207031 20.753906 L 41.160156 20.785156 L 41.136719 20.796875 L 41.082031 20.8125 L 41.054688 20.816406 L 40.433594 20.816406 L 40.40625 20.8125 L 40.351562 20.796875 L 40.328125 20.785156 L 40.28125 20.753906 L 40.242188 20.714844 L 40.210938 20.667969 L 40.199219 20.644531 L 40.1875 20.617188 L 40.175781 20.535156 L 40.175781 16.921875 L 40.179688 16.890625 L 40.1875 16.835938 L 40.199219 16.8125 L 40.210938 16.785156 L 40.226562 16.761719 L 40.242188 16.742188 L 40.261719 16.71875 L 40.28125 16.699219 L 40.304688 16.683594 L 40.351562 16.660156 L 40.378906 16.648438 L 40.40625 16.640625 L 40.433594 16.636719 Z M 41.054688 16.636719 "/>
<path style=" stroke:none;fill-rule:evenodd;fill:rgb(45.098039%,45.098039%,87.058824%);fill-opacity:1;" d="M 39.210938 16.636719 L 39.238281 16.640625 L 39.265625 16.648438 L 39.320312 16.671875 L 39.34375 16.683594 L 39.363281 16.699219 L 39.386719 16.71875 L 39.402344 16.742188 L 39.421875 16.761719 L 39.433594 16.785156 L 39.445312 16.8125 L 39.457031 16.835938 L 39.460938 16.863281 L 39.46875 16.890625 L 39.46875 20.5625 L 39.460938 20.589844 L 39.457031 20.617188 L 39.445312 20.644531 L 39.421875 20.691406 L 39.402344 20.714844 L 39.386719 20.734375 L 39.363281 20.753906 L 39.34375 20.769531 L 39.320312 20.785156 L 39.292969 20.796875 L 39.238281 20.8125 L 39.210938 20.816406 L 38.589844 20.816406 L 38.5625 20.8125 L 38.507812 20.796875 L 38.484375 20.785156 L 38.4375 20.753906 L 38.398438 20.714844 L 38.367188 20.667969 L 38.355469 20.644531 L 38.339844 20.589844 L 38.335938 20.5625 L 38.335938 16.890625 L 38.339844 16.863281 L 38.347656 16.835938 L 38.355469 16.8125 L 38.367188 16.785156 L 38.382812 16.761719 L 38.398438 16.742188 L 38.417969 16.71875 L 38.4375 16.699219 L 38.460938 16.683594 L 38.507812 16.660156 L 38.535156 16.648438 L 38.5625 16.640625 L 38.589844 16.636719 Z M 39.210938 16.636719 "/>
<path style=" stroke:none;fill-rule:evenodd;fill:rgb(45.098039%,45.098039%,87.058824%);fill-opacity:1;" d="M 37.371094 16.636719 L 37.398438 16.640625 L 37.425781 16.648438 L 37.449219 16.660156 L 37.476562 16.671875 L 37.5 16.683594 L 37.523438 16.699219 L 37.542969 16.71875 L 37.5625 16.742188 L 37.578125 16.761719 L 37.59375 16.785156 L 37.605469 16.8125 L 37.613281 16.835938 L 37.621094 16.863281 L 37.625 16.890625 L 37.625 20.5625 L 37.621094 20.589844 L 37.605469 20.644531 L 37.59375 20.667969 L 37.5625 20.714844 L 37.523438 20.753906 L 37.476562 20.785156 L 37.449219 20.796875 L 37.425781 20.804688 L 37.398438 20.8125 L 37.371094 20.816406 L 36.746094 20.816406 L 36.71875 20.8125 L 36.691406 20.804688 L 36.667969 20.796875 L 36.640625 20.785156 L 36.59375 20.753906 L 36.554688 20.714844 L 36.539062 20.691406 L 36.527344 20.667969 L 36.511719 20.644531 L 36.496094 20.589844 L 36.492188 20.5625 L 36.492188 16.890625 L 36.496094 16.863281 L 36.503906 16.835938 L 36.511719 16.8125 L 36.527344 16.785156 L 36.539062 16.761719 L 36.554688 16.742188 L 36.574219 16.71875 L 36.59375 16.699219 L 36.617188 16.683594 L 36.640625 16.671875 L 36.667969 16.660156 L 36.691406 16.648438 L 36.71875 16.640625 L 36.746094 16.636719 Z M 37.371094 16.636719 "/>
<path style=" stroke:none;fill-rule:evenodd;fill:rgb(45.098039%,45.098039%,87.058824%);fill-opacity:1;" d="M 35.527344 16.636719 L 35.554688 16.640625 L 35.582031 16.648438 L 35.609375 16.660156 L 35.65625 16.683594 L 35.679688 16.699219 L 35.699219 16.71875 L 35.71875 16.742188 L 35.734375 16.761719 L 35.75 16.785156 L 35.761719 16.8125 L 35.769531 16.835938 L 35.777344 16.863281 L 35.78125 16.890625 L 35.785156 16.921875 L 35.785156 20.535156 L 35.777344 20.589844 L 35.761719 20.644531 L 35.75 20.667969 L 35.71875 20.714844 L 35.679688 20.753906 L 35.632812 20.785156 L 35.609375 20.796875 L 35.554688 20.8125 L 35.527344 20.816406 L 34.90625 20.816406 L 34.878906 20.8125 L 34.824219 20.796875 L 34.800781 20.785156 L 34.753906 20.753906 L 34.714844 20.714844 L 34.695312 20.691406 L 34.671875 20.644531 L 34.660156 20.617188 L 34.648438 20.535156 L 34.648438 16.921875 L 34.652344 16.890625 L 34.660156 16.835938 L 34.671875 16.8125 L 34.683594 16.785156 L 34.695312 16.761719 L 34.714844 16.742188 L 34.734375 16.71875 L 34.753906 16.699219 L 34.777344 16.683594 L 34.824219 16.660156 L 34.851562 16.648438 L 34.878906 16.640625 L 34.90625 16.636719 Z M 35.527344 16.636719 "/>
<path style=" stroke:none;fill-rule:evenodd;fill:rgb(45.098039%,45.098039%,87.058824%);fill-opacity:1;" d="M 33.683594 16.636719 L 33.710938 16.640625 L 33.738281 16.648438 L 33.765625 16.660156 L 33.789062 16.671875 L 33.816406 16.683594 L 33.835938 16.699219 L 33.859375 16.71875 L 33.875 16.742188 L 33.894531 16.761719 L 33.90625 16.785156 L 33.917969 16.8125 L 33.929688 16.835938 L 33.9375 16.890625 L 33.941406 16.921875 L 33.941406 20.535156 L 33.929688 20.617188 L 33.917969 20.644531 L 33.894531 20.691406 L 33.875 20.714844 L 33.859375 20.734375 L 33.835938 20.753906 L 33.816406 20.769531 L 33.789062 20.785156 L 33.765625 20.796875 L 33.710938 20.8125 L 33.683594 20.816406 L 33.0625 20.816406 L 33.035156 20.8125 L 32.980469 20.796875 L 32.957031 20.785156 L 32.910156 20.753906 L 32.871094 20.714844 L 32.839844 20.667969 L 32.828125 20.644531 L 32.8125 20.589844 L 32.808594 20.5625 L 32.808594 16.890625 L 32.8125 16.863281 L 32.820312 16.835938 L 32.828125 16.8125 L 32.839844 16.785156 L 32.855469 16.761719 L 32.871094 16.742188 L 32.890625 16.71875 L 32.910156 16.699219 L 32.933594 16.683594 L 32.980469 16.660156 L 33.007812 16.648438 L 33.035156 16.640625 L 33.0625 16.636719 Z M 33.683594 16.636719 "/>
<path style=" stroke:none;fill-rule:evenodd;fill:rgb(45.098039%,45.098039%,87.058824%);fill-opacity:1;" d="M 31.84375 16.636719 L 31.871094 16.640625 L 31.898438 16.648438 L 31.921875 16.660156 L 31.949219 16.671875 L 31.972656 16.683594 L 31.996094 16.699219 L 32.015625 16.71875 L 32.035156 16.742188 L 32.050781 16.761719 L 32.066406 16.785156 L 32.078125 16.8125 L 32.085938 16.835938 L 32.09375 16.863281 L 32.097656 16.890625 L 32.097656 20.5625 L 32.09375 20.589844 L 32.078125 20.644531 L 32.066406 20.667969 L 32.035156 20.714844 L 31.996094 20.753906 L 31.949219 20.785156 L 31.921875 20.796875 L 31.898438 20.804688 L 31.871094 20.8125 L 31.84375 20.816406 L 31.21875 20.816406 L 31.191406 20.8125 L 31.164062 20.804688 L 31.140625 20.796875 L 31.113281 20.785156 L 31.066406 20.753906 L 31.027344 20.714844 L 30.996094 20.667969 L 30.984375 20.644531 L 30.96875 20.589844 L 30.964844 20.5625 L 30.964844 16.890625 L 30.96875 16.863281 L 30.976562 16.835938 L 30.984375 16.8125 L 30.996094 16.785156 L 31.011719 16.761719 L 31.027344 16.742188 L 31.046875 16.71875 L 31.066406 16.699219 L 31.089844 16.683594 L 31.113281 16.671875 L 31.140625 16.660156 L 31.164062 16.648438 L 31.191406 16.640625 L 31.21875 16.636719 Z M 31.84375 16.636719 "/>
<path style=" stroke:none;fill-rule:evenodd;fill:rgb(45.098039%,45.098039%,87.058824%);fill-opacity:1;" d="M 125.441406 32.867188 L 125.46875 32.871094 L 125.523438 32.886719 L 125.546875 32.898438 L 125.574219 32.914062 L 125.59375 32.929688 L 125.632812 32.96875 L 125.652344 32.992188 L 125.675781 33.039062 L 125.6875 33.066406 L 125.699219 33.148438 L 125.699219 36.761719 L 125.6875 36.84375 L 125.675781 36.871094 L 125.664062 36.894531 L 125.652344 36.921875 L 125.632812 36.941406 L 125.613281 36.964844 L 125.59375 36.980469 L 125.574219 37 L 125.546875 37.011719 L 125.523438 37.023438 L 125.496094 37.035156 L 125.414062 37.046875 L 124.847656 37.046875 L 124.765625 37.035156 L 124.738281 37.023438 L 124.691406 37 L 124.667969 36.980469 L 124.648438 36.964844 L 124.628906 36.941406 L 124.613281 36.921875 L 124.597656 36.894531 L 124.585938 36.871094 L 124.570312 36.816406 L 124.5625 36.761719 L 124.5625 33.148438 L 124.570312 33.09375 L 124.585938 33.039062 L 124.597656 33.015625 L 124.628906 32.96875 L 124.667969 32.929688 L 124.714844 32.898438 L 124.738281 32.886719 L 124.792969 32.871094 L 124.847656 32.863281 L 125.414062 32.863281 Z M 125.441406 32.867188 "/>
<path style=" stroke:none;fill-rule:evenodd;fill:rgb(45.098039%,45.098039%,87.058824%);fill-opacity:1;" d="M 127.285156 32.867188 L 127.3125 32.871094 L 127.367188 32.886719 L 127.390625 32.898438 L 127.4375 32.929688 L 127.476562 32.96875 L 127.507812 33.015625 L 127.519531 33.039062 L 127.535156 33.09375 L 127.539062 33.121094 L 127.539062 36.789062 L 127.535156 36.816406 L 127.519531 36.871094 L 127.507812 36.894531 L 127.492188 36.921875 L 127.476562 36.941406 L 127.457031 36.964844 L 127.4375 36.980469 L 127.414062 37 L 127.367188 37.023438 L 127.339844 37.035156 L 127.257812 37.046875 L 126.691406 37.046875 L 126.609375 37.035156 L 126.582031 37.023438 L 126.558594 37.011719 L 126.53125 37 L 126.511719 36.980469 L 126.488281 36.964844 L 126.472656 36.941406 L 126.453125 36.921875 L 126.441406 36.894531 L 126.429688 36.871094 L 126.417969 36.84375 L 126.40625 36.761719 L 126.40625 33.148438 L 126.417969 33.066406 L 126.429688 33.039062 L 126.453125 32.992188 L 126.472656 32.96875 L 126.488281 32.949219 L 126.511719 32.929688 L 126.53125 32.914062 L 126.558594 32.898438 L 126.582031 32.886719 L 126.636719 32.871094 L 126.691406 32.863281 L 127.257812 32.863281 Z M 127.285156 32.867188 "/>
<path style=" stroke:none;fill-rule:evenodd;fill:rgb(45.098039%,45.098039%,87.058824%);fill-opacity:1;" d="M 129.128906 32.867188 L 129.15625 32.871094 L 129.183594 32.878906 L 129.207031 32.886719 L 129.234375 32.898438 L 129.28125 32.929688 L 129.320312 32.96875 L 129.351562 33.015625 L 129.363281 33.039062 L 129.378906 33.09375 L 129.382812 33.121094 L 129.382812 36.789062 L 129.378906 36.816406 L 129.363281 36.871094 L 129.351562 36.894531 L 129.335938 36.921875 L 129.320312 36.941406 L 129.300781 36.964844 L 129.28125 36.980469 L 129.257812 37 L 129.234375 37.011719 L 129.207031 37.023438 L 129.183594 37.035156 L 129.101562 37.046875 L 128.53125 37.046875 L 128.449219 37.035156 L 128.425781 37.023438 L 128.398438 37.011719 L 128.375 37 L 128.351562 36.980469 L 128.332031 36.964844 L 128.3125 36.941406 L 128.296875 36.921875 L 128.28125 36.894531 L 128.269531 36.871094 L 128.253906 36.816406 L 128.25 36.789062 L 128.25 33.121094 L 128.253906 33.09375 L 128.269531 33.039062 L 128.28125 33.015625 L 128.3125 32.96875 L 128.351562 32.929688 L 128.398438 32.898438 L 128.425781 32.886719 L 128.449219 32.878906 L 128.476562 32.871094 L 128.53125 32.863281 L 129.101562 32.863281 Z M 129.128906 32.867188 "/>
<path style=" stroke:none;fill-rule:evenodd;fill:rgb(45.098039%,45.098039%,87.058824%);fill-opacity:1;" d="M 130.96875 32.867188 L 130.996094 32.871094 L 131.050781 32.886719 L 131.074219 32.898438 L 131.101562 32.914062 L 131.121094 32.929688 L 131.144531 32.949219 L 131.160156 32.96875 L 131.179688 32.992188 L 131.203125 33.039062 L 131.214844 33.066406 L 131.226562 33.148438 L 131.226562 36.761719 L 131.214844 36.84375 L 131.203125 36.871094 L 131.191406 36.894531 L 131.179688 36.921875 L 131.160156 36.941406 L 131.144531 36.964844 L 131.121094 36.980469 L 131.101562 37 L 131.074219 37.011719 L 131.050781 37.023438 L 131.023438 37.035156 L 130.941406 37.046875 L 130.375 37.046875 L 130.292969 37.035156 L 130.265625 37.023438 L 130.21875 37 L 130.195312 36.980469 L 130.175781 36.964844 L 130.15625 36.941406 L 130.140625 36.921875 L 130.125 36.894531 L 130.113281 36.871094 L 130.097656 36.816406 L 130.09375 36.789062 L 130.09375 33.121094 L 130.097656 33.09375 L 130.113281 33.039062 L 130.125 33.015625 L 130.15625 32.96875 L 130.195312 32.929688 L 130.242188 32.898438 L 130.265625 32.886719 L 130.320312 32.871094 L 130.375 32.863281 L 130.941406 32.863281 Z M 130.96875 32.867188 "/>
<path style=" stroke:none;fill-rule:evenodd;fill:rgb(45.098039%,45.098039%,87.058824%);fill-opacity:1;" d="M 132.8125 32.867188 L 132.839844 32.871094 L 132.894531 32.886719 L 132.917969 32.898438 L 132.964844 32.929688 L 133.003906 32.96875 L 133.035156 33.015625 L 133.046875 33.039062 L 133.0625 33.09375 L 133.066406 33.121094 L 133.066406 36.789062 L 133.0625 36.816406 L 133.046875 36.871094 L 133.035156 36.894531 L 133.019531 36.921875 L 133.003906 36.941406 L 132.984375 36.964844 L 132.964844 36.980469 L 132.941406 37 L 132.894531 37.023438 L 132.867188 37.035156 L 132.785156 37.046875 L 132.21875 37.046875 L 132.136719 37.035156 L 132.109375 37.023438 L 132.085938 37.011719 L 132.058594 37 L 132.039062 36.980469 L 132.015625 36.964844 L 132 36.941406 L 131.980469 36.921875 L 131.96875 36.894531 L 131.957031 36.871094 L 131.945312 36.84375 L 131.933594 36.761719 L 131.933594 33.148438 L 131.945312 33.066406 L 131.957031 33.039062 L 131.980469 32.992188 L 132 32.96875 L 132.015625 32.949219 L 132.039062 32.929688 L 132.058594 32.914062 L 132.085938 32.898438 L 132.109375 32.886719 L 132.164062 32.871094 L 132.21875 32.863281 L 132.785156 32.863281 Z M 132.8125 32.867188 "/>
<path style=" stroke:none;fill-rule:evenodd;fill:rgb(45.098039%,45.098039%,87.058824%);fill-opacity:1;" d="M 134.65625 32.867188 L 134.683594 32.871094 L 134.710938 32.878906 L 134.734375 32.886719 L 134.761719 32.898438 L 134.808594 32.929688 L 134.847656 32.96875 L 134.878906 33.015625 L 134.890625 33.039062 L 134.90625 33.09375 L 134.910156 33.121094 L 134.910156 36.789062 L 134.90625 36.816406 L 134.890625 36.871094 L 134.878906 36.894531 L 134.863281 36.921875 L 134.847656 36.941406 L 134.828125 36.964844 L 134.808594 36.980469 L 134.785156 37 L 134.761719 37.011719 L 134.734375 37.023438 L 134.710938 37.035156 L 134.628906 37.046875 L 134.058594 37.046875 L 133.976562 37.035156 L 133.953125 37.023438 L 133.925781 37.011719 L 133.902344 37 L 133.878906 36.980469 L 133.859375 36.964844 L 133.839844 36.941406 L 133.824219 36.921875 L 133.808594 36.894531 L 133.796875 36.871094 L 133.78125 36.816406 L 133.777344 36.789062 L 133.777344 33.121094 L 133.78125 33.09375 L 133.796875 33.039062 L 133.808594 33.015625 L 133.839844 32.96875 L 133.878906 32.929688 L 133.925781 32.898438 L 133.953125 32.886719 L 133.976562 32.878906 L 134.003906 32.871094 L 134.058594 32.863281 L 134.628906 32.863281 Z M 134.65625 32.867188 "/>
<path style=" stroke:none;fill-rule:evenodd;fill:rgb(45.098039%,45.098039%,87.058824%);fill-opacity:1;" d="M 136.496094 32.867188 L 136.523438 32.871094 L 136.578125 32.886719 L 136.605469 32.898438 L 136.628906 32.914062 L 136.648438 32.929688 L 136.671875 32.949219 L 136.6875 32.96875 L 136.707031 32.992188 L 136.730469 33.039062 L 136.742188 33.066406 L 136.746094 33.09375 L 136.753906 33.121094 L 136.753906 36.789062 L 136.746094 36.816406 L 136.742188 36.84375 L 136.730469 36.871094 L 136.71875 36.894531 L 136.707031 36.921875 L 136.6875 36.941406 L 136.671875 36.964844 L 136.648438 36.980469 L 136.628906 37 L 136.605469 37.011719 L 136.550781 37.035156 L 136.46875 37.046875 L 135.902344 37.046875 L 135.820312 37.035156 L 135.792969 37.023438 L 135.746094 37 L 135.722656 36.980469 L 135.703125 36.964844 L 135.683594 36.941406 L 135.667969 36.921875 L 135.652344 36.894531 L 135.640625 36.871094 L 135.625 36.816406 L 135.621094 36.789062 L 135.621094 33.121094 L 135.625 33.09375 L 135.640625 33.039062 L 135.652344 33.015625 L 135.683594 32.96875 L 135.722656 32.929688 L 135.769531 32.898438 L 135.792969 32.886719 L 135.847656 32.871094 L 135.902344 32.863281 L 136.46875 32.863281 Z M 136.496094 32.867188 "/>
<path style=" stroke:none;fill-rule:evenodd;fill:rgb(45.098039%,45.098039%,87.058824%);fill-opacity:1;" d="M 138.339844 32.867188 L 138.367188 32.871094 L 138.421875 32.886719 L 138.445312 32.898438 L 138.492188 32.929688 L 138.53125 32.96875 L 138.5625 33.015625 L 138.574219 33.039062 L 138.589844 33.09375 L 138.597656 33.148438 L 138.597656 36.761719 L 138.589844 36.816406 L 138.574219 36.871094 L 138.5625 36.894531 L 138.546875 36.921875 L 138.53125 36.941406 L 138.511719 36.964844 L 138.492188 36.980469 L 138.46875 37 L 138.421875 37.023438 L 138.394531 37.035156 L 138.3125 37.046875 L 137.746094 37.046875 L 137.664062 37.035156 L 137.636719 37.023438 L 137.589844 37 L 137.566406 36.980469 L 137.546875 36.964844 L 137.527344 36.941406 L 137.511719 36.921875 L 137.496094 36.894531 L 137.484375 36.871094 L 137.472656 36.84375 L 137.460938 36.761719 L 137.460938 33.148438 L 137.472656 33.066406 L 137.484375 33.039062 L 137.496094 33.015625 L 137.527344 32.96875 L 137.566406 32.929688 L 137.613281 32.898438 L 137.636719 32.886719 L 137.691406 32.871094 L 137.746094 32.863281 L 138.3125 32.863281 Z M 138.339844 32.867188 "/>
<path style=" stroke:none;fill-rule:evenodd;fill:rgb(45.098039%,45.098039%,87.058824%);fill-opacity:1;" d="M 140.183594 32.867188 L 140.210938 32.871094 L 140.238281 32.878906 L 140.261719 32.886719 L 140.289062 32.898438 L 140.335938 32.929688 L 140.375 32.96875 L 140.40625 33.015625 L 140.417969 33.039062 L 140.433594 33.09375 L 140.4375 33.121094 L 140.4375 36.789062 L 140.433594 36.816406 L 140.417969 36.871094 L 140.40625 36.894531 L 140.390625 36.921875 L 140.375 36.941406 L 140.355469 36.964844 L 140.335938 36.980469 L 140.3125 37 L 140.289062 37.011719 L 140.261719 37.023438 L 140.238281 37.035156 L 140.15625 37.046875 L 139.589844 37.046875 L 139.558594 37.042969 L 139.503906 37.035156 L 139.480469 37.023438 L 139.453125 37.011719 L 139.429688 37 L 139.40625 36.980469 L 139.386719 36.964844 L 139.367188 36.941406 L 139.351562 36.921875 L 139.339844 36.894531 L 139.324219 36.871094 L 139.308594 36.816406 L 139.304688 36.789062 L 139.304688 33.121094 L 139.308594 33.09375 L 139.324219 33.039062 L 139.339844 33.015625 L 139.351562 32.992188 L 139.367188 32.96875 L 139.40625 32.929688 L 139.453125 32.898438 L 139.480469 32.886719 L 139.503906 32.878906 L 139.53125 32.871094 L 139.558594 32.867188 L 139.589844 32.863281 L 140.15625 32.863281 Z M 140.183594 32.867188 "/>
<path style=" stroke:none;fill-rule:evenodd;fill:rgb(45.098039%,45.098039%,87.058824%);fill-opacity:1;" d="M 142.023438 32.867188 L 142.054688 32.871094 L 142.078125 32.878906 L 142.105469 32.886719 L 142.132812 32.898438 L 142.15625 32.914062 L 142.175781 32.929688 L 142.199219 32.949219 L 142.214844 32.96875 L 142.234375 32.992188 L 142.257812 33.039062 L 142.269531 33.066406 L 142.277344 33.09375 L 142.28125 33.121094 L 142.28125 36.789062 L 142.277344 36.816406 L 142.269531 36.84375 L 142.257812 36.871094 L 142.246094 36.894531 L 142.234375 36.921875 L 142.214844 36.941406 L 142.199219 36.964844 L 142.175781 36.980469 L 142.15625 37 L 142.132812 37.011719 L 142.078125 37.035156 L 142.054688 37.039062 L 142.023438 37.042969 L 141.996094 37.046875 L 141.429688 37.046875 L 141.347656 37.035156 L 141.320312 37.023438 L 141.273438 37 L 141.25 36.980469 L 141.230469 36.964844 L 141.210938 36.941406 L 141.195312 36.921875 L 141.179688 36.894531 L 141.167969 36.871094 L 141.152344 36.816406 L 141.148438 36.789062 L 141.148438 33.121094 L 141.152344 33.09375 L 141.167969 33.039062 L 141.179688 33.015625 L 141.210938 32.96875 L 141.25 32.929688 L 141.296875 32.898438 L 141.320312 32.886719 L 141.375 32.871094 L 141.429688 32.863281 L 141.996094 32.863281 Z M 142.023438 32.867188 "/>
<path style=" stroke:none;fill-rule:evenodd;fill:rgb(45.098039%,45.098039%,87.058824%);fill-opacity:1;" d="M 142.023438 16.636719 L 142.054688 16.640625 L 142.078125 16.648438 L 142.132812 16.671875 L 142.15625 16.683594 L 142.175781 16.699219 L 142.199219 16.71875 L 142.214844 16.742188 L 142.234375 16.761719 L 142.246094 16.785156 L 142.257812 16.8125 L 142.269531 16.835938 L 142.277344 16.863281 L 142.28125 16.890625 L 142.28125 20.5625 L 142.277344 20.589844 L 142.269531 20.617188 L 142.257812 20.644531 L 142.234375 20.691406 L 142.214844 20.714844 L 142.199219 20.734375 L 142.175781 20.753906 L 142.15625 20.769531 L 142.132812 20.785156 L 142.105469 20.796875 L 142.078125 20.804688 L 142.054688 20.8125 L 142.023438 20.816406 L 141.402344 20.816406 L 141.375 20.8125 L 141.320312 20.796875 L 141.296875 20.785156 L 141.25 20.753906 L 141.210938 20.714844 L 141.179688 20.667969 L 141.167969 20.644531 L 141.152344 20.589844 L 141.148438 20.5625 L 141.148438 16.890625 L 141.152344 16.863281 L 141.160156 16.835938 L 141.167969 16.8125 L 141.179688 16.785156 L 141.195312 16.761719 L 141.210938 16.742188 L 141.230469 16.71875 L 141.25 16.699219 L 141.273438 16.683594 L 141.320312 16.660156 L 141.347656 16.648438 L 141.375 16.640625 L 141.402344 16.636719 Z M 142.023438 16.636719 "/>
<path style=" stroke:none;fill-rule:evenodd;fill:rgb(45.098039%,45.098039%,87.058824%);fill-opacity:1;" d="M 140.183594 16.636719 L 140.210938 16.640625 L 140.238281 16.648438 L 140.261719 16.660156 L 140.289062 16.671875 L 140.3125 16.683594 L 140.335938 16.699219 L 140.355469 16.71875 L 140.375 16.742188 L 140.390625 16.761719 L 140.40625 16.785156 L 140.417969 16.8125 L 140.425781 16.835938 L 140.433594 16.863281 L 140.4375 16.890625 L 140.4375 20.5625 L 140.433594 20.589844 L 140.417969 20.644531 L 140.40625 20.667969 L 140.375 20.714844 L 140.335938 20.753906 L 140.289062 20.785156 L 140.261719 20.796875 L 140.238281 20.804688 L 140.210938 20.8125 L 140.183594 20.816406 L 139.558594 20.816406 L 139.53125 20.8125 L 139.503906 20.804688 L 139.480469 20.796875 L 139.453125 20.785156 L 139.40625 20.753906 L 139.367188 20.714844 L 139.351562 20.691406 L 139.339844 20.667969 L 139.324219 20.644531 L 139.308594 20.589844 L 139.304688 20.5625 L 139.304688 16.890625 L 139.308594 16.863281 L 139.316406 16.835938 L 139.324219 16.8125 L 139.339844 16.785156 L 139.351562 16.761719 L 139.367188 16.742188 L 139.386719 16.71875 L 139.40625 16.699219 L 139.429688 16.683594 L 139.453125 16.671875 L 139.480469 16.660156 L 139.503906 16.648438 L 139.53125 16.640625 L 139.558594 16.636719 Z M 140.183594 16.636719 "/>
<path style=" stroke:none;fill-rule:evenodd;fill:rgb(45.098039%,45.098039%,87.058824%);fill-opacity:1;" d="M 138.339844 16.636719 L 138.367188 16.640625 L 138.394531 16.648438 L 138.421875 16.660156 L 138.46875 16.683594 L 138.492188 16.699219 L 138.511719 16.71875 L 138.53125 16.742188 L 138.546875 16.761719 L 138.5625 16.785156 L 138.574219 16.8125 L 138.582031 16.835938 L 138.589844 16.863281 L 138.59375 16.890625 L 138.597656 16.921875 L 138.597656 20.535156 L 138.589844 20.589844 L 138.574219 20.644531 L 138.5625 20.667969 L 138.53125 20.714844 L 138.492188 20.753906 L 138.445312 20.785156 L 138.421875 20.796875 L 138.367188 20.8125 L 138.339844 20.816406 L 137.71875 20.816406 L 137.691406 20.8125 L 137.636719 20.796875 L 137.613281 20.785156 L 137.566406 20.753906 L 137.527344 20.714844 L 137.496094 20.667969 L 137.484375 20.644531 L 137.472656 20.617188 L 137.460938 20.535156 L 137.460938 16.921875 L 137.464844 16.890625 L 137.472656 16.835938 L 137.484375 16.8125 L 137.496094 16.785156 L 137.511719 16.761719 L 137.527344 16.742188 L 137.546875 16.71875 L 137.566406 16.699219 L 137.589844 16.683594 L 137.636719 16.660156 L 137.664062 16.648438 L 137.691406 16.640625 L 137.71875 16.636719 Z M 138.339844 16.636719 "/>
<path style=" stroke:none;fill-rule:evenodd;fill:rgb(45.098039%,45.098039%,87.058824%);fill-opacity:1;" d="M 136.496094 16.636719 L 136.523438 16.640625 L 136.550781 16.648438 L 136.605469 16.671875 L 136.628906 16.683594 L 136.648438 16.699219 L 136.671875 16.71875 L 136.6875 16.742188 L 136.707031 16.761719 L 136.71875 16.785156 L 136.730469 16.8125 L 136.742188 16.835938 L 136.746094 16.863281 L 136.753906 16.890625 L 136.753906 20.5625 L 136.746094 20.589844 L 136.742188 20.617188 L 136.730469 20.644531 L 136.707031 20.691406 L 136.6875 20.714844 L 136.671875 20.734375 L 136.648438 20.753906 L 136.628906 20.769531 L 136.605469 20.785156 L 136.578125 20.796875 L 136.523438 20.8125 L 136.496094 20.816406 L 135.875 20.816406 L 135.847656 20.8125 L 135.792969 20.796875 L 135.769531 20.785156 L 135.722656 20.753906 L 135.683594 20.714844 L 135.652344 20.667969 L 135.640625 20.644531 L 135.625 20.589844 L 135.621094 20.5625 L 135.621094 16.890625 L 135.625 16.863281 L 135.632812 16.835938 L 135.640625 16.8125 L 135.652344 16.785156 L 135.667969 16.761719 L 135.683594 16.742188 L 135.703125 16.71875 L 135.722656 16.699219 L 135.746094 16.683594 L 135.792969 16.660156 L 135.820312 16.648438 L 135.847656 16.640625 L 135.875 16.636719 Z M 136.496094 16.636719 "/>
<path style=" stroke:none;fill-rule:evenodd;fill:rgb(45.098039%,45.098039%,87.058824%);fill-opacity:1;" d="M 134.65625 16.636719 L 134.683594 16.640625 L 134.710938 16.648438 L 134.734375 16.660156 L 134.761719 16.671875 L 134.785156 16.683594 L 134.808594 16.699219 L 134.828125 16.71875 L 134.847656 16.742188 L 134.863281 16.761719 L 134.878906 16.785156 L 134.890625 16.8125 L 134.898438 16.835938 L 134.90625 16.863281 L 134.910156 16.890625 L 134.910156 20.5625 L 134.90625 20.589844 L 134.890625 20.644531 L 134.878906 20.667969 L 134.847656 20.714844 L 134.808594 20.753906 L 134.761719 20.785156 L 134.734375 20.796875 L 134.710938 20.804688 L 134.683594 20.8125 L 134.65625 20.816406 L 134.03125 20.816406 L 134.003906 20.8125 L 133.976562 20.804688 L 133.953125 20.796875 L 133.925781 20.785156 L 133.878906 20.753906 L 133.839844 20.714844 L 133.808594 20.667969 L 133.796875 20.644531 L 133.78125 20.589844 L 133.777344 20.5625 L 133.777344 16.890625 L 133.78125 16.863281 L 133.789062 16.835938 L 133.796875 16.8125 L 133.808594 16.785156 L 133.824219 16.761719 L 133.839844 16.742188 L 133.859375 16.71875 L 133.878906 16.699219 L 133.902344 16.683594 L 133.925781 16.671875 L 133.953125 16.660156 L 133.976562 16.648438 L 134.003906 16.640625 L 134.03125 16.636719 Z M 134.65625 16.636719 "/>
<path style=" stroke:none;fill-rule:evenodd;fill:rgb(45.098039%,45.098039%,87.058824%);fill-opacity:1;" d="M 132.8125 16.636719 L 132.839844 16.640625 L 132.867188 16.648438 L 132.894531 16.660156 L 132.941406 16.683594 L 132.964844 16.699219 L 132.984375 16.71875 L 133.003906 16.742188 L 133.019531 16.761719 L 133.035156 16.785156 L 133.046875 16.8125 L 133.054688 16.835938 L 133.0625 16.863281 L 133.066406 16.890625 L 133.066406 20.5625 L 133.0625 20.589844 L 133.046875 20.644531 L 133.035156 20.667969 L 133.003906 20.714844 L 132.964844 20.753906 L 132.917969 20.785156 L 132.894531 20.796875 L 132.839844 20.8125 L 132.8125 20.816406 L 132.191406 20.816406 L 132.164062 20.8125 L 132.109375 20.796875 L 132.085938 20.785156 L 132.058594 20.769531 L 132.039062 20.753906 L 132.015625 20.734375 L 132 20.714844 L 131.980469 20.691406 L 131.957031 20.644531 L 131.945312 20.617188 L 131.933594 20.535156 L 131.933594 16.921875 L 131.9375 16.890625 L 131.945312 16.835938 L 131.957031 16.8125 L 131.96875 16.785156 L 131.980469 16.761719 L 132 16.742188 L 132.015625 16.71875 L 132.039062 16.699219 L 132.058594 16.683594 L 132.085938 16.671875 L 132.109375 16.660156 L 132.136719 16.648438 L 132.164062 16.640625 L 132.191406 16.636719 Z M 132.8125 16.636719 "/>
<path style=" stroke:none;fill-rule:evenodd;fill:rgb(45.098039%,45.098039%,87.058824%);fill-opacity:1;" d="M 130.96875 16.636719 L 130.996094 16.640625 L 131.023438 16.648438 L 131.050781 16.660156 L 131.074219 16.671875 L 131.101562 16.683594 L 131.121094 16.699219 L 131.144531 16.71875 L 131.160156 16.742188 L 131.179688 16.761719 L 131.191406 16.785156 L 131.203125 16.8125 L 131.214844 16.835938 L 131.222656 16.890625 L 131.226562 16.921875 L 131.226562 20.535156 L 131.214844 20.617188 L 131.203125 20.644531 L 131.179688 20.691406 L 131.160156 20.714844 L 131.144531 20.734375 L 131.121094 20.753906 L 131.101562 20.769531 L 131.074219 20.785156 L 131.050781 20.796875 L 130.996094 20.8125 L 130.96875 20.816406 L 130.347656 20.816406 L 130.320312 20.8125 L 130.265625 20.796875 L 130.242188 20.785156 L 130.195312 20.753906 L 130.15625 20.714844 L 130.125 20.667969 L 130.113281 20.644531 L 130.097656 20.589844 L 130.09375 20.5625 L 130.09375 16.890625 L 130.097656 16.863281 L 130.105469 16.835938 L 130.113281 16.8125 L 130.125 16.785156 L 130.140625 16.761719 L 130.15625 16.742188 L 130.175781 16.71875 L 130.195312 16.699219 L 130.21875 16.683594 L 130.265625 16.660156 L 130.292969 16.648438 L 130.320312 16.640625 L 130.347656 16.636719 Z M 130.96875 16.636719 "/>
<path style=" stroke:none;fill-rule:evenodd;fill:rgb(45.098039%,45.098039%,87.058824%);fill-opacity:1;" d="M 129.128906 16.636719 L 129.15625 16.640625 L 129.183594 16.648438 L 129.207031 16.660156 L 129.234375 16.671875 L 129.257812 16.683594 L 129.28125 16.699219 L 129.300781 16.71875 L 129.320312 16.742188 L 129.335938 16.761719 L 129.351562 16.785156 L 129.363281 16.8125 L 129.371094 16.835938 L 129.378906 16.863281 L 129.382812 16.890625 L 129.382812 20.5625 L 129.378906 20.589844 L 129.363281 20.644531 L 129.351562 20.667969 L 129.320312 20.714844 L 129.28125 20.753906 L 129.234375 20.785156 L 129.207031 20.796875 L 129.183594 20.804688 L 129.15625 20.8125 L 129.128906 20.816406 L 128.503906 20.816406 L 128.476562 20.8125 L 128.449219 20.804688 L 128.425781 20.796875 L 128.398438 20.785156 L 128.351562 20.753906 L 128.3125 20.714844 L 128.28125 20.667969 L 128.269531 20.644531 L 128.253906 20.589844 L 128.25 20.5625 L 128.25 16.890625 L 128.253906 16.863281 L 128.261719 16.835938 L 128.269531 16.8125 L 128.28125 16.785156 L 128.296875 16.761719 L 128.3125 16.742188 L 128.332031 16.71875 L 128.351562 16.699219 L 128.375 16.683594 L 128.398438 16.671875 L 128.425781 16.660156 L 128.449219 16.648438 L 128.476562 16.640625 L 128.503906 16.636719 Z M 129.128906 16.636719 "/>
<path style=" stroke:none;fill-rule:evenodd;fill:rgb(45.098039%,45.098039%,87.058824%);fill-opacity:1;" d="M 127.285156 16.636719 L 127.3125 16.640625 L 127.339844 16.648438 L 127.367188 16.660156 L 127.414062 16.683594 L 127.4375 16.699219 L 127.457031 16.71875 L 127.476562 16.742188 L 127.492188 16.761719 L 127.507812 16.785156 L 127.519531 16.8125 L 127.527344 16.835938 L 127.535156 16.863281 L 127.539062 16.890625 L 127.539062 20.5625 L 127.535156 20.589844 L 127.519531 20.644531 L 127.507812 20.667969 L 127.476562 20.714844 L 127.4375 20.753906 L 127.390625 20.785156 L 127.367188 20.796875 L 127.3125 20.8125 L 127.285156 20.816406 L 126.664062 20.816406 L 126.636719 20.8125 L 126.582031 20.796875 L 126.558594 20.785156 L 126.53125 20.769531 L 126.511719 20.753906 L 126.488281 20.734375 L 126.472656 20.714844 L 126.453125 20.691406 L 126.429688 20.644531 L 126.417969 20.617188 L 126.40625 20.535156 L 126.40625 16.921875 L 126.410156 16.890625 L 126.417969 16.835938 L 126.429688 16.8125 L 126.441406 16.785156 L 126.453125 16.761719 L 126.472656 16.742188 L 126.488281 16.71875 L 126.511719 16.699219 L 126.53125 16.683594 L 126.558594 16.671875 L 126.582031 16.660156 L 126.609375 16.648438 L 126.636719 16.640625 L 126.664062 16.636719 Z M 127.285156 16.636719 "/>
<path style=" stroke:none;fill-rule:evenodd;fill:rgb(45.098039%,45.098039%,87.058824%);fill-opacity:1;" d="M 125.441406 16.636719 L 125.46875 16.640625 L 125.496094 16.648438 L 125.523438 16.660156 L 125.546875 16.671875 L 125.574219 16.683594 L 125.59375 16.699219 L 125.613281 16.71875 L 125.632812 16.742188 L 125.652344 16.761719 L 125.664062 16.785156 L 125.675781 16.8125 L 125.6875 16.835938 L 125.695312 16.890625 L 125.699219 16.921875 L 125.699219 20.535156 L 125.6875 20.617188 L 125.675781 20.644531 L 125.652344 20.691406 L 125.632812 20.714844 L 125.59375 20.753906 L 125.574219 20.769531 L 125.546875 20.785156 L 125.523438 20.796875 L 125.46875 20.8125 L 125.441406 20.816406 L 124.820312 20.816406 L 124.792969 20.8125 L 124.738281 20.796875 L 124.714844 20.785156 L 124.667969 20.753906 L 124.628906 20.714844 L 124.597656 20.667969 L 124.585938 20.644531 L 124.570312 20.589844 L 124.5625 20.535156 L 124.5625 16.921875 L 124.566406 16.890625 L 124.570312 16.863281 L 124.578125 16.835938 L 124.585938 16.8125 L 124.597656 16.785156 L 124.613281 16.761719 L 124.628906 16.742188 L 124.648438 16.71875 L 124.667969 16.699219 L 124.691406 16.683594 L 124.738281 16.660156 L 124.765625 16.648438 L 124.792969 16.640625 L 124.820312 16.636719 Z M 125.441406 16.636719 "/>
<path style=" stroke:none;fill-rule:evenodd;fill:rgb(45.098039%,45.098039%,87.058824%);fill-opacity:1;" d="M 96.640625 32.867188 L 96.671875 32.871094 L 96.695312 32.878906 L 96.722656 32.886719 L 96.75 32.898438 L 96.773438 32.914062 L 96.792969 32.929688 L 96.816406 32.949219 L 96.832031 32.96875 L 96.851562 32.992188 L 96.875 33.039062 L 96.886719 33.066406 L 96.894531 33.09375 L 96.898438 33.121094 L 96.898438 36.789062 L 96.894531 36.816406 L 96.886719 36.84375 L 96.875 36.871094 L 96.863281 36.894531 L 96.851562 36.921875 L 96.832031 36.941406 L 96.816406 36.964844 L 96.792969 36.980469 L 96.773438 37 L 96.75 37.011719 L 96.695312 37.035156 L 96.671875 37.039062 L 96.640625 37.042969 L 96.613281 37.046875 L 96.046875 37.046875 L 95.964844 37.035156 L 95.9375 37.023438 L 95.890625 37 L 95.867188 36.980469 L 95.847656 36.964844 L 95.828125 36.941406 L 95.8125 36.921875 L 95.796875 36.894531 L 95.785156 36.871094 L 95.769531 36.816406 L 95.765625 36.789062 L 95.765625 33.121094 L 95.769531 33.09375 L 95.785156 33.039062 L 95.796875 33.015625 L 95.828125 32.96875 L 95.867188 32.929688 L 95.914062 32.898438 L 95.9375 32.886719 L 95.992188 32.871094 L 96.046875 32.863281 L 96.613281 32.863281 Z M 96.640625 32.867188 "/>
<path style=" stroke:none;fill-rule:evenodd;fill:rgb(45.098039%,45.098039%,87.058824%);fill-opacity:1;" d="M 98.484375 32.867188 L 98.511719 32.871094 L 98.566406 32.886719 L 98.589844 32.898438 L 98.636719 32.929688 L 98.675781 32.96875 L 98.707031 33.015625 L 98.71875 33.039062 L 98.730469 33.066406 L 98.742188 33.148438 L 98.742188 36.761719 L 98.730469 36.84375 L 98.71875 36.871094 L 98.707031 36.894531 L 98.691406 36.921875 L 98.675781 36.941406 L 98.65625 36.964844 L 98.636719 36.980469 L 98.613281 37 L 98.566406 37.023438 L 98.539062 37.035156 L 98.457031 37.046875 L 97.890625 37.046875 L 97.808594 37.035156 L 97.78125 37.023438 L 97.734375 37 L 97.710938 36.980469 L 97.691406 36.964844 L 97.671875 36.941406 L 97.65625 36.921875 L 97.640625 36.894531 L 97.628906 36.871094 L 97.617188 36.84375 L 97.605469 36.761719 L 97.605469 33.148438 L 97.617188 33.066406 L 97.628906 33.039062 L 97.640625 33.015625 L 97.671875 32.96875 L 97.710938 32.929688 L 97.757812 32.898438 L 97.78125 32.886719 L 97.835938 32.871094 L 97.890625 32.863281 L 98.457031 32.863281 Z M 98.484375 32.867188 "/>
<path style=" stroke:none;fill-rule:evenodd;fill:rgb(45.098039%,45.098039%,87.058824%);fill-opacity:1;" d="M 100.328125 32.867188 L 100.355469 32.871094 L 100.410156 32.886719 L 100.433594 32.898438 L 100.480469 32.929688 L 100.519531 32.96875 L 100.550781 33.015625 L 100.5625 33.039062 L 100.578125 33.09375 L 100.582031 33.121094 L 100.582031 36.789062 L 100.578125 36.816406 L 100.5625 36.871094 L 100.550781 36.894531 L 100.535156 36.921875 L 100.519531 36.941406 L 100.5 36.964844 L 100.480469 36.980469 L 100.457031 37 L 100.410156 37.023438 L 100.382812 37.035156 L 100.300781 37.046875 L 99.734375 37.046875 L 99.707031 37.042969 L 99.675781 37.039062 L 99.652344 37.035156 L 99.597656 37.011719 L 99.574219 37 L 99.554688 36.980469 L 99.53125 36.964844 L 99.515625 36.941406 L 99.496094 36.921875 L 99.484375 36.894531 L 99.472656 36.871094 L 99.460938 36.84375 L 99.453125 36.816406 L 99.449219 36.789062 L 99.449219 33.121094 L 99.453125 33.09375 L 99.460938 33.066406 L 99.472656 33.039062 L 99.496094 32.992188 L 99.515625 32.96875 L 99.53125 32.949219 L 99.554688 32.929688 L 99.574219 32.914062 L 99.597656 32.898438 L 99.625 32.886719 L 99.652344 32.878906 L 99.675781 32.871094 L 99.707031 32.867188 L 99.734375 32.863281 L 100.300781 32.863281 Z M 100.328125 32.867188 "/>
<path style=" stroke:none;fill-rule:evenodd;fill:rgb(45.098039%,45.098039%,87.058824%);fill-opacity:1;" d="M 102.171875 32.867188 L 102.199219 32.871094 L 102.226562 32.878906 L 102.25 32.886719 L 102.277344 32.898438 L 102.300781 32.914062 L 102.320312 32.929688 L 102.34375 32.949219 L 102.363281 32.96875 L 102.378906 32.992188 L 102.402344 33.039062 L 102.414062 33.066406 L 102.421875 33.09375 L 102.425781 33.121094 L 102.425781 36.789062 L 102.421875 36.816406 L 102.414062 36.84375 L 102.402344 36.871094 L 102.390625 36.894531 L 102.378906 36.921875 L 102.363281 36.941406 L 102.34375 36.964844 L 102.320312 36.980469 L 102.300781 37 L 102.277344 37.011719 L 102.25 37.023438 L 102.226562 37.035156 L 102.171875 37.042969 L 102.140625 37.046875 L 101.574219 37.046875 L 101.492188 37.035156 L 101.46875 37.023438 L 101.441406 37.011719 L 101.417969 37 L 101.394531 36.980469 L 101.375 36.964844 L 101.355469 36.941406 L 101.339844 36.921875 L 101.324219 36.894531 L 101.3125 36.871094 L 101.296875 36.816406 L 101.292969 36.789062 L 101.292969 33.121094 L 101.296875 33.09375 L 101.3125 33.039062 L 101.324219 33.015625 L 101.355469 32.96875 L 101.394531 32.929688 L 101.441406 32.898438 L 101.46875 32.886719 L 101.492188 32.878906 L 101.519531 32.871094 L 101.574219 32.863281 L 102.140625 32.863281 Z M 102.171875 32.867188 "/>
<path style=" stroke:none;fill-rule:evenodd;fill:rgb(45.098039%,45.098039%,87.058824%);fill-opacity:1;" d="M 104.011719 32.867188 L 104.039062 32.871094 L 104.09375 32.886719 L 104.117188 32.898438 L 104.164062 32.929688 L 104.203125 32.96875 L 104.234375 33.015625 L 104.246094 33.039062 L 104.257812 33.066406 L 104.269531 33.148438 L 104.269531 36.761719 L 104.257812 36.84375 L 104.246094 36.871094 L 104.234375 36.894531 L 104.21875 36.921875 L 104.203125 36.941406 L 104.183594 36.964844 L 104.164062 36.980469 L 104.140625 37 L 104.09375 37.023438 L 104.066406 37.035156 L 103.984375 37.046875 L 103.417969 37.046875 L 103.335938 37.035156 L 103.308594 37.023438 L 103.261719 37 L 103.238281 36.980469 L 103.21875 36.964844 L 103.199219 36.941406 L 103.183594 36.921875 L 103.167969 36.894531 L 103.15625 36.871094 L 103.140625 36.816406 L 103.132812 36.761719 L 103.132812 33.148438 L 103.140625 33.09375 L 103.15625 33.039062 L 103.167969 33.015625 L 103.199219 32.96875 L 103.238281 32.929688 L 103.285156 32.898438 L 103.308594 32.886719 L 103.363281 32.871094 L 103.417969 32.863281 L 103.984375 32.863281 Z M 104.011719 32.867188 "/>
<path style=" stroke:none;fill-rule:evenodd;fill:rgb(45.098039%,45.098039%,87.058824%);fill-opacity:1;" d="M 105.855469 32.867188 L 105.882812 32.871094 L 105.9375 32.886719 L 105.960938 32.898438 L 106.007812 32.929688 L 106.046875 32.96875 L 106.078125 33.015625 L 106.089844 33.039062 L 106.105469 33.09375 L 106.109375 33.121094 L 106.109375 36.789062 L 106.105469 36.816406 L 106.089844 36.871094 L 106.078125 36.894531 L 106.0625 36.921875 L 106.046875 36.941406 L 106.027344 36.964844 L 106.007812 36.980469 L 105.984375 37 L 105.9375 37.023438 L 105.910156 37.035156 L 105.828125 37.046875 L 105.261719 37.046875 L 105.179688 37.035156 L 105.125 37.011719 L 105.101562 37 L 105.082031 36.980469 L 105.058594 36.964844 L 105.042969 36.941406 L 105.023438 36.921875 L 105.011719 36.894531 L 105 36.871094 L 104.988281 36.84375 L 104.984375 36.816406 L 104.976562 36.789062 L 104.976562 33.121094 L 104.984375 33.09375 L 104.988281 33.066406 L 105 33.039062 L 105.023438 32.992188 L 105.042969 32.96875 L 105.058594 32.949219 L 105.082031 32.929688 L 105.101562 32.914062 L 105.125 32.898438 L 105.152344 32.886719 L 105.207031 32.871094 L 105.261719 32.863281 L 105.828125 32.863281 Z M 105.855469 32.867188 "/>
<path style=" stroke:none;fill-rule:evenodd;fill:rgb(45.098039%,45.098039%,87.058824%);fill-opacity:1;" d="M 107.699219 32.867188 L 107.726562 32.871094 L 107.753906 32.878906 L 107.777344 32.886719 L 107.804688 32.898438 L 107.851562 32.929688 L 107.890625 32.96875 L 107.90625 32.992188 L 107.917969 33.015625 L 107.933594 33.039062 L 107.949219 33.09375 L 107.953125 33.121094 L 107.953125 36.789062 L 107.949219 36.816406 L 107.933594 36.871094 L 107.917969 36.894531 L 107.90625 36.921875 L 107.890625 36.941406 L 107.871094 36.964844 L 107.851562 36.980469 L 107.828125 37 L 107.804688 37.011719 L 107.777344 37.023438 L 107.753906 37.035156 L 107.699219 37.042969 L 107.667969 37.046875 L 107.101562 37.046875 L 107.019531 37.035156 L 106.996094 37.023438 L 106.96875 37.011719 L 106.945312 37 L 106.921875 36.980469 L 106.902344 36.964844 L 106.882812 36.941406 L 106.867188 36.921875 L 106.851562 36.894531 L 106.839844 36.871094 L 106.824219 36.816406 L 106.820312 36.789062 L 106.820312 33.121094 L 106.824219 33.09375 L 106.839844 33.039062 L 106.851562 33.015625 L 106.882812 32.96875 L 106.921875 32.929688 L 106.96875 32.898438 L 106.996094 32.886719 L 107.019531 32.878906 L 107.046875 32.871094 L 107.101562 32.863281 L 107.667969 32.863281 Z M 107.699219 32.867188 "/>
<path style=" stroke:none;fill-rule:evenodd;fill:rgb(45.098039%,45.098039%,87.058824%);fill-opacity:1;" d="M 109.539062 32.867188 L 109.566406 32.871094 L 109.621094 32.886719 L 109.644531 32.898438 L 109.691406 32.929688 L 109.730469 32.96875 L 109.75 32.992188 L 109.773438 33.039062 L 109.785156 33.066406 L 109.796875 33.148438 L 109.796875 36.761719 L 109.785156 36.84375 L 109.773438 36.871094 L 109.761719 36.894531 L 109.75 36.921875 L 109.730469 36.941406 L 109.710938 36.964844 L 109.691406 36.980469 L 109.667969 37 L 109.621094 37.023438 L 109.59375 37.035156 L 109.511719 37.046875 L 108.945312 37.046875 L 108.863281 37.035156 L 108.835938 37.023438 L 108.789062 37 L 108.765625 36.980469 L 108.746094 36.964844 L 108.726562 36.941406 L 108.710938 36.921875 L 108.695312 36.894531 L 108.683594 36.871094 L 108.667969 36.816406 L 108.660156 36.761719 L 108.660156 33.148438 L 108.667969 33.09375 L 108.683594 33.039062 L 108.695312 33.015625 L 108.726562 32.96875 L 108.765625 32.929688 L 108.8125 32.898438 L 108.835938 32.886719 L 108.890625 32.871094 L 108.945312 32.863281 L 109.511719 32.863281 Z M 109.539062 32.867188 "/>
<path style=" stroke:none;fill-rule:evenodd;fill:rgb(45.098039%,45.098039%,87.058824%);fill-opacity:1;" d="M 111.382812 32.867188 L 111.410156 32.871094 L 111.464844 32.886719 L 111.488281 32.898438 L 111.535156 32.929688 L 111.574219 32.96875 L 111.605469 33.015625 L 111.617188 33.039062 L 111.632812 33.09375 L 111.636719 33.121094 L 111.636719 36.789062 L 111.632812 36.816406 L 111.617188 36.871094 L 111.605469 36.894531 L 111.589844 36.921875 L 111.574219 36.941406 L 111.554688 36.964844 L 111.535156 36.980469 L 111.511719 37 L 111.464844 37.023438 L 111.4375 37.035156 L 111.355469 37.046875 L 110.789062 37.046875 L 110.707031 37.035156 L 110.679688 37.023438 L 110.65625 37.011719 L 110.628906 37 L 110.609375 36.980469 L 110.585938 36.964844 L 110.570312 36.941406 L 110.550781 36.921875 L 110.539062 36.894531 L 110.527344 36.871094 L 110.515625 36.84375 L 110.503906 36.761719 L 110.503906 33.148438 L 110.515625 33.066406 L 110.527344 33.039062 L 110.550781 32.992188 L 110.570312 32.96875 L 110.585938 32.949219 L 110.609375 32.929688 L 110.628906 32.914062 L 110.65625 32.898438 L 110.679688 32.886719 L 110.734375 32.871094 L 110.789062 32.863281 L 111.355469 32.863281 Z M 111.382812 32.867188 "/>
<path style=" stroke:none;fill-rule:evenodd;fill:rgb(45.098039%,45.098039%,87.058824%);fill-opacity:1;" d="M 113.226562 32.867188 L 113.253906 32.871094 L 113.28125 32.878906 L 113.304688 32.886719 L 113.332031 32.898438 L 113.378906 32.929688 L 113.417969 32.96875 L 113.449219 33.015625 L 113.460938 33.039062 L 113.476562 33.09375 L 113.480469 33.121094 L 113.480469 36.789062 L 113.476562 36.816406 L 113.460938 36.871094 L 113.449219 36.894531 L 113.433594 36.921875 L 113.417969 36.941406 L 113.398438 36.964844 L 113.378906 36.980469 L 113.355469 37 L 113.332031 37.011719 L 113.304688 37.023438 L 113.28125 37.035156 L 113.199219 37.046875 L 112.628906 37.046875 L 112.546875 37.035156 L 112.523438 37.023438 L 112.496094 37.011719 L 112.472656 37 L 112.449219 36.980469 L 112.429688 36.964844 L 112.410156 36.941406 L 112.394531 36.921875 L 112.378906 36.894531 L 112.367188 36.871094 L 112.351562 36.816406 L 112.347656 36.789062 L 112.347656 33.121094 L 112.351562 33.09375 L 112.367188 33.039062 L 112.378906 33.015625 L 112.410156 32.96875 L 112.449219 32.929688 L 112.496094 32.898438 L 112.523438 32.886719 L 112.546875 32.878906 L 112.574219 32.871094 L 112.628906 32.863281 L 113.199219 32.863281 Z M 113.226562 32.867188 "/>
<path style=" stroke:none;fill-rule:evenodd;fill:rgb(45.098039%,45.098039%,87.058824%);fill-opacity:1;" d="M 113.226562 16.636719 L 113.253906 16.640625 L 113.28125 16.648438 L 113.304688 16.660156 L 113.332031 16.671875 L 113.355469 16.683594 L 113.378906 16.699219 L 113.398438 16.71875 L 113.417969 16.742188 L 113.433594 16.761719 L 113.449219 16.785156 L 113.460938 16.8125 L 113.46875 16.835938 L 113.476562 16.863281 L 113.480469 16.890625 L 113.480469 20.5625 L 113.476562 20.589844 L 113.460938 20.644531 L 113.449219 20.667969 L 113.417969 20.714844 L 113.378906 20.753906 L 113.332031 20.785156 L 113.304688 20.796875 L 113.28125 20.804688 L 113.253906 20.8125 L 113.226562 20.816406 L 112.601562 20.816406 L 112.574219 20.8125 L 112.546875 20.804688 L 112.523438 20.796875 L 112.496094 20.785156 L 112.449219 20.753906 L 112.410156 20.714844 L 112.378906 20.667969 L 112.367188 20.644531 L 112.351562 20.589844 L 112.347656 20.5625 L 112.347656 16.890625 L 112.351562 16.863281 L 112.359375 16.835938 L 112.367188 16.8125 L 112.378906 16.785156 L 112.394531 16.761719 L 112.410156 16.742188 L 112.429688 16.71875 L 112.449219 16.699219 L 112.472656 16.683594 L 112.496094 16.671875 L 112.523438 16.660156 L 112.546875 16.648438 L 112.574219 16.640625 L 112.601562 16.636719 Z M 113.226562 16.636719 "/>
<path style=" stroke:none;fill-rule:evenodd;fill:rgb(45.098039%,45.098039%,87.058824%);fill-opacity:1;" d="M 111.382812 16.636719 L 111.410156 16.640625 L 111.4375 16.648438 L 111.464844 16.660156 L 111.511719 16.683594 L 111.535156 16.699219 L 111.554688 16.71875 L 111.574219 16.742188 L 111.589844 16.761719 L 111.605469 16.785156 L 111.617188 16.8125 L 111.625 16.835938 L 111.632812 16.863281 L 111.636719 16.890625 L 111.636719 20.5625 L 111.632812 20.589844 L 111.617188 20.644531 L 111.605469 20.667969 L 111.574219 20.714844 L 111.535156 20.753906 L 111.488281 20.785156 L 111.464844 20.796875 L 111.410156 20.8125 L 111.382812 20.816406 L 110.761719 20.816406 L 110.734375 20.8125 L 110.679688 20.796875 L 110.65625 20.785156 L 110.628906 20.769531 L 110.609375 20.753906 L 110.585938 20.734375 L 110.570312 20.714844 L 110.550781 20.691406 L 110.527344 20.644531 L 110.515625 20.617188 L 110.503906 20.535156 L 110.503906 16.921875 L 110.507812 16.890625 L 110.515625 16.835938 L 110.527344 16.8125 L 110.539062 16.785156 L 110.550781 16.761719 L 110.570312 16.742188 L 110.585938 16.71875 L 110.609375 16.699219 L 110.628906 16.683594 L 110.65625 16.671875 L 110.679688 16.660156 L 110.707031 16.648438 L 110.734375 16.640625 L 110.761719 16.636719 Z M 111.382812 16.636719 "/>
<path style=" stroke:none;fill-rule:evenodd;fill:rgb(45.098039%,45.098039%,87.058824%);fill-opacity:1;" d="M 109.539062 16.636719 L 109.566406 16.640625 L 109.59375 16.648438 L 109.621094 16.660156 L 109.667969 16.683594 L 109.691406 16.699219 L 109.710938 16.71875 L 109.730469 16.742188 L 109.75 16.761719 L 109.761719 16.785156 L 109.773438 16.8125 L 109.785156 16.835938 L 109.792969 16.890625 L 109.796875 16.921875 L 109.796875 20.535156 L 109.785156 20.617188 L 109.773438 20.644531 L 109.75 20.691406 L 109.730469 20.714844 L 109.691406 20.753906 L 109.644531 20.785156 L 109.621094 20.796875 L 109.566406 20.8125 L 109.539062 20.816406 L 108.917969 20.816406 L 108.890625 20.8125 L 108.835938 20.796875 L 108.8125 20.785156 L 108.765625 20.753906 L 108.726562 20.714844 L 108.695312 20.667969 L 108.683594 20.644531 L 108.667969 20.589844 L 108.660156 20.535156 L 108.660156 16.921875 L 108.664062 16.890625 L 108.667969 16.863281 L 108.675781 16.835938 L 108.683594 16.8125 L 108.695312 16.785156 L 108.710938 16.761719 L 108.726562 16.742188 L 108.746094 16.71875 L 108.765625 16.699219 L 108.789062 16.683594 L 108.835938 16.660156 L 108.863281 16.648438 L 108.890625 16.640625 L 108.917969 16.636719 Z M 109.539062 16.636719 "/>
<path style=" stroke:none;fill-rule:evenodd;fill:rgb(45.098039%,45.098039%,87.058824%);fill-opacity:1;" d="M 107.699219 16.636719 L 107.726562 16.640625 L 107.753906 16.648438 L 107.777344 16.660156 L 107.804688 16.671875 L 107.828125 16.683594 L 107.851562 16.699219 L 107.871094 16.71875 L 107.890625 16.742188 L 107.90625 16.761719 L 107.917969 16.785156 L 107.933594 16.8125 L 107.941406 16.835938 L 107.949219 16.863281 L 107.953125 16.890625 L 107.953125 20.5625 L 107.949219 20.589844 L 107.933594 20.644531 L 107.917969 20.667969 L 107.90625 20.691406 L 107.890625 20.714844 L 107.851562 20.753906 L 107.804688 20.785156 L 107.777344 20.796875 L 107.753906 20.804688 L 107.726562 20.8125 L 107.699219 20.816406 L 107.074219 20.816406 L 107.046875 20.8125 L 107.019531 20.804688 L 106.996094 20.796875 L 106.96875 20.785156 L 106.921875 20.753906 L 106.882812 20.714844 L 106.851562 20.667969 L 106.839844 20.644531 L 106.824219 20.589844 L 106.820312 20.5625 L 106.820312 16.890625 L 106.824219 16.863281 L 106.832031 16.835938 L 106.839844 16.8125 L 106.851562 16.785156 L 106.867188 16.761719 L 106.882812 16.742188 L 106.902344 16.71875 L 106.921875 16.699219 L 106.945312 16.683594 L 106.96875 16.671875 L 106.996094 16.660156 L 107.019531 16.648438 L 107.046875 16.640625 L 107.074219 16.636719 Z M 107.699219 16.636719 "/>
<path style=" stroke:none;fill-rule:evenodd;fill:rgb(45.098039%,45.098039%,87.058824%);fill-opacity:1;" d="M 105.855469 16.636719 L 105.882812 16.640625 L 105.910156 16.648438 L 105.9375 16.660156 L 105.984375 16.683594 L 106.007812 16.699219 L 106.027344 16.71875 L 106.046875 16.742188 L 106.0625 16.761719 L 106.078125 16.785156 L 106.089844 16.8125 L 106.097656 16.835938 L 106.105469 16.863281 L 106.109375 16.890625 L 106.109375 20.5625 L 106.105469 20.589844 L 106.089844 20.644531 L 106.078125 20.667969 L 106.046875 20.714844 L 106.007812 20.753906 L 105.960938 20.785156 L 105.9375 20.796875 L 105.882812 20.8125 L 105.855469 20.816406 L 105.234375 20.816406 L 105.207031 20.8125 L 105.152344 20.796875 L 105.125 20.785156 L 105.101562 20.769531 L 105.082031 20.753906 L 105.058594 20.734375 L 105.042969 20.714844 L 105.023438 20.691406 L 105 20.644531 L 104.988281 20.617188 L 104.984375 20.589844 L 104.976562 20.5625 L 104.976562 16.890625 L 104.984375 16.863281 L 104.988281 16.835938 L 105 16.8125 L 105.011719 16.785156 L 105.023438 16.761719 L 105.042969 16.742188 L 105.058594 16.71875 L 105.082031 16.699219 L 105.101562 16.683594 L 105.125 16.671875 L 105.179688 16.648438 L 105.207031 16.640625 L 105.234375 16.636719 Z M 105.855469 16.636719 "/>
<path style=" stroke:none;fill-rule:evenodd;fill:rgb(45.098039%,45.098039%,87.058824%);fill-opacity:1;" d="M 104.011719 16.636719 L 104.039062 16.640625 L 104.066406 16.648438 L 104.09375 16.660156 L 104.140625 16.683594 L 104.164062 16.699219 L 104.183594 16.71875 L 104.203125 16.742188 L 104.21875 16.761719 L 104.234375 16.785156 L 104.246094 16.8125 L 104.257812 16.835938 L 104.265625 16.890625 L 104.269531 16.921875 L 104.269531 20.535156 L 104.257812 20.617188 L 104.246094 20.644531 L 104.234375 20.667969 L 104.203125 20.714844 L 104.164062 20.753906 L 104.117188 20.785156 L 104.09375 20.796875 L 104.039062 20.8125 L 104.011719 20.816406 L 103.390625 20.816406 L 103.363281 20.8125 L 103.308594 20.796875 L 103.285156 20.785156 L 103.238281 20.753906 L 103.199219 20.714844 L 103.167969 20.667969 L 103.15625 20.644531 L 103.140625 20.589844 L 103.132812 20.535156 L 103.132812 16.921875 L 103.136719 16.890625 L 103.140625 16.863281 L 103.148438 16.835938 L 103.15625 16.8125 L 103.167969 16.785156 L 103.183594 16.761719 L 103.199219 16.742188 L 103.21875 16.71875 L 103.238281 16.699219 L 103.261719 16.683594 L 103.308594 16.660156 L 103.335938 16.648438 L 103.363281 16.640625 L 103.390625 16.636719 Z M 104.011719 16.636719 "/>
<path style=" stroke:none;fill-rule:evenodd;fill:rgb(45.098039%,45.098039%,87.058824%);fill-opacity:1;" d="M 102.171875 16.636719 L 102.199219 16.640625 L 102.226562 16.648438 L 102.25 16.660156 L 102.277344 16.671875 L 102.300781 16.683594 L 102.320312 16.699219 L 102.34375 16.71875 L 102.363281 16.742188 L 102.378906 16.761719 L 102.390625 16.785156 L 102.402344 16.8125 L 102.414062 16.835938 L 102.421875 16.863281 L 102.425781 16.890625 L 102.425781 20.5625 L 102.421875 20.589844 L 102.414062 20.617188 L 102.402344 20.644531 L 102.378906 20.691406 L 102.363281 20.714844 L 102.34375 20.734375 L 102.320312 20.753906 L 102.300781 20.769531 L 102.277344 20.785156 L 102.25 20.796875 L 102.226562 20.804688 L 102.199219 20.8125 L 102.171875 20.816406 L 101.546875 20.816406 L 101.519531 20.8125 L 101.492188 20.804688 L 101.46875 20.796875 L 101.441406 20.785156 L 101.394531 20.753906 L 101.355469 20.714844 L 101.324219 20.667969 L 101.3125 20.644531 L 101.296875 20.589844 L 101.292969 20.5625 L 101.292969 16.890625 L 101.296875 16.863281 L 101.304688 16.835938 L 101.3125 16.8125 L 101.324219 16.785156 L 101.339844 16.761719 L 101.355469 16.742188 L 101.375 16.71875 L 101.394531 16.699219 L 101.417969 16.683594 L 101.441406 16.671875 L 101.46875 16.660156 L 101.492188 16.648438 L 101.519531 16.640625 L 101.546875 16.636719 Z M 102.171875 16.636719 "/>
<path style=" stroke:none;fill-rule:evenodd;fill:rgb(45.098039%,45.098039%,87.058824%);fill-opacity:1;" d="M 100.328125 16.636719 L 100.355469 16.640625 L 100.382812 16.648438 L 100.410156 16.660156 L 100.457031 16.683594 L 100.480469 16.699219 L 100.5 16.71875 L 100.519531 16.742188 L 100.535156 16.761719 L 100.550781 16.785156 L 100.5625 16.8125 L 100.570312 16.835938 L 100.578125 16.863281 L 100.582031 16.890625 L 100.582031 20.5625 L 100.578125 20.589844 L 100.5625 20.644531 L 100.550781 20.667969 L 100.519531 20.714844 L 100.480469 20.753906 L 100.433594 20.785156 L 100.410156 20.796875 L 100.355469 20.8125 L 100.328125 20.816406 L 99.707031 20.816406 L 99.675781 20.8125 L 99.652344 20.804688 L 99.625 20.796875 L 99.597656 20.785156 L 99.574219 20.769531 L 99.554688 20.753906 L 99.53125 20.734375 L 99.515625 20.714844 L 99.496094 20.691406 L 99.472656 20.644531 L 99.460938 20.617188 L 99.453125 20.589844 L 99.449219 20.5625 L 99.449219 16.890625 L 99.453125 16.863281 L 99.460938 16.835938 L 99.472656 16.8125 L 99.484375 16.785156 L 99.496094 16.761719 L 99.515625 16.742188 L 99.53125 16.71875 L 99.554688 16.699219 L 99.574219 16.683594 L 99.597656 16.671875 L 99.652344 16.648438 L 99.675781 16.640625 L 99.707031 16.636719 Z M 100.328125 16.636719 "/>
<path style=" stroke:none;fill-rule:evenodd;fill:rgb(45.098039%,45.098039%,87.058824%);fill-opacity:1;" d="M 98.484375 16.636719 L 98.511719 16.640625 L 98.539062 16.648438 L 98.566406 16.660156 L 98.613281 16.683594 L 98.636719 16.699219 L 98.65625 16.71875 L 98.675781 16.742188 L 98.691406 16.761719 L 98.707031 16.785156 L 98.71875 16.8125 L 98.730469 16.835938 L 98.738281 16.890625 L 98.742188 16.921875 L 98.742188 20.535156 L 98.730469 20.617188 L 98.71875 20.644531 L 98.707031 20.667969 L 98.675781 20.714844 L 98.636719 20.753906 L 98.589844 20.785156 L 98.566406 20.796875 L 98.511719 20.8125 L 98.484375 20.816406 L 97.863281 20.816406 L 97.835938 20.8125 L 97.78125 20.796875 L 97.757812 20.785156 L 97.710938 20.753906 L 97.671875 20.714844 L 97.640625 20.667969 L 97.628906 20.644531 L 97.617188 20.617188 L 97.605469 20.535156 L 97.605469 16.921875 L 97.609375 16.890625 L 97.617188 16.835938 L 97.628906 16.8125 L 97.640625 16.785156 L 97.65625 16.761719 L 97.671875 16.742188 L 97.691406 16.71875 L 97.710938 16.699219 L 97.734375 16.683594 L 97.78125 16.660156 L 97.808594 16.648438 L 97.835938 16.640625 L 97.863281 16.636719 Z M 98.484375 16.636719 "/>
<path style=" stroke:none;fill-rule:evenodd;fill:rgb(45.098039%,45.098039%,87.058824%);fill-opacity:1;" d="M 96.640625 16.636719 L 96.671875 16.640625 L 96.695312 16.648438 L 96.75 16.671875 L 96.773438 16.683594 L 96.792969 16.699219 L 96.816406 16.71875 L 96.832031 16.742188 L 96.851562 16.761719 L 96.863281 16.785156 L 96.875 16.8125 L 96.886719 16.835938 L 96.894531 16.863281 L 96.898438 16.890625 L 96.898438 20.5625 L 96.894531 20.589844 L 96.886719 20.617188 L 96.875 20.644531 L 96.851562 20.691406 L 96.832031 20.714844 L 96.816406 20.734375 L 96.792969 20.753906 L 96.773438 20.769531 L 96.75 20.785156 L 96.722656 20.796875 L 96.695312 20.804688 L 96.671875 20.8125 L 96.640625 20.816406 L 96.019531 20.816406 L 95.992188 20.8125 L 95.9375 20.796875 L 95.914062 20.785156 L 95.867188 20.753906 L 95.828125 20.714844 L 95.796875 20.667969 L 95.785156 20.644531 L 95.769531 20.589844 L 95.765625 20.5625 L 95.765625 16.890625 L 95.769531 16.863281 L 95.777344 16.835938 L 95.785156 16.8125 L 95.796875 16.785156 L 95.8125 16.761719 L 95.828125 16.742188 L 95.847656 16.71875 L 95.867188 16.699219 L 95.890625 16.683594 L 95.9375 16.660156 L 95.964844 16.648438 L 95.992188 16.640625 L 96.019531 16.636719 Z M 96.640625 16.636719 "/>
<path style=" stroke:none;fill-rule:evenodd;fill:rgb(45.098039%,45.098039%,87.058824%);fill-opacity:1;" d="M 6.78125 3.777344 L 9.617188 3.777344 L 9.617188 0.941406 L 6.78125 0.941406 Z M 6.78125 3.777344 "/>
<path style=" stroke:none;fill-rule:evenodd;fill:rgb(45.098039%,45.098039%,87.058824%);fill-opacity:1;" d="M 13.867188 3.777344 L 16.703125 3.777344 L 16.703125 0.941406 L 13.867188 0.941406 Z M 13.867188 3.777344 "/>
<path style=" stroke:none;fill-rule:evenodd;fill:rgb(45.098039%,45.098039%,87.058824%);fill-opacity:1;" d="M 102.109375 7.507812 L 102.179688 7.519531 L 102.246094 7.535156 L 102.3125 7.558594 L 102.375 7.589844 L 102.433594 7.625 L 102.488281 7.667969 L 102.542969 7.714844 L 102.589844 7.765625 L 102.628906 7.820312 L 102.664062 7.878906 L 102.695312 7.945312 L 102.71875 8.007812 L 102.734375 8.078125 L 102.746094 8.144531 L 102.75 8.214844 L 102.75 10.90625 L 102.746094 10.976562 L 102.734375 11.046875 L 102.71875 11.113281 L 102.695312 11.179688 L 102.664062 11.242188 L 102.628906 11.300781 L 102.589844 11.355469 L 102.542969 11.410156 L 102.488281 11.457031 L 102.433594 11.496094 L 102.375 11.53125 L 102.3125 11.5625 L 102.246094 11.585938 L 102.179688 11.601562 L 102.109375 11.613281 L 102.039062 11.617188 L 100.125 11.617188 L 100.058594 11.613281 L 99.988281 11.601562 L 99.921875 11.585938 L 99.855469 11.5625 L 99.792969 11.53125 L 99.734375 11.496094 L 99.675781 11.457031 L 99.625 11.410156 L 99.578125 11.355469 L 99.539062 11.300781 L 99.5 11.242188 L 99.472656 11.179688 L 99.449219 11.113281 L 99.433594 11.046875 L 99.421875 10.976562 L 99.417969 10.90625 L 99.417969 8.214844 L 99.421875 8.144531 L 99.433594 8.078125 L 99.449219 8.007812 L 99.472656 7.945312 L 99.5 7.878906 L 99.539062 7.820312 L 99.578125 7.765625 L 99.625 7.714844 L 99.675781 7.667969 L 99.734375 7.625 L 99.792969 7.589844 L 99.855469 7.558594 L 99.921875 7.535156 L 99.988281 7.519531 L 100.058594 7.507812 Z M 102.109375 7.507812 "/>
<path style=" stroke:none;fill-rule:evenodd;fill:rgb(45.098039%,45.098039%,87.058824%);fill-opacity:1;" d="M 96.226562 7.507812 L 96.296875 7.519531 L 96.363281 7.535156 L 96.429688 7.558594 L 96.492188 7.589844 L 96.550781 7.625 L 96.609375 7.667969 L 96.660156 7.714844 L 96.707031 7.765625 L 96.746094 7.820312 L 96.785156 7.878906 L 96.8125 7.945312 L 96.835938 8.007812 L 96.851562 8.078125 L 96.863281 8.144531 L 96.867188 8.214844 L 96.867188 10.90625 L 96.863281 10.976562 L 96.851562 11.046875 L 96.835938 11.113281 L 96.8125 11.179688 L 96.785156 11.242188 L 96.746094 11.300781 L 96.707031 11.355469 L 96.660156 11.410156 L 96.609375 11.457031 L 96.550781 11.496094 L 96.492188 11.53125 L 96.429688 11.5625 L 96.363281 11.585938 L 96.296875 11.601562 L 96.226562 11.613281 L 96.160156 11.617188 L 94.246094 11.617188 L 94.175781 11.613281 L 94.105469 11.601562 L 94.039062 11.585938 L 93.972656 11.5625 L 93.910156 11.53125 L 93.851562 11.496094 L 93.796875 11.457031 L 93.742188 11.410156 L 93.695312 11.355469 L 93.65625 11.300781 L 93.621094 11.242188 L 93.589844 11.179688 L 93.566406 11.113281 L 93.550781 11.046875 L 93.539062 10.976562 L 93.535156 10.90625 L 93.535156 8.214844 L 93.539062 8.144531 L 93.550781 8.078125 L 93.566406 8.007812 L 93.589844 7.945312 L 93.621094 7.878906 L 93.65625 7.820312 L 93.695312 7.765625 L 93.742188 7.714844 L 93.796875 7.667969 L 93.851562 7.625 L 93.910156 7.589844 L 93.972656 7.558594 L 94.039062 7.535156 L 94.105469 7.519531 L 94.175781 7.507812 Z M 96.226562 7.507812 "/>
<path style=" stroke:none;fill-rule:evenodd;fill:rgb(45.098039%,45.098039%,87.058824%);fill-opacity:1;" d="M 131.628906 6.789062 L 131.699219 6.800781 L 131.765625 6.816406 L 131.832031 6.839844 L 131.894531 6.871094 L 131.953125 6.90625 L 132.011719 6.945312 L 132.0625 6.992188 L 132.109375 7.046875 L 132.148438 7.101562 L 132.183594 7.160156 L 132.214844 7.222656 L 132.238281 7.289062 L 132.253906 7.355469 L 132.265625 7.425781 L 132.269531 7.496094 L 132.269531 10.1875 L 132.265625 10.257812 L 132.253906 10.324219 L 132.238281 10.394531 L 132.214844 10.460938 L 132.183594 10.523438 L 132.148438 10.582031 L 132.109375 10.636719 L 132.0625 10.6875 L 132.011719 10.734375 L 131.953125 10.777344 L 131.894531 10.8125 L 131.832031 10.84375 L 131.765625 10.867188 L 131.699219 10.882812 L 131.628906 10.894531 L 129.578125 10.894531 L 129.507812 10.882812 L 129.441406 10.867188 L 129.375 10.84375 L 129.3125 10.8125 L 129.253906 10.777344 L 129.199219 10.734375 L 129.144531 10.6875 L 129.097656 10.636719 L 129.058594 10.582031 L 129.023438 10.523438 L 128.992188 10.460938 L 128.96875 10.394531 L 128.953125 10.324219 L 128.941406 10.257812 L 128.9375 10.1875 L 128.9375 7.496094 L 128.941406 7.425781 L 128.953125 7.355469 L 128.96875 7.289062 L 128.992188 7.222656 L 129.023438 7.160156 L 129.058594 7.101562 L 129.097656 7.046875 L 129.144531 6.992188 L 129.199219 6.945312 L 129.253906 6.90625 L 129.3125 6.871094 L 129.375 6.839844 L 129.441406 6.816406 L 129.507812 6.800781 L 129.578125 6.789062 L 129.648438 6.785156 L 131.558594 6.785156 Z M 131.628906 6.789062 "/>
<path style=" stroke:none;fill-rule:evenodd;fill:rgb(45.098039%,45.098039%,87.058824%);fill-opacity:1;" d="M 125.746094 6.789062 L 125.816406 6.800781 L 125.882812 6.816406 L 125.949219 6.839844 L 126.011719 6.871094 L 126.070312 6.90625 L 126.128906 6.945312 L 126.179688 6.992188 L 126.226562 7.046875 L 126.269531 7.101562 L 126.304688 7.160156 L 126.332031 7.222656 L 126.355469 7.289062 L 126.375 7.355469 L 126.382812 7.425781 L 126.386719 7.496094 L 126.386719 10.1875 L 126.382812 10.257812 L 126.375 10.324219 L 126.355469 10.394531 L 126.332031 10.460938 L 126.304688 10.523438 L 126.269531 10.582031 L 126.226562 10.636719 L 126.179688 10.6875 L 126.128906 10.734375 L 126.070312 10.777344 L 126.011719 10.8125 L 125.949219 10.84375 L 125.882812 10.867188 L 125.816406 10.882812 L 125.746094 10.894531 L 123.695312 10.894531 L 123.625 10.882812 L 123.558594 10.867188 L 123.492188 10.84375 L 123.429688 10.8125 L 123.371094 10.777344 L 123.316406 10.734375 L 123.265625 10.6875 L 123.21875 10.636719 L 123.175781 10.582031 L 123.140625 10.523438 L 123.109375 10.460938 L 123.085938 10.394531 L 123.070312 10.324219 L 123.058594 10.257812 L 123.054688 10.1875 L 123.054688 7.496094 L 123.058594 7.425781 L 123.070312 7.355469 L 123.085938 7.289062 L 123.109375 7.222656 L 123.140625 7.160156 L 123.175781 7.101562 L 123.21875 7.046875 L 123.265625 6.992188 L 123.316406 6.945312 L 123.371094 6.90625 L 123.429688 6.871094 L 123.492188 6.839844 L 123.558594 6.816406 L 123.625 6.800781 L 123.695312 6.789062 L 123.765625 6.785156 L 125.679688 6.785156 Z M 125.746094 6.789062 "/>
</g>
</svg>
