G04 #@! TF.GenerationSoftware,KiCad,Pcbnew,5.1.5+dfsg1-2build2*
G04 #@! TF.CreationDate,2022-10-01T19:43:28+01:00*
G04 #@! TF.ProjectId,zx-memory-16-32,7a782d6d-656d-46f7-9279-2d31362d3332,rev?*
G04 #@! TF.SameCoordinates,Original*
G04 #@! TF.FileFunction,Copper,L2,Inr*
G04 #@! TF.FilePolarity,Positive*
%FSLAX46Y46*%
G04 Gerber Fmt 4.6, Leading zero omitted, Abs format (unit mm)*
G04 Created by KiCad (PCBNEW 5.1.5+dfsg1-2build2) date 2022-10-01 19:43:28*
%MOMM*%
%LPD*%
G04 APERTURE LIST*
%ADD10R,1.350000X1.350000*%
%ADD11O,1.700000X1.700000*%
%ADD12R,1.700000X1.700000*%
%ADD13C,0.800000*%
%ADD14C,0.500000*%
%ADD15C,0.254000*%
G04 APERTURE END LIST*
D10*
X35560000Y-76200000D03*
X106680000Y-76200000D03*
X96520000Y-76200000D03*
X35560000Y-96520000D03*
X35560000Y-81280000D03*
X45720000Y-81280000D03*
X55880000Y-81280000D03*
X66040000Y-81280000D03*
X76200000Y-81280000D03*
X86360000Y-81280000D03*
X96520000Y-81280000D03*
X106680000Y-81280000D03*
X66040000Y-83820000D03*
X66040000Y-91440000D03*
X66040000Y-88900000D03*
X66040000Y-86360000D03*
X58420000Y-88900000D03*
X58420000Y-91440000D03*
X58420000Y-86360000D03*
X99060000Y-83820000D03*
X106680000Y-78740000D03*
X99060000Y-81280000D03*
D11*
X89940000Y-83820000D03*
D12*
X89940000Y-86360000D03*
D11*
X89940000Y-88900000D03*
X41910000Y-77470000D03*
X44450000Y-77470000D03*
D12*
X46990000Y-77470000D03*
D11*
X49530000Y-77470000D03*
X52070000Y-77470000D03*
X54610000Y-77470000D03*
X57150000Y-77470000D03*
D12*
X59690000Y-77470000D03*
D11*
X62230000Y-77470000D03*
X64770000Y-77470000D03*
X67310000Y-77470000D03*
X69850000Y-77470000D03*
D12*
X72390000Y-77470000D03*
D11*
X74930000Y-77470000D03*
X77470000Y-77470000D03*
X80010000Y-77470000D03*
X82550000Y-77470000D03*
D12*
X85090000Y-77470000D03*
D11*
X87630000Y-77470000D03*
X90170000Y-77470000D03*
X90170000Y-95250000D03*
X87630000Y-95250000D03*
D12*
X85090000Y-95250000D03*
D11*
X82550000Y-95250000D03*
X80010000Y-95250000D03*
X77470000Y-95250000D03*
X74930000Y-95250000D03*
D12*
X72390000Y-95250000D03*
D11*
X69850000Y-95250000D03*
X67310000Y-95250000D03*
X64770000Y-95250000D03*
X62230000Y-95250000D03*
D12*
X59690000Y-95250000D03*
D11*
X57150000Y-95250000D03*
X54610000Y-95250000D03*
X52070000Y-95250000D03*
X49530000Y-95250000D03*
D12*
X46990000Y-95250000D03*
D11*
X44450000Y-95250000D03*
X41910000Y-95250000D03*
X101600000Y-93980000D03*
X101600000Y-91440000D03*
D12*
X101600000Y-88900000D03*
D13*
X29210000Y-76200000D03*
X29696500Y-94001500D03*
X72898000Y-83566000D03*
D14*
X71374000Y-90678000D03*
X87376000Y-85598000D03*
X81534000Y-90745000D03*
X83820000Y-82804000D03*
X54289000Y-85344000D03*
X48768000Y-90424000D03*
D13*
X38862000Y-81788000D03*
X35458000Y-85750000D03*
X32004000Y-78232000D03*
X31496000Y-89154000D03*
D14*
X47752000Y-85090000D03*
D13*
X69342000Y-83566000D03*
D14*
X70358000Y-90424000D03*
X80077000Y-91694000D03*
X79756000Y-82804000D03*
X56134000Y-86360000D03*
X55880000Y-83058000D03*
X55439000Y-88325000D03*
X55372000Y-83566000D03*
X52578000Y-87376000D03*
X50546000Y-87376000D03*
X54864000Y-88900000D03*
X54864000Y-84074000D03*
X78994000Y-86738001D03*
X93218000Y-90424000D03*
X72136000Y-84836000D03*
X72390000Y-79435000D03*
X71374000Y-87313001D03*
X84865587Y-89632413D03*
X99060000Y-88138000D03*
X84836000Y-80010000D03*
X85344000Y-84328000D03*
X61722000Y-81280000D03*
X61722000Y-88138000D03*
X74419341Y-81178990D03*
X74422000Y-83820000D03*
X78232000Y-81280000D03*
X78232000Y-87313001D03*
X82804000Y-84582000D03*
X82160101Y-85149050D03*
X86868000Y-87376000D03*
X81534000Y-84836000D03*
X81788000Y-80924990D03*
X87884000Y-89154000D03*
X72644000Y-90424000D03*
X73660000Y-78860000D03*
X80264000Y-88463001D03*
X73406000Y-88463001D03*
X73406000Y-90424000D03*
X80772000Y-97028000D03*
X78740000Y-89662000D03*
X80906001Y-84491884D03*
D15*
G36*
X34530506Y-74994463D02*
G01*
X34433815Y-75073815D01*
X34354463Y-75170506D01*
X34295498Y-75280820D01*
X34259188Y-75400518D01*
X34246928Y-75525000D01*
X34250000Y-75914250D01*
X34408750Y-76073000D01*
X35433000Y-76073000D01*
X35433000Y-76053000D01*
X35687000Y-76053000D01*
X35687000Y-76073000D01*
X36711250Y-76073000D01*
X36870000Y-75914250D01*
X36873072Y-75525000D01*
X36860812Y-75400518D01*
X36824502Y-75280820D01*
X36765537Y-75170506D01*
X36686185Y-75073815D01*
X36589494Y-74994463D01*
X36515665Y-74955000D01*
X95564335Y-74955000D01*
X95490506Y-74994463D01*
X95393815Y-75073815D01*
X95314463Y-75170506D01*
X95255498Y-75280820D01*
X95219188Y-75400518D01*
X95206928Y-75525000D01*
X95210000Y-75914250D01*
X95368750Y-76073000D01*
X96393000Y-76073000D01*
X96393000Y-76053000D01*
X96647000Y-76053000D01*
X96647000Y-76073000D01*
X97671250Y-76073000D01*
X97830000Y-75914250D01*
X97833072Y-75525000D01*
X97820812Y-75400518D01*
X97784502Y-75280820D01*
X97725537Y-75170506D01*
X97646185Y-75073815D01*
X97549494Y-74994463D01*
X97475665Y-74955000D01*
X105724335Y-74955000D01*
X105650506Y-74994463D01*
X105553815Y-75073815D01*
X105474463Y-75170506D01*
X105415498Y-75280820D01*
X105379188Y-75400518D01*
X105366928Y-75525000D01*
X105370000Y-75914250D01*
X105528750Y-76073000D01*
X106553000Y-76073000D01*
X106553000Y-76053000D01*
X106807000Y-76053000D01*
X106807000Y-76073000D01*
X106827000Y-76073000D01*
X106827000Y-76327000D01*
X106807000Y-76327000D01*
X106807000Y-76347000D01*
X106553000Y-76347000D01*
X106553000Y-76327000D01*
X105528750Y-76327000D01*
X105370000Y-76485750D01*
X105366928Y-76875000D01*
X105379188Y-76999482D01*
X105415498Y-77119180D01*
X105474463Y-77229494D01*
X105553815Y-77326185D01*
X105650506Y-77405537D01*
X105760820Y-77464502D01*
X105778944Y-77470000D01*
X105760820Y-77475498D01*
X105650506Y-77534463D01*
X105553815Y-77613815D01*
X105474463Y-77710506D01*
X105415498Y-77820820D01*
X105379188Y-77940518D01*
X105366928Y-78065000D01*
X105366928Y-79415000D01*
X105379188Y-79539482D01*
X105415498Y-79659180D01*
X105474463Y-79769494D01*
X105553815Y-79866185D01*
X105650506Y-79945537D01*
X105760820Y-80004502D01*
X105778944Y-80010000D01*
X105760820Y-80015498D01*
X105650506Y-80074463D01*
X105553815Y-80153815D01*
X105474463Y-80250506D01*
X105415498Y-80360820D01*
X105379188Y-80480518D01*
X105366928Y-80605000D01*
X105366928Y-81955000D01*
X105379188Y-82079482D01*
X105415498Y-82199180D01*
X105474463Y-82309494D01*
X105553815Y-82406185D01*
X105650506Y-82485537D01*
X105760820Y-82544502D01*
X105880518Y-82580812D01*
X106005000Y-82593072D01*
X107290000Y-82593072D01*
X107290001Y-97765000D01*
X81261960Y-97765000D01*
X81336155Y-97715424D01*
X81459424Y-97592155D01*
X81556277Y-97447205D01*
X81622990Y-97286145D01*
X81657000Y-97115165D01*
X81657000Y-96940835D01*
X81622990Y-96769855D01*
X81556277Y-96608795D01*
X81459424Y-96463845D01*
X81336155Y-96340576D01*
X81191205Y-96243723D01*
X81138299Y-96221808D01*
X81163475Y-96196632D01*
X81280000Y-96022240D01*
X81396525Y-96196632D01*
X81603368Y-96403475D01*
X81846589Y-96565990D01*
X82116842Y-96677932D01*
X82403740Y-96735000D01*
X82696260Y-96735000D01*
X82983158Y-96677932D01*
X83253411Y-96565990D01*
X83496632Y-96403475D01*
X83628487Y-96271620D01*
X83650498Y-96344180D01*
X83709463Y-96454494D01*
X83788815Y-96551185D01*
X83885506Y-96630537D01*
X83995820Y-96689502D01*
X84115518Y-96725812D01*
X84240000Y-96738072D01*
X84804250Y-96735000D01*
X84963000Y-96576250D01*
X84963000Y-95377000D01*
X84943000Y-95377000D01*
X84943000Y-95123000D01*
X84963000Y-95123000D01*
X84963000Y-93923750D01*
X85217000Y-93923750D01*
X85217000Y-95123000D01*
X85237000Y-95123000D01*
X85237000Y-95377000D01*
X85217000Y-95377000D01*
X85217000Y-96576250D01*
X85375750Y-96735000D01*
X85940000Y-96738072D01*
X86064482Y-96725812D01*
X86184180Y-96689502D01*
X86294494Y-96630537D01*
X86391185Y-96551185D01*
X86470537Y-96454494D01*
X86529502Y-96344180D01*
X86551513Y-96271620D01*
X86683368Y-96403475D01*
X86926589Y-96565990D01*
X87196842Y-96677932D01*
X87483740Y-96735000D01*
X87776260Y-96735000D01*
X88063158Y-96677932D01*
X88333411Y-96565990D01*
X88576632Y-96403475D01*
X88783475Y-96196632D01*
X88900000Y-96022240D01*
X89016525Y-96196632D01*
X89223368Y-96403475D01*
X89466589Y-96565990D01*
X89736842Y-96677932D01*
X90023740Y-96735000D01*
X90316260Y-96735000D01*
X90603158Y-96677932D01*
X90873411Y-96565990D01*
X91116632Y-96403475D01*
X91323475Y-96196632D01*
X91485990Y-95953411D01*
X91597932Y-95683158D01*
X91655000Y-95396260D01*
X91655000Y-95103740D01*
X91597932Y-94816842D01*
X91485990Y-94546589D01*
X91323475Y-94303368D01*
X91116632Y-94096525D01*
X90873411Y-93934010D01*
X90631337Y-93833740D01*
X100115000Y-93833740D01*
X100115000Y-94126260D01*
X100172068Y-94413158D01*
X100284010Y-94683411D01*
X100446525Y-94926632D01*
X100653368Y-95133475D01*
X100896589Y-95295990D01*
X101166842Y-95407932D01*
X101453740Y-95465000D01*
X101746260Y-95465000D01*
X102033158Y-95407932D01*
X102303411Y-95295990D01*
X102546632Y-95133475D01*
X102753475Y-94926632D01*
X102915990Y-94683411D01*
X103027932Y-94413158D01*
X103085000Y-94126260D01*
X103085000Y-93833740D01*
X103027932Y-93546842D01*
X102915990Y-93276589D01*
X102753475Y-93033368D01*
X102546632Y-92826525D01*
X102364466Y-92704805D01*
X102481355Y-92635178D01*
X102697588Y-92440269D01*
X102871641Y-92206920D01*
X102996825Y-91944099D01*
X103041476Y-91796890D01*
X102920155Y-91567000D01*
X101727000Y-91567000D01*
X101727000Y-91587000D01*
X101473000Y-91587000D01*
X101473000Y-91567000D01*
X100279845Y-91567000D01*
X100158524Y-91796890D01*
X100203175Y-91944099D01*
X100328359Y-92206920D01*
X100502412Y-92440269D01*
X100718645Y-92635178D01*
X100835534Y-92704805D01*
X100653368Y-92826525D01*
X100446525Y-93033368D01*
X100284010Y-93276589D01*
X100172068Y-93546842D01*
X100115000Y-93833740D01*
X90631337Y-93833740D01*
X90603158Y-93822068D01*
X90316260Y-93765000D01*
X90023740Y-93765000D01*
X89736842Y-93822068D01*
X89466589Y-93934010D01*
X89223368Y-94096525D01*
X89016525Y-94303368D01*
X88900000Y-94477760D01*
X88783475Y-94303368D01*
X88576632Y-94096525D01*
X88333411Y-93934010D01*
X88063158Y-93822068D01*
X87776260Y-93765000D01*
X87483740Y-93765000D01*
X87196842Y-93822068D01*
X86926589Y-93934010D01*
X86683368Y-94096525D01*
X86551513Y-94228380D01*
X86529502Y-94155820D01*
X86470537Y-94045506D01*
X86391185Y-93948815D01*
X86294494Y-93869463D01*
X86184180Y-93810498D01*
X86064482Y-93774188D01*
X85940000Y-93761928D01*
X85375750Y-93765000D01*
X85217000Y-93923750D01*
X84963000Y-93923750D01*
X84804250Y-93765000D01*
X84240000Y-93761928D01*
X84115518Y-93774188D01*
X83995820Y-93810498D01*
X83885506Y-93869463D01*
X83788815Y-93948815D01*
X83709463Y-94045506D01*
X83650498Y-94155820D01*
X83628487Y-94228380D01*
X83496632Y-94096525D01*
X83253411Y-93934010D01*
X82983158Y-93822068D01*
X82696260Y-93765000D01*
X82403740Y-93765000D01*
X82116842Y-93822068D01*
X81846589Y-93934010D01*
X81603368Y-94096525D01*
X81396525Y-94303368D01*
X81280000Y-94477760D01*
X81163475Y-94303368D01*
X80956632Y-94096525D01*
X80713411Y-93934010D01*
X80443158Y-93822068D01*
X80156260Y-93765000D01*
X79863740Y-93765000D01*
X79576842Y-93822068D01*
X79306589Y-93934010D01*
X79063368Y-94096525D01*
X78856525Y-94303368D01*
X78740000Y-94477760D01*
X78623475Y-94303368D01*
X78416632Y-94096525D01*
X78173411Y-93934010D01*
X77903158Y-93822068D01*
X77616260Y-93765000D01*
X77323740Y-93765000D01*
X77036842Y-93822068D01*
X76766589Y-93934010D01*
X76523368Y-94096525D01*
X76316525Y-94303368D01*
X76200000Y-94477760D01*
X76083475Y-94303368D01*
X75876632Y-94096525D01*
X75633411Y-93934010D01*
X75363158Y-93822068D01*
X75076260Y-93765000D01*
X74783740Y-93765000D01*
X74496842Y-93822068D01*
X74226589Y-93934010D01*
X73983368Y-94096525D01*
X73851513Y-94228380D01*
X73829502Y-94155820D01*
X73770537Y-94045506D01*
X73691185Y-93948815D01*
X73594494Y-93869463D01*
X73484180Y-93810498D01*
X73364482Y-93774188D01*
X73240000Y-93761928D01*
X72675750Y-93765000D01*
X72517000Y-93923750D01*
X72517000Y-95123000D01*
X72537000Y-95123000D01*
X72537000Y-95377000D01*
X72517000Y-95377000D01*
X72517000Y-96576250D01*
X72675750Y-96735000D01*
X73240000Y-96738072D01*
X73364482Y-96725812D01*
X73484180Y-96689502D01*
X73594494Y-96630537D01*
X73691185Y-96551185D01*
X73770537Y-96454494D01*
X73829502Y-96344180D01*
X73851513Y-96271620D01*
X73983368Y-96403475D01*
X74226589Y-96565990D01*
X74496842Y-96677932D01*
X74783740Y-96735000D01*
X75076260Y-96735000D01*
X75363158Y-96677932D01*
X75633411Y-96565990D01*
X75876632Y-96403475D01*
X76083475Y-96196632D01*
X76200000Y-96022240D01*
X76316525Y-96196632D01*
X76523368Y-96403475D01*
X76766589Y-96565990D01*
X77036842Y-96677932D01*
X77323740Y-96735000D01*
X77616260Y-96735000D01*
X77903158Y-96677932D01*
X78173411Y-96565990D01*
X78416632Y-96403475D01*
X78623475Y-96196632D01*
X78740000Y-96022240D01*
X78856525Y-96196632D01*
X79063368Y-96403475D01*
X79306589Y-96565990D01*
X79576842Y-96677932D01*
X79863740Y-96735000D01*
X79935447Y-96735000D01*
X79921010Y-96769855D01*
X79887000Y-96940835D01*
X79887000Y-97115165D01*
X79921010Y-97286145D01*
X79987723Y-97447205D01*
X80084576Y-97592155D01*
X80207845Y-97715424D01*
X80282040Y-97765000D01*
X36515665Y-97765000D01*
X36589494Y-97725537D01*
X36686185Y-97646185D01*
X36765537Y-97549494D01*
X36824502Y-97439180D01*
X36860812Y-97319482D01*
X36873072Y-97195000D01*
X36873072Y-95845000D01*
X36860812Y-95720518D01*
X36824502Y-95600820D01*
X36765537Y-95490506D01*
X36686185Y-95393815D01*
X36589494Y-95314463D01*
X36479180Y-95255498D01*
X36359482Y-95219188D01*
X36235000Y-95206928D01*
X34885000Y-95206928D01*
X34760518Y-95219188D01*
X34640820Y-95255498D01*
X34530506Y-95314463D01*
X34433815Y-95393815D01*
X34354463Y-95490506D01*
X34295498Y-95600820D01*
X34259188Y-95720518D01*
X34246928Y-95845000D01*
X34246928Y-97195000D01*
X34259188Y-97319482D01*
X34295498Y-97439180D01*
X34354463Y-97549494D01*
X34433815Y-97646185D01*
X34530506Y-97725537D01*
X34604335Y-97765000D01*
X27330000Y-97765000D01*
X27330000Y-95103740D01*
X40425000Y-95103740D01*
X40425000Y-95396260D01*
X40482068Y-95683158D01*
X40594010Y-95953411D01*
X40756525Y-96196632D01*
X40963368Y-96403475D01*
X41206589Y-96565990D01*
X41476842Y-96677932D01*
X41763740Y-96735000D01*
X42056260Y-96735000D01*
X42343158Y-96677932D01*
X42613411Y-96565990D01*
X42856632Y-96403475D01*
X43063475Y-96196632D01*
X43180000Y-96022240D01*
X43296525Y-96196632D01*
X43503368Y-96403475D01*
X43746589Y-96565990D01*
X44016842Y-96677932D01*
X44303740Y-96735000D01*
X44596260Y-96735000D01*
X44883158Y-96677932D01*
X45153411Y-96565990D01*
X45396632Y-96403475D01*
X45528487Y-96271620D01*
X45550498Y-96344180D01*
X45609463Y-96454494D01*
X45688815Y-96551185D01*
X45785506Y-96630537D01*
X45895820Y-96689502D01*
X46015518Y-96725812D01*
X46140000Y-96738072D01*
X46704250Y-96735000D01*
X46863000Y-96576250D01*
X46863000Y-95377000D01*
X46843000Y-95377000D01*
X46843000Y-95123000D01*
X46863000Y-95123000D01*
X46863000Y-93923750D01*
X47117000Y-93923750D01*
X47117000Y-95123000D01*
X47137000Y-95123000D01*
X47137000Y-95377000D01*
X47117000Y-95377000D01*
X47117000Y-96576250D01*
X47275750Y-96735000D01*
X47840000Y-96738072D01*
X47964482Y-96725812D01*
X48084180Y-96689502D01*
X48194494Y-96630537D01*
X48291185Y-96551185D01*
X48370537Y-96454494D01*
X48429502Y-96344180D01*
X48451513Y-96271620D01*
X48583368Y-96403475D01*
X48826589Y-96565990D01*
X49096842Y-96677932D01*
X49383740Y-96735000D01*
X49676260Y-96735000D01*
X49963158Y-96677932D01*
X50233411Y-96565990D01*
X50476632Y-96403475D01*
X50683475Y-96196632D01*
X50800000Y-96022240D01*
X50916525Y-96196632D01*
X51123368Y-96403475D01*
X51366589Y-96565990D01*
X51636842Y-96677932D01*
X51923740Y-96735000D01*
X52216260Y-96735000D01*
X52503158Y-96677932D01*
X52773411Y-96565990D01*
X53016632Y-96403475D01*
X53223475Y-96196632D01*
X53340000Y-96022240D01*
X53456525Y-96196632D01*
X53663368Y-96403475D01*
X53906589Y-96565990D01*
X54176842Y-96677932D01*
X54463740Y-96735000D01*
X54756260Y-96735000D01*
X55043158Y-96677932D01*
X55313411Y-96565990D01*
X55556632Y-96403475D01*
X55763475Y-96196632D01*
X55880000Y-96022240D01*
X55996525Y-96196632D01*
X56203368Y-96403475D01*
X56446589Y-96565990D01*
X56716842Y-96677932D01*
X57003740Y-96735000D01*
X57296260Y-96735000D01*
X57583158Y-96677932D01*
X57853411Y-96565990D01*
X58096632Y-96403475D01*
X58228487Y-96271620D01*
X58250498Y-96344180D01*
X58309463Y-96454494D01*
X58388815Y-96551185D01*
X58485506Y-96630537D01*
X58595820Y-96689502D01*
X58715518Y-96725812D01*
X58840000Y-96738072D01*
X59404250Y-96735000D01*
X59563000Y-96576250D01*
X59563000Y-95377000D01*
X59543000Y-95377000D01*
X59543000Y-95123000D01*
X59563000Y-95123000D01*
X59563000Y-93923750D01*
X59817000Y-93923750D01*
X59817000Y-95123000D01*
X59837000Y-95123000D01*
X59837000Y-95377000D01*
X59817000Y-95377000D01*
X59817000Y-96576250D01*
X59975750Y-96735000D01*
X60540000Y-96738072D01*
X60664482Y-96725812D01*
X60784180Y-96689502D01*
X60894494Y-96630537D01*
X60991185Y-96551185D01*
X61070537Y-96454494D01*
X61129502Y-96344180D01*
X61151513Y-96271620D01*
X61283368Y-96403475D01*
X61526589Y-96565990D01*
X61796842Y-96677932D01*
X62083740Y-96735000D01*
X62376260Y-96735000D01*
X62663158Y-96677932D01*
X62933411Y-96565990D01*
X63176632Y-96403475D01*
X63383475Y-96196632D01*
X63500000Y-96022240D01*
X63616525Y-96196632D01*
X63823368Y-96403475D01*
X64066589Y-96565990D01*
X64336842Y-96677932D01*
X64623740Y-96735000D01*
X64916260Y-96735000D01*
X65203158Y-96677932D01*
X65473411Y-96565990D01*
X65716632Y-96403475D01*
X65923475Y-96196632D01*
X66040000Y-96022240D01*
X66156525Y-96196632D01*
X66363368Y-96403475D01*
X66606589Y-96565990D01*
X66876842Y-96677932D01*
X67163740Y-96735000D01*
X67456260Y-96735000D01*
X67743158Y-96677932D01*
X68013411Y-96565990D01*
X68256632Y-96403475D01*
X68463475Y-96196632D01*
X68580000Y-96022240D01*
X68696525Y-96196632D01*
X68903368Y-96403475D01*
X69146589Y-96565990D01*
X69416842Y-96677932D01*
X69703740Y-96735000D01*
X69996260Y-96735000D01*
X70283158Y-96677932D01*
X70553411Y-96565990D01*
X70796632Y-96403475D01*
X70928487Y-96271620D01*
X70950498Y-96344180D01*
X71009463Y-96454494D01*
X71088815Y-96551185D01*
X71185506Y-96630537D01*
X71295820Y-96689502D01*
X71415518Y-96725812D01*
X71540000Y-96738072D01*
X72104250Y-96735000D01*
X72263000Y-96576250D01*
X72263000Y-95377000D01*
X72243000Y-95377000D01*
X72243000Y-95123000D01*
X72263000Y-95123000D01*
X72263000Y-93923750D01*
X72104250Y-93765000D01*
X71540000Y-93761928D01*
X71415518Y-93774188D01*
X71295820Y-93810498D01*
X71185506Y-93869463D01*
X71088815Y-93948815D01*
X71009463Y-94045506D01*
X70950498Y-94155820D01*
X70928487Y-94228380D01*
X70796632Y-94096525D01*
X70553411Y-93934010D01*
X70283158Y-93822068D01*
X69996260Y-93765000D01*
X69703740Y-93765000D01*
X69416842Y-93822068D01*
X69146589Y-93934010D01*
X68903368Y-94096525D01*
X68696525Y-94303368D01*
X68580000Y-94477760D01*
X68463475Y-94303368D01*
X68256632Y-94096525D01*
X68013411Y-93934010D01*
X67743158Y-93822068D01*
X67456260Y-93765000D01*
X67163740Y-93765000D01*
X66876842Y-93822068D01*
X66606589Y-93934010D01*
X66363368Y-94096525D01*
X66156525Y-94303368D01*
X66040000Y-94477760D01*
X65923475Y-94303368D01*
X65716632Y-94096525D01*
X65473411Y-93934010D01*
X65203158Y-93822068D01*
X64916260Y-93765000D01*
X64623740Y-93765000D01*
X64336842Y-93822068D01*
X64066589Y-93934010D01*
X63823368Y-94096525D01*
X63616525Y-94303368D01*
X63500000Y-94477760D01*
X63383475Y-94303368D01*
X63176632Y-94096525D01*
X62933411Y-93934010D01*
X62663158Y-93822068D01*
X62376260Y-93765000D01*
X62083740Y-93765000D01*
X61796842Y-93822068D01*
X61526589Y-93934010D01*
X61283368Y-94096525D01*
X61151513Y-94228380D01*
X61129502Y-94155820D01*
X61070537Y-94045506D01*
X60991185Y-93948815D01*
X60894494Y-93869463D01*
X60784180Y-93810498D01*
X60664482Y-93774188D01*
X60540000Y-93761928D01*
X59975750Y-93765000D01*
X59817000Y-93923750D01*
X59563000Y-93923750D01*
X59404250Y-93765000D01*
X58840000Y-93761928D01*
X58715518Y-93774188D01*
X58595820Y-93810498D01*
X58485506Y-93869463D01*
X58388815Y-93948815D01*
X58309463Y-94045506D01*
X58250498Y-94155820D01*
X58228487Y-94228380D01*
X58096632Y-94096525D01*
X57853411Y-93934010D01*
X57583158Y-93822068D01*
X57296260Y-93765000D01*
X57003740Y-93765000D01*
X56716842Y-93822068D01*
X56446589Y-93934010D01*
X56203368Y-94096525D01*
X55996525Y-94303368D01*
X55880000Y-94477760D01*
X55763475Y-94303368D01*
X55556632Y-94096525D01*
X55313411Y-93934010D01*
X55043158Y-93822068D01*
X54756260Y-93765000D01*
X54463740Y-93765000D01*
X54176842Y-93822068D01*
X53906589Y-93934010D01*
X53663368Y-94096525D01*
X53456525Y-94303368D01*
X53340000Y-94477760D01*
X53223475Y-94303368D01*
X53016632Y-94096525D01*
X52773411Y-93934010D01*
X52503158Y-93822068D01*
X52216260Y-93765000D01*
X51923740Y-93765000D01*
X51636842Y-93822068D01*
X51366589Y-93934010D01*
X51123368Y-94096525D01*
X50916525Y-94303368D01*
X50800000Y-94477760D01*
X50683475Y-94303368D01*
X50476632Y-94096525D01*
X50233411Y-93934010D01*
X49963158Y-93822068D01*
X49676260Y-93765000D01*
X49383740Y-93765000D01*
X49096842Y-93822068D01*
X48826589Y-93934010D01*
X48583368Y-94096525D01*
X48451513Y-94228380D01*
X48429502Y-94155820D01*
X48370537Y-94045506D01*
X48291185Y-93948815D01*
X48194494Y-93869463D01*
X48084180Y-93810498D01*
X47964482Y-93774188D01*
X47840000Y-93761928D01*
X47275750Y-93765000D01*
X47117000Y-93923750D01*
X46863000Y-93923750D01*
X46704250Y-93765000D01*
X46140000Y-93761928D01*
X46015518Y-93774188D01*
X45895820Y-93810498D01*
X45785506Y-93869463D01*
X45688815Y-93948815D01*
X45609463Y-94045506D01*
X45550498Y-94155820D01*
X45528487Y-94228380D01*
X45396632Y-94096525D01*
X45153411Y-93934010D01*
X44883158Y-93822068D01*
X44596260Y-93765000D01*
X44303740Y-93765000D01*
X44016842Y-93822068D01*
X43746589Y-93934010D01*
X43503368Y-94096525D01*
X43296525Y-94303368D01*
X43180000Y-94477760D01*
X43063475Y-94303368D01*
X42856632Y-94096525D01*
X42613411Y-93934010D01*
X42343158Y-93822068D01*
X42056260Y-93765000D01*
X41763740Y-93765000D01*
X41476842Y-93822068D01*
X41206589Y-93934010D01*
X40963368Y-94096525D01*
X40756525Y-94303368D01*
X40594010Y-94546589D01*
X40482068Y-94816842D01*
X40425000Y-95103740D01*
X27330000Y-95103740D01*
X27330000Y-89052061D01*
X30461000Y-89052061D01*
X30461000Y-89255939D01*
X30500774Y-89455898D01*
X30578795Y-89644256D01*
X30692063Y-89813774D01*
X30836226Y-89957937D01*
X31005744Y-90071205D01*
X31194102Y-90149226D01*
X31394061Y-90189000D01*
X31597939Y-90189000D01*
X31797898Y-90149226D01*
X31986256Y-90071205D01*
X32155774Y-89957937D01*
X32299937Y-89813774D01*
X32413205Y-89644256D01*
X32491226Y-89455898D01*
X32531000Y-89255939D01*
X32531000Y-89052061D01*
X32507480Y-88933816D01*
X40505000Y-88933816D01*
X40505000Y-89236184D01*
X40563989Y-89532743D01*
X40679701Y-89812095D01*
X40847688Y-90063505D01*
X41061495Y-90277312D01*
X41312905Y-90445299D01*
X41592257Y-90561011D01*
X41888816Y-90620000D01*
X42191184Y-90620000D01*
X42487743Y-90561011D01*
X42767095Y-90445299D01*
X43018505Y-90277312D01*
X43232312Y-90063505D01*
X43400299Y-89812095D01*
X43516011Y-89532743D01*
X43575000Y-89236184D01*
X43575000Y-88933816D01*
X43518266Y-88648589D01*
X43685000Y-88648589D01*
X43685000Y-88921411D01*
X43738225Y-89188989D01*
X43842629Y-89441043D01*
X43994201Y-89667886D01*
X44187114Y-89860799D01*
X44413957Y-90012371D01*
X44666011Y-90116775D01*
X44933589Y-90170000D01*
X45206411Y-90170000D01*
X45473989Y-90116775D01*
X45726043Y-90012371D01*
X45952886Y-89860799D01*
X46145799Y-89667886D01*
X46297371Y-89441043D01*
X46401775Y-89188989D01*
X46455000Y-88921411D01*
X46455000Y-88812835D01*
X53979000Y-88812835D01*
X53979000Y-88987165D01*
X54013010Y-89158145D01*
X54079723Y-89319205D01*
X54176576Y-89464155D01*
X54299845Y-89587424D01*
X54444795Y-89684277D01*
X54605855Y-89750990D01*
X54776835Y-89785000D01*
X54951165Y-89785000D01*
X55122145Y-89750990D01*
X55283205Y-89684277D01*
X55428155Y-89587424D01*
X55551424Y-89464155D01*
X55648277Y-89319205D01*
X55709763Y-89170763D01*
X55858205Y-89109277D01*
X56003155Y-89012424D01*
X56126424Y-88889155D01*
X56223277Y-88744205D01*
X56289990Y-88583145D01*
X56324000Y-88412165D01*
X56324000Y-88237835D01*
X56289990Y-88066855D01*
X56223277Y-87905795D01*
X56126424Y-87760845D01*
X56003155Y-87637576D01*
X55858205Y-87540723D01*
X55697145Y-87474010D01*
X55526165Y-87440000D01*
X55351835Y-87440000D01*
X55180855Y-87474010D01*
X55019795Y-87540723D01*
X54874845Y-87637576D01*
X54751576Y-87760845D01*
X54654723Y-87905795D01*
X54593237Y-88054237D01*
X54444795Y-88115723D01*
X54299845Y-88212576D01*
X54176576Y-88335845D01*
X54079723Y-88480795D01*
X54013010Y-88641855D01*
X53979000Y-88812835D01*
X46455000Y-88812835D01*
X46455000Y-88648589D01*
X46401775Y-88381011D01*
X46297371Y-88128957D01*
X46145799Y-87902114D01*
X45952886Y-87709201D01*
X45726043Y-87557629D01*
X45473989Y-87453225D01*
X45206411Y-87400000D01*
X44933589Y-87400000D01*
X44666011Y-87453225D01*
X44413957Y-87557629D01*
X44187114Y-87709201D01*
X43994201Y-87902114D01*
X43842629Y-88128957D01*
X43738225Y-88381011D01*
X43685000Y-88648589D01*
X43518266Y-88648589D01*
X43516011Y-88637257D01*
X43400299Y-88357905D01*
X43232312Y-88106495D01*
X43018505Y-87892688D01*
X42767095Y-87724701D01*
X42487743Y-87608989D01*
X42191184Y-87550000D01*
X41888816Y-87550000D01*
X41592257Y-87608989D01*
X41312905Y-87724701D01*
X41061495Y-87892688D01*
X40847688Y-88106495D01*
X40679701Y-88357905D01*
X40563989Y-88637257D01*
X40505000Y-88933816D01*
X32507480Y-88933816D01*
X32491226Y-88852102D01*
X32413205Y-88663744D01*
X32299937Y-88494226D01*
X32155774Y-88350063D01*
X31986256Y-88236795D01*
X31797898Y-88158774D01*
X31597939Y-88119000D01*
X31394061Y-88119000D01*
X31194102Y-88158774D01*
X31005744Y-88236795D01*
X30836226Y-88350063D01*
X30692063Y-88494226D01*
X30578795Y-88663744D01*
X30500774Y-88852102D01*
X30461000Y-89052061D01*
X27330000Y-89052061D01*
X27330000Y-87288835D01*
X49661000Y-87288835D01*
X49661000Y-87463165D01*
X49695010Y-87634145D01*
X49761723Y-87795205D01*
X49858576Y-87940155D01*
X49981845Y-88063424D01*
X50126795Y-88160277D01*
X50287855Y-88226990D01*
X50458835Y-88261000D01*
X50633165Y-88261000D01*
X50804145Y-88226990D01*
X50965205Y-88160277D01*
X51110155Y-88063424D01*
X51233424Y-87940155D01*
X51330277Y-87795205D01*
X51396990Y-87634145D01*
X51431000Y-87463165D01*
X51431000Y-87288835D01*
X51693000Y-87288835D01*
X51693000Y-87463165D01*
X51727010Y-87634145D01*
X51793723Y-87795205D01*
X51890576Y-87940155D01*
X52013845Y-88063424D01*
X52158795Y-88160277D01*
X52319855Y-88226990D01*
X52490835Y-88261000D01*
X52665165Y-88261000D01*
X52836145Y-88226990D01*
X52997205Y-88160277D01*
X53142155Y-88063424D01*
X53265424Y-87940155D01*
X53362277Y-87795205D01*
X53428990Y-87634145D01*
X53463000Y-87463165D01*
X53463000Y-87288835D01*
X53428990Y-87117855D01*
X53362277Y-86956795D01*
X53265424Y-86811845D01*
X53142155Y-86688576D01*
X52997205Y-86591723D01*
X52836145Y-86525010D01*
X52665165Y-86491000D01*
X52490835Y-86491000D01*
X52319855Y-86525010D01*
X52158795Y-86591723D01*
X52013845Y-86688576D01*
X51890576Y-86811845D01*
X51793723Y-86956795D01*
X51727010Y-87117855D01*
X51693000Y-87288835D01*
X51431000Y-87288835D01*
X51396990Y-87117855D01*
X51330277Y-86956795D01*
X51233424Y-86811845D01*
X51110155Y-86688576D01*
X50965205Y-86591723D01*
X50804145Y-86525010D01*
X50633165Y-86491000D01*
X50458835Y-86491000D01*
X50287855Y-86525010D01*
X50126795Y-86591723D01*
X49981845Y-86688576D01*
X49858576Y-86811845D01*
X49761723Y-86956795D01*
X49695010Y-87117855D01*
X49661000Y-87288835D01*
X27330000Y-87288835D01*
X27330000Y-85648061D01*
X34423000Y-85648061D01*
X34423000Y-85851939D01*
X34462774Y-86051898D01*
X34540795Y-86240256D01*
X34654063Y-86409774D01*
X34798226Y-86553937D01*
X34967744Y-86667205D01*
X35156102Y-86745226D01*
X35356061Y-86785000D01*
X35559939Y-86785000D01*
X35759898Y-86745226D01*
X35948256Y-86667205D01*
X36117774Y-86553937D01*
X36261937Y-86409774D01*
X36353436Y-86272835D01*
X55249000Y-86272835D01*
X55249000Y-86447165D01*
X55283010Y-86618145D01*
X55349723Y-86779205D01*
X55446576Y-86924155D01*
X55569845Y-87047424D01*
X55714795Y-87144277D01*
X55875855Y-87210990D01*
X56046835Y-87245000D01*
X56221165Y-87245000D01*
X56392145Y-87210990D01*
X56553205Y-87144277D01*
X56698155Y-87047424D01*
X56821424Y-86924155D01*
X56918277Y-86779205D01*
X56984990Y-86618145D01*
X57019000Y-86447165D01*
X57019000Y-86272835D01*
X56984990Y-86101855D01*
X56918277Y-85940795D01*
X56821424Y-85795845D01*
X56710579Y-85685000D01*
X57106928Y-85685000D01*
X57106928Y-87035000D01*
X57119188Y-87159482D01*
X57155498Y-87279180D01*
X57214463Y-87389494D01*
X57293815Y-87486185D01*
X57390506Y-87565537D01*
X57500820Y-87624502D01*
X57518944Y-87630000D01*
X57500820Y-87635498D01*
X57390506Y-87694463D01*
X57293815Y-87773815D01*
X57214463Y-87870506D01*
X57155498Y-87980820D01*
X57119188Y-88100518D01*
X57106928Y-88225000D01*
X57106928Y-89575000D01*
X57119188Y-89699482D01*
X57155498Y-89819180D01*
X57214463Y-89929494D01*
X57293815Y-90026185D01*
X57390506Y-90105537D01*
X57500820Y-90164502D01*
X57518944Y-90170000D01*
X57500820Y-90175498D01*
X57390506Y-90234463D01*
X57293815Y-90313815D01*
X57214463Y-90410506D01*
X57155498Y-90520820D01*
X57119188Y-90640518D01*
X57106928Y-90765000D01*
X57106928Y-92115000D01*
X57119188Y-92239482D01*
X57155498Y-92359180D01*
X57214463Y-92469494D01*
X57293815Y-92566185D01*
X57390506Y-92645537D01*
X57500820Y-92704502D01*
X57620518Y-92740812D01*
X57745000Y-92753072D01*
X59095000Y-92753072D01*
X59219482Y-92740812D01*
X59339180Y-92704502D01*
X59449494Y-92645537D01*
X59546185Y-92566185D01*
X59625537Y-92469494D01*
X59684502Y-92359180D01*
X59720812Y-92239482D01*
X59733072Y-92115000D01*
X59733072Y-90765000D01*
X59720812Y-90640518D01*
X59684502Y-90520820D01*
X59625537Y-90410506D01*
X59546185Y-90313815D01*
X59449494Y-90234463D01*
X59339180Y-90175498D01*
X59321056Y-90170000D01*
X59339180Y-90164502D01*
X59449494Y-90105537D01*
X59546185Y-90026185D01*
X59625537Y-89929494D01*
X59684502Y-89819180D01*
X59720812Y-89699482D01*
X59733072Y-89575000D01*
X59733072Y-88225000D01*
X59720812Y-88100518D01*
X59705741Y-88050835D01*
X60837000Y-88050835D01*
X60837000Y-88225165D01*
X60871010Y-88396145D01*
X60937723Y-88557205D01*
X61034576Y-88702155D01*
X61157845Y-88825424D01*
X61302795Y-88922277D01*
X61463855Y-88988990D01*
X61634835Y-89023000D01*
X61809165Y-89023000D01*
X61980145Y-88988990D01*
X62141205Y-88922277D01*
X62286155Y-88825424D01*
X62409424Y-88702155D01*
X62506277Y-88557205D01*
X62572990Y-88396145D01*
X62607000Y-88225165D01*
X62607000Y-88050835D01*
X62572990Y-87879855D01*
X62506277Y-87718795D01*
X62409424Y-87573845D01*
X62286155Y-87450576D01*
X62141205Y-87353723D01*
X61980145Y-87287010D01*
X61809165Y-87253000D01*
X61634835Y-87253000D01*
X61463855Y-87287010D01*
X61302795Y-87353723D01*
X61157845Y-87450576D01*
X61034576Y-87573845D01*
X60937723Y-87718795D01*
X60871010Y-87879855D01*
X60837000Y-88050835D01*
X59705741Y-88050835D01*
X59684502Y-87980820D01*
X59625537Y-87870506D01*
X59546185Y-87773815D01*
X59449494Y-87694463D01*
X59339180Y-87635498D01*
X59321056Y-87630000D01*
X59339180Y-87624502D01*
X59449494Y-87565537D01*
X59546185Y-87486185D01*
X59625537Y-87389494D01*
X59684502Y-87279180D01*
X59720812Y-87159482D01*
X59733072Y-87035000D01*
X59733072Y-85685000D01*
X59720812Y-85560518D01*
X59684502Y-85440820D01*
X59625537Y-85330506D01*
X59546185Y-85233815D01*
X59449494Y-85154463D01*
X59339180Y-85095498D01*
X59219482Y-85059188D01*
X59095000Y-85046928D01*
X57745000Y-85046928D01*
X57620518Y-85059188D01*
X57500820Y-85095498D01*
X57390506Y-85154463D01*
X57293815Y-85233815D01*
X57214463Y-85330506D01*
X57155498Y-85440820D01*
X57119188Y-85560518D01*
X57106928Y-85685000D01*
X56710579Y-85685000D01*
X56698155Y-85672576D01*
X56553205Y-85575723D01*
X56392145Y-85509010D01*
X56221165Y-85475000D01*
X56046835Y-85475000D01*
X55875855Y-85509010D01*
X55714795Y-85575723D01*
X55569845Y-85672576D01*
X55446576Y-85795845D01*
X55349723Y-85940795D01*
X55283010Y-86101855D01*
X55249000Y-86272835D01*
X36353436Y-86272835D01*
X36375205Y-86240256D01*
X36453226Y-86051898D01*
X36493000Y-85851939D01*
X36493000Y-85648061D01*
X36453226Y-85448102D01*
X36375205Y-85259744D01*
X36261937Y-85090226D01*
X36117774Y-84946063D01*
X35948256Y-84832795D01*
X35759898Y-84754774D01*
X35559939Y-84715000D01*
X35356061Y-84715000D01*
X35156102Y-84754774D01*
X34967744Y-84832795D01*
X34798226Y-84946063D01*
X34654063Y-85090226D01*
X34540795Y-85259744D01*
X34462774Y-85448102D01*
X34423000Y-85648061D01*
X27330000Y-85648061D01*
X27330000Y-83483816D01*
X40505000Y-83483816D01*
X40505000Y-83786184D01*
X40563989Y-84082743D01*
X40679701Y-84362095D01*
X40847688Y-84613505D01*
X41061495Y-84827312D01*
X41312905Y-84995299D01*
X41592257Y-85111011D01*
X41888816Y-85170000D01*
X42191184Y-85170000D01*
X42487743Y-85111011D01*
X42767095Y-84995299D01*
X43018505Y-84827312D01*
X43232312Y-84613505D01*
X43400299Y-84362095D01*
X43516011Y-84082743D01*
X43572532Y-83798589D01*
X43685000Y-83798589D01*
X43685000Y-84071411D01*
X43738225Y-84338989D01*
X43842629Y-84591043D01*
X43994201Y-84817886D01*
X44187114Y-85010799D01*
X44413957Y-85162371D01*
X44666011Y-85266775D01*
X44933589Y-85320000D01*
X45206411Y-85320000D01*
X45473989Y-85266775D01*
X45726043Y-85162371D01*
X45952886Y-85010799D01*
X45960850Y-85002835D01*
X46867000Y-85002835D01*
X46867000Y-85177165D01*
X46901010Y-85348145D01*
X46967723Y-85509205D01*
X47064576Y-85654155D01*
X47187845Y-85777424D01*
X47332795Y-85874277D01*
X47493855Y-85940990D01*
X47664835Y-85975000D01*
X47839165Y-85975000D01*
X48010145Y-85940990D01*
X48171205Y-85874277D01*
X48316155Y-85777424D01*
X48439424Y-85654155D01*
X48536277Y-85509205D01*
X48602990Y-85348145D01*
X48637000Y-85177165D01*
X48637000Y-85002835D01*
X48602990Y-84831855D01*
X48536277Y-84670795D01*
X48439424Y-84525845D01*
X48316155Y-84402576D01*
X48171205Y-84305723D01*
X48010145Y-84239010D01*
X47839165Y-84205000D01*
X47664835Y-84205000D01*
X47493855Y-84239010D01*
X47332795Y-84305723D01*
X47187845Y-84402576D01*
X47064576Y-84525845D01*
X46967723Y-84670795D01*
X46901010Y-84831855D01*
X46867000Y-85002835D01*
X45960850Y-85002835D01*
X46145799Y-84817886D01*
X46297371Y-84591043D01*
X46401775Y-84338989D01*
X46455000Y-84071411D01*
X46455000Y-83986835D01*
X53979000Y-83986835D01*
X53979000Y-84161165D01*
X54013010Y-84332145D01*
X54079723Y-84493205D01*
X54176576Y-84638155D01*
X54299845Y-84761424D01*
X54444795Y-84858277D01*
X54605855Y-84924990D01*
X54776835Y-84959000D01*
X54951165Y-84959000D01*
X55122145Y-84924990D01*
X55283205Y-84858277D01*
X55428155Y-84761424D01*
X55551424Y-84638155D01*
X55648277Y-84493205D01*
X55690140Y-84392140D01*
X55791205Y-84350277D01*
X55936155Y-84253424D01*
X56059424Y-84130155D01*
X56156277Y-83985205D01*
X56198140Y-83884140D01*
X56299205Y-83842277D01*
X56444155Y-83745424D01*
X56567424Y-83622155D01*
X56664277Y-83477205D01*
X56730990Y-83316145D01*
X56765000Y-83145165D01*
X56765000Y-82970835D01*
X56730990Y-82799855D01*
X56664277Y-82638795D01*
X56628865Y-82585797D01*
X56679482Y-82580812D01*
X56799180Y-82544502D01*
X56909494Y-82485537D01*
X57006185Y-82406185D01*
X57085537Y-82309494D01*
X57144502Y-82199180D01*
X57180812Y-82079482D01*
X57193072Y-81955000D01*
X57193072Y-81192835D01*
X60837000Y-81192835D01*
X60837000Y-81367165D01*
X60871010Y-81538145D01*
X60937723Y-81699205D01*
X61034576Y-81844155D01*
X61157845Y-81967424D01*
X61302795Y-82064277D01*
X61463855Y-82130990D01*
X61634835Y-82165000D01*
X61809165Y-82165000D01*
X61980145Y-82130990D01*
X62141205Y-82064277D01*
X62286155Y-81967424D01*
X62409424Y-81844155D01*
X62506277Y-81699205D01*
X62572990Y-81538145D01*
X62607000Y-81367165D01*
X62607000Y-81192835D01*
X62572990Y-81021855D01*
X62506277Y-80860795D01*
X62409424Y-80715845D01*
X62298579Y-80605000D01*
X64726928Y-80605000D01*
X64726928Y-81955000D01*
X64739188Y-82079482D01*
X64775498Y-82199180D01*
X64834463Y-82309494D01*
X64913815Y-82406185D01*
X65010506Y-82485537D01*
X65120820Y-82544502D01*
X65138944Y-82550000D01*
X65120820Y-82555498D01*
X65010506Y-82614463D01*
X64913815Y-82693815D01*
X64834463Y-82790506D01*
X64775498Y-82900820D01*
X64739188Y-83020518D01*
X64726928Y-83145000D01*
X64726928Y-84495000D01*
X64739188Y-84619482D01*
X64775498Y-84739180D01*
X64834463Y-84849494D01*
X64913815Y-84946185D01*
X65010506Y-85025537D01*
X65120820Y-85084502D01*
X65138944Y-85090000D01*
X65120820Y-85095498D01*
X65010506Y-85154463D01*
X64913815Y-85233815D01*
X64834463Y-85330506D01*
X64775498Y-85440820D01*
X64739188Y-85560518D01*
X64726928Y-85685000D01*
X64726928Y-87035000D01*
X64739188Y-87159482D01*
X64775498Y-87279180D01*
X64834463Y-87389494D01*
X64913815Y-87486185D01*
X65010506Y-87565537D01*
X65120820Y-87624502D01*
X65138944Y-87630000D01*
X65120820Y-87635498D01*
X65010506Y-87694463D01*
X64913815Y-87773815D01*
X64834463Y-87870506D01*
X64775498Y-87980820D01*
X64739188Y-88100518D01*
X64726928Y-88225000D01*
X64726928Y-89575000D01*
X64739188Y-89699482D01*
X64775498Y-89819180D01*
X64834463Y-89929494D01*
X64913815Y-90026185D01*
X65010506Y-90105537D01*
X65120820Y-90164502D01*
X65138944Y-90170000D01*
X65120820Y-90175498D01*
X65010506Y-90234463D01*
X64913815Y-90313815D01*
X64834463Y-90410506D01*
X64775498Y-90520820D01*
X64739188Y-90640518D01*
X64726928Y-90765000D01*
X64726928Y-92115000D01*
X64739188Y-92239482D01*
X64775498Y-92359180D01*
X64834463Y-92469494D01*
X64913815Y-92566185D01*
X65010506Y-92645537D01*
X65120820Y-92704502D01*
X65240518Y-92740812D01*
X65365000Y-92753072D01*
X66715000Y-92753072D01*
X66839482Y-92740812D01*
X66959180Y-92704502D01*
X67069494Y-92645537D01*
X67166185Y-92566185D01*
X67245537Y-92469494D01*
X67304502Y-92359180D01*
X67340812Y-92239482D01*
X67353072Y-92115000D01*
X67353072Y-91606835D01*
X79192000Y-91606835D01*
X79192000Y-91781165D01*
X79226010Y-91952145D01*
X79292723Y-92113205D01*
X79389576Y-92258155D01*
X79512845Y-92381424D01*
X79657795Y-92478277D01*
X79818855Y-92544990D01*
X79989835Y-92579000D01*
X80164165Y-92579000D01*
X80335145Y-92544990D01*
X80496205Y-92478277D01*
X80641155Y-92381424D01*
X80764424Y-92258155D01*
X80861277Y-92113205D01*
X80927990Y-91952145D01*
X80962000Y-91781165D01*
X80962000Y-91606835D01*
X80927990Y-91435855D01*
X80861277Y-91274795D01*
X80764424Y-91129845D01*
X80641155Y-91006576D01*
X80496205Y-90909723D01*
X80335145Y-90843010D01*
X80164165Y-90809000D01*
X79989835Y-90809000D01*
X79818855Y-90843010D01*
X79657795Y-90909723D01*
X79512845Y-91006576D01*
X79389576Y-91129845D01*
X79292723Y-91274795D01*
X79226010Y-91435855D01*
X79192000Y-91606835D01*
X67353072Y-91606835D01*
X67353072Y-90765000D01*
X67340812Y-90640518D01*
X67304502Y-90520820D01*
X67245537Y-90410506D01*
X67185077Y-90336835D01*
X69473000Y-90336835D01*
X69473000Y-90511165D01*
X69507010Y-90682145D01*
X69573723Y-90843205D01*
X69670576Y-90988155D01*
X69793845Y-91111424D01*
X69938795Y-91208277D01*
X70099855Y-91274990D01*
X70270835Y-91309000D01*
X70445165Y-91309000D01*
X70616145Y-91274990D01*
X70777205Y-91208277D01*
X70922155Y-91111424D01*
X71045424Y-90988155D01*
X71142277Y-90843205D01*
X71208990Y-90682145D01*
X71243000Y-90511165D01*
X71243000Y-90336835D01*
X71759000Y-90336835D01*
X71759000Y-90511165D01*
X71793010Y-90682145D01*
X71859723Y-90843205D01*
X71956576Y-90988155D01*
X72079845Y-91111424D01*
X72224795Y-91208277D01*
X72385855Y-91274990D01*
X72556835Y-91309000D01*
X72731165Y-91309000D01*
X72902145Y-91274990D01*
X73025000Y-91224102D01*
X73147855Y-91274990D01*
X73318835Y-91309000D01*
X73493165Y-91309000D01*
X73664145Y-91274990D01*
X73825205Y-91208277D01*
X73970155Y-91111424D01*
X74093424Y-90988155D01*
X74190277Y-90843205D01*
X74256990Y-90682145D01*
X74291000Y-90511165D01*
X74291000Y-90336835D01*
X74256990Y-90165855D01*
X74190277Y-90004795D01*
X74093424Y-89859845D01*
X73970155Y-89736576D01*
X73825205Y-89639723D01*
X73668551Y-89574835D01*
X77855000Y-89574835D01*
X77855000Y-89749165D01*
X77889010Y-89920145D01*
X77955723Y-90081205D01*
X78052576Y-90226155D01*
X78175845Y-90349424D01*
X78320795Y-90446277D01*
X78481855Y-90512990D01*
X78652835Y-90547000D01*
X78827165Y-90547000D01*
X78998145Y-90512990D01*
X79159205Y-90446277D01*
X79304155Y-90349424D01*
X79427424Y-90226155D01*
X79524277Y-90081205D01*
X79590990Y-89920145D01*
X79625000Y-89749165D01*
X79625000Y-89574835D01*
X79619115Y-89545248D01*
X83980587Y-89545248D01*
X83980587Y-89719578D01*
X84014597Y-89890558D01*
X84081310Y-90051618D01*
X84178163Y-90196568D01*
X84301432Y-90319837D01*
X84446382Y-90416690D01*
X84607442Y-90483403D01*
X84778422Y-90517413D01*
X84952752Y-90517413D01*
X85123732Y-90483403D01*
X85284792Y-90416690D01*
X85429742Y-90319837D01*
X85553011Y-90196568D01*
X85649864Y-90051618D01*
X85716577Y-89890558D01*
X85750587Y-89719578D01*
X85750587Y-89545248D01*
X85716577Y-89374268D01*
X85649864Y-89213208D01*
X85553011Y-89068258D01*
X85551588Y-89066835D01*
X86999000Y-89066835D01*
X86999000Y-89241165D01*
X87033010Y-89412145D01*
X87099723Y-89573205D01*
X87196576Y-89718155D01*
X87319845Y-89841424D01*
X87464795Y-89938277D01*
X87625855Y-90004990D01*
X87796835Y-90039000D01*
X87971165Y-90039000D01*
X88142145Y-90004990D01*
X88303205Y-89938277D01*
X88448155Y-89841424D01*
X88571424Y-89718155D01*
X88636052Y-89621433D01*
X88786525Y-89846632D01*
X88993368Y-90053475D01*
X89236589Y-90215990D01*
X89506842Y-90327932D01*
X89793740Y-90385000D01*
X90086260Y-90385000D01*
X90328399Y-90336835D01*
X92333000Y-90336835D01*
X92333000Y-90511165D01*
X92367010Y-90682145D01*
X92433723Y-90843205D01*
X92530576Y-90988155D01*
X92653845Y-91111424D01*
X92798795Y-91208277D01*
X92959855Y-91274990D01*
X93130835Y-91309000D01*
X93305165Y-91309000D01*
X93476145Y-91274990D01*
X93637205Y-91208277D01*
X93782155Y-91111424D01*
X93905424Y-90988155D01*
X94002277Y-90843205D01*
X94068990Y-90682145D01*
X94103000Y-90511165D01*
X94103000Y-90336835D01*
X94068990Y-90165855D01*
X94002277Y-90004795D01*
X93905424Y-89859845D01*
X93782155Y-89736576D01*
X93637205Y-89639723D01*
X93476145Y-89573010D01*
X93305165Y-89539000D01*
X93130835Y-89539000D01*
X92959855Y-89573010D01*
X92798795Y-89639723D01*
X92653845Y-89736576D01*
X92530576Y-89859845D01*
X92433723Y-90004795D01*
X92367010Y-90165855D01*
X92333000Y-90336835D01*
X90328399Y-90336835D01*
X90373158Y-90327932D01*
X90643411Y-90215990D01*
X90886632Y-90053475D01*
X91093475Y-89846632D01*
X91255990Y-89603411D01*
X91367932Y-89333158D01*
X91425000Y-89046260D01*
X91425000Y-88753740D01*
X91367932Y-88466842D01*
X91255990Y-88196589D01*
X91158601Y-88050835D01*
X98175000Y-88050835D01*
X98175000Y-88225165D01*
X98209010Y-88396145D01*
X98275723Y-88557205D01*
X98372576Y-88702155D01*
X98495845Y-88825424D01*
X98640795Y-88922277D01*
X98801855Y-88988990D01*
X98972835Y-89023000D01*
X99147165Y-89023000D01*
X99318145Y-88988990D01*
X99479205Y-88922277D01*
X99624155Y-88825424D01*
X99747424Y-88702155D01*
X99844277Y-88557205D01*
X99910990Y-88396145D01*
X99945000Y-88225165D01*
X99945000Y-88050835D01*
X99944834Y-88050000D01*
X100111928Y-88050000D01*
X100111928Y-89750000D01*
X100124188Y-89874482D01*
X100160498Y-89994180D01*
X100219463Y-90104494D01*
X100298815Y-90201185D01*
X100395506Y-90280537D01*
X100505820Y-90339502D01*
X100586466Y-90363966D01*
X100502412Y-90439731D01*
X100328359Y-90673080D01*
X100203175Y-90935901D01*
X100158524Y-91083110D01*
X100279845Y-91313000D01*
X101473000Y-91313000D01*
X101473000Y-91293000D01*
X101727000Y-91293000D01*
X101727000Y-91313000D01*
X102920155Y-91313000D01*
X103041476Y-91083110D01*
X102996825Y-90935901D01*
X102871641Y-90673080D01*
X102697588Y-90439731D01*
X102613534Y-90363966D01*
X102694180Y-90339502D01*
X102804494Y-90280537D01*
X102901185Y-90201185D01*
X102980537Y-90104494D01*
X103039502Y-89994180D01*
X103075812Y-89874482D01*
X103088072Y-89750000D01*
X103088072Y-88050000D01*
X103075812Y-87925518D01*
X103039502Y-87805820D01*
X102980537Y-87695506D01*
X102901185Y-87598815D01*
X102804494Y-87519463D01*
X102694180Y-87460498D01*
X102574482Y-87424188D01*
X102450000Y-87411928D01*
X100750000Y-87411928D01*
X100625518Y-87424188D01*
X100505820Y-87460498D01*
X100395506Y-87519463D01*
X100298815Y-87598815D01*
X100219463Y-87695506D01*
X100160498Y-87805820D01*
X100124188Y-87925518D01*
X100111928Y-88050000D01*
X99944834Y-88050000D01*
X99910990Y-87879855D01*
X99844277Y-87718795D01*
X99747424Y-87573845D01*
X99624155Y-87450576D01*
X99479205Y-87353723D01*
X99318145Y-87287010D01*
X99147165Y-87253000D01*
X98972835Y-87253000D01*
X98801855Y-87287010D01*
X98640795Y-87353723D01*
X98495845Y-87450576D01*
X98372576Y-87573845D01*
X98275723Y-87718795D01*
X98209010Y-87879855D01*
X98175000Y-88050835D01*
X91158601Y-88050835D01*
X91093475Y-87953368D01*
X90961620Y-87821513D01*
X91034180Y-87799502D01*
X91144494Y-87740537D01*
X91241185Y-87661185D01*
X91320537Y-87564494D01*
X91379502Y-87454180D01*
X91415812Y-87334482D01*
X91428072Y-87210000D01*
X91425000Y-86645750D01*
X91266250Y-86487000D01*
X90067000Y-86487000D01*
X90067000Y-86507000D01*
X89813000Y-86507000D01*
X89813000Y-86487000D01*
X88613750Y-86487000D01*
X88455000Y-86645750D01*
X88451928Y-87210000D01*
X88464188Y-87334482D01*
X88500498Y-87454180D01*
X88559463Y-87564494D01*
X88638815Y-87661185D01*
X88735506Y-87740537D01*
X88845820Y-87799502D01*
X88918380Y-87821513D01*
X88786525Y-87953368D01*
X88624010Y-88196589D01*
X88512068Y-88466842D01*
X88501508Y-88519929D01*
X88448155Y-88466576D01*
X88303205Y-88369723D01*
X88142145Y-88303010D01*
X87971165Y-88269000D01*
X87796835Y-88269000D01*
X87625855Y-88303010D01*
X87464795Y-88369723D01*
X87319845Y-88466576D01*
X87196576Y-88589845D01*
X87099723Y-88734795D01*
X87033010Y-88895855D01*
X86999000Y-89066835D01*
X85551588Y-89066835D01*
X85429742Y-88944989D01*
X85284792Y-88848136D01*
X85123732Y-88781423D01*
X84952752Y-88747413D01*
X84778422Y-88747413D01*
X84607442Y-88781423D01*
X84446382Y-88848136D01*
X84301432Y-88944989D01*
X84178163Y-89068258D01*
X84081310Y-89213208D01*
X84014597Y-89374268D01*
X83980587Y-89545248D01*
X79619115Y-89545248D01*
X79590990Y-89403855D01*
X79524277Y-89242795D01*
X79427424Y-89097845D01*
X79304155Y-88974576D01*
X79159205Y-88877723D01*
X78998145Y-88811010D01*
X78827165Y-88777000D01*
X78652835Y-88777000D01*
X78481855Y-88811010D01*
X78320795Y-88877723D01*
X78175845Y-88974576D01*
X78052576Y-89097845D01*
X77955723Y-89242795D01*
X77889010Y-89403855D01*
X77855000Y-89574835D01*
X73668551Y-89574835D01*
X73664145Y-89573010D01*
X73493165Y-89539000D01*
X73318835Y-89539000D01*
X73147855Y-89573010D01*
X73025000Y-89623898D01*
X72902145Y-89573010D01*
X72731165Y-89539000D01*
X72556835Y-89539000D01*
X72385855Y-89573010D01*
X72224795Y-89639723D01*
X72079845Y-89736576D01*
X71956576Y-89859845D01*
X71859723Y-90004795D01*
X71793010Y-90165855D01*
X71759000Y-90336835D01*
X71243000Y-90336835D01*
X71208990Y-90165855D01*
X71142277Y-90004795D01*
X71045424Y-89859845D01*
X70922155Y-89736576D01*
X70777205Y-89639723D01*
X70616145Y-89573010D01*
X70445165Y-89539000D01*
X70270835Y-89539000D01*
X70099855Y-89573010D01*
X69938795Y-89639723D01*
X69793845Y-89736576D01*
X69670576Y-89859845D01*
X69573723Y-90004795D01*
X69507010Y-90165855D01*
X69473000Y-90336835D01*
X67185077Y-90336835D01*
X67166185Y-90313815D01*
X67069494Y-90234463D01*
X66959180Y-90175498D01*
X66941056Y-90170000D01*
X66959180Y-90164502D01*
X67069494Y-90105537D01*
X67166185Y-90026185D01*
X67245537Y-89929494D01*
X67304502Y-89819180D01*
X67340812Y-89699482D01*
X67353072Y-89575000D01*
X67353072Y-88375836D01*
X72521000Y-88375836D01*
X72521000Y-88550166D01*
X72555010Y-88721146D01*
X72621723Y-88882206D01*
X72718576Y-89027156D01*
X72841845Y-89150425D01*
X72986795Y-89247278D01*
X73147855Y-89313991D01*
X73318835Y-89348001D01*
X73493165Y-89348001D01*
X73664145Y-89313991D01*
X73825205Y-89247278D01*
X73970155Y-89150425D01*
X74093424Y-89027156D01*
X74190277Y-88882206D01*
X74256990Y-88721146D01*
X74291000Y-88550166D01*
X74291000Y-88375836D01*
X79379000Y-88375836D01*
X79379000Y-88550166D01*
X79413010Y-88721146D01*
X79479723Y-88882206D01*
X79576576Y-89027156D01*
X79699845Y-89150425D01*
X79844795Y-89247278D01*
X80005855Y-89313991D01*
X80176835Y-89348001D01*
X80351165Y-89348001D01*
X80522145Y-89313991D01*
X80683205Y-89247278D01*
X80828155Y-89150425D01*
X80951424Y-89027156D01*
X81048277Y-88882206D01*
X81114990Y-88721146D01*
X81149000Y-88550166D01*
X81149000Y-88375836D01*
X81114990Y-88204856D01*
X81048277Y-88043796D01*
X80951424Y-87898846D01*
X80828155Y-87775577D01*
X80683205Y-87678724D01*
X80522145Y-87612011D01*
X80351165Y-87578001D01*
X80176835Y-87578001D01*
X80005855Y-87612011D01*
X79844795Y-87678724D01*
X79699845Y-87775577D01*
X79576576Y-87898846D01*
X79479723Y-88043796D01*
X79413010Y-88204856D01*
X79379000Y-88375836D01*
X74291000Y-88375836D01*
X74256990Y-88204856D01*
X74190277Y-88043796D01*
X74093424Y-87898846D01*
X73970155Y-87775577D01*
X73825205Y-87678724D01*
X73664145Y-87612011D01*
X73493165Y-87578001D01*
X73318835Y-87578001D01*
X73147855Y-87612011D01*
X72986795Y-87678724D01*
X72841845Y-87775577D01*
X72718576Y-87898846D01*
X72621723Y-88043796D01*
X72555010Y-88204856D01*
X72521000Y-88375836D01*
X67353072Y-88375836D01*
X67353072Y-88225000D01*
X67340812Y-88100518D01*
X67304502Y-87980820D01*
X67245537Y-87870506D01*
X67166185Y-87773815D01*
X67069494Y-87694463D01*
X66959180Y-87635498D01*
X66941056Y-87630000D01*
X66959180Y-87624502D01*
X67069494Y-87565537D01*
X67166185Y-87486185D01*
X67245537Y-87389494D01*
X67304502Y-87279180D01*
X67320683Y-87225836D01*
X70489000Y-87225836D01*
X70489000Y-87400166D01*
X70523010Y-87571146D01*
X70589723Y-87732206D01*
X70686576Y-87877156D01*
X70809845Y-88000425D01*
X70954795Y-88097278D01*
X71115855Y-88163991D01*
X71286835Y-88198001D01*
X71461165Y-88198001D01*
X71632145Y-88163991D01*
X71793205Y-88097278D01*
X71938155Y-88000425D01*
X72061424Y-87877156D01*
X72158277Y-87732206D01*
X72224990Y-87571146D01*
X72259000Y-87400166D01*
X72259000Y-87225836D01*
X77347000Y-87225836D01*
X77347000Y-87400166D01*
X77381010Y-87571146D01*
X77447723Y-87732206D01*
X77544576Y-87877156D01*
X77667845Y-88000425D01*
X77812795Y-88097278D01*
X77973855Y-88163991D01*
X78144835Y-88198001D01*
X78319165Y-88198001D01*
X78490145Y-88163991D01*
X78651205Y-88097278D01*
X78796155Y-88000425D01*
X78919424Y-87877156D01*
X79016277Y-87732206D01*
X79061511Y-87623001D01*
X79081165Y-87623001D01*
X79252145Y-87588991D01*
X79413205Y-87522278D01*
X79558155Y-87425425D01*
X79681424Y-87302156D01*
X79690324Y-87288835D01*
X85983000Y-87288835D01*
X85983000Y-87463165D01*
X86017010Y-87634145D01*
X86083723Y-87795205D01*
X86180576Y-87940155D01*
X86303845Y-88063424D01*
X86448795Y-88160277D01*
X86609855Y-88226990D01*
X86780835Y-88261000D01*
X86955165Y-88261000D01*
X87126145Y-88226990D01*
X87287205Y-88160277D01*
X87432155Y-88063424D01*
X87555424Y-87940155D01*
X87652277Y-87795205D01*
X87718990Y-87634145D01*
X87753000Y-87463165D01*
X87753000Y-87288835D01*
X87718990Y-87117855D01*
X87652277Y-86956795D01*
X87555424Y-86811845D01*
X87432155Y-86688576D01*
X87287205Y-86591723D01*
X87126145Y-86525010D01*
X86955165Y-86491000D01*
X86780835Y-86491000D01*
X86609855Y-86525010D01*
X86448795Y-86591723D01*
X86303845Y-86688576D01*
X86180576Y-86811845D01*
X86083723Y-86956795D01*
X86017010Y-87117855D01*
X85983000Y-87288835D01*
X79690324Y-87288835D01*
X79778277Y-87157206D01*
X79844990Y-86996146D01*
X79879000Y-86825166D01*
X79879000Y-86650836D01*
X79844990Y-86479856D01*
X79778277Y-86318796D01*
X79681424Y-86173846D01*
X79558155Y-86050577D01*
X79413205Y-85953724D01*
X79252145Y-85887011D01*
X79081165Y-85853001D01*
X78906835Y-85853001D01*
X78735855Y-85887011D01*
X78574795Y-85953724D01*
X78429845Y-86050577D01*
X78306576Y-86173846D01*
X78209723Y-86318796D01*
X78164489Y-86428001D01*
X78144835Y-86428001D01*
X77973855Y-86462011D01*
X77812795Y-86528724D01*
X77667845Y-86625577D01*
X77544576Y-86748846D01*
X77447723Y-86893796D01*
X77381010Y-87054856D01*
X77347000Y-87225836D01*
X72259000Y-87225836D01*
X72224990Y-87054856D01*
X72158277Y-86893796D01*
X72061424Y-86748846D01*
X71938155Y-86625577D01*
X71793205Y-86528724D01*
X71632145Y-86462011D01*
X71461165Y-86428001D01*
X71286835Y-86428001D01*
X71115855Y-86462011D01*
X70954795Y-86528724D01*
X70809845Y-86625577D01*
X70686576Y-86748846D01*
X70589723Y-86893796D01*
X70523010Y-87054856D01*
X70489000Y-87225836D01*
X67320683Y-87225836D01*
X67340812Y-87159482D01*
X67353072Y-87035000D01*
X67353072Y-85685000D01*
X67340812Y-85560518D01*
X67304502Y-85440820D01*
X67245537Y-85330506D01*
X67166185Y-85233815D01*
X67069494Y-85154463D01*
X66959180Y-85095498D01*
X66941056Y-85090000D01*
X66959180Y-85084502D01*
X67069494Y-85025537D01*
X67166185Y-84946185D01*
X67245537Y-84849494D01*
X67299341Y-84748835D01*
X71251000Y-84748835D01*
X71251000Y-84923165D01*
X71285010Y-85094145D01*
X71351723Y-85255205D01*
X71448576Y-85400155D01*
X71571845Y-85523424D01*
X71716795Y-85620277D01*
X71877855Y-85686990D01*
X72048835Y-85721000D01*
X72223165Y-85721000D01*
X72394145Y-85686990D01*
X72555205Y-85620277D01*
X72700155Y-85523424D01*
X72823424Y-85400155D01*
X72920277Y-85255205D01*
X72986990Y-85094145D01*
X73021000Y-84923165D01*
X73021000Y-84748835D01*
X72986990Y-84577855D01*
X72920277Y-84416795D01*
X72823424Y-84271845D01*
X72700155Y-84148576D01*
X72555205Y-84051723D01*
X72394145Y-83985010D01*
X72223165Y-83951000D01*
X72048835Y-83951000D01*
X71877855Y-83985010D01*
X71716795Y-84051723D01*
X71571845Y-84148576D01*
X71448576Y-84271845D01*
X71351723Y-84416795D01*
X71285010Y-84577855D01*
X71251000Y-84748835D01*
X67299341Y-84748835D01*
X67304502Y-84739180D01*
X67340812Y-84619482D01*
X67353072Y-84495000D01*
X67353072Y-83464061D01*
X68307000Y-83464061D01*
X68307000Y-83667939D01*
X68346774Y-83867898D01*
X68424795Y-84056256D01*
X68538063Y-84225774D01*
X68682226Y-84369937D01*
X68851744Y-84483205D01*
X69040102Y-84561226D01*
X69240061Y-84601000D01*
X69443939Y-84601000D01*
X69643898Y-84561226D01*
X69832256Y-84483205D01*
X70001774Y-84369937D01*
X70145937Y-84225774D01*
X70259205Y-84056256D01*
X70337226Y-83867898D01*
X70364091Y-83732835D01*
X73537000Y-83732835D01*
X73537000Y-83907165D01*
X73571010Y-84078145D01*
X73637723Y-84239205D01*
X73734576Y-84384155D01*
X73857845Y-84507424D01*
X74002795Y-84604277D01*
X74163855Y-84670990D01*
X74334835Y-84705000D01*
X74509165Y-84705000D01*
X74680145Y-84670990D01*
X74841205Y-84604277D01*
X74986155Y-84507424D01*
X75088860Y-84404719D01*
X80021001Y-84404719D01*
X80021001Y-84579049D01*
X80055011Y-84750029D01*
X80121724Y-84911089D01*
X80218577Y-85056039D01*
X80341846Y-85179308D01*
X80486796Y-85276161D01*
X80647856Y-85342874D01*
X80818836Y-85376884D01*
X80831027Y-85376884D01*
X80846576Y-85400155D01*
X80969845Y-85523424D01*
X81114795Y-85620277D01*
X81275855Y-85686990D01*
X81446835Y-85721000D01*
X81480472Y-85721000D01*
X81595946Y-85836474D01*
X81740896Y-85933327D01*
X81901956Y-86000040D01*
X82072936Y-86034050D01*
X82247266Y-86034050D01*
X82418246Y-86000040D01*
X82579306Y-85933327D01*
X82724256Y-85836474D01*
X82847525Y-85713205D01*
X82944378Y-85568255D01*
X82968507Y-85510000D01*
X88451928Y-85510000D01*
X88455000Y-86074250D01*
X88613750Y-86233000D01*
X89813000Y-86233000D01*
X89813000Y-86213000D01*
X90067000Y-86213000D01*
X90067000Y-86233000D01*
X91266250Y-86233000D01*
X91425000Y-86074250D01*
X91428072Y-85510000D01*
X91415812Y-85385518D01*
X91379502Y-85265820D01*
X91320537Y-85155506D01*
X91241185Y-85058815D01*
X91144494Y-84979463D01*
X91034180Y-84920498D01*
X90961620Y-84898487D01*
X91093475Y-84766632D01*
X91255990Y-84523411D01*
X91367932Y-84253158D01*
X91425000Y-83966260D01*
X91425000Y-83673740D01*
X91367932Y-83386842D01*
X91255990Y-83116589D01*
X91093475Y-82873368D01*
X90886632Y-82666525D01*
X90643411Y-82504010D01*
X90373158Y-82392068D01*
X90086260Y-82335000D01*
X89793740Y-82335000D01*
X89506842Y-82392068D01*
X89236589Y-82504010D01*
X88993368Y-82666525D01*
X88786525Y-82873368D01*
X88624010Y-83116589D01*
X88512068Y-83386842D01*
X88455000Y-83673740D01*
X88455000Y-83966260D01*
X88512068Y-84253158D01*
X88624010Y-84523411D01*
X88786525Y-84766632D01*
X88918380Y-84898487D01*
X88845820Y-84920498D01*
X88735506Y-84979463D01*
X88638815Y-85058815D01*
X88559463Y-85155506D01*
X88500498Y-85265820D01*
X88464188Y-85385518D01*
X88451928Y-85510000D01*
X82968507Y-85510000D01*
X82994863Y-85446373D01*
X83062145Y-85432990D01*
X83223205Y-85366277D01*
X83368155Y-85269424D01*
X83491424Y-85146155D01*
X83588277Y-85001205D01*
X83654990Y-84840145D01*
X83689000Y-84669165D01*
X83689000Y-84494835D01*
X83654990Y-84323855D01*
X83620603Y-84240835D01*
X84459000Y-84240835D01*
X84459000Y-84415165D01*
X84493010Y-84586145D01*
X84559723Y-84747205D01*
X84656576Y-84892155D01*
X84779845Y-85015424D01*
X84924795Y-85112277D01*
X85085855Y-85178990D01*
X85256835Y-85213000D01*
X85431165Y-85213000D01*
X85602145Y-85178990D01*
X85763205Y-85112277D01*
X85908155Y-85015424D01*
X86031424Y-84892155D01*
X86128277Y-84747205D01*
X86194990Y-84586145D01*
X86229000Y-84415165D01*
X86229000Y-84240835D01*
X86194990Y-84069855D01*
X86128277Y-83908795D01*
X86031424Y-83763845D01*
X85908155Y-83640576D01*
X85763205Y-83543723D01*
X85602145Y-83477010D01*
X85431165Y-83443000D01*
X85256835Y-83443000D01*
X85085855Y-83477010D01*
X84924795Y-83543723D01*
X84779845Y-83640576D01*
X84656576Y-83763845D01*
X84559723Y-83908795D01*
X84493010Y-84069855D01*
X84459000Y-84240835D01*
X83620603Y-84240835D01*
X83588277Y-84162795D01*
X83491424Y-84017845D01*
X83368155Y-83894576D01*
X83223205Y-83797723D01*
X83062145Y-83731010D01*
X82891165Y-83697000D01*
X82716835Y-83697000D01*
X82545855Y-83731010D01*
X82384795Y-83797723D01*
X82239845Y-83894576D01*
X82116576Y-84017845D01*
X82050500Y-84116734D01*
X81953205Y-84051723D01*
X81792145Y-83985010D01*
X81621165Y-83951000D01*
X81608974Y-83951000D01*
X81593425Y-83927729D01*
X81470156Y-83804460D01*
X81325206Y-83707607D01*
X81164146Y-83640894D01*
X80993166Y-83606884D01*
X80818836Y-83606884D01*
X80647856Y-83640894D01*
X80486796Y-83707607D01*
X80341846Y-83804460D01*
X80218577Y-83927729D01*
X80121724Y-84072679D01*
X80055011Y-84233739D01*
X80021001Y-84404719D01*
X75088860Y-84404719D01*
X75109424Y-84384155D01*
X75206277Y-84239205D01*
X75272990Y-84078145D01*
X75307000Y-83907165D01*
X75307000Y-83732835D01*
X75272990Y-83561855D01*
X75206277Y-83400795D01*
X75109424Y-83255845D01*
X74986155Y-83132576D01*
X74841205Y-83035723D01*
X74680145Y-82969010D01*
X74509165Y-82935000D01*
X74334835Y-82935000D01*
X74163855Y-82969010D01*
X74002795Y-83035723D01*
X73857845Y-83132576D01*
X73734576Y-83255845D01*
X73637723Y-83400795D01*
X73571010Y-83561855D01*
X73537000Y-83732835D01*
X70364091Y-83732835D01*
X70377000Y-83667939D01*
X70377000Y-83464061D01*
X70337226Y-83264102D01*
X70259205Y-83075744D01*
X70145937Y-82906226D01*
X70001774Y-82762063D01*
X69934086Y-82716835D01*
X78871000Y-82716835D01*
X78871000Y-82891165D01*
X78905010Y-83062145D01*
X78971723Y-83223205D01*
X79068576Y-83368155D01*
X79191845Y-83491424D01*
X79336795Y-83588277D01*
X79497855Y-83654990D01*
X79668835Y-83689000D01*
X79843165Y-83689000D01*
X80014145Y-83654990D01*
X80175205Y-83588277D01*
X80320155Y-83491424D01*
X80443424Y-83368155D01*
X80540277Y-83223205D01*
X80606990Y-83062145D01*
X80641000Y-82891165D01*
X80641000Y-82716835D01*
X80606990Y-82545855D01*
X80540277Y-82384795D01*
X80443424Y-82239845D01*
X80320155Y-82116576D01*
X80175205Y-82019723D01*
X80014145Y-81953010D01*
X79843165Y-81919000D01*
X79668835Y-81919000D01*
X79497855Y-81953010D01*
X79336795Y-82019723D01*
X79191845Y-82116576D01*
X79068576Y-82239845D01*
X78971723Y-82384795D01*
X78905010Y-82545855D01*
X78871000Y-82716835D01*
X69934086Y-82716835D01*
X69832256Y-82648795D01*
X69643898Y-82570774D01*
X69443939Y-82531000D01*
X69240061Y-82531000D01*
X69040102Y-82570774D01*
X68851744Y-82648795D01*
X68682226Y-82762063D01*
X68538063Y-82906226D01*
X68424795Y-83075744D01*
X68346774Y-83264102D01*
X68307000Y-83464061D01*
X67353072Y-83464061D01*
X67353072Y-83145000D01*
X67340812Y-83020518D01*
X67304502Y-82900820D01*
X67245537Y-82790506D01*
X67166185Y-82693815D01*
X67069494Y-82614463D01*
X66959180Y-82555498D01*
X66941056Y-82550000D01*
X66959180Y-82544502D01*
X67069494Y-82485537D01*
X67166185Y-82406185D01*
X67245537Y-82309494D01*
X67304502Y-82199180D01*
X67340812Y-82079482D01*
X67353072Y-81955000D01*
X67353072Y-81091825D01*
X73534341Y-81091825D01*
X73534341Y-81266155D01*
X73568351Y-81437135D01*
X73635064Y-81598195D01*
X73731917Y-81743145D01*
X73855186Y-81866414D01*
X74000136Y-81963267D01*
X74161196Y-82029980D01*
X74332176Y-82063990D01*
X74506506Y-82063990D01*
X74677486Y-82029980D01*
X74838546Y-81963267D01*
X74886928Y-81930939D01*
X74886928Y-81955000D01*
X74899188Y-82079482D01*
X74935498Y-82199180D01*
X74994463Y-82309494D01*
X75073815Y-82406185D01*
X75170506Y-82485537D01*
X75280820Y-82544502D01*
X75400518Y-82580812D01*
X75525000Y-82593072D01*
X76875000Y-82593072D01*
X76999482Y-82580812D01*
X77119180Y-82544502D01*
X77229494Y-82485537D01*
X77326185Y-82406185D01*
X77405537Y-82309494D01*
X77464502Y-82199180D01*
X77500812Y-82079482D01*
X77513072Y-81955000D01*
X77513072Y-81797006D01*
X77544576Y-81844155D01*
X77667845Y-81967424D01*
X77812795Y-82064277D01*
X77973855Y-82130990D01*
X78144835Y-82165000D01*
X78319165Y-82165000D01*
X78490145Y-82130990D01*
X78651205Y-82064277D01*
X78796155Y-81967424D01*
X78919424Y-81844155D01*
X79016277Y-81699205D01*
X79082990Y-81538145D01*
X79117000Y-81367165D01*
X79117000Y-81192835D01*
X79082990Y-81021855D01*
X79016277Y-80860795D01*
X79000929Y-80837825D01*
X80903000Y-80837825D01*
X80903000Y-81012155D01*
X80937010Y-81183135D01*
X81003723Y-81344195D01*
X81100576Y-81489145D01*
X81223845Y-81612414D01*
X81368795Y-81709267D01*
X81529855Y-81775980D01*
X81700835Y-81809990D01*
X81875165Y-81809990D01*
X82046145Y-81775980D01*
X82207205Y-81709267D01*
X82352155Y-81612414D01*
X82475424Y-81489145D01*
X82572277Y-81344195D01*
X82638990Y-81183135D01*
X82673000Y-81012155D01*
X82673000Y-80837825D01*
X82638990Y-80666845D01*
X82572277Y-80505785D01*
X82475424Y-80360835D01*
X82352155Y-80237566D01*
X82207205Y-80140713D01*
X82046145Y-80074000D01*
X81875165Y-80039990D01*
X81700835Y-80039990D01*
X81529855Y-80074000D01*
X81368795Y-80140713D01*
X81223845Y-80237566D01*
X81100576Y-80360835D01*
X81003723Y-80505785D01*
X80937010Y-80666845D01*
X80903000Y-80837825D01*
X79000929Y-80837825D01*
X78919424Y-80715845D01*
X78796155Y-80592576D01*
X78651205Y-80495723D01*
X78490145Y-80429010D01*
X78319165Y-80395000D01*
X78144835Y-80395000D01*
X77973855Y-80429010D01*
X77812795Y-80495723D01*
X77667845Y-80592576D01*
X77544576Y-80715845D01*
X77513072Y-80762994D01*
X77513072Y-80605000D01*
X77500812Y-80480518D01*
X77464502Y-80360820D01*
X77405537Y-80250506D01*
X77326185Y-80153815D01*
X77229494Y-80074463D01*
X77119180Y-80015498D01*
X76999482Y-79979188D01*
X76875000Y-79966928D01*
X75525000Y-79966928D01*
X75400518Y-79979188D01*
X75280820Y-80015498D01*
X75170506Y-80074463D01*
X75073815Y-80153815D01*
X74994463Y-80250506D01*
X74935498Y-80360820D01*
X74910610Y-80442865D01*
X74838546Y-80394713D01*
X74677486Y-80328000D01*
X74506506Y-80293990D01*
X74332176Y-80293990D01*
X74161196Y-80328000D01*
X74000136Y-80394713D01*
X73855186Y-80491566D01*
X73731917Y-80614835D01*
X73635064Y-80759785D01*
X73568351Y-80920845D01*
X73534341Y-81091825D01*
X67353072Y-81091825D01*
X67353072Y-80605000D01*
X67340812Y-80480518D01*
X67304502Y-80360820D01*
X67245537Y-80250506D01*
X67166185Y-80153815D01*
X67069494Y-80074463D01*
X66959180Y-80015498D01*
X66839482Y-79979188D01*
X66715000Y-79966928D01*
X65365000Y-79966928D01*
X65240518Y-79979188D01*
X65120820Y-80015498D01*
X65010506Y-80074463D01*
X64913815Y-80153815D01*
X64834463Y-80250506D01*
X64775498Y-80360820D01*
X64739188Y-80480518D01*
X64726928Y-80605000D01*
X62298579Y-80605000D01*
X62286155Y-80592576D01*
X62141205Y-80495723D01*
X61980145Y-80429010D01*
X61809165Y-80395000D01*
X61634835Y-80395000D01*
X61463855Y-80429010D01*
X61302795Y-80495723D01*
X61157845Y-80592576D01*
X61034576Y-80715845D01*
X60937723Y-80860795D01*
X60871010Y-81021855D01*
X60837000Y-81192835D01*
X57193072Y-81192835D01*
X57193072Y-80605000D01*
X57180812Y-80480518D01*
X57144502Y-80360820D01*
X57085537Y-80250506D01*
X57006185Y-80153815D01*
X56909494Y-80074463D01*
X56799180Y-80015498D01*
X56679482Y-79979188D01*
X56555000Y-79966928D01*
X55205000Y-79966928D01*
X55080518Y-79979188D01*
X54960820Y-80015498D01*
X54850506Y-80074463D01*
X54753815Y-80153815D01*
X54674463Y-80250506D01*
X54615498Y-80360820D01*
X54579188Y-80480518D01*
X54566928Y-80605000D01*
X54566928Y-81955000D01*
X54579188Y-82079482D01*
X54615498Y-82199180D01*
X54674463Y-82309494D01*
X54753815Y-82406185D01*
X54850506Y-82485537D01*
X54960820Y-82544502D01*
X55080518Y-82580812D01*
X55131135Y-82585797D01*
X55095723Y-82638795D01*
X55053860Y-82739860D01*
X54952795Y-82781723D01*
X54807845Y-82878576D01*
X54684576Y-83001845D01*
X54587723Y-83146795D01*
X54545860Y-83247860D01*
X54444795Y-83289723D01*
X54299845Y-83386576D01*
X54176576Y-83509845D01*
X54079723Y-83654795D01*
X54013010Y-83815855D01*
X53979000Y-83986835D01*
X46455000Y-83986835D01*
X46455000Y-83798589D01*
X46401775Y-83531011D01*
X46297371Y-83278957D01*
X46145799Y-83052114D01*
X45952886Y-82859201D01*
X45726043Y-82707629D01*
X45473989Y-82603225D01*
X45422947Y-82593072D01*
X46395000Y-82593072D01*
X46519482Y-82580812D01*
X46639180Y-82544502D01*
X46749494Y-82485537D01*
X46846185Y-82406185D01*
X46925537Y-82309494D01*
X46984502Y-82199180D01*
X47020812Y-82079482D01*
X47033072Y-81955000D01*
X47033072Y-80605000D01*
X47020812Y-80480518D01*
X46984502Y-80360820D01*
X46925537Y-80250506D01*
X46846185Y-80153815D01*
X46749494Y-80074463D01*
X46639180Y-80015498D01*
X46519482Y-79979188D01*
X46395000Y-79966928D01*
X45045000Y-79966928D01*
X44920518Y-79979188D01*
X44800820Y-80015498D01*
X44690506Y-80074463D01*
X44593815Y-80153815D01*
X44514463Y-80250506D01*
X44455498Y-80360820D01*
X44419188Y-80480518D01*
X44406928Y-80605000D01*
X44406928Y-81955000D01*
X44419188Y-82079482D01*
X44455498Y-82199180D01*
X44514463Y-82309494D01*
X44593815Y-82406185D01*
X44690506Y-82485537D01*
X44800820Y-82544502D01*
X44864348Y-82563773D01*
X44666011Y-82603225D01*
X44413957Y-82707629D01*
X44187114Y-82859201D01*
X43994201Y-83052114D01*
X43842629Y-83278957D01*
X43738225Y-83531011D01*
X43685000Y-83798589D01*
X43572532Y-83798589D01*
X43575000Y-83786184D01*
X43575000Y-83483816D01*
X43516011Y-83187257D01*
X43400299Y-82907905D01*
X43232312Y-82656495D01*
X43018505Y-82442688D01*
X42767095Y-82274701D01*
X42487743Y-82158989D01*
X42191184Y-82100000D01*
X41888816Y-82100000D01*
X41592257Y-82158989D01*
X41312905Y-82274701D01*
X41061495Y-82442688D01*
X40847688Y-82656495D01*
X40679701Y-82907905D01*
X40563989Y-83187257D01*
X40505000Y-83483816D01*
X27330000Y-83483816D01*
X27330000Y-80605000D01*
X34246928Y-80605000D01*
X34246928Y-81955000D01*
X34259188Y-82079482D01*
X34295498Y-82199180D01*
X34354463Y-82309494D01*
X34433815Y-82406185D01*
X34530506Y-82485537D01*
X34640820Y-82544502D01*
X34760518Y-82580812D01*
X34885000Y-82593072D01*
X36235000Y-82593072D01*
X36359482Y-82580812D01*
X36479180Y-82544502D01*
X36589494Y-82485537D01*
X36686185Y-82406185D01*
X36765537Y-82309494D01*
X36824502Y-82199180D01*
X36860812Y-82079482D01*
X36873072Y-81955000D01*
X36873072Y-81686061D01*
X37827000Y-81686061D01*
X37827000Y-81889939D01*
X37866774Y-82089898D01*
X37944795Y-82278256D01*
X38058063Y-82447774D01*
X38202226Y-82591937D01*
X38371744Y-82705205D01*
X38560102Y-82783226D01*
X38760061Y-82823000D01*
X38963939Y-82823000D01*
X39163898Y-82783226D01*
X39352256Y-82705205D01*
X39521774Y-82591937D01*
X39665937Y-82447774D01*
X39779205Y-82278256D01*
X39857226Y-82089898D01*
X39897000Y-81889939D01*
X39897000Y-81686061D01*
X39857226Y-81486102D01*
X39779205Y-81297744D01*
X39665937Y-81128226D01*
X39521774Y-80984063D01*
X39352256Y-80870795D01*
X39163898Y-80792774D01*
X38963939Y-80753000D01*
X38760061Y-80753000D01*
X38560102Y-80792774D01*
X38371744Y-80870795D01*
X38202226Y-80984063D01*
X38058063Y-81128226D01*
X37944795Y-81297744D01*
X37866774Y-81486102D01*
X37827000Y-81686061D01*
X36873072Y-81686061D01*
X36873072Y-80605000D01*
X36860812Y-80480518D01*
X36824502Y-80360820D01*
X36765537Y-80250506D01*
X36686185Y-80153815D01*
X36589494Y-80074463D01*
X36479180Y-80015498D01*
X36359482Y-79979188D01*
X36235000Y-79966928D01*
X34885000Y-79966928D01*
X34760518Y-79979188D01*
X34640820Y-80015498D01*
X34530506Y-80074463D01*
X34433815Y-80153815D01*
X34354463Y-80250506D01*
X34295498Y-80360820D01*
X34259188Y-80480518D01*
X34246928Y-80605000D01*
X27330000Y-80605000D01*
X27330000Y-78130061D01*
X30969000Y-78130061D01*
X30969000Y-78333939D01*
X31008774Y-78533898D01*
X31086795Y-78722256D01*
X31200063Y-78891774D01*
X31344226Y-79035937D01*
X31513744Y-79149205D01*
X31702102Y-79227226D01*
X31902061Y-79267000D01*
X32105939Y-79267000D01*
X32305898Y-79227226D01*
X32494256Y-79149205D01*
X32663774Y-79035937D01*
X32807937Y-78891774D01*
X32921205Y-78722256D01*
X32999226Y-78533898D01*
X33039000Y-78333939D01*
X33039000Y-78130061D01*
X32999226Y-77930102D01*
X32921205Y-77741744D01*
X32807937Y-77572226D01*
X32663774Y-77428063D01*
X32494256Y-77314795D01*
X32305898Y-77236774D01*
X32105939Y-77197000D01*
X31902061Y-77197000D01*
X31702102Y-77236774D01*
X31513744Y-77314795D01*
X31344226Y-77428063D01*
X31200063Y-77572226D01*
X31086795Y-77741744D01*
X31008774Y-77930102D01*
X30969000Y-78130061D01*
X27330000Y-78130061D01*
X27330000Y-76875000D01*
X34246928Y-76875000D01*
X34259188Y-76999482D01*
X34295498Y-77119180D01*
X34354463Y-77229494D01*
X34433815Y-77326185D01*
X34530506Y-77405537D01*
X34640820Y-77464502D01*
X34760518Y-77500812D01*
X34885000Y-77513072D01*
X35274250Y-77510000D01*
X35433000Y-77351250D01*
X35433000Y-76327000D01*
X35687000Y-76327000D01*
X35687000Y-77351250D01*
X35845750Y-77510000D01*
X36235000Y-77513072D01*
X36359482Y-77500812D01*
X36479180Y-77464502D01*
X36589494Y-77405537D01*
X36686185Y-77326185D01*
X36688191Y-77323740D01*
X40425000Y-77323740D01*
X40425000Y-77616260D01*
X40482068Y-77903158D01*
X40594010Y-78173411D01*
X40756525Y-78416632D01*
X40963368Y-78623475D01*
X41206589Y-78785990D01*
X41476842Y-78897932D01*
X41763740Y-78955000D01*
X42056260Y-78955000D01*
X42343158Y-78897932D01*
X42613411Y-78785990D01*
X42856632Y-78623475D01*
X43063475Y-78416632D01*
X43180000Y-78242240D01*
X43296525Y-78416632D01*
X43503368Y-78623475D01*
X43746589Y-78785990D01*
X44016842Y-78897932D01*
X44303740Y-78955000D01*
X44596260Y-78955000D01*
X44883158Y-78897932D01*
X45153411Y-78785990D01*
X45396632Y-78623475D01*
X45528487Y-78491620D01*
X45550498Y-78564180D01*
X45609463Y-78674494D01*
X45688815Y-78771185D01*
X45785506Y-78850537D01*
X45895820Y-78909502D01*
X46015518Y-78945812D01*
X46140000Y-78958072D01*
X46704250Y-78955000D01*
X46863000Y-78796250D01*
X46863000Y-77597000D01*
X46843000Y-77597000D01*
X46843000Y-77343000D01*
X46863000Y-77343000D01*
X46863000Y-76143750D01*
X47117000Y-76143750D01*
X47117000Y-77343000D01*
X47137000Y-77343000D01*
X47137000Y-77597000D01*
X47117000Y-77597000D01*
X47117000Y-78796250D01*
X47275750Y-78955000D01*
X47840000Y-78958072D01*
X47964482Y-78945812D01*
X48084180Y-78909502D01*
X48194494Y-78850537D01*
X48291185Y-78771185D01*
X48370537Y-78674494D01*
X48429502Y-78564180D01*
X48451513Y-78491620D01*
X48583368Y-78623475D01*
X48826589Y-78785990D01*
X49096842Y-78897932D01*
X49383740Y-78955000D01*
X49676260Y-78955000D01*
X49963158Y-78897932D01*
X50233411Y-78785990D01*
X50476632Y-78623475D01*
X50683475Y-78416632D01*
X50800000Y-78242240D01*
X50916525Y-78416632D01*
X51123368Y-78623475D01*
X51366589Y-78785990D01*
X51636842Y-78897932D01*
X51923740Y-78955000D01*
X52216260Y-78955000D01*
X52503158Y-78897932D01*
X52773411Y-78785990D01*
X53016632Y-78623475D01*
X53223475Y-78416632D01*
X53340000Y-78242240D01*
X53456525Y-78416632D01*
X53663368Y-78623475D01*
X53906589Y-78785990D01*
X54176842Y-78897932D01*
X54463740Y-78955000D01*
X54756260Y-78955000D01*
X55043158Y-78897932D01*
X55313411Y-78785990D01*
X55556632Y-78623475D01*
X55763475Y-78416632D01*
X55880000Y-78242240D01*
X55996525Y-78416632D01*
X56203368Y-78623475D01*
X56446589Y-78785990D01*
X56716842Y-78897932D01*
X57003740Y-78955000D01*
X57296260Y-78955000D01*
X57583158Y-78897932D01*
X57853411Y-78785990D01*
X58096632Y-78623475D01*
X58228487Y-78491620D01*
X58250498Y-78564180D01*
X58309463Y-78674494D01*
X58388815Y-78771185D01*
X58485506Y-78850537D01*
X58595820Y-78909502D01*
X58715518Y-78945812D01*
X58840000Y-78958072D01*
X59404250Y-78955000D01*
X59563000Y-78796250D01*
X59563000Y-77597000D01*
X59543000Y-77597000D01*
X59543000Y-77343000D01*
X59563000Y-77343000D01*
X59563000Y-76143750D01*
X59817000Y-76143750D01*
X59817000Y-77343000D01*
X59837000Y-77343000D01*
X59837000Y-77597000D01*
X59817000Y-77597000D01*
X59817000Y-78796250D01*
X59975750Y-78955000D01*
X60540000Y-78958072D01*
X60664482Y-78945812D01*
X60784180Y-78909502D01*
X60894494Y-78850537D01*
X60991185Y-78771185D01*
X61070537Y-78674494D01*
X61129502Y-78564180D01*
X61151513Y-78491620D01*
X61283368Y-78623475D01*
X61526589Y-78785990D01*
X61796842Y-78897932D01*
X62083740Y-78955000D01*
X62376260Y-78955000D01*
X62663158Y-78897932D01*
X62933411Y-78785990D01*
X63176632Y-78623475D01*
X63383475Y-78416632D01*
X63500000Y-78242240D01*
X63616525Y-78416632D01*
X63823368Y-78623475D01*
X64066589Y-78785990D01*
X64336842Y-78897932D01*
X64623740Y-78955000D01*
X64916260Y-78955000D01*
X65203158Y-78897932D01*
X65473411Y-78785990D01*
X65716632Y-78623475D01*
X65923475Y-78416632D01*
X66040000Y-78242240D01*
X66156525Y-78416632D01*
X66363368Y-78623475D01*
X66606589Y-78785990D01*
X66876842Y-78897932D01*
X67163740Y-78955000D01*
X67456260Y-78955000D01*
X67743158Y-78897932D01*
X68013411Y-78785990D01*
X68256632Y-78623475D01*
X68463475Y-78416632D01*
X68580000Y-78242240D01*
X68696525Y-78416632D01*
X68903368Y-78623475D01*
X69146589Y-78785990D01*
X69416842Y-78897932D01*
X69703740Y-78955000D01*
X69996260Y-78955000D01*
X70283158Y-78897932D01*
X70553411Y-78785990D01*
X70796632Y-78623475D01*
X70928487Y-78491620D01*
X70950498Y-78564180D01*
X71009463Y-78674494D01*
X71088815Y-78771185D01*
X71185506Y-78850537D01*
X71295820Y-78909502D01*
X71415518Y-78945812D01*
X71540000Y-78958072D01*
X71644673Y-78957502D01*
X71605723Y-79015795D01*
X71539010Y-79176855D01*
X71505000Y-79347835D01*
X71505000Y-79522165D01*
X71539010Y-79693145D01*
X71605723Y-79854205D01*
X71702576Y-79999155D01*
X71825845Y-80122424D01*
X71970795Y-80219277D01*
X72131855Y-80285990D01*
X72302835Y-80320000D01*
X72477165Y-80320000D01*
X72648145Y-80285990D01*
X72809205Y-80219277D01*
X72954155Y-80122424D01*
X73077424Y-79999155D01*
X73128419Y-79922835D01*
X83951000Y-79922835D01*
X83951000Y-80097165D01*
X83985010Y-80268145D01*
X84051723Y-80429205D01*
X84148576Y-80574155D01*
X84271845Y-80697424D01*
X84416795Y-80794277D01*
X84577855Y-80860990D01*
X84748835Y-80895000D01*
X84923165Y-80895000D01*
X85046928Y-80870382D01*
X85046928Y-81955000D01*
X85059188Y-82079482D01*
X85095498Y-82199180D01*
X85154463Y-82309494D01*
X85233815Y-82406185D01*
X85330506Y-82485537D01*
X85440820Y-82544502D01*
X85560518Y-82580812D01*
X85685000Y-82593072D01*
X87035000Y-82593072D01*
X87159482Y-82580812D01*
X87279180Y-82544502D01*
X87389494Y-82485537D01*
X87486185Y-82406185D01*
X87565537Y-82309494D01*
X87624502Y-82199180D01*
X87660812Y-82079482D01*
X87673072Y-81955000D01*
X87673072Y-80605000D01*
X95206928Y-80605000D01*
X95206928Y-81955000D01*
X95219188Y-82079482D01*
X95255498Y-82199180D01*
X95314463Y-82309494D01*
X95393815Y-82406185D01*
X95490506Y-82485537D01*
X95600820Y-82544502D01*
X95720518Y-82580812D01*
X95845000Y-82593072D01*
X97195000Y-82593072D01*
X97319482Y-82580812D01*
X97439180Y-82544502D01*
X97549494Y-82485537D01*
X97646185Y-82406185D01*
X97725537Y-82309494D01*
X97784502Y-82199180D01*
X97790000Y-82181056D01*
X97795498Y-82199180D01*
X97854463Y-82309494D01*
X97933815Y-82406185D01*
X98030506Y-82485537D01*
X98140820Y-82544502D01*
X98158944Y-82550000D01*
X98140820Y-82555498D01*
X98030506Y-82614463D01*
X97933815Y-82693815D01*
X97854463Y-82790506D01*
X97795498Y-82900820D01*
X97759188Y-83020518D01*
X97746928Y-83145000D01*
X97746928Y-84495000D01*
X97759188Y-84619482D01*
X97795498Y-84739180D01*
X97854463Y-84849494D01*
X97933815Y-84946185D01*
X98030506Y-85025537D01*
X98140820Y-85084502D01*
X98260518Y-85120812D01*
X98385000Y-85133072D01*
X99735000Y-85133072D01*
X99859482Y-85120812D01*
X99979180Y-85084502D01*
X100089494Y-85025537D01*
X100186185Y-84946185D01*
X100265537Y-84849494D01*
X100324502Y-84739180D01*
X100360812Y-84619482D01*
X100373072Y-84495000D01*
X100373072Y-83145000D01*
X100360812Y-83020518D01*
X100324502Y-82900820D01*
X100265537Y-82790506D01*
X100186185Y-82693815D01*
X100089494Y-82614463D01*
X99979180Y-82555498D01*
X99961056Y-82550000D01*
X99979180Y-82544502D01*
X100089494Y-82485537D01*
X100186185Y-82406185D01*
X100265537Y-82309494D01*
X100324502Y-82199180D01*
X100360812Y-82079482D01*
X100373072Y-81955000D01*
X100373072Y-80605000D01*
X100360812Y-80480518D01*
X100324502Y-80360820D01*
X100265537Y-80250506D01*
X100186185Y-80153815D01*
X100089494Y-80074463D01*
X99979180Y-80015498D01*
X99859482Y-79979188D01*
X99735000Y-79966928D01*
X98385000Y-79966928D01*
X98260518Y-79979188D01*
X98140820Y-80015498D01*
X98030506Y-80074463D01*
X97933815Y-80153815D01*
X97854463Y-80250506D01*
X97795498Y-80360820D01*
X97790000Y-80378944D01*
X97784502Y-80360820D01*
X97725537Y-80250506D01*
X97646185Y-80153815D01*
X97549494Y-80074463D01*
X97439180Y-80015498D01*
X97319482Y-79979188D01*
X97195000Y-79966928D01*
X95845000Y-79966928D01*
X95720518Y-79979188D01*
X95600820Y-80015498D01*
X95490506Y-80074463D01*
X95393815Y-80153815D01*
X95314463Y-80250506D01*
X95255498Y-80360820D01*
X95219188Y-80480518D01*
X95206928Y-80605000D01*
X87673072Y-80605000D01*
X87660812Y-80480518D01*
X87624502Y-80360820D01*
X87565537Y-80250506D01*
X87486185Y-80153815D01*
X87389494Y-80074463D01*
X87279180Y-80015498D01*
X87159482Y-79979188D01*
X87035000Y-79966928D01*
X85721000Y-79966928D01*
X85721000Y-79922835D01*
X85686990Y-79751855D01*
X85620277Y-79590795D01*
X85523424Y-79445845D01*
X85400155Y-79322576D01*
X85255205Y-79225723D01*
X85094145Y-79159010D01*
X84923165Y-79125000D01*
X84748835Y-79125000D01*
X84577855Y-79159010D01*
X84416795Y-79225723D01*
X84271845Y-79322576D01*
X84148576Y-79445845D01*
X84051723Y-79590795D01*
X83985010Y-79751855D01*
X83951000Y-79922835D01*
X73128419Y-79922835D01*
X73174277Y-79854205D01*
X73240990Y-79693145D01*
X73249956Y-79648071D01*
X73401855Y-79710990D01*
X73572835Y-79745000D01*
X73747165Y-79745000D01*
X73918145Y-79710990D01*
X74079205Y-79644277D01*
X74224155Y-79547424D01*
X74347424Y-79424155D01*
X74444277Y-79279205D01*
X74510990Y-79118145D01*
X74545000Y-78947165D01*
X74545000Y-78907511D01*
X74783740Y-78955000D01*
X75076260Y-78955000D01*
X75363158Y-78897932D01*
X75633411Y-78785990D01*
X75876632Y-78623475D01*
X76083475Y-78416632D01*
X76200000Y-78242240D01*
X76316525Y-78416632D01*
X76523368Y-78623475D01*
X76766589Y-78785990D01*
X77036842Y-78897932D01*
X77323740Y-78955000D01*
X77616260Y-78955000D01*
X77903158Y-78897932D01*
X78173411Y-78785990D01*
X78416632Y-78623475D01*
X78623475Y-78416632D01*
X78740000Y-78242240D01*
X78856525Y-78416632D01*
X79063368Y-78623475D01*
X79306589Y-78785990D01*
X79576842Y-78897932D01*
X79863740Y-78955000D01*
X80156260Y-78955000D01*
X80443158Y-78897932D01*
X80713411Y-78785990D01*
X80956632Y-78623475D01*
X81163475Y-78416632D01*
X81280000Y-78242240D01*
X81396525Y-78416632D01*
X81603368Y-78623475D01*
X81846589Y-78785990D01*
X82116842Y-78897932D01*
X82403740Y-78955000D01*
X82696260Y-78955000D01*
X82983158Y-78897932D01*
X83253411Y-78785990D01*
X83496632Y-78623475D01*
X83628487Y-78491620D01*
X83650498Y-78564180D01*
X83709463Y-78674494D01*
X83788815Y-78771185D01*
X83885506Y-78850537D01*
X83995820Y-78909502D01*
X84115518Y-78945812D01*
X84240000Y-78958072D01*
X84804250Y-78955000D01*
X84963000Y-78796250D01*
X84963000Y-77597000D01*
X84943000Y-77597000D01*
X84943000Y-77343000D01*
X84963000Y-77343000D01*
X84963000Y-76143750D01*
X85217000Y-76143750D01*
X85217000Y-77343000D01*
X85237000Y-77343000D01*
X85237000Y-77597000D01*
X85217000Y-77597000D01*
X85217000Y-78796250D01*
X85375750Y-78955000D01*
X85940000Y-78958072D01*
X86064482Y-78945812D01*
X86184180Y-78909502D01*
X86294494Y-78850537D01*
X86391185Y-78771185D01*
X86470537Y-78674494D01*
X86529502Y-78564180D01*
X86551513Y-78491620D01*
X86683368Y-78623475D01*
X86926589Y-78785990D01*
X87196842Y-78897932D01*
X87483740Y-78955000D01*
X87776260Y-78955000D01*
X88063158Y-78897932D01*
X88333411Y-78785990D01*
X88576632Y-78623475D01*
X88783475Y-78416632D01*
X88900000Y-78242240D01*
X89016525Y-78416632D01*
X89223368Y-78623475D01*
X89466589Y-78785990D01*
X89736842Y-78897932D01*
X90023740Y-78955000D01*
X90316260Y-78955000D01*
X90603158Y-78897932D01*
X90873411Y-78785990D01*
X91116632Y-78623475D01*
X91323475Y-78416632D01*
X91485990Y-78173411D01*
X91597932Y-77903158D01*
X91655000Y-77616260D01*
X91655000Y-77323740D01*
X91597932Y-77036842D01*
X91530896Y-76875000D01*
X95206928Y-76875000D01*
X95219188Y-76999482D01*
X95255498Y-77119180D01*
X95314463Y-77229494D01*
X95393815Y-77326185D01*
X95490506Y-77405537D01*
X95600820Y-77464502D01*
X95720518Y-77500812D01*
X95845000Y-77513072D01*
X96234250Y-77510000D01*
X96393000Y-77351250D01*
X96393000Y-76327000D01*
X96647000Y-76327000D01*
X96647000Y-77351250D01*
X96805750Y-77510000D01*
X97195000Y-77513072D01*
X97319482Y-77500812D01*
X97439180Y-77464502D01*
X97549494Y-77405537D01*
X97646185Y-77326185D01*
X97725537Y-77229494D01*
X97784502Y-77119180D01*
X97820812Y-76999482D01*
X97833072Y-76875000D01*
X97830000Y-76485750D01*
X97671250Y-76327000D01*
X96647000Y-76327000D01*
X96393000Y-76327000D01*
X95368750Y-76327000D01*
X95210000Y-76485750D01*
X95206928Y-76875000D01*
X91530896Y-76875000D01*
X91485990Y-76766589D01*
X91323475Y-76523368D01*
X91116632Y-76316525D01*
X90873411Y-76154010D01*
X90603158Y-76042068D01*
X90316260Y-75985000D01*
X90023740Y-75985000D01*
X89736842Y-76042068D01*
X89466589Y-76154010D01*
X89223368Y-76316525D01*
X89016525Y-76523368D01*
X88900000Y-76697760D01*
X88783475Y-76523368D01*
X88576632Y-76316525D01*
X88333411Y-76154010D01*
X88063158Y-76042068D01*
X87776260Y-75985000D01*
X87483740Y-75985000D01*
X87196842Y-76042068D01*
X86926589Y-76154010D01*
X86683368Y-76316525D01*
X86551513Y-76448380D01*
X86529502Y-76375820D01*
X86470537Y-76265506D01*
X86391185Y-76168815D01*
X86294494Y-76089463D01*
X86184180Y-76030498D01*
X86064482Y-75994188D01*
X85940000Y-75981928D01*
X85375750Y-75985000D01*
X85217000Y-76143750D01*
X84963000Y-76143750D01*
X84804250Y-75985000D01*
X84240000Y-75981928D01*
X84115518Y-75994188D01*
X83995820Y-76030498D01*
X83885506Y-76089463D01*
X83788815Y-76168815D01*
X83709463Y-76265506D01*
X83650498Y-76375820D01*
X83628487Y-76448380D01*
X83496632Y-76316525D01*
X83253411Y-76154010D01*
X82983158Y-76042068D01*
X82696260Y-75985000D01*
X82403740Y-75985000D01*
X82116842Y-76042068D01*
X81846589Y-76154010D01*
X81603368Y-76316525D01*
X81396525Y-76523368D01*
X81280000Y-76697760D01*
X81163475Y-76523368D01*
X80956632Y-76316525D01*
X80713411Y-76154010D01*
X80443158Y-76042068D01*
X80156260Y-75985000D01*
X79863740Y-75985000D01*
X79576842Y-76042068D01*
X79306589Y-76154010D01*
X79063368Y-76316525D01*
X78856525Y-76523368D01*
X78740000Y-76697760D01*
X78623475Y-76523368D01*
X78416632Y-76316525D01*
X78173411Y-76154010D01*
X77903158Y-76042068D01*
X77616260Y-75985000D01*
X77323740Y-75985000D01*
X77036842Y-76042068D01*
X76766589Y-76154010D01*
X76523368Y-76316525D01*
X76316525Y-76523368D01*
X76200000Y-76697760D01*
X76083475Y-76523368D01*
X75876632Y-76316525D01*
X75633411Y-76154010D01*
X75363158Y-76042068D01*
X75076260Y-75985000D01*
X74783740Y-75985000D01*
X74496842Y-76042068D01*
X74226589Y-76154010D01*
X73983368Y-76316525D01*
X73851513Y-76448380D01*
X73829502Y-76375820D01*
X73770537Y-76265506D01*
X73691185Y-76168815D01*
X73594494Y-76089463D01*
X73484180Y-76030498D01*
X73364482Y-75994188D01*
X73240000Y-75981928D01*
X72675750Y-75985000D01*
X72517000Y-76143750D01*
X72517000Y-77343000D01*
X72537000Y-77343000D01*
X72537000Y-77597000D01*
X72517000Y-77597000D01*
X72517000Y-77617000D01*
X72263000Y-77617000D01*
X72263000Y-77597000D01*
X72243000Y-77597000D01*
X72243000Y-77343000D01*
X72263000Y-77343000D01*
X72263000Y-76143750D01*
X72104250Y-75985000D01*
X71540000Y-75981928D01*
X71415518Y-75994188D01*
X71295820Y-76030498D01*
X71185506Y-76089463D01*
X71088815Y-76168815D01*
X71009463Y-76265506D01*
X70950498Y-76375820D01*
X70928487Y-76448380D01*
X70796632Y-76316525D01*
X70553411Y-76154010D01*
X70283158Y-76042068D01*
X69996260Y-75985000D01*
X69703740Y-75985000D01*
X69416842Y-76042068D01*
X69146589Y-76154010D01*
X68903368Y-76316525D01*
X68696525Y-76523368D01*
X68580000Y-76697760D01*
X68463475Y-76523368D01*
X68256632Y-76316525D01*
X68013411Y-76154010D01*
X67743158Y-76042068D01*
X67456260Y-75985000D01*
X67163740Y-75985000D01*
X66876842Y-76042068D01*
X66606589Y-76154010D01*
X66363368Y-76316525D01*
X66156525Y-76523368D01*
X66040000Y-76697760D01*
X65923475Y-76523368D01*
X65716632Y-76316525D01*
X65473411Y-76154010D01*
X65203158Y-76042068D01*
X64916260Y-75985000D01*
X64623740Y-75985000D01*
X64336842Y-76042068D01*
X64066589Y-76154010D01*
X63823368Y-76316525D01*
X63616525Y-76523368D01*
X63500000Y-76697760D01*
X63383475Y-76523368D01*
X63176632Y-76316525D01*
X62933411Y-76154010D01*
X62663158Y-76042068D01*
X62376260Y-75985000D01*
X62083740Y-75985000D01*
X61796842Y-76042068D01*
X61526589Y-76154010D01*
X61283368Y-76316525D01*
X61151513Y-76448380D01*
X61129502Y-76375820D01*
X61070537Y-76265506D01*
X60991185Y-76168815D01*
X60894494Y-76089463D01*
X60784180Y-76030498D01*
X60664482Y-75994188D01*
X60540000Y-75981928D01*
X59975750Y-75985000D01*
X59817000Y-76143750D01*
X59563000Y-76143750D01*
X59404250Y-75985000D01*
X58840000Y-75981928D01*
X58715518Y-75994188D01*
X58595820Y-76030498D01*
X58485506Y-76089463D01*
X58388815Y-76168815D01*
X58309463Y-76265506D01*
X58250498Y-76375820D01*
X58228487Y-76448380D01*
X58096632Y-76316525D01*
X57853411Y-76154010D01*
X57583158Y-76042068D01*
X57296260Y-75985000D01*
X57003740Y-75985000D01*
X56716842Y-76042068D01*
X56446589Y-76154010D01*
X56203368Y-76316525D01*
X55996525Y-76523368D01*
X55880000Y-76697760D01*
X55763475Y-76523368D01*
X55556632Y-76316525D01*
X55313411Y-76154010D01*
X55043158Y-76042068D01*
X54756260Y-75985000D01*
X54463740Y-75985000D01*
X54176842Y-76042068D01*
X53906589Y-76154010D01*
X53663368Y-76316525D01*
X53456525Y-76523368D01*
X53340000Y-76697760D01*
X53223475Y-76523368D01*
X53016632Y-76316525D01*
X52773411Y-76154010D01*
X52503158Y-76042068D01*
X52216260Y-75985000D01*
X51923740Y-75985000D01*
X51636842Y-76042068D01*
X51366589Y-76154010D01*
X51123368Y-76316525D01*
X50916525Y-76523368D01*
X50800000Y-76697760D01*
X50683475Y-76523368D01*
X50476632Y-76316525D01*
X50233411Y-76154010D01*
X49963158Y-76042068D01*
X49676260Y-75985000D01*
X49383740Y-75985000D01*
X49096842Y-76042068D01*
X48826589Y-76154010D01*
X48583368Y-76316525D01*
X48451513Y-76448380D01*
X48429502Y-76375820D01*
X48370537Y-76265506D01*
X48291185Y-76168815D01*
X48194494Y-76089463D01*
X48084180Y-76030498D01*
X47964482Y-75994188D01*
X47840000Y-75981928D01*
X47275750Y-75985000D01*
X47117000Y-76143750D01*
X46863000Y-76143750D01*
X46704250Y-75985000D01*
X46140000Y-75981928D01*
X46015518Y-75994188D01*
X45895820Y-76030498D01*
X45785506Y-76089463D01*
X45688815Y-76168815D01*
X45609463Y-76265506D01*
X45550498Y-76375820D01*
X45528487Y-76448380D01*
X45396632Y-76316525D01*
X45153411Y-76154010D01*
X44883158Y-76042068D01*
X44596260Y-75985000D01*
X44303740Y-75985000D01*
X44016842Y-76042068D01*
X43746589Y-76154010D01*
X43503368Y-76316525D01*
X43296525Y-76523368D01*
X43180000Y-76697760D01*
X43063475Y-76523368D01*
X42856632Y-76316525D01*
X42613411Y-76154010D01*
X42343158Y-76042068D01*
X42056260Y-75985000D01*
X41763740Y-75985000D01*
X41476842Y-76042068D01*
X41206589Y-76154010D01*
X40963368Y-76316525D01*
X40756525Y-76523368D01*
X40594010Y-76766589D01*
X40482068Y-77036842D01*
X40425000Y-77323740D01*
X36688191Y-77323740D01*
X36765537Y-77229494D01*
X36824502Y-77119180D01*
X36860812Y-76999482D01*
X36873072Y-76875000D01*
X36870000Y-76485750D01*
X36711250Y-76327000D01*
X35687000Y-76327000D01*
X35433000Y-76327000D01*
X34408750Y-76327000D01*
X34250000Y-76485750D01*
X34246928Y-76875000D01*
X27330000Y-76875000D01*
X27330000Y-74955000D01*
X34604335Y-74955000D01*
X34530506Y-74994463D01*
G37*
X34530506Y-74994463D02*
X34433815Y-75073815D01*
X34354463Y-75170506D01*
X34295498Y-75280820D01*
X34259188Y-75400518D01*
X34246928Y-75525000D01*
X34250000Y-75914250D01*
X34408750Y-76073000D01*
X35433000Y-76073000D01*
X35433000Y-76053000D01*
X35687000Y-76053000D01*
X35687000Y-76073000D01*
X36711250Y-76073000D01*
X36870000Y-75914250D01*
X36873072Y-75525000D01*
X36860812Y-75400518D01*
X36824502Y-75280820D01*
X36765537Y-75170506D01*
X36686185Y-75073815D01*
X36589494Y-74994463D01*
X36515665Y-74955000D01*
X95564335Y-74955000D01*
X95490506Y-74994463D01*
X95393815Y-75073815D01*
X95314463Y-75170506D01*
X95255498Y-75280820D01*
X95219188Y-75400518D01*
X95206928Y-75525000D01*
X95210000Y-75914250D01*
X95368750Y-76073000D01*
X96393000Y-76073000D01*
X96393000Y-76053000D01*
X96647000Y-76053000D01*
X96647000Y-76073000D01*
X97671250Y-76073000D01*
X97830000Y-75914250D01*
X97833072Y-75525000D01*
X97820812Y-75400518D01*
X97784502Y-75280820D01*
X97725537Y-75170506D01*
X97646185Y-75073815D01*
X97549494Y-74994463D01*
X97475665Y-74955000D01*
X105724335Y-74955000D01*
X105650506Y-74994463D01*
X105553815Y-75073815D01*
X105474463Y-75170506D01*
X105415498Y-75280820D01*
X105379188Y-75400518D01*
X105366928Y-75525000D01*
X105370000Y-75914250D01*
X105528750Y-76073000D01*
X106553000Y-76073000D01*
X106553000Y-76053000D01*
X106807000Y-76053000D01*
X106807000Y-76073000D01*
X106827000Y-76073000D01*
X106827000Y-76327000D01*
X106807000Y-76327000D01*
X106807000Y-76347000D01*
X106553000Y-76347000D01*
X106553000Y-76327000D01*
X105528750Y-76327000D01*
X105370000Y-76485750D01*
X105366928Y-76875000D01*
X105379188Y-76999482D01*
X105415498Y-77119180D01*
X105474463Y-77229494D01*
X105553815Y-77326185D01*
X105650506Y-77405537D01*
X105760820Y-77464502D01*
X105778944Y-77470000D01*
X105760820Y-77475498D01*
X105650506Y-77534463D01*
X105553815Y-77613815D01*
X105474463Y-77710506D01*
X105415498Y-77820820D01*
X105379188Y-77940518D01*
X105366928Y-78065000D01*
X105366928Y-79415000D01*
X105379188Y-79539482D01*
X105415498Y-79659180D01*
X105474463Y-79769494D01*
X105553815Y-79866185D01*
X105650506Y-79945537D01*
X105760820Y-80004502D01*
X105778944Y-80010000D01*
X105760820Y-80015498D01*
X105650506Y-80074463D01*
X105553815Y-80153815D01*
X105474463Y-80250506D01*
X105415498Y-80360820D01*
X105379188Y-80480518D01*
X105366928Y-80605000D01*
X105366928Y-81955000D01*
X105379188Y-82079482D01*
X105415498Y-82199180D01*
X105474463Y-82309494D01*
X105553815Y-82406185D01*
X105650506Y-82485537D01*
X105760820Y-82544502D01*
X105880518Y-82580812D01*
X106005000Y-82593072D01*
X107290000Y-82593072D01*
X107290001Y-97765000D01*
X81261960Y-97765000D01*
X81336155Y-97715424D01*
X81459424Y-97592155D01*
X81556277Y-97447205D01*
X81622990Y-97286145D01*
X81657000Y-97115165D01*
X81657000Y-96940835D01*
X81622990Y-96769855D01*
X81556277Y-96608795D01*
X81459424Y-96463845D01*
X81336155Y-96340576D01*
X81191205Y-96243723D01*
X81138299Y-96221808D01*
X81163475Y-96196632D01*
X81280000Y-96022240D01*
X81396525Y-96196632D01*
X81603368Y-96403475D01*
X81846589Y-96565990D01*
X82116842Y-96677932D01*
X82403740Y-96735000D01*
X82696260Y-96735000D01*
X82983158Y-96677932D01*
X83253411Y-96565990D01*
X83496632Y-96403475D01*
X83628487Y-96271620D01*
X83650498Y-96344180D01*
X83709463Y-96454494D01*
X83788815Y-96551185D01*
X83885506Y-96630537D01*
X83995820Y-96689502D01*
X84115518Y-96725812D01*
X84240000Y-96738072D01*
X84804250Y-96735000D01*
X84963000Y-96576250D01*
X84963000Y-95377000D01*
X84943000Y-95377000D01*
X84943000Y-95123000D01*
X84963000Y-95123000D01*
X84963000Y-93923750D01*
X85217000Y-93923750D01*
X85217000Y-95123000D01*
X85237000Y-95123000D01*
X85237000Y-95377000D01*
X85217000Y-95377000D01*
X85217000Y-96576250D01*
X85375750Y-96735000D01*
X85940000Y-96738072D01*
X86064482Y-96725812D01*
X86184180Y-96689502D01*
X86294494Y-96630537D01*
X86391185Y-96551185D01*
X86470537Y-96454494D01*
X86529502Y-96344180D01*
X86551513Y-96271620D01*
X86683368Y-96403475D01*
X86926589Y-96565990D01*
X87196842Y-96677932D01*
X87483740Y-96735000D01*
X87776260Y-96735000D01*
X88063158Y-96677932D01*
X88333411Y-96565990D01*
X88576632Y-96403475D01*
X88783475Y-96196632D01*
X88900000Y-96022240D01*
X89016525Y-96196632D01*
X89223368Y-96403475D01*
X89466589Y-96565990D01*
X89736842Y-96677932D01*
X90023740Y-96735000D01*
X90316260Y-96735000D01*
X90603158Y-96677932D01*
X90873411Y-96565990D01*
X91116632Y-96403475D01*
X91323475Y-96196632D01*
X91485990Y-95953411D01*
X91597932Y-95683158D01*
X91655000Y-95396260D01*
X91655000Y-95103740D01*
X91597932Y-94816842D01*
X91485990Y-94546589D01*
X91323475Y-94303368D01*
X91116632Y-94096525D01*
X90873411Y-93934010D01*
X90631337Y-93833740D01*
X100115000Y-93833740D01*
X100115000Y-94126260D01*
X100172068Y-94413158D01*
X100284010Y-94683411D01*
X100446525Y-94926632D01*
X100653368Y-95133475D01*
X100896589Y-95295990D01*
X101166842Y-95407932D01*
X101453740Y-95465000D01*
X101746260Y-95465000D01*
X102033158Y-95407932D01*
X102303411Y-95295990D01*
X102546632Y-95133475D01*
X102753475Y-94926632D01*
X102915990Y-94683411D01*
X103027932Y-94413158D01*
X103085000Y-94126260D01*
X103085000Y-93833740D01*
X103027932Y-93546842D01*
X102915990Y-93276589D01*
X102753475Y-93033368D01*
X102546632Y-92826525D01*
X102364466Y-92704805D01*
X102481355Y-92635178D01*
X102697588Y-92440269D01*
X102871641Y-92206920D01*
X102996825Y-91944099D01*
X103041476Y-91796890D01*
X102920155Y-91567000D01*
X101727000Y-91567000D01*
X101727000Y-91587000D01*
X101473000Y-91587000D01*
X101473000Y-91567000D01*
X100279845Y-91567000D01*
X100158524Y-91796890D01*
X100203175Y-91944099D01*
X100328359Y-92206920D01*
X100502412Y-92440269D01*
X100718645Y-92635178D01*
X100835534Y-92704805D01*
X100653368Y-92826525D01*
X100446525Y-93033368D01*
X100284010Y-93276589D01*
X100172068Y-93546842D01*
X100115000Y-93833740D01*
X90631337Y-93833740D01*
X90603158Y-93822068D01*
X90316260Y-93765000D01*
X90023740Y-93765000D01*
X89736842Y-93822068D01*
X89466589Y-93934010D01*
X89223368Y-94096525D01*
X89016525Y-94303368D01*
X88900000Y-94477760D01*
X88783475Y-94303368D01*
X88576632Y-94096525D01*
X88333411Y-93934010D01*
X88063158Y-93822068D01*
X87776260Y-93765000D01*
X87483740Y-93765000D01*
X87196842Y-93822068D01*
X86926589Y-93934010D01*
X86683368Y-94096525D01*
X86551513Y-94228380D01*
X86529502Y-94155820D01*
X86470537Y-94045506D01*
X86391185Y-93948815D01*
X86294494Y-93869463D01*
X86184180Y-93810498D01*
X86064482Y-93774188D01*
X85940000Y-93761928D01*
X85375750Y-93765000D01*
X85217000Y-93923750D01*
X84963000Y-93923750D01*
X84804250Y-93765000D01*
X84240000Y-93761928D01*
X84115518Y-93774188D01*
X83995820Y-93810498D01*
X83885506Y-93869463D01*
X83788815Y-93948815D01*
X83709463Y-94045506D01*
X83650498Y-94155820D01*
X83628487Y-94228380D01*
X83496632Y-94096525D01*
X83253411Y-93934010D01*
X82983158Y-93822068D01*
X82696260Y-93765000D01*
X82403740Y-93765000D01*
X82116842Y-93822068D01*
X81846589Y-93934010D01*
X81603368Y-94096525D01*
X81396525Y-94303368D01*
X81280000Y-94477760D01*
X81163475Y-94303368D01*
X80956632Y-94096525D01*
X80713411Y-93934010D01*
X80443158Y-93822068D01*
X80156260Y-93765000D01*
X79863740Y-93765000D01*
X79576842Y-93822068D01*
X79306589Y-93934010D01*
X79063368Y-94096525D01*
X78856525Y-94303368D01*
X78740000Y-94477760D01*
X78623475Y-94303368D01*
X78416632Y-94096525D01*
X78173411Y-93934010D01*
X77903158Y-93822068D01*
X77616260Y-93765000D01*
X77323740Y-93765000D01*
X77036842Y-93822068D01*
X76766589Y-93934010D01*
X76523368Y-94096525D01*
X76316525Y-94303368D01*
X76200000Y-94477760D01*
X76083475Y-94303368D01*
X75876632Y-94096525D01*
X75633411Y-93934010D01*
X75363158Y-93822068D01*
X75076260Y-93765000D01*
X74783740Y-93765000D01*
X74496842Y-93822068D01*
X74226589Y-93934010D01*
X73983368Y-94096525D01*
X73851513Y-94228380D01*
X73829502Y-94155820D01*
X73770537Y-94045506D01*
X73691185Y-93948815D01*
X73594494Y-93869463D01*
X73484180Y-93810498D01*
X73364482Y-93774188D01*
X73240000Y-93761928D01*
X72675750Y-93765000D01*
X72517000Y-93923750D01*
X72517000Y-95123000D01*
X72537000Y-95123000D01*
X72537000Y-95377000D01*
X72517000Y-95377000D01*
X72517000Y-96576250D01*
X72675750Y-96735000D01*
X73240000Y-96738072D01*
X73364482Y-96725812D01*
X73484180Y-96689502D01*
X73594494Y-96630537D01*
X73691185Y-96551185D01*
X73770537Y-96454494D01*
X73829502Y-96344180D01*
X73851513Y-96271620D01*
X73983368Y-96403475D01*
X74226589Y-96565990D01*
X74496842Y-96677932D01*
X74783740Y-96735000D01*
X75076260Y-96735000D01*
X75363158Y-96677932D01*
X75633411Y-96565990D01*
X75876632Y-96403475D01*
X76083475Y-96196632D01*
X76200000Y-96022240D01*
X76316525Y-96196632D01*
X76523368Y-96403475D01*
X76766589Y-96565990D01*
X77036842Y-96677932D01*
X77323740Y-96735000D01*
X77616260Y-96735000D01*
X77903158Y-96677932D01*
X78173411Y-96565990D01*
X78416632Y-96403475D01*
X78623475Y-96196632D01*
X78740000Y-96022240D01*
X78856525Y-96196632D01*
X79063368Y-96403475D01*
X79306589Y-96565990D01*
X79576842Y-96677932D01*
X79863740Y-96735000D01*
X79935447Y-96735000D01*
X79921010Y-96769855D01*
X79887000Y-96940835D01*
X79887000Y-97115165D01*
X79921010Y-97286145D01*
X79987723Y-97447205D01*
X80084576Y-97592155D01*
X80207845Y-97715424D01*
X80282040Y-97765000D01*
X36515665Y-97765000D01*
X36589494Y-97725537D01*
X36686185Y-97646185D01*
X36765537Y-97549494D01*
X36824502Y-97439180D01*
X36860812Y-97319482D01*
X36873072Y-97195000D01*
X36873072Y-95845000D01*
X36860812Y-95720518D01*
X36824502Y-95600820D01*
X36765537Y-95490506D01*
X36686185Y-95393815D01*
X36589494Y-95314463D01*
X36479180Y-95255498D01*
X36359482Y-95219188D01*
X36235000Y-95206928D01*
X34885000Y-95206928D01*
X34760518Y-95219188D01*
X34640820Y-95255498D01*
X34530506Y-95314463D01*
X34433815Y-95393815D01*
X34354463Y-95490506D01*
X34295498Y-95600820D01*
X34259188Y-95720518D01*
X34246928Y-95845000D01*
X34246928Y-97195000D01*
X34259188Y-97319482D01*
X34295498Y-97439180D01*
X34354463Y-97549494D01*
X34433815Y-97646185D01*
X34530506Y-97725537D01*
X34604335Y-97765000D01*
X27330000Y-97765000D01*
X27330000Y-95103740D01*
X40425000Y-95103740D01*
X40425000Y-95396260D01*
X40482068Y-95683158D01*
X40594010Y-95953411D01*
X40756525Y-96196632D01*
X40963368Y-96403475D01*
X41206589Y-96565990D01*
X41476842Y-96677932D01*
X41763740Y-96735000D01*
X42056260Y-96735000D01*
X42343158Y-96677932D01*
X42613411Y-96565990D01*
X42856632Y-96403475D01*
X43063475Y-96196632D01*
X43180000Y-96022240D01*
X43296525Y-96196632D01*
X43503368Y-96403475D01*
X43746589Y-96565990D01*
X44016842Y-96677932D01*
X44303740Y-96735000D01*
X44596260Y-96735000D01*
X44883158Y-96677932D01*
X45153411Y-96565990D01*
X45396632Y-96403475D01*
X45528487Y-96271620D01*
X45550498Y-96344180D01*
X45609463Y-96454494D01*
X45688815Y-96551185D01*
X45785506Y-96630537D01*
X45895820Y-96689502D01*
X46015518Y-96725812D01*
X46140000Y-96738072D01*
X46704250Y-96735000D01*
X46863000Y-96576250D01*
X46863000Y-95377000D01*
X46843000Y-95377000D01*
X46843000Y-95123000D01*
X46863000Y-95123000D01*
X46863000Y-93923750D01*
X47117000Y-93923750D01*
X47117000Y-95123000D01*
X47137000Y-95123000D01*
X47137000Y-95377000D01*
X47117000Y-95377000D01*
X47117000Y-96576250D01*
X47275750Y-96735000D01*
X47840000Y-96738072D01*
X47964482Y-96725812D01*
X48084180Y-96689502D01*
X48194494Y-96630537D01*
X48291185Y-96551185D01*
X48370537Y-96454494D01*
X48429502Y-96344180D01*
X48451513Y-96271620D01*
X48583368Y-96403475D01*
X48826589Y-96565990D01*
X49096842Y-96677932D01*
X49383740Y-96735000D01*
X49676260Y-96735000D01*
X49963158Y-96677932D01*
X50233411Y-96565990D01*
X50476632Y-96403475D01*
X50683475Y-96196632D01*
X50800000Y-96022240D01*
X50916525Y-96196632D01*
X51123368Y-96403475D01*
X51366589Y-96565990D01*
X51636842Y-96677932D01*
X51923740Y-96735000D01*
X52216260Y-96735000D01*
X52503158Y-96677932D01*
X52773411Y-96565990D01*
X53016632Y-96403475D01*
X53223475Y-96196632D01*
X53340000Y-96022240D01*
X53456525Y-96196632D01*
X53663368Y-96403475D01*
X53906589Y-96565990D01*
X54176842Y-96677932D01*
X54463740Y-96735000D01*
X54756260Y-96735000D01*
X55043158Y-96677932D01*
X55313411Y-96565990D01*
X55556632Y-96403475D01*
X55763475Y-96196632D01*
X55880000Y-96022240D01*
X55996525Y-96196632D01*
X56203368Y-96403475D01*
X56446589Y-96565990D01*
X56716842Y-96677932D01*
X57003740Y-96735000D01*
X57296260Y-96735000D01*
X57583158Y-96677932D01*
X57853411Y-96565990D01*
X58096632Y-96403475D01*
X58228487Y-96271620D01*
X58250498Y-96344180D01*
X58309463Y-96454494D01*
X58388815Y-96551185D01*
X58485506Y-96630537D01*
X58595820Y-96689502D01*
X58715518Y-96725812D01*
X58840000Y-96738072D01*
X59404250Y-96735000D01*
X59563000Y-96576250D01*
X59563000Y-95377000D01*
X59543000Y-95377000D01*
X59543000Y-95123000D01*
X59563000Y-95123000D01*
X59563000Y-93923750D01*
X59817000Y-93923750D01*
X59817000Y-95123000D01*
X59837000Y-95123000D01*
X59837000Y-95377000D01*
X59817000Y-95377000D01*
X59817000Y-96576250D01*
X59975750Y-96735000D01*
X60540000Y-96738072D01*
X60664482Y-96725812D01*
X60784180Y-96689502D01*
X60894494Y-96630537D01*
X60991185Y-96551185D01*
X61070537Y-96454494D01*
X61129502Y-96344180D01*
X61151513Y-96271620D01*
X61283368Y-96403475D01*
X61526589Y-96565990D01*
X61796842Y-96677932D01*
X62083740Y-96735000D01*
X62376260Y-96735000D01*
X62663158Y-96677932D01*
X62933411Y-96565990D01*
X63176632Y-96403475D01*
X63383475Y-96196632D01*
X63500000Y-96022240D01*
X63616525Y-96196632D01*
X63823368Y-96403475D01*
X64066589Y-96565990D01*
X64336842Y-96677932D01*
X64623740Y-96735000D01*
X64916260Y-96735000D01*
X65203158Y-96677932D01*
X65473411Y-96565990D01*
X65716632Y-96403475D01*
X65923475Y-96196632D01*
X66040000Y-96022240D01*
X66156525Y-96196632D01*
X66363368Y-96403475D01*
X66606589Y-96565990D01*
X66876842Y-96677932D01*
X67163740Y-96735000D01*
X67456260Y-96735000D01*
X67743158Y-96677932D01*
X68013411Y-96565990D01*
X68256632Y-96403475D01*
X68463475Y-96196632D01*
X68580000Y-96022240D01*
X68696525Y-96196632D01*
X68903368Y-96403475D01*
X69146589Y-96565990D01*
X69416842Y-96677932D01*
X69703740Y-96735000D01*
X69996260Y-96735000D01*
X70283158Y-96677932D01*
X70553411Y-96565990D01*
X70796632Y-96403475D01*
X70928487Y-96271620D01*
X70950498Y-96344180D01*
X71009463Y-96454494D01*
X71088815Y-96551185D01*
X71185506Y-96630537D01*
X71295820Y-96689502D01*
X71415518Y-96725812D01*
X71540000Y-96738072D01*
X72104250Y-96735000D01*
X72263000Y-96576250D01*
X72263000Y-95377000D01*
X72243000Y-95377000D01*
X72243000Y-95123000D01*
X72263000Y-95123000D01*
X72263000Y-93923750D01*
X72104250Y-93765000D01*
X71540000Y-93761928D01*
X71415518Y-93774188D01*
X71295820Y-93810498D01*
X71185506Y-93869463D01*
X71088815Y-93948815D01*
X71009463Y-94045506D01*
X70950498Y-94155820D01*
X70928487Y-94228380D01*
X70796632Y-94096525D01*
X70553411Y-93934010D01*
X70283158Y-93822068D01*
X69996260Y-93765000D01*
X69703740Y-93765000D01*
X69416842Y-93822068D01*
X69146589Y-93934010D01*
X68903368Y-94096525D01*
X68696525Y-94303368D01*
X68580000Y-94477760D01*
X68463475Y-94303368D01*
X68256632Y-94096525D01*
X68013411Y-93934010D01*
X67743158Y-93822068D01*
X67456260Y-93765000D01*
X67163740Y-93765000D01*
X66876842Y-93822068D01*
X66606589Y-93934010D01*
X66363368Y-94096525D01*
X66156525Y-94303368D01*
X66040000Y-94477760D01*
X65923475Y-94303368D01*
X65716632Y-94096525D01*
X65473411Y-93934010D01*
X65203158Y-93822068D01*
X64916260Y-93765000D01*
X64623740Y-93765000D01*
X64336842Y-93822068D01*
X64066589Y-93934010D01*
X63823368Y-94096525D01*
X63616525Y-94303368D01*
X63500000Y-94477760D01*
X63383475Y-94303368D01*
X63176632Y-94096525D01*
X62933411Y-93934010D01*
X62663158Y-93822068D01*
X62376260Y-93765000D01*
X62083740Y-93765000D01*
X61796842Y-93822068D01*
X61526589Y-93934010D01*
X61283368Y-94096525D01*
X61151513Y-94228380D01*
X61129502Y-94155820D01*
X61070537Y-94045506D01*
X60991185Y-93948815D01*
X60894494Y-93869463D01*
X60784180Y-93810498D01*
X60664482Y-93774188D01*
X60540000Y-93761928D01*
X59975750Y-93765000D01*
X59817000Y-93923750D01*
X59563000Y-93923750D01*
X59404250Y-93765000D01*
X58840000Y-93761928D01*
X58715518Y-93774188D01*
X58595820Y-93810498D01*
X58485506Y-93869463D01*
X58388815Y-93948815D01*
X58309463Y-94045506D01*
X58250498Y-94155820D01*
X58228487Y-94228380D01*
X58096632Y-94096525D01*
X57853411Y-93934010D01*
X57583158Y-93822068D01*
X57296260Y-93765000D01*
X57003740Y-93765000D01*
X56716842Y-93822068D01*
X56446589Y-93934010D01*
X56203368Y-94096525D01*
X55996525Y-94303368D01*
X55880000Y-94477760D01*
X55763475Y-94303368D01*
X55556632Y-94096525D01*
X55313411Y-93934010D01*
X55043158Y-93822068D01*
X54756260Y-93765000D01*
X54463740Y-93765000D01*
X54176842Y-93822068D01*
X53906589Y-93934010D01*
X53663368Y-94096525D01*
X53456525Y-94303368D01*
X53340000Y-94477760D01*
X53223475Y-94303368D01*
X53016632Y-94096525D01*
X52773411Y-93934010D01*
X52503158Y-93822068D01*
X52216260Y-93765000D01*
X51923740Y-93765000D01*
X51636842Y-93822068D01*
X51366589Y-93934010D01*
X51123368Y-94096525D01*
X50916525Y-94303368D01*
X50800000Y-94477760D01*
X50683475Y-94303368D01*
X50476632Y-94096525D01*
X50233411Y-93934010D01*
X49963158Y-93822068D01*
X49676260Y-93765000D01*
X49383740Y-93765000D01*
X49096842Y-93822068D01*
X48826589Y-93934010D01*
X48583368Y-94096525D01*
X48451513Y-94228380D01*
X48429502Y-94155820D01*
X48370537Y-94045506D01*
X48291185Y-93948815D01*
X48194494Y-93869463D01*
X48084180Y-93810498D01*
X47964482Y-93774188D01*
X47840000Y-93761928D01*
X47275750Y-93765000D01*
X47117000Y-93923750D01*
X46863000Y-93923750D01*
X46704250Y-93765000D01*
X46140000Y-93761928D01*
X46015518Y-93774188D01*
X45895820Y-93810498D01*
X45785506Y-93869463D01*
X45688815Y-93948815D01*
X45609463Y-94045506D01*
X45550498Y-94155820D01*
X45528487Y-94228380D01*
X45396632Y-94096525D01*
X45153411Y-93934010D01*
X44883158Y-93822068D01*
X44596260Y-93765000D01*
X44303740Y-93765000D01*
X44016842Y-93822068D01*
X43746589Y-93934010D01*
X43503368Y-94096525D01*
X43296525Y-94303368D01*
X43180000Y-94477760D01*
X43063475Y-94303368D01*
X42856632Y-94096525D01*
X42613411Y-93934010D01*
X42343158Y-93822068D01*
X42056260Y-93765000D01*
X41763740Y-93765000D01*
X41476842Y-93822068D01*
X41206589Y-93934010D01*
X40963368Y-94096525D01*
X40756525Y-94303368D01*
X40594010Y-94546589D01*
X40482068Y-94816842D01*
X40425000Y-95103740D01*
X27330000Y-95103740D01*
X27330000Y-89052061D01*
X30461000Y-89052061D01*
X30461000Y-89255939D01*
X30500774Y-89455898D01*
X30578795Y-89644256D01*
X30692063Y-89813774D01*
X30836226Y-89957937D01*
X31005744Y-90071205D01*
X31194102Y-90149226D01*
X31394061Y-90189000D01*
X31597939Y-90189000D01*
X31797898Y-90149226D01*
X31986256Y-90071205D01*
X32155774Y-89957937D01*
X32299937Y-89813774D01*
X32413205Y-89644256D01*
X32491226Y-89455898D01*
X32531000Y-89255939D01*
X32531000Y-89052061D01*
X32507480Y-88933816D01*
X40505000Y-88933816D01*
X40505000Y-89236184D01*
X40563989Y-89532743D01*
X40679701Y-89812095D01*
X40847688Y-90063505D01*
X41061495Y-90277312D01*
X41312905Y-90445299D01*
X41592257Y-90561011D01*
X41888816Y-90620000D01*
X42191184Y-90620000D01*
X42487743Y-90561011D01*
X42767095Y-90445299D01*
X43018505Y-90277312D01*
X43232312Y-90063505D01*
X43400299Y-89812095D01*
X43516011Y-89532743D01*
X43575000Y-89236184D01*
X43575000Y-88933816D01*
X43518266Y-88648589D01*
X43685000Y-88648589D01*
X43685000Y-88921411D01*
X43738225Y-89188989D01*
X43842629Y-89441043D01*
X43994201Y-89667886D01*
X44187114Y-89860799D01*
X44413957Y-90012371D01*
X44666011Y-90116775D01*
X44933589Y-90170000D01*
X45206411Y-90170000D01*
X45473989Y-90116775D01*
X45726043Y-90012371D01*
X45952886Y-89860799D01*
X46145799Y-89667886D01*
X46297371Y-89441043D01*
X46401775Y-89188989D01*
X46455000Y-88921411D01*
X46455000Y-88812835D01*
X53979000Y-88812835D01*
X53979000Y-88987165D01*
X54013010Y-89158145D01*
X54079723Y-89319205D01*
X54176576Y-89464155D01*
X54299845Y-89587424D01*
X54444795Y-89684277D01*
X54605855Y-89750990D01*
X54776835Y-89785000D01*
X54951165Y-89785000D01*
X55122145Y-89750990D01*
X55283205Y-89684277D01*
X55428155Y-89587424D01*
X55551424Y-89464155D01*
X55648277Y-89319205D01*
X55709763Y-89170763D01*
X55858205Y-89109277D01*
X56003155Y-89012424D01*
X56126424Y-88889155D01*
X56223277Y-88744205D01*
X56289990Y-88583145D01*
X56324000Y-88412165D01*
X56324000Y-88237835D01*
X56289990Y-88066855D01*
X56223277Y-87905795D01*
X56126424Y-87760845D01*
X56003155Y-87637576D01*
X55858205Y-87540723D01*
X55697145Y-87474010D01*
X55526165Y-87440000D01*
X55351835Y-87440000D01*
X55180855Y-87474010D01*
X55019795Y-87540723D01*
X54874845Y-87637576D01*
X54751576Y-87760845D01*
X54654723Y-87905795D01*
X54593237Y-88054237D01*
X54444795Y-88115723D01*
X54299845Y-88212576D01*
X54176576Y-88335845D01*
X54079723Y-88480795D01*
X54013010Y-88641855D01*
X53979000Y-88812835D01*
X46455000Y-88812835D01*
X46455000Y-88648589D01*
X46401775Y-88381011D01*
X46297371Y-88128957D01*
X46145799Y-87902114D01*
X45952886Y-87709201D01*
X45726043Y-87557629D01*
X45473989Y-87453225D01*
X45206411Y-87400000D01*
X44933589Y-87400000D01*
X44666011Y-87453225D01*
X44413957Y-87557629D01*
X44187114Y-87709201D01*
X43994201Y-87902114D01*
X43842629Y-88128957D01*
X43738225Y-88381011D01*
X43685000Y-88648589D01*
X43518266Y-88648589D01*
X43516011Y-88637257D01*
X43400299Y-88357905D01*
X43232312Y-88106495D01*
X43018505Y-87892688D01*
X42767095Y-87724701D01*
X42487743Y-87608989D01*
X42191184Y-87550000D01*
X41888816Y-87550000D01*
X41592257Y-87608989D01*
X41312905Y-87724701D01*
X41061495Y-87892688D01*
X40847688Y-88106495D01*
X40679701Y-88357905D01*
X40563989Y-88637257D01*
X40505000Y-88933816D01*
X32507480Y-88933816D01*
X32491226Y-88852102D01*
X32413205Y-88663744D01*
X32299937Y-88494226D01*
X32155774Y-88350063D01*
X31986256Y-88236795D01*
X31797898Y-88158774D01*
X31597939Y-88119000D01*
X31394061Y-88119000D01*
X31194102Y-88158774D01*
X31005744Y-88236795D01*
X30836226Y-88350063D01*
X30692063Y-88494226D01*
X30578795Y-88663744D01*
X30500774Y-88852102D01*
X30461000Y-89052061D01*
X27330000Y-89052061D01*
X27330000Y-87288835D01*
X49661000Y-87288835D01*
X49661000Y-87463165D01*
X49695010Y-87634145D01*
X49761723Y-87795205D01*
X49858576Y-87940155D01*
X49981845Y-88063424D01*
X50126795Y-88160277D01*
X50287855Y-88226990D01*
X50458835Y-88261000D01*
X50633165Y-88261000D01*
X50804145Y-88226990D01*
X50965205Y-88160277D01*
X51110155Y-88063424D01*
X51233424Y-87940155D01*
X51330277Y-87795205D01*
X51396990Y-87634145D01*
X51431000Y-87463165D01*
X51431000Y-87288835D01*
X51693000Y-87288835D01*
X51693000Y-87463165D01*
X51727010Y-87634145D01*
X51793723Y-87795205D01*
X51890576Y-87940155D01*
X52013845Y-88063424D01*
X52158795Y-88160277D01*
X52319855Y-88226990D01*
X52490835Y-88261000D01*
X52665165Y-88261000D01*
X52836145Y-88226990D01*
X52997205Y-88160277D01*
X53142155Y-88063424D01*
X53265424Y-87940155D01*
X53362277Y-87795205D01*
X53428990Y-87634145D01*
X53463000Y-87463165D01*
X53463000Y-87288835D01*
X53428990Y-87117855D01*
X53362277Y-86956795D01*
X53265424Y-86811845D01*
X53142155Y-86688576D01*
X52997205Y-86591723D01*
X52836145Y-86525010D01*
X52665165Y-86491000D01*
X52490835Y-86491000D01*
X52319855Y-86525010D01*
X52158795Y-86591723D01*
X52013845Y-86688576D01*
X51890576Y-86811845D01*
X51793723Y-86956795D01*
X51727010Y-87117855D01*
X51693000Y-87288835D01*
X51431000Y-87288835D01*
X51396990Y-87117855D01*
X51330277Y-86956795D01*
X51233424Y-86811845D01*
X51110155Y-86688576D01*
X50965205Y-86591723D01*
X50804145Y-86525010D01*
X50633165Y-86491000D01*
X50458835Y-86491000D01*
X50287855Y-86525010D01*
X50126795Y-86591723D01*
X49981845Y-86688576D01*
X49858576Y-86811845D01*
X49761723Y-86956795D01*
X49695010Y-87117855D01*
X49661000Y-87288835D01*
X27330000Y-87288835D01*
X27330000Y-85648061D01*
X34423000Y-85648061D01*
X34423000Y-85851939D01*
X34462774Y-86051898D01*
X34540795Y-86240256D01*
X34654063Y-86409774D01*
X34798226Y-86553937D01*
X34967744Y-86667205D01*
X35156102Y-86745226D01*
X35356061Y-86785000D01*
X35559939Y-86785000D01*
X35759898Y-86745226D01*
X35948256Y-86667205D01*
X36117774Y-86553937D01*
X36261937Y-86409774D01*
X36353436Y-86272835D01*
X55249000Y-86272835D01*
X55249000Y-86447165D01*
X55283010Y-86618145D01*
X55349723Y-86779205D01*
X55446576Y-86924155D01*
X55569845Y-87047424D01*
X55714795Y-87144277D01*
X55875855Y-87210990D01*
X56046835Y-87245000D01*
X56221165Y-87245000D01*
X56392145Y-87210990D01*
X56553205Y-87144277D01*
X56698155Y-87047424D01*
X56821424Y-86924155D01*
X56918277Y-86779205D01*
X56984990Y-86618145D01*
X57019000Y-86447165D01*
X57019000Y-86272835D01*
X56984990Y-86101855D01*
X56918277Y-85940795D01*
X56821424Y-85795845D01*
X56710579Y-85685000D01*
X57106928Y-85685000D01*
X57106928Y-87035000D01*
X57119188Y-87159482D01*
X57155498Y-87279180D01*
X57214463Y-87389494D01*
X57293815Y-87486185D01*
X57390506Y-87565537D01*
X57500820Y-87624502D01*
X57518944Y-87630000D01*
X57500820Y-87635498D01*
X57390506Y-87694463D01*
X57293815Y-87773815D01*
X57214463Y-87870506D01*
X57155498Y-87980820D01*
X57119188Y-88100518D01*
X57106928Y-88225000D01*
X57106928Y-89575000D01*
X57119188Y-89699482D01*
X57155498Y-89819180D01*
X57214463Y-89929494D01*
X57293815Y-90026185D01*
X57390506Y-90105537D01*
X57500820Y-90164502D01*
X57518944Y-90170000D01*
X57500820Y-90175498D01*
X57390506Y-90234463D01*
X57293815Y-90313815D01*
X57214463Y-90410506D01*
X57155498Y-90520820D01*
X57119188Y-90640518D01*
X57106928Y-90765000D01*
X57106928Y-92115000D01*
X57119188Y-92239482D01*
X57155498Y-92359180D01*
X57214463Y-92469494D01*
X57293815Y-92566185D01*
X57390506Y-92645537D01*
X57500820Y-92704502D01*
X57620518Y-92740812D01*
X57745000Y-92753072D01*
X59095000Y-92753072D01*
X59219482Y-92740812D01*
X59339180Y-92704502D01*
X59449494Y-92645537D01*
X59546185Y-92566185D01*
X59625537Y-92469494D01*
X59684502Y-92359180D01*
X59720812Y-92239482D01*
X59733072Y-92115000D01*
X59733072Y-90765000D01*
X59720812Y-90640518D01*
X59684502Y-90520820D01*
X59625537Y-90410506D01*
X59546185Y-90313815D01*
X59449494Y-90234463D01*
X59339180Y-90175498D01*
X59321056Y-90170000D01*
X59339180Y-90164502D01*
X59449494Y-90105537D01*
X59546185Y-90026185D01*
X59625537Y-89929494D01*
X59684502Y-89819180D01*
X59720812Y-89699482D01*
X59733072Y-89575000D01*
X59733072Y-88225000D01*
X59720812Y-88100518D01*
X59705741Y-88050835D01*
X60837000Y-88050835D01*
X60837000Y-88225165D01*
X60871010Y-88396145D01*
X60937723Y-88557205D01*
X61034576Y-88702155D01*
X61157845Y-88825424D01*
X61302795Y-88922277D01*
X61463855Y-88988990D01*
X61634835Y-89023000D01*
X61809165Y-89023000D01*
X61980145Y-88988990D01*
X62141205Y-88922277D01*
X62286155Y-88825424D01*
X62409424Y-88702155D01*
X62506277Y-88557205D01*
X62572990Y-88396145D01*
X62607000Y-88225165D01*
X62607000Y-88050835D01*
X62572990Y-87879855D01*
X62506277Y-87718795D01*
X62409424Y-87573845D01*
X62286155Y-87450576D01*
X62141205Y-87353723D01*
X61980145Y-87287010D01*
X61809165Y-87253000D01*
X61634835Y-87253000D01*
X61463855Y-87287010D01*
X61302795Y-87353723D01*
X61157845Y-87450576D01*
X61034576Y-87573845D01*
X60937723Y-87718795D01*
X60871010Y-87879855D01*
X60837000Y-88050835D01*
X59705741Y-88050835D01*
X59684502Y-87980820D01*
X59625537Y-87870506D01*
X59546185Y-87773815D01*
X59449494Y-87694463D01*
X59339180Y-87635498D01*
X59321056Y-87630000D01*
X59339180Y-87624502D01*
X59449494Y-87565537D01*
X59546185Y-87486185D01*
X59625537Y-87389494D01*
X59684502Y-87279180D01*
X59720812Y-87159482D01*
X59733072Y-87035000D01*
X59733072Y-85685000D01*
X59720812Y-85560518D01*
X59684502Y-85440820D01*
X59625537Y-85330506D01*
X59546185Y-85233815D01*
X59449494Y-85154463D01*
X59339180Y-85095498D01*
X59219482Y-85059188D01*
X59095000Y-85046928D01*
X57745000Y-85046928D01*
X57620518Y-85059188D01*
X57500820Y-85095498D01*
X57390506Y-85154463D01*
X57293815Y-85233815D01*
X57214463Y-85330506D01*
X57155498Y-85440820D01*
X57119188Y-85560518D01*
X57106928Y-85685000D01*
X56710579Y-85685000D01*
X56698155Y-85672576D01*
X56553205Y-85575723D01*
X56392145Y-85509010D01*
X56221165Y-85475000D01*
X56046835Y-85475000D01*
X55875855Y-85509010D01*
X55714795Y-85575723D01*
X55569845Y-85672576D01*
X55446576Y-85795845D01*
X55349723Y-85940795D01*
X55283010Y-86101855D01*
X55249000Y-86272835D01*
X36353436Y-86272835D01*
X36375205Y-86240256D01*
X36453226Y-86051898D01*
X36493000Y-85851939D01*
X36493000Y-85648061D01*
X36453226Y-85448102D01*
X36375205Y-85259744D01*
X36261937Y-85090226D01*
X36117774Y-84946063D01*
X35948256Y-84832795D01*
X35759898Y-84754774D01*
X35559939Y-84715000D01*
X35356061Y-84715000D01*
X35156102Y-84754774D01*
X34967744Y-84832795D01*
X34798226Y-84946063D01*
X34654063Y-85090226D01*
X34540795Y-85259744D01*
X34462774Y-85448102D01*
X34423000Y-85648061D01*
X27330000Y-85648061D01*
X27330000Y-83483816D01*
X40505000Y-83483816D01*
X40505000Y-83786184D01*
X40563989Y-84082743D01*
X40679701Y-84362095D01*
X40847688Y-84613505D01*
X41061495Y-84827312D01*
X41312905Y-84995299D01*
X41592257Y-85111011D01*
X41888816Y-85170000D01*
X42191184Y-85170000D01*
X42487743Y-85111011D01*
X42767095Y-84995299D01*
X43018505Y-84827312D01*
X43232312Y-84613505D01*
X43400299Y-84362095D01*
X43516011Y-84082743D01*
X43572532Y-83798589D01*
X43685000Y-83798589D01*
X43685000Y-84071411D01*
X43738225Y-84338989D01*
X43842629Y-84591043D01*
X43994201Y-84817886D01*
X44187114Y-85010799D01*
X44413957Y-85162371D01*
X44666011Y-85266775D01*
X44933589Y-85320000D01*
X45206411Y-85320000D01*
X45473989Y-85266775D01*
X45726043Y-85162371D01*
X45952886Y-85010799D01*
X45960850Y-85002835D01*
X46867000Y-85002835D01*
X46867000Y-85177165D01*
X46901010Y-85348145D01*
X46967723Y-85509205D01*
X47064576Y-85654155D01*
X47187845Y-85777424D01*
X47332795Y-85874277D01*
X47493855Y-85940990D01*
X47664835Y-85975000D01*
X47839165Y-85975000D01*
X48010145Y-85940990D01*
X48171205Y-85874277D01*
X48316155Y-85777424D01*
X48439424Y-85654155D01*
X48536277Y-85509205D01*
X48602990Y-85348145D01*
X48637000Y-85177165D01*
X48637000Y-85002835D01*
X48602990Y-84831855D01*
X48536277Y-84670795D01*
X48439424Y-84525845D01*
X48316155Y-84402576D01*
X48171205Y-84305723D01*
X48010145Y-84239010D01*
X47839165Y-84205000D01*
X47664835Y-84205000D01*
X47493855Y-84239010D01*
X47332795Y-84305723D01*
X47187845Y-84402576D01*
X47064576Y-84525845D01*
X46967723Y-84670795D01*
X46901010Y-84831855D01*
X46867000Y-85002835D01*
X45960850Y-85002835D01*
X46145799Y-84817886D01*
X46297371Y-84591043D01*
X46401775Y-84338989D01*
X46455000Y-84071411D01*
X46455000Y-83986835D01*
X53979000Y-83986835D01*
X53979000Y-84161165D01*
X54013010Y-84332145D01*
X54079723Y-84493205D01*
X54176576Y-84638155D01*
X54299845Y-84761424D01*
X54444795Y-84858277D01*
X54605855Y-84924990D01*
X54776835Y-84959000D01*
X54951165Y-84959000D01*
X55122145Y-84924990D01*
X55283205Y-84858277D01*
X55428155Y-84761424D01*
X55551424Y-84638155D01*
X55648277Y-84493205D01*
X55690140Y-84392140D01*
X55791205Y-84350277D01*
X55936155Y-84253424D01*
X56059424Y-84130155D01*
X56156277Y-83985205D01*
X56198140Y-83884140D01*
X56299205Y-83842277D01*
X56444155Y-83745424D01*
X56567424Y-83622155D01*
X56664277Y-83477205D01*
X56730990Y-83316145D01*
X56765000Y-83145165D01*
X56765000Y-82970835D01*
X56730990Y-82799855D01*
X56664277Y-82638795D01*
X56628865Y-82585797D01*
X56679482Y-82580812D01*
X56799180Y-82544502D01*
X56909494Y-82485537D01*
X57006185Y-82406185D01*
X57085537Y-82309494D01*
X57144502Y-82199180D01*
X57180812Y-82079482D01*
X57193072Y-81955000D01*
X57193072Y-81192835D01*
X60837000Y-81192835D01*
X60837000Y-81367165D01*
X60871010Y-81538145D01*
X60937723Y-81699205D01*
X61034576Y-81844155D01*
X61157845Y-81967424D01*
X61302795Y-82064277D01*
X61463855Y-82130990D01*
X61634835Y-82165000D01*
X61809165Y-82165000D01*
X61980145Y-82130990D01*
X62141205Y-82064277D01*
X62286155Y-81967424D01*
X62409424Y-81844155D01*
X62506277Y-81699205D01*
X62572990Y-81538145D01*
X62607000Y-81367165D01*
X62607000Y-81192835D01*
X62572990Y-81021855D01*
X62506277Y-80860795D01*
X62409424Y-80715845D01*
X62298579Y-80605000D01*
X64726928Y-80605000D01*
X64726928Y-81955000D01*
X64739188Y-82079482D01*
X64775498Y-82199180D01*
X64834463Y-82309494D01*
X64913815Y-82406185D01*
X65010506Y-82485537D01*
X65120820Y-82544502D01*
X65138944Y-82550000D01*
X65120820Y-82555498D01*
X65010506Y-82614463D01*
X64913815Y-82693815D01*
X64834463Y-82790506D01*
X64775498Y-82900820D01*
X64739188Y-83020518D01*
X64726928Y-83145000D01*
X64726928Y-84495000D01*
X64739188Y-84619482D01*
X64775498Y-84739180D01*
X64834463Y-84849494D01*
X64913815Y-84946185D01*
X65010506Y-85025537D01*
X65120820Y-85084502D01*
X65138944Y-85090000D01*
X65120820Y-85095498D01*
X65010506Y-85154463D01*
X64913815Y-85233815D01*
X64834463Y-85330506D01*
X64775498Y-85440820D01*
X64739188Y-85560518D01*
X64726928Y-85685000D01*
X64726928Y-87035000D01*
X64739188Y-87159482D01*
X64775498Y-87279180D01*
X64834463Y-87389494D01*
X64913815Y-87486185D01*
X65010506Y-87565537D01*
X65120820Y-87624502D01*
X65138944Y-87630000D01*
X65120820Y-87635498D01*
X65010506Y-87694463D01*
X64913815Y-87773815D01*
X64834463Y-87870506D01*
X64775498Y-87980820D01*
X64739188Y-88100518D01*
X64726928Y-88225000D01*
X64726928Y-89575000D01*
X64739188Y-89699482D01*
X64775498Y-89819180D01*
X64834463Y-89929494D01*
X64913815Y-90026185D01*
X65010506Y-90105537D01*
X65120820Y-90164502D01*
X65138944Y-90170000D01*
X65120820Y-90175498D01*
X65010506Y-90234463D01*
X64913815Y-90313815D01*
X64834463Y-90410506D01*
X64775498Y-90520820D01*
X64739188Y-90640518D01*
X64726928Y-90765000D01*
X64726928Y-92115000D01*
X64739188Y-92239482D01*
X64775498Y-92359180D01*
X64834463Y-92469494D01*
X64913815Y-92566185D01*
X65010506Y-92645537D01*
X65120820Y-92704502D01*
X65240518Y-92740812D01*
X65365000Y-92753072D01*
X66715000Y-92753072D01*
X66839482Y-92740812D01*
X66959180Y-92704502D01*
X67069494Y-92645537D01*
X67166185Y-92566185D01*
X67245537Y-92469494D01*
X67304502Y-92359180D01*
X67340812Y-92239482D01*
X67353072Y-92115000D01*
X67353072Y-91606835D01*
X79192000Y-91606835D01*
X79192000Y-91781165D01*
X79226010Y-91952145D01*
X79292723Y-92113205D01*
X79389576Y-92258155D01*
X79512845Y-92381424D01*
X79657795Y-92478277D01*
X79818855Y-92544990D01*
X79989835Y-92579000D01*
X80164165Y-92579000D01*
X80335145Y-92544990D01*
X80496205Y-92478277D01*
X80641155Y-92381424D01*
X80764424Y-92258155D01*
X80861277Y-92113205D01*
X80927990Y-91952145D01*
X80962000Y-91781165D01*
X80962000Y-91606835D01*
X80927990Y-91435855D01*
X80861277Y-91274795D01*
X80764424Y-91129845D01*
X80641155Y-91006576D01*
X80496205Y-90909723D01*
X80335145Y-90843010D01*
X80164165Y-90809000D01*
X79989835Y-90809000D01*
X79818855Y-90843010D01*
X79657795Y-90909723D01*
X79512845Y-91006576D01*
X79389576Y-91129845D01*
X79292723Y-91274795D01*
X79226010Y-91435855D01*
X79192000Y-91606835D01*
X67353072Y-91606835D01*
X67353072Y-90765000D01*
X67340812Y-90640518D01*
X67304502Y-90520820D01*
X67245537Y-90410506D01*
X67185077Y-90336835D01*
X69473000Y-90336835D01*
X69473000Y-90511165D01*
X69507010Y-90682145D01*
X69573723Y-90843205D01*
X69670576Y-90988155D01*
X69793845Y-91111424D01*
X69938795Y-91208277D01*
X70099855Y-91274990D01*
X70270835Y-91309000D01*
X70445165Y-91309000D01*
X70616145Y-91274990D01*
X70777205Y-91208277D01*
X70922155Y-91111424D01*
X71045424Y-90988155D01*
X71142277Y-90843205D01*
X71208990Y-90682145D01*
X71243000Y-90511165D01*
X71243000Y-90336835D01*
X71759000Y-90336835D01*
X71759000Y-90511165D01*
X71793010Y-90682145D01*
X71859723Y-90843205D01*
X71956576Y-90988155D01*
X72079845Y-91111424D01*
X72224795Y-91208277D01*
X72385855Y-91274990D01*
X72556835Y-91309000D01*
X72731165Y-91309000D01*
X72902145Y-91274990D01*
X73025000Y-91224102D01*
X73147855Y-91274990D01*
X73318835Y-91309000D01*
X73493165Y-91309000D01*
X73664145Y-91274990D01*
X73825205Y-91208277D01*
X73970155Y-91111424D01*
X74093424Y-90988155D01*
X74190277Y-90843205D01*
X74256990Y-90682145D01*
X74291000Y-90511165D01*
X74291000Y-90336835D01*
X74256990Y-90165855D01*
X74190277Y-90004795D01*
X74093424Y-89859845D01*
X73970155Y-89736576D01*
X73825205Y-89639723D01*
X73668551Y-89574835D01*
X77855000Y-89574835D01*
X77855000Y-89749165D01*
X77889010Y-89920145D01*
X77955723Y-90081205D01*
X78052576Y-90226155D01*
X78175845Y-90349424D01*
X78320795Y-90446277D01*
X78481855Y-90512990D01*
X78652835Y-90547000D01*
X78827165Y-90547000D01*
X78998145Y-90512990D01*
X79159205Y-90446277D01*
X79304155Y-90349424D01*
X79427424Y-90226155D01*
X79524277Y-90081205D01*
X79590990Y-89920145D01*
X79625000Y-89749165D01*
X79625000Y-89574835D01*
X79619115Y-89545248D01*
X83980587Y-89545248D01*
X83980587Y-89719578D01*
X84014597Y-89890558D01*
X84081310Y-90051618D01*
X84178163Y-90196568D01*
X84301432Y-90319837D01*
X84446382Y-90416690D01*
X84607442Y-90483403D01*
X84778422Y-90517413D01*
X84952752Y-90517413D01*
X85123732Y-90483403D01*
X85284792Y-90416690D01*
X85429742Y-90319837D01*
X85553011Y-90196568D01*
X85649864Y-90051618D01*
X85716577Y-89890558D01*
X85750587Y-89719578D01*
X85750587Y-89545248D01*
X85716577Y-89374268D01*
X85649864Y-89213208D01*
X85553011Y-89068258D01*
X85551588Y-89066835D01*
X86999000Y-89066835D01*
X86999000Y-89241165D01*
X87033010Y-89412145D01*
X87099723Y-89573205D01*
X87196576Y-89718155D01*
X87319845Y-89841424D01*
X87464795Y-89938277D01*
X87625855Y-90004990D01*
X87796835Y-90039000D01*
X87971165Y-90039000D01*
X88142145Y-90004990D01*
X88303205Y-89938277D01*
X88448155Y-89841424D01*
X88571424Y-89718155D01*
X88636052Y-89621433D01*
X88786525Y-89846632D01*
X88993368Y-90053475D01*
X89236589Y-90215990D01*
X89506842Y-90327932D01*
X89793740Y-90385000D01*
X90086260Y-90385000D01*
X90328399Y-90336835D01*
X92333000Y-90336835D01*
X92333000Y-90511165D01*
X92367010Y-90682145D01*
X92433723Y-90843205D01*
X92530576Y-90988155D01*
X92653845Y-91111424D01*
X92798795Y-91208277D01*
X92959855Y-91274990D01*
X93130835Y-91309000D01*
X93305165Y-91309000D01*
X93476145Y-91274990D01*
X93637205Y-91208277D01*
X93782155Y-91111424D01*
X93905424Y-90988155D01*
X94002277Y-90843205D01*
X94068990Y-90682145D01*
X94103000Y-90511165D01*
X94103000Y-90336835D01*
X94068990Y-90165855D01*
X94002277Y-90004795D01*
X93905424Y-89859845D01*
X93782155Y-89736576D01*
X93637205Y-89639723D01*
X93476145Y-89573010D01*
X93305165Y-89539000D01*
X93130835Y-89539000D01*
X92959855Y-89573010D01*
X92798795Y-89639723D01*
X92653845Y-89736576D01*
X92530576Y-89859845D01*
X92433723Y-90004795D01*
X92367010Y-90165855D01*
X92333000Y-90336835D01*
X90328399Y-90336835D01*
X90373158Y-90327932D01*
X90643411Y-90215990D01*
X90886632Y-90053475D01*
X91093475Y-89846632D01*
X91255990Y-89603411D01*
X91367932Y-89333158D01*
X91425000Y-89046260D01*
X91425000Y-88753740D01*
X91367932Y-88466842D01*
X91255990Y-88196589D01*
X91158601Y-88050835D01*
X98175000Y-88050835D01*
X98175000Y-88225165D01*
X98209010Y-88396145D01*
X98275723Y-88557205D01*
X98372576Y-88702155D01*
X98495845Y-88825424D01*
X98640795Y-88922277D01*
X98801855Y-88988990D01*
X98972835Y-89023000D01*
X99147165Y-89023000D01*
X99318145Y-88988990D01*
X99479205Y-88922277D01*
X99624155Y-88825424D01*
X99747424Y-88702155D01*
X99844277Y-88557205D01*
X99910990Y-88396145D01*
X99945000Y-88225165D01*
X99945000Y-88050835D01*
X99944834Y-88050000D01*
X100111928Y-88050000D01*
X100111928Y-89750000D01*
X100124188Y-89874482D01*
X100160498Y-89994180D01*
X100219463Y-90104494D01*
X100298815Y-90201185D01*
X100395506Y-90280537D01*
X100505820Y-90339502D01*
X100586466Y-90363966D01*
X100502412Y-90439731D01*
X100328359Y-90673080D01*
X100203175Y-90935901D01*
X100158524Y-91083110D01*
X100279845Y-91313000D01*
X101473000Y-91313000D01*
X101473000Y-91293000D01*
X101727000Y-91293000D01*
X101727000Y-91313000D01*
X102920155Y-91313000D01*
X103041476Y-91083110D01*
X102996825Y-90935901D01*
X102871641Y-90673080D01*
X102697588Y-90439731D01*
X102613534Y-90363966D01*
X102694180Y-90339502D01*
X102804494Y-90280537D01*
X102901185Y-90201185D01*
X102980537Y-90104494D01*
X103039502Y-89994180D01*
X103075812Y-89874482D01*
X103088072Y-89750000D01*
X103088072Y-88050000D01*
X103075812Y-87925518D01*
X103039502Y-87805820D01*
X102980537Y-87695506D01*
X102901185Y-87598815D01*
X102804494Y-87519463D01*
X102694180Y-87460498D01*
X102574482Y-87424188D01*
X102450000Y-87411928D01*
X100750000Y-87411928D01*
X100625518Y-87424188D01*
X100505820Y-87460498D01*
X100395506Y-87519463D01*
X100298815Y-87598815D01*
X100219463Y-87695506D01*
X100160498Y-87805820D01*
X100124188Y-87925518D01*
X100111928Y-88050000D01*
X99944834Y-88050000D01*
X99910990Y-87879855D01*
X99844277Y-87718795D01*
X99747424Y-87573845D01*
X99624155Y-87450576D01*
X99479205Y-87353723D01*
X99318145Y-87287010D01*
X99147165Y-87253000D01*
X98972835Y-87253000D01*
X98801855Y-87287010D01*
X98640795Y-87353723D01*
X98495845Y-87450576D01*
X98372576Y-87573845D01*
X98275723Y-87718795D01*
X98209010Y-87879855D01*
X98175000Y-88050835D01*
X91158601Y-88050835D01*
X91093475Y-87953368D01*
X90961620Y-87821513D01*
X91034180Y-87799502D01*
X91144494Y-87740537D01*
X91241185Y-87661185D01*
X91320537Y-87564494D01*
X91379502Y-87454180D01*
X91415812Y-87334482D01*
X91428072Y-87210000D01*
X91425000Y-86645750D01*
X91266250Y-86487000D01*
X90067000Y-86487000D01*
X90067000Y-86507000D01*
X89813000Y-86507000D01*
X89813000Y-86487000D01*
X88613750Y-86487000D01*
X88455000Y-86645750D01*
X88451928Y-87210000D01*
X88464188Y-87334482D01*
X88500498Y-87454180D01*
X88559463Y-87564494D01*
X88638815Y-87661185D01*
X88735506Y-87740537D01*
X88845820Y-87799502D01*
X88918380Y-87821513D01*
X88786525Y-87953368D01*
X88624010Y-88196589D01*
X88512068Y-88466842D01*
X88501508Y-88519929D01*
X88448155Y-88466576D01*
X88303205Y-88369723D01*
X88142145Y-88303010D01*
X87971165Y-88269000D01*
X87796835Y-88269000D01*
X87625855Y-88303010D01*
X87464795Y-88369723D01*
X87319845Y-88466576D01*
X87196576Y-88589845D01*
X87099723Y-88734795D01*
X87033010Y-88895855D01*
X86999000Y-89066835D01*
X85551588Y-89066835D01*
X85429742Y-88944989D01*
X85284792Y-88848136D01*
X85123732Y-88781423D01*
X84952752Y-88747413D01*
X84778422Y-88747413D01*
X84607442Y-88781423D01*
X84446382Y-88848136D01*
X84301432Y-88944989D01*
X84178163Y-89068258D01*
X84081310Y-89213208D01*
X84014597Y-89374268D01*
X83980587Y-89545248D01*
X79619115Y-89545248D01*
X79590990Y-89403855D01*
X79524277Y-89242795D01*
X79427424Y-89097845D01*
X79304155Y-88974576D01*
X79159205Y-88877723D01*
X78998145Y-88811010D01*
X78827165Y-88777000D01*
X78652835Y-88777000D01*
X78481855Y-88811010D01*
X78320795Y-88877723D01*
X78175845Y-88974576D01*
X78052576Y-89097845D01*
X77955723Y-89242795D01*
X77889010Y-89403855D01*
X77855000Y-89574835D01*
X73668551Y-89574835D01*
X73664145Y-89573010D01*
X73493165Y-89539000D01*
X73318835Y-89539000D01*
X73147855Y-89573010D01*
X73025000Y-89623898D01*
X72902145Y-89573010D01*
X72731165Y-89539000D01*
X72556835Y-89539000D01*
X72385855Y-89573010D01*
X72224795Y-89639723D01*
X72079845Y-89736576D01*
X71956576Y-89859845D01*
X71859723Y-90004795D01*
X71793010Y-90165855D01*
X71759000Y-90336835D01*
X71243000Y-90336835D01*
X71208990Y-90165855D01*
X71142277Y-90004795D01*
X71045424Y-89859845D01*
X70922155Y-89736576D01*
X70777205Y-89639723D01*
X70616145Y-89573010D01*
X70445165Y-89539000D01*
X70270835Y-89539000D01*
X70099855Y-89573010D01*
X69938795Y-89639723D01*
X69793845Y-89736576D01*
X69670576Y-89859845D01*
X69573723Y-90004795D01*
X69507010Y-90165855D01*
X69473000Y-90336835D01*
X67185077Y-90336835D01*
X67166185Y-90313815D01*
X67069494Y-90234463D01*
X66959180Y-90175498D01*
X66941056Y-90170000D01*
X66959180Y-90164502D01*
X67069494Y-90105537D01*
X67166185Y-90026185D01*
X67245537Y-89929494D01*
X67304502Y-89819180D01*
X67340812Y-89699482D01*
X67353072Y-89575000D01*
X67353072Y-88375836D01*
X72521000Y-88375836D01*
X72521000Y-88550166D01*
X72555010Y-88721146D01*
X72621723Y-88882206D01*
X72718576Y-89027156D01*
X72841845Y-89150425D01*
X72986795Y-89247278D01*
X73147855Y-89313991D01*
X73318835Y-89348001D01*
X73493165Y-89348001D01*
X73664145Y-89313991D01*
X73825205Y-89247278D01*
X73970155Y-89150425D01*
X74093424Y-89027156D01*
X74190277Y-88882206D01*
X74256990Y-88721146D01*
X74291000Y-88550166D01*
X74291000Y-88375836D01*
X79379000Y-88375836D01*
X79379000Y-88550166D01*
X79413010Y-88721146D01*
X79479723Y-88882206D01*
X79576576Y-89027156D01*
X79699845Y-89150425D01*
X79844795Y-89247278D01*
X80005855Y-89313991D01*
X80176835Y-89348001D01*
X80351165Y-89348001D01*
X80522145Y-89313991D01*
X80683205Y-89247278D01*
X80828155Y-89150425D01*
X80951424Y-89027156D01*
X81048277Y-88882206D01*
X81114990Y-88721146D01*
X81149000Y-88550166D01*
X81149000Y-88375836D01*
X81114990Y-88204856D01*
X81048277Y-88043796D01*
X80951424Y-87898846D01*
X80828155Y-87775577D01*
X80683205Y-87678724D01*
X80522145Y-87612011D01*
X80351165Y-87578001D01*
X80176835Y-87578001D01*
X80005855Y-87612011D01*
X79844795Y-87678724D01*
X79699845Y-87775577D01*
X79576576Y-87898846D01*
X79479723Y-88043796D01*
X79413010Y-88204856D01*
X79379000Y-88375836D01*
X74291000Y-88375836D01*
X74256990Y-88204856D01*
X74190277Y-88043796D01*
X74093424Y-87898846D01*
X73970155Y-87775577D01*
X73825205Y-87678724D01*
X73664145Y-87612011D01*
X73493165Y-87578001D01*
X73318835Y-87578001D01*
X73147855Y-87612011D01*
X72986795Y-87678724D01*
X72841845Y-87775577D01*
X72718576Y-87898846D01*
X72621723Y-88043796D01*
X72555010Y-88204856D01*
X72521000Y-88375836D01*
X67353072Y-88375836D01*
X67353072Y-88225000D01*
X67340812Y-88100518D01*
X67304502Y-87980820D01*
X67245537Y-87870506D01*
X67166185Y-87773815D01*
X67069494Y-87694463D01*
X66959180Y-87635498D01*
X66941056Y-87630000D01*
X66959180Y-87624502D01*
X67069494Y-87565537D01*
X67166185Y-87486185D01*
X67245537Y-87389494D01*
X67304502Y-87279180D01*
X67320683Y-87225836D01*
X70489000Y-87225836D01*
X70489000Y-87400166D01*
X70523010Y-87571146D01*
X70589723Y-87732206D01*
X70686576Y-87877156D01*
X70809845Y-88000425D01*
X70954795Y-88097278D01*
X71115855Y-88163991D01*
X71286835Y-88198001D01*
X71461165Y-88198001D01*
X71632145Y-88163991D01*
X71793205Y-88097278D01*
X71938155Y-88000425D01*
X72061424Y-87877156D01*
X72158277Y-87732206D01*
X72224990Y-87571146D01*
X72259000Y-87400166D01*
X72259000Y-87225836D01*
X77347000Y-87225836D01*
X77347000Y-87400166D01*
X77381010Y-87571146D01*
X77447723Y-87732206D01*
X77544576Y-87877156D01*
X77667845Y-88000425D01*
X77812795Y-88097278D01*
X77973855Y-88163991D01*
X78144835Y-88198001D01*
X78319165Y-88198001D01*
X78490145Y-88163991D01*
X78651205Y-88097278D01*
X78796155Y-88000425D01*
X78919424Y-87877156D01*
X79016277Y-87732206D01*
X79061511Y-87623001D01*
X79081165Y-87623001D01*
X79252145Y-87588991D01*
X79413205Y-87522278D01*
X79558155Y-87425425D01*
X79681424Y-87302156D01*
X79690324Y-87288835D01*
X85983000Y-87288835D01*
X85983000Y-87463165D01*
X86017010Y-87634145D01*
X86083723Y-87795205D01*
X86180576Y-87940155D01*
X86303845Y-88063424D01*
X86448795Y-88160277D01*
X86609855Y-88226990D01*
X86780835Y-88261000D01*
X86955165Y-88261000D01*
X87126145Y-88226990D01*
X87287205Y-88160277D01*
X87432155Y-88063424D01*
X87555424Y-87940155D01*
X87652277Y-87795205D01*
X87718990Y-87634145D01*
X87753000Y-87463165D01*
X87753000Y-87288835D01*
X87718990Y-87117855D01*
X87652277Y-86956795D01*
X87555424Y-86811845D01*
X87432155Y-86688576D01*
X87287205Y-86591723D01*
X87126145Y-86525010D01*
X86955165Y-86491000D01*
X86780835Y-86491000D01*
X86609855Y-86525010D01*
X86448795Y-86591723D01*
X86303845Y-86688576D01*
X86180576Y-86811845D01*
X86083723Y-86956795D01*
X86017010Y-87117855D01*
X85983000Y-87288835D01*
X79690324Y-87288835D01*
X79778277Y-87157206D01*
X79844990Y-86996146D01*
X79879000Y-86825166D01*
X79879000Y-86650836D01*
X79844990Y-86479856D01*
X79778277Y-86318796D01*
X79681424Y-86173846D01*
X79558155Y-86050577D01*
X79413205Y-85953724D01*
X79252145Y-85887011D01*
X79081165Y-85853001D01*
X78906835Y-85853001D01*
X78735855Y-85887011D01*
X78574795Y-85953724D01*
X78429845Y-86050577D01*
X78306576Y-86173846D01*
X78209723Y-86318796D01*
X78164489Y-86428001D01*
X78144835Y-86428001D01*
X77973855Y-86462011D01*
X77812795Y-86528724D01*
X77667845Y-86625577D01*
X77544576Y-86748846D01*
X77447723Y-86893796D01*
X77381010Y-87054856D01*
X77347000Y-87225836D01*
X72259000Y-87225836D01*
X72224990Y-87054856D01*
X72158277Y-86893796D01*
X72061424Y-86748846D01*
X71938155Y-86625577D01*
X71793205Y-86528724D01*
X71632145Y-86462011D01*
X71461165Y-86428001D01*
X71286835Y-86428001D01*
X71115855Y-86462011D01*
X70954795Y-86528724D01*
X70809845Y-86625577D01*
X70686576Y-86748846D01*
X70589723Y-86893796D01*
X70523010Y-87054856D01*
X70489000Y-87225836D01*
X67320683Y-87225836D01*
X67340812Y-87159482D01*
X67353072Y-87035000D01*
X67353072Y-85685000D01*
X67340812Y-85560518D01*
X67304502Y-85440820D01*
X67245537Y-85330506D01*
X67166185Y-85233815D01*
X67069494Y-85154463D01*
X66959180Y-85095498D01*
X66941056Y-85090000D01*
X66959180Y-85084502D01*
X67069494Y-85025537D01*
X67166185Y-84946185D01*
X67245537Y-84849494D01*
X67299341Y-84748835D01*
X71251000Y-84748835D01*
X71251000Y-84923165D01*
X71285010Y-85094145D01*
X71351723Y-85255205D01*
X71448576Y-85400155D01*
X71571845Y-85523424D01*
X71716795Y-85620277D01*
X71877855Y-85686990D01*
X72048835Y-85721000D01*
X72223165Y-85721000D01*
X72394145Y-85686990D01*
X72555205Y-85620277D01*
X72700155Y-85523424D01*
X72823424Y-85400155D01*
X72920277Y-85255205D01*
X72986990Y-85094145D01*
X73021000Y-84923165D01*
X73021000Y-84748835D01*
X72986990Y-84577855D01*
X72920277Y-84416795D01*
X72823424Y-84271845D01*
X72700155Y-84148576D01*
X72555205Y-84051723D01*
X72394145Y-83985010D01*
X72223165Y-83951000D01*
X72048835Y-83951000D01*
X71877855Y-83985010D01*
X71716795Y-84051723D01*
X71571845Y-84148576D01*
X71448576Y-84271845D01*
X71351723Y-84416795D01*
X71285010Y-84577855D01*
X71251000Y-84748835D01*
X67299341Y-84748835D01*
X67304502Y-84739180D01*
X67340812Y-84619482D01*
X67353072Y-84495000D01*
X67353072Y-83464061D01*
X68307000Y-83464061D01*
X68307000Y-83667939D01*
X68346774Y-83867898D01*
X68424795Y-84056256D01*
X68538063Y-84225774D01*
X68682226Y-84369937D01*
X68851744Y-84483205D01*
X69040102Y-84561226D01*
X69240061Y-84601000D01*
X69443939Y-84601000D01*
X69643898Y-84561226D01*
X69832256Y-84483205D01*
X70001774Y-84369937D01*
X70145937Y-84225774D01*
X70259205Y-84056256D01*
X70337226Y-83867898D01*
X70364091Y-83732835D01*
X73537000Y-83732835D01*
X73537000Y-83907165D01*
X73571010Y-84078145D01*
X73637723Y-84239205D01*
X73734576Y-84384155D01*
X73857845Y-84507424D01*
X74002795Y-84604277D01*
X74163855Y-84670990D01*
X74334835Y-84705000D01*
X74509165Y-84705000D01*
X74680145Y-84670990D01*
X74841205Y-84604277D01*
X74986155Y-84507424D01*
X75088860Y-84404719D01*
X80021001Y-84404719D01*
X80021001Y-84579049D01*
X80055011Y-84750029D01*
X80121724Y-84911089D01*
X80218577Y-85056039D01*
X80341846Y-85179308D01*
X80486796Y-85276161D01*
X80647856Y-85342874D01*
X80818836Y-85376884D01*
X80831027Y-85376884D01*
X80846576Y-85400155D01*
X80969845Y-85523424D01*
X81114795Y-85620277D01*
X81275855Y-85686990D01*
X81446835Y-85721000D01*
X81480472Y-85721000D01*
X81595946Y-85836474D01*
X81740896Y-85933327D01*
X81901956Y-86000040D01*
X82072936Y-86034050D01*
X82247266Y-86034050D01*
X82418246Y-86000040D01*
X82579306Y-85933327D01*
X82724256Y-85836474D01*
X82847525Y-85713205D01*
X82944378Y-85568255D01*
X82968507Y-85510000D01*
X88451928Y-85510000D01*
X88455000Y-86074250D01*
X88613750Y-86233000D01*
X89813000Y-86233000D01*
X89813000Y-86213000D01*
X90067000Y-86213000D01*
X90067000Y-86233000D01*
X91266250Y-86233000D01*
X91425000Y-86074250D01*
X91428072Y-85510000D01*
X91415812Y-85385518D01*
X91379502Y-85265820D01*
X91320537Y-85155506D01*
X91241185Y-85058815D01*
X91144494Y-84979463D01*
X91034180Y-84920498D01*
X90961620Y-84898487D01*
X91093475Y-84766632D01*
X91255990Y-84523411D01*
X91367932Y-84253158D01*
X91425000Y-83966260D01*
X91425000Y-83673740D01*
X91367932Y-83386842D01*
X91255990Y-83116589D01*
X91093475Y-82873368D01*
X90886632Y-82666525D01*
X90643411Y-82504010D01*
X90373158Y-82392068D01*
X90086260Y-82335000D01*
X89793740Y-82335000D01*
X89506842Y-82392068D01*
X89236589Y-82504010D01*
X88993368Y-82666525D01*
X88786525Y-82873368D01*
X88624010Y-83116589D01*
X88512068Y-83386842D01*
X88455000Y-83673740D01*
X88455000Y-83966260D01*
X88512068Y-84253158D01*
X88624010Y-84523411D01*
X88786525Y-84766632D01*
X88918380Y-84898487D01*
X88845820Y-84920498D01*
X88735506Y-84979463D01*
X88638815Y-85058815D01*
X88559463Y-85155506D01*
X88500498Y-85265820D01*
X88464188Y-85385518D01*
X88451928Y-85510000D01*
X82968507Y-85510000D01*
X82994863Y-85446373D01*
X83062145Y-85432990D01*
X83223205Y-85366277D01*
X83368155Y-85269424D01*
X83491424Y-85146155D01*
X83588277Y-85001205D01*
X83654990Y-84840145D01*
X83689000Y-84669165D01*
X83689000Y-84494835D01*
X83654990Y-84323855D01*
X83620603Y-84240835D01*
X84459000Y-84240835D01*
X84459000Y-84415165D01*
X84493010Y-84586145D01*
X84559723Y-84747205D01*
X84656576Y-84892155D01*
X84779845Y-85015424D01*
X84924795Y-85112277D01*
X85085855Y-85178990D01*
X85256835Y-85213000D01*
X85431165Y-85213000D01*
X85602145Y-85178990D01*
X85763205Y-85112277D01*
X85908155Y-85015424D01*
X86031424Y-84892155D01*
X86128277Y-84747205D01*
X86194990Y-84586145D01*
X86229000Y-84415165D01*
X86229000Y-84240835D01*
X86194990Y-84069855D01*
X86128277Y-83908795D01*
X86031424Y-83763845D01*
X85908155Y-83640576D01*
X85763205Y-83543723D01*
X85602145Y-83477010D01*
X85431165Y-83443000D01*
X85256835Y-83443000D01*
X85085855Y-83477010D01*
X84924795Y-83543723D01*
X84779845Y-83640576D01*
X84656576Y-83763845D01*
X84559723Y-83908795D01*
X84493010Y-84069855D01*
X84459000Y-84240835D01*
X83620603Y-84240835D01*
X83588277Y-84162795D01*
X83491424Y-84017845D01*
X83368155Y-83894576D01*
X83223205Y-83797723D01*
X83062145Y-83731010D01*
X82891165Y-83697000D01*
X82716835Y-83697000D01*
X82545855Y-83731010D01*
X82384795Y-83797723D01*
X82239845Y-83894576D01*
X82116576Y-84017845D01*
X82050500Y-84116734D01*
X81953205Y-84051723D01*
X81792145Y-83985010D01*
X81621165Y-83951000D01*
X81608974Y-83951000D01*
X81593425Y-83927729D01*
X81470156Y-83804460D01*
X81325206Y-83707607D01*
X81164146Y-83640894D01*
X80993166Y-83606884D01*
X80818836Y-83606884D01*
X80647856Y-83640894D01*
X80486796Y-83707607D01*
X80341846Y-83804460D01*
X80218577Y-83927729D01*
X80121724Y-84072679D01*
X80055011Y-84233739D01*
X80021001Y-84404719D01*
X75088860Y-84404719D01*
X75109424Y-84384155D01*
X75206277Y-84239205D01*
X75272990Y-84078145D01*
X75307000Y-83907165D01*
X75307000Y-83732835D01*
X75272990Y-83561855D01*
X75206277Y-83400795D01*
X75109424Y-83255845D01*
X74986155Y-83132576D01*
X74841205Y-83035723D01*
X74680145Y-82969010D01*
X74509165Y-82935000D01*
X74334835Y-82935000D01*
X74163855Y-82969010D01*
X74002795Y-83035723D01*
X73857845Y-83132576D01*
X73734576Y-83255845D01*
X73637723Y-83400795D01*
X73571010Y-83561855D01*
X73537000Y-83732835D01*
X70364091Y-83732835D01*
X70377000Y-83667939D01*
X70377000Y-83464061D01*
X70337226Y-83264102D01*
X70259205Y-83075744D01*
X70145937Y-82906226D01*
X70001774Y-82762063D01*
X69934086Y-82716835D01*
X78871000Y-82716835D01*
X78871000Y-82891165D01*
X78905010Y-83062145D01*
X78971723Y-83223205D01*
X79068576Y-83368155D01*
X79191845Y-83491424D01*
X79336795Y-83588277D01*
X79497855Y-83654990D01*
X79668835Y-83689000D01*
X79843165Y-83689000D01*
X80014145Y-83654990D01*
X80175205Y-83588277D01*
X80320155Y-83491424D01*
X80443424Y-83368155D01*
X80540277Y-83223205D01*
X80606990Y-83062145D01*
X80641000Y-82891165D01*
X80641000Y-82716835D01*
X80606990Y-82545855D01*
X80540277Y-82384795D01*
X80443424Y-82239845D01*
X80320155Y-82116576D01*
X80175205Y-82019723D01*
X80014145Y-81953010D01*
X79843165Y-81919000D01*
X79668835Y-81919000D01*
X79497855Y-81953010D01*
X79336795Y-82019723D01*
X79191845Y-82116576D01*
X79068576Y-82239845D01*
X78971723Y-82384795D01*
X78905010Y-82545855D01*
X78871000Y-82716835D01*
X69934086Y-82716835D01*
X69832256Y-82648795D01*
X69643898Y-82570774D01*
X69443939Y-82531000D01*
X69240061Y-82531000D01*
X69040102Y-82570774D01*
X68851744Y-82648795D01*
X68682226Y-82762063D01*
X68538063Y-82906226D01*
X68424795Y-83075744D01*
X68346774Y-83264102D01*
X68307000Y-83464061D01*
X67353072Y-83464061D01*
X67353072Y-83145000D01*
X67340812Y-83020518D01*
X67304502Y-82900820D01*
X67245537Y-82790506D01*
X67166185Y-82693815D01*
X67069494Y-82614463D01*
X66959180Y-82555498D01*
X66941056Y-82550000D01*
X66959180Y-82544502D01*
X67069494Y-82485537D01*
X67166185Y-82406185D01*
X67245537Y-82309494D01*
X67304502Y-82199180D01*
X67340812Y-82079482D01*
X67353072Y-81955000D01*
X67353072Y-81091825D01*
X73534341Y-81091825D01*
X73534341Y-81266155D01*
X73568351Y-81437135D01*
X73635064Y-81598195D01*
X73731917Y-81743145D01*
X73855186Y-81866414D01*
X74000136Y-81963267D01*
X74161196Y-82029980D01*
X74332176Y-82063990D01*
X74506506Y-82063990D01*
X74677486Y-82029980D01*
X74838546Y-81963267D01*
X74886928Y-81930939D01*
X74886928Y-81955000D01*
X74899188Y-82079482D01*
X74935498Y-82199180D01*
X74994463Y-82309494D01*
X75073815Y-82406185D01*
X75170506Y-82485537D01*
X75280820Y-82544502D01*
X75400518Y-82580812D01*
X75525000Y-82593072D01*
X76875000Y-82593072D01*
X76999482Y-82580812D01*
X77119180Y-82544502D01*
X77229494Y-82485537D01*
X77326185Y-82406185D01*
X77405537Y-82309494D01*
X77464502Y-82199180D01*
X77500812Y-82079482D01*
X77513072Y-81955000D01*
X77513072Y-81797006D01*
X77544576Y-81844155D01*
X77667845Y-81967424D01*
X77812795Y-82064277D01*
X77973855Y-82130990D01*
X78144835Y-82165000D01*
X78319165Y-82165000D01*
X78490145Y-82130990D01*
X78651205Y-82064277D01*
X78796155Y-81967424D01*
X78919424Y-81844155D01*
X79016277Y-81699205D01*
X79082990Y-81538145D01*
X79117000Y-81367165D01*
X79117000Y-81192835D01*
X79082990Y-81021855D01*
X79016277Y-80860795D01*
X79000929Y-80837825D01*
X80903000Y-80837825D01*
X80903000Y-81012155D01*
X80937010Y-81183135D01*
X81003723Y-81344195D01*
X81100576Y-81489145D01*
X81223845Y-81612414D01*
X81368795Y-81709267D01*
X81529855Y-81775980D01*
X81700835Y-81809990D01*
X81875165Y-81809990D01*
X82046145Y-81775980D01*
X82207205Y-81709267D01*
X82352155Y-81612414D01*
X82475424Y-81489145D01*
X82572277Y-81344195D01*
X82638990Y-81183135D01*
X82673000Y-81012155D01*
X82673000Y-80837825D01*
X82638990Y-80666845D01*
X82572277Y-80505785D01*
X82475424Y-80360835D01*
X82352155Y-80237566D01*
X82207205Y-80140713D01*
X82046145Y-80074000D01*
X81875165Y-80039990D01*
X81700835Y-80039990D01*
X81529855Y-80074000D01*
X81368795Y-80140713D01*
X81223845Y-80237566D01*
X81100576Y-80360835D01*
X81003723Y-80505785D01*
X80937010Y-80666845D01*
X80903000Y-80837825D01*
X79000929Y-80837825D01*
X78919424Y-80715845D01*
X78796155Y-80592576D01*
X78651205Y-80495723D01*
X78490145Y-80429010D01*
X78319165Y-80395000D01*
X78144835Y-80395000D01*
X77973855Y-80429010D01*
X77812795Y-80495723D01*
X77667845Y-80592576D01*
X77544576Y-80715845D01*
X77513072Y-80762994D01*
X77513072Y-80605000D01*
X77500812Y-80480518D01*
X77464502Y-80360820D01*
X77405537Y-80250506D01*
X77326185Y-80153815D01*
X77229494Y-80074463D01*
X77119180Y-80015498D01*
X76999482Y-79979188D01*
X76875000Y-79966928D01*
X75525000Y-79966928D01*
X75400518Y-79979188D01*
X75280820Y-80015498D01*
X75170506Y-80074463D01*
X75073815Y-80153815D01*
X74994463Y-80250506D01*
X74935498Y-80360820D01*
X74910610Y-80442865D01*
X74838546Y-80394713D01*
X74677486Y-80328000D01*
X74506506Y-80293990D01*
X74332176Y-80293990D01*
X74161196Y-80328000D01*
X74000136Y-80394713D01*
X73855186Y-80491566D01*
X73731917Y-80614835D01*
X73635064Y-80759785D01*
X73568351Y-80920845D01*
X73534341Y-81091825D01*
X67353072Y-81091825D01*
X67353072Y-80605000D01*
X67340812Y-80480518D01*
X67304502Y-80360820D01*
X67245537Y-80250506D01*
X67166185Y-80153815D01*
X67069494Y-80074463D01*
X66959180Y-80015498D01*
X66839482Y-79979188D01*
X66715000Y-79966928D01*
X65365000Y-79966928D01*
X65240518Y-79979188D01*
X65120820Y-80015498D01*
X65010506Y-80074463D01*
X64913815Y-80153815D01*
X64834463Y-80250506D01*
X64775498Y-80360820D01*
X64739188Y-80480518D01*
X64726928Y-80605000D01*
X62298579Y-80605000D01*
X62286155Y-80592576D01*
X62141205Y-80495723D01*
X61980145Y-80429010D01*
X61809165Y-80395000D01*
X61634835Y-80395000D01*
X61463855Y-80429010D01*
X61302795Y-80495723D01*
X61157845Y-80592576D01*
X61034576Y-80715845D01*
X60937723Y-80860795D01*
X60871010Y-81021855D01*
X60837000Y-81192835D01*
X57193072Y-81192835D01*
X57193072Y-80605000D01*
X57180812Y-80480518D01*
X57144502Y-80360820D01*
X57085537Y-80250506D01*
X57006185Y-80153815D01*
X56909494Y-80074463D01*
X56799180Y-80015498D01*
X56679482Y-79979188D01*
X56555000Y-79966928D01*
X55205000Y-79966928D01*
X55080518Y-79979188D01*
X54960820Y-80015498D01*
X54850506Y-80074463D01*
X54753815Y-80153815D01*
X54674463Y-80250506D01*
X54615498Y-80360820D01*
X54579188Y-80480518D01*
X54566928Y-80605000D01*
X54566928Y-81955000D01*
X54579188Y-82079482D01*
X54615498Y-82199180D01*
X54674463Y-82309494D01*
X54753815Y-82406185D01*
X54850506Y-82485537D01*
X54960820Y-82544502D01*
X55080518Y-82580812D01*
X55131135Y-82585797D01*
X55095723Y-82638795D01*
X55053860Y-82739860D01*
X54952795Y-82781723D01*
X54807845Y-82878576D01*
X54684576Y-83001845D01*
X54587723Y-83146795D01*
X54545860Y-83247860D01*
X54444795Y-83289723D01*
X54299845Y-83386576D01*
X54176576Y-83509845D01*
X54079723Y-83654795D01*
X54013010Y-83815855D01*
X53979000Y-83986835D01*
X46455000Y-83986835D01*
X46455000Y-83798589D01*
X46401775Y-83531011D01*
X46297371Y-83278957D01*
X46145799Y-83052114D01*
X45952886Y-82859201D01*
X45726043Y-82707629D01*
X45473989Y-82603225D01*
X45422947Y-82593072D01*
X46395000Y-82593072D01*
X46519482Y-82580812D01*
X46639180Y-82544502D01*
X46749494Y-82485537D01*
X46846185Y-82406185D01*
X46925537Y-82309494D01*
X46984502Y-82199180D01*
X47020812Y-82079482D01*
X47033072Y-81955000D01*
X47033072Y-80605000D01*
X47020812Y-80480518D01*
X46984502Y-80360820D01*
X46925537Y-80250506D01*
X46846185Y-80153815D01*
X46749494Y-80074463D01*
X46639180Y-80015498D01*
X46519482Y-79979188D01*
X46395000Y-79966928D01*
X45045000Y-79966928D01*
X44920518Y-79979188D01*
X44800820Y-80015498D01*
X44690506Y-80074463D01*
X44593815Y-80153815D01*
X44514463Y-80250506D01*
X44455498Y-80360820D01*
X44419188Y-80480518D01*
X44406928Y-80605000D01*
X44406928Y-81955000D01*
X44419188Y-82079482D01*
X44455498Y-82199180D01*
X44514463Y-82309494D01*
X44593815Y-82406185D01*
X44690506Y-82485537D01*
X44800820Y-82544502D01*
X44864348Y-82563773D01*
X44666011Y-82603225D01*
X44413957Y-82707629D01*
X44187114Y-82859201D01*
X43994201Y-83052114D01*
X43842629Y-83278957D01*
X43738225Y-83531011D01*
X43685000Y-83798589D01*
X43572532Y-83798589D01*
X43575000Y-83786184D01*
X43575000Y-83483816D01*
X43516011Y-83187257D01*
X43400299Y-82907905D01*
X43232312Y-82656495D01*
X43018505Y-82442688D01*
X42767095Y-82274701D01*
X42487743Y-82158989D01*
X42191184Y-82100000D01*
X41888816Y-82100000D01*
X41592257Y-82158989D01*
X41312905Y-82274701D01*
X41061495Y-82442688D01*
X40847688Y-82656495D01*
X40679701Y-82907905D01*
X40563989Y-83187257D01*
X40505000Y-83483816D01*
X27330000Y-83483816D01*
X27330000Y-80605000D01*
X34246928Y-80605000D01*
X34246928Y-81955000D01*
X34259188Y-82079482D01*
X34295498Y-82199180D01*
X34354463Y-82309494D01*
X34433815Y-82406185D01*
X34530506Y-82485537D01*
X34640820Y-82544502D01*
X34760518Y-82580812D01*
X34885000Y-82593072D01*
X36235000Y-82593072D01*
X36359482Y-82580812D01*
X36479180Y-82544502D01*
X36589494Y-82485537D01*
X36686185Y-82406185D01*
X36765537Y-82309494D01*
X36824502Y-82199180D01*
X36860812Y-82079482D01*
X36873072Y-81955000D01*
X36873072Y-81686061D01*
X37827000Y-81686061D01*
X37827000Y-81889939D01*
X37866774Y-82089898D01*
X37944795Y-82278256D01*
X38058063Y-82447774D01*
X38202226Y-82591937D01*
X38371744Y-82705205D01*
X38560102Y-82783226D01*
X38760061Y-82823000D01*
X38963939Y-82823000D01*
X39163898Y-82783226D01*
X39352256Y-82705205D01*
X39521774Y-82591937D01*
X39665937Y-82447774D01*
X39779205Y-82278256D01*
X39857226Y-82089898D01*
X39897000Y-81889939D01*
X39897000Y-81686061D01*
X39857226Y-81486102D01*
X39779205Y-81297744D01*
X39665937Y-81128226D01*
X39521774Y-80984063D01*
X39352256Y-80870795D01*
X39163898Y-80792774D01*
X38963939Y-80753000D01*
X38760061Y-80753000D01*
X38560102Y-80792774D01*
X38371744Y-80870795D01*
X38202226Y-80984063D01*
X38058063Y-81128226D01*
X37944795Y-81297744D01*
X37866774Y-81486102D01*
X37827000Y-81686061D01*
X36873072Y-81686061D01*
X36873072Y-80605000D01*
X36860812Y-80480518D01*
X36824502Y-80360820D01*
X36765537Y-80250506D01*
X36686185Y-80153815D01*
X36589494Y-80074463D01*
X36479180Y-80015498D01*
X36359482Y-79979188D01*
X36235000Y-79966928D01*
X34885000Y-79966928D01*
X34760518Y-79979188D01*
X34640820Y-80015498D01*
X34530506Y-80074463D01*
X34433815Y-80153815D01*
X34354463Y-80250506D01*
X34295498Y-80360820D01*
X34259188Y-80480518D01*
X34246928Y-80605000D01*
X27330000Y-80605000D01*
X27330000Y-78130061D01*
X30969000Y-78130061D01*
X30969000Y-78333939D01*
X31008774Y-78533898D01*
X31086795Y-78722256D01*
X31200063Y-78891774D01*
X31344226Y-79035937D01*
X31513744Y-79149205D01*
X31702102Y-79227226D01*
X31902061Y-79267000D01*
X32105939Y-79267000D01*
X32305898Y-79227226D01*
X32494256Y-79149205D01*
X32663774Y-79035937D01*
X32807937Y-78891774D01*
X32921205Y-78722256D01*
X32999226Y-78533898D01*
X33039000Y-78333939D01*
X33039000Y-78130061D01*
X32999226Y-77930102D01*
X32921205Y-77741744D01*
X32807937Y-77572226D01*
X32663774Y-77428063D01*
X32494256Y-77314795D01*
X32305898Y-77236774D01*
X32105939Y-77197000D01*
X31902061Y-77197000D01*
X31702102Y-77236774D01*
X31513744Y-77314795D01*
X31344226Y-77428063D01*
X31200063Y-77572226D01*
X31086795Y-77741744D01*
X31008774Y-77930102D01*
X30969000Y-78130061D01*
X27330000Y-78130061D01*
X27330000Y-76875000D01*
X34246928Y-76875000D01*
X34259188Y-76999482D01*
X34295498Y-77119180D01*
X34354463Y-77229494D01*
X34433815Y-77326185D01*
X34530506Y-77405537D01*
X34640820Y-77464502D01*
X34760518Y-77500812D01*
X34885000Y-77513072D01*
X35274250Y-77510000D01*
X35433000Y-77351250D01*
X35433000Y-76327000D01*
X35687000Y-76327000D01*
X35687000Y-77351250D01*
X35845750Y-77510000D01*
X36235000Y-77513072D01*
X36359482Y-77500812D01*
X36479180Y-77464502D01*
X36589494Y-77405537D01*
X36686185Y-77326185D01*
X36688191Y-77323740D01*
X40425000Y-77323740D01*
X40425000Y-77616260D01*
X40482068Y-77903158D01*
X40594010Y-78173411D01*
X40756525Y-78416632D01*
X40963368Y-78623475D01*
X41206589Y-78785990D01*
X41476842Y-78897932D01*
X41763740Y-78955000D01*
X42056260Y-78955000D01*
X42343158Y-78897932D01*
X42613411Y-78785990D01*
X42856632Y-78623475D01*
X43063475Y-78416632D01*
X43180000Y-78242240D01*
X43296525Y-78416632D01*
X43503368Y-78623475D01*
X43746589Y-78785990D01*
X44016842Y-78897932D01*
X44303740Y-78955000D01*
X44596260Y-78955000D01*
X44883158Y-78897932D01*
X45153411Y-78785990D01*
X45396632Y-78623475D01*
X45528487Y-78491620D01*
X45550498Y-78564180D01*
X45609463Y-78674494D01*
X45688815Y-78771185D01*
X45785506Y-78850537D01*
X45895820Y-78909502D01*
X46015518Y-78945812D01*
X46140000Y-78958072D01*
X46704250Y-78955000D01*
X46863000Y-78796250D01*
X46863000Y-77597000D01*
X46843000Y-77597000D01*
X46843000Y-77343000D01*
X46863000Y-77343000D01*
X46863000Y-76143750D01*
X47117000Y-76143750D01*
X47117000Y-77343000D01*
X47137000Y-77343000D01*
X47137000Y-77597000D01*
X47117000Y-77597000D01*
X47117000Y-78796250D01*
X47275750Y-78955000D01*
X47840000Y-78958072D01*
X47964482Y-78945812D01*
X48084180Y-78909502D01*
X48194494Y-78850537D01*
X48291185Y-78771185D01*
X48370537Y-78674494D01*
X48429502Y-78564180D01*
X48451513Y-78491620D01*
X48583368Y-78623475D01*
X48826589Y-78785990D01*
X49096842Y-78897932D01*
X49383740Y-78955000D01*
X49676260Y-78955000D01*
X49963158Y-78897932D01*
X50233411Y-78785990D01*
X50476632Y-78623475D01*
X50683475Y-78416632D01*
X50800000Y-78242240D01*
X50916525Y-78416632D01*
X51123368Y-78623475D01*
X51366589Y-78785990D01*
X51636842Y-78897932D01*
X51923740Y-78955000D01*
X52216260Y-78955000D01*
X52503158Y-78897932D01*
X52773411Y-78785990D01*
X53016632Y-78623475D01*
X53223475Y-78416632D01*
X53340000Y-78242240D01*
X53456525Y-78416632D01*
X53663368Y-78623475D01*
X53906589Y-78785990D01*
X54176842Y-78897932D01*
X54463740Y-78955000D01*
X54756260Y-78955000D01*
X55043158Y-78897932D01*
X55313411Y-78785990D01*
X55556632Y-78623475D01*
X55763475Y-78416632D01*
X55880000Y-78242240D01*
X55996525Y-78416632D01*
X56203368Y-78623475D01*
X56446589Y-78785990D01*
X56716842Y-78897932D01*
X57003740Y-78955000D01*
X57296260Y-78955000D01*
X57583158Y-78897932D01*
X57853411Y-78785990D01*
X58096632Y-78623475D01*
X58228487Y-78491620D01*
X58250498Y-78564180D01*
X58309463Y-78674494D01*
X58388815Y-78771185D01*
X58485506Y-78850537D01*
X58595820Y-78909502D01*
X58715518Y-78945812D01*
X58840000Y-78958072D01*
X59404250Y-78955000D01*
X59563000Y-78796250D01*
X59563000Y-77597000D01*
X59543000Y-77597000D01*
X59543000Y-77343000D01*
X59563000Y-77343000D01*
X59563000Y-76143750D01*
X59817000Y-76143750D01*
X59817000Y-77343000D01*
X59837000Y-77343000D01*
X59837000Y-77597000D01*
X59817000Y-77597000D01*
X59817000Y-78796250D01*
X59975750Y-78955000D01*
X60540000Y-78958072D01*
X60664482Y-78945812D01*
X60784180Y-78909502D01*
X60894494Y-78850537D01*
X60991185Y-78771185D01*
X61070537Y-78674494D01*
X61129502Y-78564180D01*
X61151513Y-78491620D01*
X61283368Y-78623475D01*
X61526589Y-78785990D01*
X61796842Y-78897932D01*
X62083740Y-78955000D01*
X62376260Y-78955000D01*
X62663158Y-78897932D01*
X62933411Y-78785990D01*
X63176632Y-78623475D01*
X63383475Y-78416632D01*
X63500000Y-78242240D01*
X63616525Y-78416632D01*
X63823368Y-78623475D01*
X64066589Y-78785990D01*
X64336842Y-78897932D01*
X64623740Y-78955000D01*
X64916260Y-78955000D01*
X65203158Y-78897932D01*
X65473411Y-78785990D01*
X65716632Y-78623475D01*
X65923475Y-78416632D01*
X66040000Y-78242240D01*
X66156525Y-78416632D01*
X66363368Y-78623475D01*
X66606589Y-78785990D01*
X66876842Y-78897932D01*
X67163740Y-78955000D01*
X67456260Y-78955000D01*
X67743158Y-78897932D01*
X68013411Y-78785990D01*
X68256632Y-78623475D01*
X68463475Y-78416632D01*
X68580000Y-78242240D01*
X68696525Y-78416632D01*
X68903368Y-78623475D01*
X69146589Y-78785990D01*
X69416842Y-78897932D01*
X69703740Y-78955000D01*
X69996260Y-78955000D01*
X70283158Y-78897932D01*
X70553411Y-78785990D01*
X70796632Y-78623475D01*
X70928487Y-78491620D01*
X70950498Y-78564180D01*
X71009463Y-78674494D01*
X71088815Y-78771185D01*
X71185506Y-78850537D01*
X71295820Y-78909502D01*
X71415518Y-78945812D01*
X71540000Y-78958072D01*
X71644673Y-78957502D01*
X71605723Y-79015795D01*
X71539010Y-79176855D01*
X71505000Y-79347835D01*
X71505000Y-79522165D01*
X71539010Y-79693145D01*
X71605723Y-79854205D01*
X71702576Y-79999155D01*
X71825845Y-80122424D01*
X71970795Y-80219277D01*
X72131855Y-80285990D01*
X72302835Y-80320000D01*
X72477165Y-80320000D01*
X72648145Y-80285990D01*
X72809205Y-80219277D01*
X72954155Y-80122424D01*
X73077424Y-79999155D01*
X73128419Y-79922835D01*
X83951000Y-79922835D01*
X83951000Y-80097165D01*
X83985010Y-80268145D01*
X84051723Y-80429205D01*
X84148576Y-80574155D01*
X84271845Y-80697424D01*
X84416795Y-80794277D01*
X84577855Y-80860990D01*
X84748835Y-80895000D01*
X84923165Y-80895000D01*
X85046928Y-80870382D01*
X85046928Y-81955000D01*
X85059188Y-82079482D01*
X85095498Y-82199180D01*
X85154463Y-82309494D01*
X85233815Y-82406185D01*
X85330506Y-82485537D01*
X85440820Y-82544502D01*
X85560518Y-82580812D01*
X85685000Y-82593072D01*
X87035000Y-82593072D01*
X87159482Y-82580812D01*
X87279180Y-82544502D01*
X87389494Y-82485537D01*
X87486185Y-82406185D01*
X87565537Y-82309494D01*
X87624502Y-82199180D01*
X87660812Y-82079482D01*
X87673072Y-81955000D01*
X87673072Y-80605000D01*
X95206928Y-80605000D01*
X95206928Y-81955000D01*
X95219188Y-82079482D01*
X95255498Y-82199180D01*
X95314463Y-82309494D01*
X95393815Y-82406185D01*
X95490506Y-82485537D01*
X95600820Y-82544502D01*
X95720518Y-82580812D01*
X95845000Y-82593072D01*
X97195000Y-82593072D01*
X97319482Y-82580812D01*
X97439180Y-82544502D01*
X97549494Y-82485537D01*
X97646185Y-82406185D01*
X97725537Y-82309494D01*
X97784502Y-82199180D01*
X97790000Y-82181056D01*
X97795498Y-82199180D01*
X97854463Y-82309494D01*
X97933815Y-82406185D01*
X98030506Y-82485537D01*
X98140820Y-82544502D01*
X98158944Y-82550000D01*
X98140820Y-82555498D01*
X98030506Y-82614463D01*
X97933815Y-82693815D01*
X97854463Y-82790506D01*
X97795498Y-82900820D01*
X97759188Y-83020518D01*
X97746928Y-83145000D01*
X97746928Y-84495000D01*
X97759188Y-84619482D01*
X97795498Y-84739180D01*
X97854463Y-84849494D01*
X97933815Y-84946185D01*
X98030506Y-85025537D01*
X98140820Y-85084502D01*
X98260518Y-85120812D01*
X98385000Y-85133072D01*
X99735000Y-85133072D01*
X99859482Y-85120812D01*
X99979180Y-85084502D01*
X100089494Y-85025537D01*
X100186185Y-84946185D01*
X100265537Y-84849494D01*
X100324502Y-84739180D01*
X100360812Y-84619482D01*
X100373072Y-84495000D01*
X100373072Y-83145000D01*
X100360812Y-83020518D01*
X100324502Y-82900820D01*
X100265537Y-82790506D01*
X100186185Y-82693815D01*
X100089494Y-82614463D01*
X99979180Y-82555498D01*
X99961056Y-82550000D01*
X99979180Y-82544502D01*
X100089494Y-82485537D01*
X100186185Y-82406185D01*
X100265537Y-82309494D01*
X100324502Y-82199180D01*
X100360812Y-82079482D01*
X100373072Y-81955000D01*
X100373072Y-80605000D01*
X100360812Y-80480518D01*
X100324502Y-80360820D01*
X100265537Y-80250506D01*
X100186185Y-80153815D01*
X100089494Y-80074463D01*
X99979180Y-80015498D01*
X99859482Y-79979188D01*
X99735000Y-79966928D01*
X98385000Y-79966928D01*
X98260518Y-79979188D01*
X98140820Y-80015498D01*
X98030506Y-80074463D01*
X97933815Y-80153815D01*
X97854463Y-80250506D01*
X97795498Y-80360820D01*
X97790000Y-80378944D01*
X97784502Y-80360820D01*
X97725537Y-80250506D01*
X97646185Y-80153815D01*
X97549494Y-80074463D01*
X97439180Y-80015498D01*
X97319482Y-79979188D01*
X97195000Y-79966928D01*
X95845000Y-79966928D01*
X95720518Y-79979188D01*
X95600820Y-80015498D01*
X95490506Y-80074463D01*
X95393815Y-80153815D01*
X95314463Y-80250506D01*
X95255498Y-80360820D01*
X95219188Y-80480518D01*
X95206928Y-80605000D01*
X87673072Y-80605000D01*
X87660812Y-80480518D01*
X87624502Y-80360820D01*
X87565537Y-80250506D01*
X87486185Y-80153815D01*
X87389494Y-80074463D01*
X87279180Y-80015498D01*
X87159482Y-79979188D01*
X87035000Y-79966928D01*
X85721000Y-79966928D01*
X85721000Y-79922835D01*
X85686990Y-79751855D01*
X85620277Y-79590795D01*
X85523424Y-79445845D01*
X85400155Y-79322576D01*
X85255205Y-79225723D01*
X85094145Y-79159010D01*
X84923165Y-79125000D01*
X84748835Y-79125000D01*
X84577855Y-79159010D01*
X84416795Y-79225723D01*
X84271845Y-79322576D01*
X84148576Y-79445845D01*
X84051723Y-79590795D01*
X83985010Y-79751855D01*
X83951000Y-79922835D01*
X73128419Y-79922835D01*
X73174277Y-79854205D01*
X73240990Y-79693145D01*
X73249956Y-79648071D01*
X73401855Y-79710990D01*
X73572835Y-79745000D01*
X73747165Y-79745000D01*
X73918145Y-79710990D01*
X74079205Y-79644277D01*
X74224155Y-79547424D01*
X74347424Y-79424155D01*
X74444277Y-79279205D01*
X74510990Y-79118145D01*
X74545000Y-78947165D01*
X74545000Y-78907511D01*
X74783740Y-78955000D01*
X75076260Y-78955000D01*
X75363158Y-78897932D01*
X75633411Y-78785990D01*
X75876632Y-78623475D01*
X76083475Y-78416632D01*
X76200000Y-78242240D01*
X76316525Y-78416632D01*
X76523368Y-78623475D01*
X76766589Y-78785990D01*
X77036842Y-78897932D01*
X77323740Y-78955000D01*
X77616260Y-78955000D01*
X77903158Y-78897932D01*
X78173411Y-78785990D01*
X78416632Y-78623475D01*
X78623475Y-78416632D01*
X78740000Y-78242240D01*
X78856525Y-78416632D01*
X79063368Y-78623475D01*
X79306589Y-78785990D01*
X79576842Y-78897932D01*
X79863740Y-78955000D01*
X80156260Y-78955000D01*
X80443158Y-78897932D01*
X80713411Y-78785990D01*
X80956632Y-78623475D01*
X81163475Y-78416632D01*
X81280000Y-78242240D01*
X81396525Y-78416632D01*
X81603368Y-78623475D01*
X81846589Y-78785990D01*
X82116842Y-78897932D01*
X82403740Y-78955000D01*
X82696260Y-78955000D01*
X82983158Y-78897932D01*
X83253411Y-78785990D01*
X83496632Y-78623475D01*
X83628487Y-78491620D01*
X83650498Y-78564180D01*
X83709463Y-78674494D01*
X83788815Y-78771185D01*
X83885506Y-78850537D01*
X83995820Y-78909502D01*
X84115518Y-78945812D01*
X84240000Y-78958072D01*
X84804250Y-78955000D01*
X84963000Y-78796250D01*
X84963000Y-77597000D01*
X84943000Y-77597000D01*
X84943000Y-77343000D01*
X84963000Y-77343000D01*
X84963000Y-76143750D01*
X85217000Y-76143750D01*
X85217000Y-77343000D01*
X85237000Y-77343000D01*
X85237000Y-77597000D01*
X85217000Y-77597000D01*
X85217000Y-78796250D01*
X85375750Y-78955000D01*
X85940000Y-78958072D01*
X86064482Y-78945812D01*
X86184180Y-78909502D01*
X86294494Y-78850537D01*
X86391185Y-78771185D01*
X86470537Y-78674494D01*
X86529502Y-78564180D01*
X86551513Y-78491620D01*
X86683368Y-78623475D01*
X86926589Y-78785990D01*
X87196842Y-78897932D01*
X87483740Y-78955000D01*
X87776260Y-78955000D01*
X88063158Y-78897932D01*
X88333411Y-78785990D01*
X88576632Y-78623475D01*
X88783475Y-78416632D01*
X88900000Y-78242240D01*
X89016525Y-78416632D01*
X89223368Y-78623475D01*
X89466589Y-78785990D01*
X89736842Y-78897932D01*
X90023740Y-78955000D01*
X90316260Y-78955000D01*
X90603158Y-78897932D01*
X90873411Y-78785990D01*
X91116632Y-78623475D01*
X91323475Y-78416632D01*
X91485990Y-78173411D01*
X91597932Y-77903158D01*
X91655000Y-77616260D01*
X91655000Y-77323740D01*
X91597932Y-77036842D01*
X91530896Y-76875000D01*
X95206928Y-76875000D01*
X95219188Y-76999482D01*
X95255498Y-77119180D01*
X95314463Y-77229494D01*
X95393815Y-77326185D01*
X95490506Y-77405537D01*
X95600820Y-77464502D01*
X95720518Y-77500812D01*
X95845000Y-77513072D01*
X96234250Y-77510000D01*
X96393000Y-77351250D01*
X96393000Y-76327000D01*
X96647000Y-76327000D01*
X96647000Y-77351250D01*
X96805750Y-77510000D01*
X97195000Y-77513072D01*
X97319482Y-77500812D01*
X97439180Y-77464502D01*
X97549494Y-77405537D01*
X97646185Y-77326185D01*
X97725537Y-77229494D01*
X97784502Y-77119180D01*
X97820812Y-76999482D01*
X97833072Y-76875000D01*
X97830000Y-76485750D01*
X97671250Y-76327000D01*
X96647000Y-76327000D01*
X96393000Y-76327000D01*
X95368750Y-76327000D01*
X95210000Y-76485750D01*
X95206928Y-76875000D01*
X91530896Y-76875000D01*
X91485990Y-76766589D01*
X91323475Y-76523368D01*
X91116632Y-76316525D01*
X90873411Y-76154010D01*
X90603158Y-76042068D01*
X90316260Y-75985000D01*
X90023740Y-75985000D01*
X89736842Y-76042068D01*
X89466589Y-76154010D01*
X89223368Y-76316525D01*
X89016525Y-76523368D01*
X88900000Y-76697760D01*
X88783475Y-76523368D01*
X88576632Y-76316525D01*
X88333411Y-76154010D01*
X88063158Y-76042068D01*
X87776260Y-75985000D01*
X87483740Y-75985000D01*
X87196842Y-76042068D01*
X86926589Y-76154010D01*
X86683368Y-76316525D01*
X86551513Y-76448380D01*
X86529502Y-76375820D01*
X86470537Y-76265506D01*
X86391185Y-76168815D01*
X86294494Y-76089463D01*
X86184180Y-76030498D01*
X86064482Y-75994188D01*
X85940000Y-75981928D01*
X85375750Y-75985000D01*
X85217000Y-76143750D01*
X84963000Y-76143750D01*
X84804250Y-75985000D01*
X84240000Y-75981928D01*
X84115518Y-75994188D01*
X83995820Y-76030498D01*
X83885506Y-76089463D01*
X83788815Y-76168815D01*
X83709463Y-76265506D01*
X83650498Y-76375820D01*
X83628487Y-76448380D01*
X83496632Y-76316525D01*
X83253411Y-76154010D01*
X82983158Y-76042068D01*
X82696260Y-75985000D01*
X82403740Y-75985000D01*
X82116842Y-76042068D01*
X81846589Y-76154010D01*
X81603368Y-76316525D01*
X81396525Y-76523368D01*
X81280000Y-76697760D01*
X81163475Y-76523368D01*
X80956632Y-76316525D01*
X80713411Y-76154010D01*
X80443158Y-76042068D01*
X80156260Y-75985000D01*
X79863740Y-75985000D01*
X79576842Y-76042068D01*
X79306589Y-76154010D01*
X79063368Y-76316525D01*
X78856525Y-76523368D01*
X78740000Y-76697760D01*
X78623475Y-76523368D01*
X78416632Y-76316525D01*
X78173411Y-76154010D01*
X77903158Y-76042068D01*
X77616260Y-75985000D01*
X77323740Y-75985000D01*
X77036842Y-76042068D01*
X76766589Y-76154010D01*
X76523368Y-76316525D01*
X76316525Y-76523368D01*
X76200000Y-76697760D01*
X76083475Y-76523368D01*
X75876632Y-76316525D01*
X75633411Y-76154010D01*
X75363158Y-76042068D01*
X75076260Y-75985000D01*
X74783740Y-75985000D01*
X74496842Y-76042068D01*
X74226589Y-76154010D01*
X73983368Y-76316525D01*
X73851513Y-76448380D01*
X73829502Y-76375820D01*
X73770537Y-76265506D01*
X73691185Y-76168815D01*
X73594494Y-76089463D01*
X73484180Y-76030498D01*
X73364482Y-75994188D01*
X73240000Y-75981928D01*
X72675750Y-75985000D01*
X72517000Y-76143750D01*
X72517000Y-77343000D01*
X72537000Y-77343000D01*
X72537000Y-77597000D01*
X72517000Y-77597000D01*
X72517000Y-77617000D01*
X72263000Y-77617000D01*
X72263000Y-77597000D01*
X72243000Y-77597000D01*
X72243000Y-77343000D01*
X72263000Y-77343000D01*
X72263000Y-76143750D01*
X72104250Y-75985000D01*
X71540000Y-75981928D01*
X71415518Y-75994188D01*
X71295820Y-76030498D01*
X71185506Y-76089463D01*
X71088815Y-76168815D01*
X71009463Y-76265506D01*
X70950498Y-76375820D01*
X70928487Y-76448380D01*
X70796632Y-76316525D01*
X70553411Y-76154010D01*
X70283158Y-76042068D01*
X69996260Y-75985000D01*
X69703740Y-75985000D01*
X69416842Y-76042068D01*
X69146589Y-76154010D01*
X68903368Y-76316525D01*
X68696525Y-76523368D01*
X68580000Y-76697760D01*
X68463475Y-76523368D01*
X68256632Y-76316525D01*
X68013411Y-76154010D01*
X67743158Y-76042068D01*
X67456260Y-75985000D01*
X67163740Y-75985000D01*
X66876842Y-76042068D01*
X66606589Y-76154010D01*
X66363368Y-76316525D01*
X66156525Y-76523368D01*
X66040000Y-76697760D01*
X65923475Y-76523368D01*
X65716632Y-76316525D01*
X65473411Y-76154010D01*
X65203158Y-76042068D01*
X64916260Y-75985000D01*
X64623740Y-75985000D01*
X64336842Y-76042068D01*
X64066589Y-76154010D01*
X63823368Y-76316525D01*
X63616525Y-76523368D01*
X63500000Y-76697760D01*
X63383475Y-76523368D01*
X63176632Y-76316525D01*
X62933411Y-76154010D01*
X62663158Y-76042068D01*
X62376260Y-75985000D01*
X62083740Y-75985000D01*
X61796842Y-76042068D01*
X61526589Y-76154010D01*
X61283368Y-76316525D01*
X61151513Y-76448380D01*
X61129502Y-76375820D01*
X61070537Y-76265506D01*
X60991185Y-76168815D01*
X60894494Y-76089463D01*
X60784180Y-76030498D01*
X60664482Y-75994188D01*
X60540000Y-75981928D01*
X59975750Y-75985000D01*
X59817000Y-76143750D01*
X59563000Y-76143750D01*
X59404250Y-75985000D01*
X58840000Y-75981928D01*
X58715518Y-75994188D01*
X58595820Y-76030498D01*
X58485506Y-76089463D01*
X58388815Y-76168815D01*
X58309463Y-76265506D01*
X58250498Y-76375820D01*
X58228487Y-76448380D01*
X58096632Y-76316525D01*
X57853411Y-76154010D01*
X57583158Y-76042068D01*
X57296260Y-75985000D01*
X57003740Y-75985000D01*
X56716842Y-76042068D01*
X56446589Y-76154010D01*
X56203368Y-76316525D01*
X55996525Y-76523368D01*
X55880000Y-76697760D01*
X55763475Y-76523368D01*
X55556632Y-76316525D01*
X55313411Y-76154010D01*
X55043158Y-76042068D01*
X54756260Y-75985000D01*
X54463740Y-75985000D01*
X54176842Y-76042068D01*
X53906589Y-76154010D01*
X53663368Y-76316525D01*
X53456525Y-76523368D01*
X53340000Y-76697760D01*
X53223475Y-76523368D01*
X53016632Y-76316525D01*
X52773411Y-76154010D01*
X52503158Y-76042068D01*
X52216260Y-75985000D01*
X51923740Y-75985000D01*
X51636842Y-76042068D01*
X51366589Y-76154010D01*
X51123368Y-76316525D01*
X50916525Y-76523368D01*
X50800000Y-76697760D01*
X50683475Y-76523368D01*
X50476632Y-76316525D01*
X50233411Y-76154010D01*
X49963158Y-76042068D01*
X49676260Y-75985000D01*
X49383740Y-75985000D01*
X49096842Y-76042068D01*
X48826589Y-76154010D01*
X48583368Y-76316525D01*
X48451513Y-76448380D01*
X48429502Y-76375820D01*
X48370537Y-76265506D01*
X48291185Y-76168815D01*
X48194494Y-76089463D01*
X48084180Y-76030498D01*
X47964482Y-75994188D01*
X47840000Y-75981928D01*
X47275750Y-75985000D01*
X47117000Y-76143750D01*
X46863000Y-76143750D01*
X46704250Y-75985000D01*
X46140000Y-75981928D01*
X46015518Y-75994188D01*
X45895820Y-76030498D01*
X45785506Y-76089463D01*
X45688815Y-76168815D01*
X45609463Y-76265506D01*
X45550498Y-76375820D01*
X45528487Y-76448380D01*
X45396632Y-76316525D01*
X45153411Y-76154010D01*
X44883158Y-76042068D01*
X44596260Y-75985000D01*
X44303740Y-75985000D01*
X44016842Y-76042068D01*
X43746589Y-76154010D01*
X43503368Y-76316525D01*
X43296525Y-76523368D01*
X43180000Y-76697760D01*
X43063475Y-76523368D01*
X42856632Y-76316525D01*
X42613411Y-76154010D01*
X42343158Y-76042068D01*
X42056260Y-75985000D01*
X41763740Y-75985000D01*
X41476842Y-76042068D01*
X41206589Y-76154010D01*
X40963368Y-76316525D01*
X40756525Y-76523368D01*
X40594010Y-76766589D01*
X40482068Y-77036842D01*
X40425000Y-77323740D01*
X36688191Y-77323740D01*
X36765537Y-77229494D01*
X36824502Y-77119180D01*
X36860812Y-76999482D01*
X36873072Y-76875000D01*
X36870000Y-76485750D01*
X36711250Y-76327000D01*
X35687000Y-76327000D01*
X35433000Y-76327000D01*
X34408750Y-76327000D01*
X34250000Y-76485750D01*
X34246928Y-76875000D01*
X27330000Y-76875000D01*
X27330000Y-74955000D01*
X34604335Y-74955000D01*
X34530506Y-74994463D01*
M02*
