<?xml version="1.0" encoding="UTF-8"?>
<svg xmlns="http://www.w3.org/2000/svg" xmlns:xlink="http://www.w3.org/1999/xlink" width="21pt" height="65pt" viewBox="0 0 21 65" version="1.1">
<g id="surface2452">
<path style=" stroke:none;fill-rule:evenodd;fill:rgb(45.098039%,45.098039%,87.058824%);fill-opacity:1;" d="M 3.574219 52.152344 L 7.828125 52.152344 L 7.828125 46.484375 L 3.574219 46.484375 Z M 3.574219 52.152344 "/>
<path style=" stroke:none;fill-rule:evenodd;fill:rgb(45.098039%,45.098039%,87.058824%);fill-opacity:1;" d="M 16.617188 52.152344 L 20.871094 52.152344 L 20.871094 46.484375 L 16.617188 46.484375 Z M 16.617188 52.152344 "/>
<path style=" stroke:none;fill-rule:evenodd;fill:rgb(45.098039%,45.098039%,87.058824%);fill-opacity:1;" d="M 10.097656 52.152344 L 14.351562 52.152344 L 14.351562 46.484375 L 10.097656 46.484375 Z M 10.097656 52.152344 "/>
<path style=" stroke:none;fill-rule:evenodd;fill:rgb(45.098039%,45.098039%,87.058824%);fill-opacity:1;" d="M 6.835938 34.292969 L 17.609375 34.292969 L 17.609375 28.625 L 6.835938 28.625 Z M 6.835938 34.292969 "/>
<path style=" stroke:none;fill-rule:evenodd;fill:rgb(45.098039%,45.098039%,87.058824%);fill-opacity:1;" d="M 7.15625 2.664062 L 7.226562 2.675781 L 7.292969 2.691406 L 7.359375 2.714844 L 7.421875 2.746094 L 7.480469 2.78125 L 7.539062 2.824219 L 7.589844 2.871094 L 7.636719 2.921875 L 7.675781 2.976562 L 7.714844 3.035156 L 7.742188 3.097656 L 7.765625 3.164062 L 7.785156 3.230469 L 7.792969 3.300781 L 7.796875 3.371094 L 7.796875 5.285156 L 7.792969 5.351562 L 7.785156 5.421875 L 7.765625 5.488281 L 7.742188 5.554688 L 7.714844 5.617188 L 7.636719 5.734375 L 7.589844 5.785156 L 7.539062 5.832031 L 7.421875 5.910156 L 7.359375 5.9375 L 7.292969 5.960938 L 7.226562 5.980469 L 7.15625 5.988281 L 7.089844 5.992188 L 4.394531 5.992188 L 4.324219 5.988281 L 4.257812 5.980469 L 4.191406 5.960938 L 4.125 5.9375 L 4.0625 5.910156 L 4 5.871094 L 3.945312 5.832031 L 3.894531 5.785156 L 3.847656 5.734375 L 3.804688 5.675781 L 3.769531 5.617188 L 3.742188 5.554688 L 3.71875 5.488281 L 3.699219 5.421875 L 3.691406 5.351562 L 3.6875 5.285156 L 3.6875 3.371094 L 3.691406 3.300781 L 3.699219 3.230469 L 3.71875 3.164062 L 3.742188 3.097656 L 3.769531 3.035156 L 3.804688 2.976562 L 3.847656 2.921875 L 3.894531 2.871094 L 3.945312 2.824219 L 4 2.78125 L 4.0625 2.746094 L 4.125 2.714844 L 4.191406 2.691406 L 4.257812 2.675781 L 4.324219 2.664062 L 4.394531 2.660156 L 7.089844 2.660156 Z M 7.15625 2.664062 "/>
<path style=" stroke:none;fill-rule:evenodd;fill:rgb(45.098039%,45.098039%,87.058824%);fill-opacity:1;" d="M 7.15625 8.546875 L 7.226562 8.558594 L 7.292969 8.574219 L 7.359375 8.597656 L 7.421875 8.628906 L 7.480469 8.664062 L 7.539062 8.703125 L 7.589844 8.75 L 7.636719 8.800781 L 7.714844 8.917969 L 7.742188 8.980469 L 7.765625 9.046875 L 7.785156 9.113281 L 7.792969 9.183594 L 7.796875 9.253906 L 7.796875 11.164062 L 7.792969 11.234375 L 7.785156 11.304688 L 7.765625 11.371094 L 7.742188 11.4375 L 7.714844 11.5 L 7.675781 11.558594 L 7.636719 11.613281 L 7.589844 11.667969 L 7.539062 11.714844 L 7.480469 11.753906 L 7.421875 11.789062 L 7.359375 11.820312 L 7.292969 11.84375 L 7.226562 11.859375 L 7.15625 11.871094 L 7.089844 11.875 L 4.394531 11.875 L 4.324219 11.871094 L 4.257812 11.859375 L 4.191406 11.84375 L 4.125 11.820312 L 4.0625 11.789062 L 4 11.753906 L 3.945312 11.714844 L 3.894531 11.667969 L 3.847656 11.613281 L 3.804688 11.558594 L 3.769531 11.5 L 3.742188 11.4375 L 3.71875 11.371094 L 3.699219 11.304688 L 3.691406 11.234375 L 3.6875 11.164062 L 3.6875 9.253906 L 3.691406 9.183594 L 3.699219 9.113281 L 3.71875 9.046875 L 3.742188 8.980469 L 3.769531 8.917969 L 3.804688 8.859375 L 3.847656 8.800781 L 3.894531 8.75 L 3.945312 8.703125 L 4 8.664062 L 4.0625 8.628906 L 4.125 8.597656 L 4.191406 8.574219 L 4.257812 8.558594 L 4.324219 8.546875 L 4.394531 8.542969 L 7.089844 8.542969 Z M 7.15625 8.546875 "/>
<path style=" stroke:none;fill-rule:evenodd;fill:rgb(45.098039%,45.098039%,87.058824%);fill-opacity:1;" d="M 3.828125 57.777344 L 3.894531 57.785156 L 3.964844 57.804688 L 4.027344 57.828125 L 4.089844 57.855469 L 4.152344 57.890625 L 4.207031 57.933594 L 4.257812 57.980469 L 4.304688 58.03125 L 4.347656 58.085938 L 4.382812 58.148438 L 4.414062 58.210938 L 4.4375 58.277344 L 4.453125 58.34375 L 4.460938 58.410156 L 4.464844 58.480469 L 4.464844 61.175781 L 4.460938 61.242188 L 4.453125 61.3125 L 4.4375 61.378906 L 4.414062 61.445312 L 4.382812 61.507812 L 4.347656 61.566406 L 4.304688 61.625 L 4.257812 61.675781 L 4.207031 61.722656 L 4.152344 61.761719 L 4.089844 61.800781 L 4.027344 61.828125 L 3.964844 61.851562 L 3.894531 61.871094 L 3.828125 61.878906 L 3.757812 61.882812 L 1.84375 61.882812 L 1.773438 61.878906 L 1.707031 61.871094 L 1.636719 61.851562 L 1.574219 61.828125 L 1.511719 61.800781 L 1.449219 61.761719 L 1.394531 61.722656 L 1.34375 61.675781 L 1.296875 61.625 L 1.253906 61.566406 L 1.21875 61.507812 L 1.1875 61.445312 L 1.164062 61.378906 L 1.148438 61.3125 L 1.140625 61.242188 L 1.136719 61.175781 L 1.136719 58.480469 L 1.140625 58.410156 L 1.148438 58.34375 L 1.164062 58.277344 L 1.1875 58.210938 L 1.21875 58.148438 L 1.253906 58.085938 L 1.296875 58.03125 L 1.34375 57.980469 L 1.394531 57.933594 L 1.449219 57.890625 L 1.511719 57.855469 L 1.574219 57.828125 L 1.636719 57.804688 L 1.707031 57.785156 L 1.773438 57.777344 L 1.84375 57.773438 L 3.757812 57.773438 Z M 3.828125 57.777344 "/>
<path style=" stroke:none;fill-rule:evenodd;fill:rgb(45.098039%,45.098039%,87.058824%);fill-opacity:1;" d="M 9.707031 57.777344 L 9.777344 57.785156 L 9.84375 57.804688 L 9.910156 57.828125 L 9.972656 57.855469 L 10.03125 57.890625 L 10.089844 57.933594 L 10.140625 57.980469 L 10.1875 58.03125 L 10.230469 58.085938 L 10.265625 58.148438 L 10.292969 58.210938 L 10.316406 58.277344 L 10.335938 58.34375 L 10.34375 58.410156 L 10.347656 58.480469 L 10.347656 61.175781 L 10.34375 61.242188 L 10.335938 61.3125 L 10.316406 61.378906 L 10.292969 61.445312 L 10.265625 61.507812 L 10.230469 61.566406 L 10.1875 61.625 L 10.140625 61.675781 L 10.089844 61.722656 L 9.972656 61.800781 L 9.910156 61.828125 L 9.84375 61.851562 L 9.777344 61.871094 L 9.707031 61.878906 L 9.640625 61.882812 L 7.726562 61.882812 L 7.65625 61.878906 L 7.585938 61.871094 L 7.519531 61.851562 L 7.453125 61.828125 L 7.390625 61.800781 L 7.332031 61.761719 L 7.277344 61.722656 L 7.226562 61.675781 L 7.179688 61.625 L 7.136719 61.566406 L 7.101562 61.507812 L 7.070312 61.445312 L 7.046875 61.378906 L 7.03125 61.3125 L 7.019531 61.242188 L 7.015625 61.175781 L 7.015625 58.480469 L 7.019531 58.410156 L 7.03125 58.34375 L 7.046875 58.277344 L 7.070312 58.210938 L 7.101562 58.148438 L 7.136719 58.085938 L 7.179688 58.03125 L 7.226562 57.980469 L 7.277344 57.933594 L 7.332031 57.890625 L 7.390625 57.855469 L 7.453125 57.828125 L 7.519531 57.804688 L 7.585938 57.785156 L 7.65625 57.777344 L 7.726562 57.773438 L 9.640625 57.773438 Z M 9.707031 57.777344 "/>
</g>
</svg>
