M48
; DRILL file {KiCad 5.1.5+dfsg1-2build2} date Sat 01 Oct 2022 19:43:24 BST
; FORMAT={-:-/ absolute / inch / decimal}
; #@! TF.CreationDate,2022-10-01T19:43:24+01:00
; #@! TF.GenerationSoftware,Kicad,Pcbnew,5.1.5+dfsg1-2build2
; #@! TF.FileFunction,Plated,1,4,PTH
FMAT,2
INCH
T1C0.0138
T2C0.0157
T3C0.0315
T4C0.0394
T5C0.0402
%
G90
G05
T1
X1.88Y-3.35
X1.92Y-3.56
X1.99Y-3.44
X2.07Y-3.44
X2.1374Y-3.36
X2.16Y-3.31
X2.16Y-3.5
X2.18Y-3.29
X2.1826Y-3.4774
X2.2Y-3.27
X2.21Y-3.4
X2.43Y-3.2
X2.43Y-3.47
X2.77Y-3.56
X2.81Y-3.4375
X2.81Y-3.57
X2.84Y-3.34
X2.85Y-3.1274
X2.86Y-3.56
X2.89Y-3.4828
X2.89Y-3.56
X2.9Y-3.1047
X2.9299Y-3.196
X2.93Y-3.3
X3.08Y-3.2
X3.08Y-3.4375
X3.1Y-3.53
X3.11Y-3.4149
X3.14Y-3.26
X3.1526Y-3.61
X3.16Y-3.4828
X3.18Y-3.82
X3.1853Y-3.3265
X3.21Y-3.34
X3.21Y-3.5726
X3.22Y-3.186
X3.2346Y-3.3523
X3.26Y-3.33
X3.3Y-3.26
X3.34Y-3.15
X3.3412Y-3.5288
X3.36Y-3.32
X3.42Y-3.44
X3.44Y-3.37
X3.46Y-3.51
X3.67Y-3.56
X3.9Y-3.47
T2
X1.15Y-3.0
X1.1692Y-3.7008
X1.24Y-3.51
X1.26Y-3.08
X1.396Y-3.376
X1.53Y-3.22
X2.73Y-3.29
X2.87Y-3.29
T3
X2.3Y-3.4
X4.2Y-3.2
X2.6Y-3.3
X2.2Y-3.2
X2.6Y-3.4
X2.6Y-3.5
X2.6Y-3.6
X3.4Y-3.2
X1.4Y-3.2
X4.2Y-3.0
X3.9Y-3.2
X1.4Y-3.8
X1.8Y-3.2
X2.3Y-3.5
X3.9Y-3.3
X3.8Y-3.2
X2.3Y-3.6
X3.0Y-3.2
X4.2Y-3.1
X2.6Y-3.2
X3.8Y-3.0
X1.4Y-3.0
T4
X4.0Y-3.5
X4.0Y-3.6
X4.0Y-3.7
T5
X1.65Y-3.05
X1.65Y-3.75
X1.75Y-3.05
X1.75Y-3.75
X1.85Y-3.05
X1.85Y-3.75
X1.95Y-3.05
X1.95Y-3.75
X2.05Y-3.05
X2.05Y-3.75
X2.15Y-3.05
X2.15Y-3.75
X2.25Y-3.05
X2.25Y-3.75
X2.35Y-3.05
X2.35Y-3.75
X2.45Y-3.05
X2.45Y-3.75
X2.55Y-3.05
X2.55Y-3.75
X2.65Y-3.05
X2.65Y-3.75
X2.75Y-3.05
X2.75Y-3.75
X2.85Y-3.05
X2.85Y-3.75
X2.95Y-3.05
X2.95Y-3.75
X3.05Y-3.05
X3.05Y-3.75
X3.15Y-3.05
X3.15Y-3.75
X3.25Y-3.05
X3.25Y-3.75
X3.35Y-3.05
X3.35Y-3.75
X3.45Y-3.05
X3.45Y-3.75
X3.5409Y-3.3
X3.5409Y-3.4
X3.5409Y-3.5
X3.55Y-3.05
X3.55Y-3.75
T0
M30
