G04 #@! TF.GenerationSoftware,KiCad,Pcbnew,5.1.5+dfsg1-2build2*
G04 #@! TF.CreationDate,2022-10-01T19:43:28+01:00*
G04 #@! TF.ProjectId,zx-memory-16-32,7a782d6d-656d-46f7-9279-2d31362d3332,rev?*
G04 #@! TF.SameCoordinates,Original*
G04 #@! TF.FileFunction,Copper,L1,Top*
G04 #@! TF.FilePolarity,Positive*
%FSLAX46Y46*%
G04 Gerber Fmt 4.6, Leading zero omitted, Abs format (unit mm)*
G04 Created by KiCad (PCBNEW 5.1.5+dfsg1-2build2) date 2022-10-01 19:43:28*
%MOMM*%
%LPD*%
G04 APERTURE LIST*
%ADD10R,1.350000X1.350000*%
%ADD11O,1.700000X1.700000*%
%ADD12R,3.500000X1.700000*%
%ADD13R,1.700000X1.700000*%
%ADD14R,1.700000X3.500000*%
%ADD15R,1.500000X2.000000*%
%ADD16R,3.800000X2.000000*%
%ADD17C,0.100000*%
%ADD18C,0.800000*%
%ADD19C,0.500000*%
%ADD20C,0.800000*%
%ADD21C,0.400000*%
%ADD22C,0.250000*%
G04 APERTURE END LIST*
D10*
X35560000Y-76200000D03*
X106680000Y-76200000D03*
X96520000Y-76200000D03*
X35560000Y-96520000D03*
X35560000Y-81280000D03*
X45720000Y-81280000D03*
X55880000Y-81280000D03*
X66040000Y-81280000D03*
X76200000Y-81280000D03*
X86360000Y-81280000D03*
X96520000Y-81280000D03*
X106680000Y-81280000D03*
X66040000Y-83820000D03*
X66040000Y-91440000D03*
X66040000Y-88900000D03*
X66040000Y-86360000D03*
X58420000Y-88900000D03*
X58420000Y-91440000D03*
X58420000Y-86360000D03*
X99060000Y-83820000D03*
X106680000Y-78740000D03*
X99060000Y-81280000D03*
D11*
X89940000Y-83820000D03*
D12*
X90840000Y-83820000D03*
D13*
X89940000Y-86360000D03*
D12*
X90840000Y-86360000D03*
D11*
X89940000Y-88900000D03*
D12*
X90840000Y-88900000D03*
D14*
X90170000Y-76570000D03*
X87630000Y-76570000D03*
X85090000Y-76570000D03*
X82550000Y-76570000D03*
X80010000Y-76570000D03*
X77470000Y-76570000D03*
X74930000Y-76570000D03*
X72390000Y-76570000D03*
X69850000Y-76570000D03*
X67310000Y-76570000D03*
X64770000Y-76570000D03*
X62230000Y-76570000D03*
X59690000Y-76570000D03*
X57150000Y-76570000D03*
X54610000Y-76570000D03*
X52070000Y-76570000D03*
X49530000Y-76570000D03*
X46990000Y-76570000D03*
X44450000Y-76570000D03*
X41910000Y-76570000D03*
X90170000Y-96150000D03*
X87630000Y-96150000D03*
X85090000Y-96150000D03*
X82550000Y-96150000D03*
X80010000Y-96150000D03*
X77470000Y-96150000D03*
X74930000Y-96150000D03*
X72390000Y-96150000D03*
X69850000Y-96150000D03*
X67310000Y-96150000D03*
X64770000Y-96150000D03*
X62230000Y-96150000D03*
X59690000Y-96150000D03*
X57150000Y-96150000D03*
X54610000Y-96150000D03*
X52070000Y-96150000D03*
X49530000Y-96150000D03*
X46990000Y-96150000D03*
X44450000Y-96150000D03*
X41910000Y-96150000D03*
D11*
X41910000Y-77470000D03*
X44450000Y-77470000D03*
D13*
X46990000Y-77470000D03*
D11*
X49530000Y-77470000D03*
X52070000Y-77470000D03*
X54610000Y-77470000D03*
X57150000Y-77470000D03*
D13*
X59690000Y-77470000D03*
D11*
X62230000Y-77470000D03*
X64770000Y-77470000D03*
X67310000Y-77470000D03*
X69850000Y-77470000D03*
D13*
X72390000Y-77470000D03*
D11*
X74930000Y-77470000D03*
X77470000Y-77470000D03*
X80010000Y-77470000D03*
X82550000Y-77470000D03*
D13*
X85090000Y-77470000D03*
D11*
X87630000Y-77470000D03*
X90170000Y-77470000D03*
X90170000Y-95250000D03*
X87630000Y-95250000D03*
D13*
X85090000Y-95250000D03*
D11*
X82550000Y-95250000D03*
X80010000Y-95250000D03*
X77470000Y-95250000D03*
X74930000Y-95250000D03*
D13*
X72390000Y-95250000D03*
D11*
X69850000Y-95250000D03*
X67310000Y-95250000D03*
X64770000Y-95250000D03*
X62230000Y-95250000D03*
D13*
X59690000Y-95250000D03*
D11*
X57150000Y-95250000D03*
X54610000Y-95250000D03*
X52070000Y-95250000D03*
X49530000Y-95250000D03*
D13*
X46990000Y-95250000D03*
D11*
X44450000Y-95250000D03*
X41910000Y-95250000D03*
D15*
X30720000Y-92050000D03*
X35320000Y-92050000D03*
X33020000Y-92050000D03*
D16*
X33020000Y-85750000D03*
D11*
X101600000Y-93980000D03*
X101600000Y-91440000D03*
D13*
X101600000Y-88900000D03*
G04 #@! TA.AperFunction,SMDPad,CuDef*
D17*
G36*
X31233504Y-75592204D02*
G01*
X31257773Y-75595804D01*
X31281571Y-75601765D01*
X31304671Y-75610030D01*
X31326849Y-75620520D01*
X31347893Y-75633133D01*
X31367598Y-75647747D01*
X31385777Y-75664223D01*
X31402253Y-75682402D01*
X31416867Y-75702107D01*
X31429480Y-75723151D01*
X31439970Y-75745329D01*
X31448235Y-75768429D01*
X31454196Y-75792227D01*
X31457796Y-75816496D01*
X31459000Y-75841000D01*
X31459000Y-76516000D01*
X31457796Y-76540504D01*
X31454196Y-76564773D01*
X31448235Y-76588571D01*
X31439970Y-76611671D01*
X31429480Y-76633849D01*
X31416867Y-76654893D01*
X31402253Y-76674598D01*
X31385777Y-76692777D01*
X31367598Y-76709253D01*
X31347893Y-76723867D01*
X31326849Y-76736480D01*
X31304671Y-76746970D01*
X31281571Y-76755235D01*
X31257773Y-76761196D01*
X31233504Y-76764796D01*
X31209000Y-76766000D01*
X30259000Y-76766000D01*
X30234496Y-76764796D01*
X30210227Y-76761196D01*
X30186429Y-76755235D01*
X30163329Y-76746970D01*
X30141151Y-76736480D01*
X30120107Y-76723867D01*
X30100402Y-76709253D01*
X30082223Y-76692777D01*
X30065747Y-76674598D01*
X30051133Y-76654893D01*
X30038520Y-76633849D01*
X30028030Y-76611671D01*
X30019765Y-76588571D01*
X30013804Y-76564773D01*
X30010204Y-76540504D01*
X30009000Y-76516000D01*
X30009000Y-75841000D01*
X30010204Y-75816496D01*
X30013804Y-75792227D01*
X30019765Y-75768429D01*
X30028030Y-75745329D01*
X30038520Y-75723151D01*
X30051133Y-75702107D01*
X30065747Y-75682402D01*
X30082223Y-75664223D01*
X30100402Y-75647747D01*
X30120107Y-75633133D01*
X30141151Y-75620520D01*
X30163329Y-75610030D01*
X30186429Y-75601765D01*
X30210227Y-75595804D01*
X30234496Y-75592204D01*
X30259000Y-75591000D01*
X31209000Y-75591000D01*
X31233504Y-75592204D01*
G37*
G04 #@! TD.AperFunction*
G04 #@! TA.AperFunction,SMDPad,CuDef*
G36*
X31233504Y-77667204D02*
G01*
X31257773Y-77670804D01*
X31281571Y-77676765D01*
X31304671Y-77685030D01*
X31326849Y-77695520D01*
X31347893Y-77708133D01*
X31367598Y-77722747D01*
X31385777Y-77739223D01*
X31402253Y-77757402D01*
X31416867Y-77777107D01*
X31429480Y-77798151D01*
X31439970Y-77820329D01*
X31448235Y-77843429D01*
X31454196Y-77867227D01*
X31457796Y-77891496D01*
X31459000Y-77916000D01*
X31459000Y-78591000D01*
X31457796Y-78615504D01*
X31454196Y-78639773D01*
X31448235Y-78663571D01*
X31439970Y-78686671D01*
X31429480Y-78708849D01*
X31416867Y-78729893D01*
X31402253Y-78749598D01*
X31385777Y-78767777D01*
X31367598Y-78784253D01*
X31347893Y-78798867D01*
X31326849Y-78811480D01*
X31304671Y-78821970D01*
X31281571Y-78830235D01*
X31257773Y-78836196D01*
X31233504Y-78839796D01*
X31209000Y-78841000D01*
X30259000Y-78841000D01*
X30234496Y-78839796D01*
X30210227Y-78836196D01*
X30186429Y-78830235D01*
X30163329Y-78821970D01*
X30141151Y-78811480D01*
X30120107Y-78798867D01*
X30100402Y-78784253D01*
X30082223Y-78767777D01*
X30065747Y-78749598D01*
X30051133Y-78729893D01*
X30038520Y-78708849D01*
X30028030Y-78686671D01*
X30019765Y-78663571D01*
X30013804Y-78639773D01*
X30010204Y-78615504D01*
X30009000Y-78591000D01*
X30009000Y-77916000D01*
X30010204Y-77891496D01*
X30013804Y-77867227D01*
X30019765Y-77843429D01*
X30028030Y-77820329D01*
X30038520Y-77798151D01*
X30051133Y-77777107D01*
X30065747Y-77757402D01*
X30082223Y-77739223D01*
X30100402Y-77722747D01*
X30120107Y-77708133D01*
X30141151Y-77695520D01*
X30163329Y-77685030D01*
X30186429Y-77676765D01*
X30210227Y-77670804D01*
X30234496Y-77667204D01*
X30259000Y-77666000D01*
X31209000Y-77666000D01*
X31233504Y-77667204D01*
G37*
G04 #@! TD.AperFunction*
G04 #@! TA.AperFunction,SMDPad,CuDef*
G36*
X30058504Y-95034204D02*
G01*
X30082773Y-95037804D01*
X30106571Y-95043765D01*
X30129671Y-95052030D01*
X30151849Y-95062520D01*
X30172893Y-95075133D01*
X30192598Y-95089747D01*
X30210777Y-95106223D01*
X30227253Y-95124402D01*
X30241867Y-95144107D01*
X30254480Y-95165151D01*
X30264970Y-95187329D01*
X30273235Y-95210429D01*
X30279196Y-95234227D01*
X30282796Y-95258496D01*
X30284000Y-95283000D01*
X30284000Y-96233000D01*
X30282796Y-96257504D01*
X30279196Y-96281773D01*
X30273235Y-96305571D01*
X30264970Y-96328671D01*
X30254480Y-96350849D01*
X30241867Y-96371893D01*
X30227253Y-96391598D01*
X30210777Y-96409777D01*
X30192598Y-96426253D01*
X30172893Y-96440867D01*
X30151849Y-96453480D01*
X30129671Y-96463970D01*
X30106571Y-96472235D01*
X30082773Y-96478196D01*
X30058504Y-96481796D01*
X30034000Y-96483000D01*
X29359000Y-96483000D01*
X29334496Y-96481796D01*
X29310227Y-96478196D01*
X29286429Y-96472235D01*
X29263329Y-96463970D01*
X29241151Y-96453480D01*
X29220107Y-96440867D01*
X29200402Y-96426253D01*
X29182223Y-96409777D01*
X29165747Y-96391598D01*
X29151133Y-96371893D01*
X29138520Y-96350849D01*
X29128030Y-96328671D01*
X29119765Y-96305571D01*
X29113804Y-96281773D01*
X29110204Y-96257504D01*
X29109000Y-96233000D01*
X29109000Y-95283000D01*
X29110204Y-95258496D01*
X29113804Y-95234227D01*
X29119765Y-95210429D01*
X29128030Y-95187329D01*
X29138520Y-95165151D01*
X29151133Y-95144107D01*
X29165747Y-95124402D01*
X29182223Y-95106223D01*
X29200402Y-95089747D01*
X29220107Y-95075133D01*
X29241151Y-95062520D01*
X29263329Y-95052030D01*
X29286429Y-95043765D01*
X29310227Y-95037804D01*
X29334496Y-95034204D01*
X29359000Y-95033000D01*
X30034000Y-95033000D01*
X30058504Y-95034204D01*
G37*
G04 #@! TD.AperFunction*
G04 #@! TA.AperFunction,SMDPad,CuDef*
G36*
X32133504Y-95034204D02*
G01*
X32157773Y-95037804D01*
X32181571Y-95043765D01*
X32204671Y-95052030D01*
X32226849Y-95062520D01*
X32247893Y-95075133D01*
X32267598Y-95089747D01*
X32285777Y-95106223D01*
X32302253Y-95124402D01*
X32316867Y-95144107D01*
X32329480Y-95165151D01*
X32339970Y-95187329D01*
X32348235Y-95210429D01*
X32354196Y-95234227D01*
X32357796Y-95258496D01*
X32359000Y-95283000D01*
X32359000Y-96233000D01*
X32357796Y-96257504D01*
X32354196Y-96281773D01*
X32348235Y-96305571D01*
X32339970Y-96328671D01*
X32329480Y-96350849D01*
X32316867Y-96371893D01*
X32302253Y-96391598D01*
X32285777Y-96409777D01*
X32267598Y-96426253D01*
X32247893Y-96440867D01*
X32226849Y-96453480D01*
X32204671Y-96463970D01*
X32181571Y-96472235D01*
X32157773Y-96478196D01*
X32133504Y-96481796D01*
X32109000Y-96483000D01*
X31434000Y-96483000D01*
X31409496Y-96481796D01*
X31385227Y-96478196D01*
X31361429Y-96472235D01*
X31338329Y-96463970D01*
X31316151Y-96453480D01*
X31295107Y-96440867D01*
X31275402Y-96426253D01*
X31257223Y-96409777D01*
X31240747Y-96391598D01*
X31226133Y-96371893D01*
X31213520Y-96350849D01*
X31203030Y-96328671D01*
X31194765Y-96305571D01*
X31188804Y-96281773D01*
X31185204Y-96257504D01*
X31184000Y-96233000D01*
X31184000Y-95283000D01*
X31185204Y-95258496D01*
X31188804Y-95234227D01*
X31194765Y-95210429D01*
X31203030Y-95187329D01*
X31213520Y-95165151D01*
X31226133Y-95144107D01*
X31240747Y-95124402D01*
X31257223Y-95106223D01*
X31275402Y-95089747D01*
X31295107Y-95075133D01*
X31316151Y-95062520D01*
X31338329Y-95052030D01*
X31361429Y-95043765D01*
X31385227Y-95037804D01*
X31409496Y-95034204D01*
X31434000Y-95033000D01*
X32109000Y-95033000D01*
X32133504Y-95034204D01*
G37*
G04 #@! TD.AperFunction*
D18*
X29210000Y-76200000D03*
X29696500Y-94001500D03*
X72898000Y-83566000D03*
D19*
X71374000Y-90678000D03*
X87376000Y-85598000D03*
X81534000Y-90745000D03*
X83820000Y-82804000D03*
X54289000Y-85344000D03*
X48768000Y-90424000D03*
D18*
X38862000Y-81788000D03*
X35458000Y-85750000D03*
X32004000Y-78232000D03*
X31496000Y-89154000D03*
D19*
X47752000Y-85090000D03*
D18*
X69342000Y-83566000D03*
D19*
X70358000Y-90424000D03*
X80077000Y-91694000D03*
X79756000Y-82804000D03*
X56134000Y-86360000D03*
X55880000Y-83058000D03*
X55439000Y-88325000D03*
X55372000Y-83566000D03*
X52578000Y-87376000D03*
X50546000Y-87376000D03*
X54864000Y-88900000D03*
X54864000Y-84074000D03*
X78994000Y-86738001D03*
X93218000Y-90424000D03*
X72136000Y-84836000D03*
X72390000Y-79435000D03*
X71374000Y-87313001D03*
X84865587Y-89632413D03*
X99060000Y-88138000D03*
X84836000Y-80010000D03*
X85344000Y-84328000D03*
X61722000Y-81280000D03*
X61722000Y-88138000D03*
X74419341Y-81178990D03*
X74422000Y-83820000D03*
X78232000Y-81280000D03*
X78232000Y-87313001D03*
X82804000Y-84582000D03*
X82160101Y-85149050D03*
X86868000Y-87376000D03*
X81534000Y-84836000D03*
X81788000Y-80924990D03*
X87884000Y-89154000D03*
X72644000Y-90424000D03*
X73660000Y-78860000D03*
X80264000Y-88463001D03*
X73406000Y-88463001D03*
X73406000Y-90424000D03*
X80772000Y-97028000D03*
X78740000Y-89662000D03*
X80906001Y-84491884D03*
D20*
X30720000Y-92050000D02*
X29870000Y-92050000D01*
X29870000Y-92050000D02*
X29696500Y-92223500D01*
X29696500Y-92223500D02*
X29696500Y-93747500D01*
X29696500Y-93747500D02*
X29696500Y-94001500D01*
X29231500Y-76178500D02*
X29210000Y-76200000D01*
X30734000Y-76178500D02*
X29231500Y-76178500D01*
X29696500Y-94001500D02*
X29696500Y-95758000D01*
X32533500Y-96520000D02*
X31771500Y-95758000D01*
X35560000Y-96520000D02*
X32533500Y-96520000D01*
X35560000Y-92290000D02*
X35320000Y-92050000D01*
X35560000Y-96520000D02*
X35560000Y-92290000D01*
X38862000Y-90058000D02*
X38862000Y-81788000D01*
X36870000Y-92050000D02*
X38862000Y-90058000D01*
X35320000Y-92050000D02*
X36870000Y-92050000D01*
X30734000Y-81664000D02*
X30734000Y-78253500D01*
X33020000Y-83950000D02*
X30734000Y-81664000D01*
X33020000Y-85750000D02*
X33020000Y-83950000D01*
X33020000Y-85750000D02*
X35458000Y-85750000D01*
X35458000Y-85750000D02*
X35458000Y-85750000D01*
X31982500Y-78253500D02*
X32004000Y-78232000D01*
X30734000Y-78253500D02*
X31982500Y-78253500D01*
X31750000Y-89408000D02*
X31496000Y-89154000D01*
X33020000Y-89408000D02*
X31750000Y-89408000D01*
X33020000Y-92050000D02*
X33020000Y-89408000D01*
X33020000Y-89408000D02*
X33020000Y-85750000D01*
D21*
X89940000Y-88900000D02*
X93218000Y-88900000D01*
X98298000Y-93980000D02*
X101600000Y-93980000D01*
X93218000Y-88900000D02*
X98298000Y-93980000D01*
X89940000Y-83820000D02*
X92710000Y-83820000D01*
X97790000Y-88900000D02*
X101600000Y-88900000D01*
X92710000Y-83820000D02*
X97790000Y-88900000D01*
D22*
X56134000Y-83312000D02*
X55880000Y-83058000D01*
X56134000Y-86360000D02*
X56134000Y-83312000D01*
X55439000Y-83633000D02*
X55372000Y-83566000D01*
X55439000Y-88325000D02*
X55439000Y-83633000D01*
X52578000Y-87376000D02*
X50546000Y-87376000D01*
X54864000Y-88900000D02*
X54864000Y-84074000D01*
X78994000Y-86738001D02*
X79880991Y-87624992D01*
X80839001Y-88205001D02*
X80781011Y-88147011D01*
X80540001Y-89038002D02*
X80839001Y-88739002D01*
X79987999Y-89038002D02*
X80540001Y-89038002D01*
X80839001Y-88739002D02*
X80839001Y-88205001D01*
X79688999Y-88739002D02*
X79987999Y-89038002D01*
X79688999Y-88187000D02*
X79688999Y-88739002D01*
X79880991Y-87995008D02*
X79688999Y-88187000D01*
X79880991Y-87624992D02*
X79880991Y-87995008D01*
X83415589Y-88205001D02*
X83544598Y-88334010D01*
X80839001Y-88205001D02*
X83415589Y-88205001D01*
X83544598Y-88334010D02*
X85576598Y-88334010D01*
X87421599Y-90179011D02*
X89144989Y-90179011D01*
X85576598Y-88334010D02*
X87421599Y-90179011D01*
X89389978Y-90424000D02*
X93218000Y-90424000D01*
X89144989Y-90179011D02*
X89389978Y-90424000D01*
X72136000Y-79689000D02*
X72390000Y-79435000D01*
X72136000Y-84836000D02*
X72136000Y-79689000D01*
X99985000Y-81280000D02*
X99060000Y-81280000D01*
X100060001Y-81355001D02*
X99985000Y-81280000D01*
X100060001Y-87137999D02*
X100060001Y-81355001D01*
X99060000Y-88138000D02*
X100060001Y-87137999D01*
X84865587Y-89632413D02*
X84582000Y-89348826D01*
X83196020Y-88784020D02*
X83067011Y-88655011D01*
X84466020Y-88784020D02*
X83196020Y-88784020D01*
X84582000Y-88900000D02*
X84466020Y-88784020D01*
X84582000Y-89348826D02*
X84582000Y-88900000D01*
X83067011Y-88655011D02*
X82234010Y-89488012D01*
X79801598Y-89488011D02*
X79238989Y-88925402D01*
X82234010Y-89488012D02*
X79801598Y-89488011D01*
X79238989Y-88925402D02*
X79019402Y-88925402D01*
X79019402Y-88925402D02*
X78486000Y-88392000D01*
X75946000Y-88392000D02*
X73981001Y-90356999D01*
X78486000Y-88392000D02*
X75946000Y-88392000D01*
X72068999Y-90700001D02*
X72068999Y-90147999D01*
X72367999Y-90999001D02*
X72068999Y-90700001D01*
X73682001Y-90999001D02*
X72367999Y-90999001D01*
X73981001Y-90700001D02*
X73682001Y-90999001D01*
X73981001Y-90356999D02*
X73981001Y-90700001D01*
X71374000Y-89453000D02*
X71374000Y-87313001D01*
X72068999Y-90147999D02*
X71374000Y-89453000D01*
X84836000Y-83820000D02*
X85344000Y-84328000D01*
X84836000Y-80010000D02*
X84836000Y-83820000D01*
X61722000Y-81280000D02*
X61722000Y-88138000D01*
X74419341Y-83817341D02*
X74422000Y-83820000D01*
X74419341Y-81178990D02*
X74419341Y-83817341D01*
X78232000Y-81280000D02*
X78232000Y-87313001D01*
X86360000Y-82205000D02*
X86360000Y-81280000D01*
X85620001Y-84903001D02*
X86360000Y-84163002D01*
X86360000Y-84163002D02*
X86360000Y-82205000D01*
X83125001Y-84903001D02*
X85620001Y-84903001D01*
X82804000Y-84582000D02*
X83125001Y-84903001D01*
X84387051Y-87376000D02*
X86868000Y-87376000D01*
X82160101Y-85149050D02*
X84387051Y-87376000D01*
X81788000Y-84582000D02*
X81788000Y-80924990D01*
X81534000Y-84836000D02*
X81788000Y-84582000D01*
X87951001Y-89086999D02*
X87884000Y-89154000D01*
X87951001Y-77791001D02*
X87951001Y-89086999D01*
X87630000Y-77470000D02*
X87951001Y-77791001D01*
X73660000Y-87357999D02*
X73660000Y-78860000D01*
X72644000Y-88373999D02*
X73660000Y-87357999D01*
X72644000Y-90424000D02*
X72644000Y-88373999D01*
X80331001Y-88396000D02*
X80264000Y-88463001D01*
X80331001Y-77791001D02*
X80331001Y-88396000D01*
X80010000Y-77470000D02*
X80331001Y-77791001D01*
X73406000Y-88463001D02*
X73406000Y-90424000D01*
X79502000Y-94742000D02*
X80010000Y-95250000D01*
X80772000Y-96012000D02*
X80010000Y-95250000D01*
X80772000Y-97028000D02*
X80772000Y-96012000D01*
X82296000Y-94996000D02*
X82550000Y-95250000D01*
X78740000Y-89662000D02*
X78740000Y-92710000D01*
X78740000Y-92710000D02*
X79756000Y-93726000D01*
X81026000Y-93726000D02*
X82550000Y-95250000D01*
X79756000Y-93726000D02*
X81026000Y-93726000D01*
X87607999Y-89729001D02*
X86360000Y-88481002D01*
X88160001Y-89729001D02*
X87607999Y-89729001D01*
X88459001Y-89430001D02*
X88160001Y-89729001D01*
X88459001Y-79180999D02*
X88459001Y-89430001D01*
X90170000Y-77470000D02*
X88459001Y-79180999D01*
X86360000Y-88481002D02*
X86360000Y-87884000D01*
X80906001Y-85059003D02*
X80906001Y-84491884D01*
X83730998Y-87884000D02*
X80906001Y-85059003D01*
X86360000Y-87884000D02*
X83730998Y-87884000D01*
M02*
