G04 #@! TF.GenerationSoftware,KiCad,Pcbnew,5.1.5+dfsg1-2build2*
G04 #@! TF.CreationDate,2022-10-01T19:43:28+01:00*
G04 #@! TF.ProjectId,zx-memory-16-32,7a782d6d-656d-46f7-9279-2d31362d3332,rev?*
G04 #@! TF.SameCoordinates,Original*
G04 #@! TF.FileFunction,Paste,Bot*
G04 #@! TF.FilePolarity,Positive*
%FSLAX46Y46*%
G04 Gerber Fmt 4.6, Leading zero omitted, Abs format (unit mm)*
G04 Created by KiCad (PCBNEW 5.1.5+dfsg1-2build2) date 2022-10-01 19:43:28*
%MOMM*%
%LPD*%
G04 APERTURE LIST*
%ADD10C,0.100000*%
%ADD11R,1.000000X1.000000*%
G04 APERTURE END LIST*
D10*
G36*
X47984802Y-91025482D02*
G01*
X47994509Y-91026921D01*
X48004028Y-91029306D01*
X48013268Y-91032612D01*
X48022140Y-91036808D01*
X48030557Y-91041853D01*
X48038439Y-91047699D01*
X48045711Y-91054289D01*
X48052301Y-91061561D01*
X48058147Y-91069443D01*
X48063192Y-91077860D01*
X48067388Y-91086732D01*
X48070694Y-91095972D01*
X48073079Y-91105491D01*
X48074518Y-91115198D01*
X48075000Y-91125000D01*
X48075000Y-92400000D01*
X48074518Y-92409802D01*
X48073079Y-92419509D01*
X48070694Y-92429028D01*
X48067388Y-92438268D01*
X48063192Y-92447140D01*
X48058147Y-92455557D01*
X48052301Y-92463439D01*
X48045711Y-92470711D01*
X48038439Y-92477301D01*
X48030557Y-92483147D01*
X48022140Y-92488192D01*
X48013268Y-92492388D01*
X48004028Y-92495694D01*
X47994509Y-92498079D01*
X47984802Y-92499518D01*
X47975000Y-92500000D01*
X47775000Y-92500000D01*
X47765198Y-92499518D01*
X47755491Y-92498079D01*
X47745972Y-92495694D01*
X47736732Y-92492388D01*
X47727860Y-92488192D01*
X47719443Y-92483147D01*
X47711561Y-92477301D01*
X47704289Y-92470711D01*
X47697699Y-92463439D01*
X47691853Y-92455557D01*
X47686808Y-92447140D01*
X47682612Y-92438268D01*
X47679306Y-92429028D01*
X47676921Y-92419509D01*
X47675482Y-92409802D01*
X47675000Y-92400000D01*
X47675000Y-91125000D01*
X47675482Y-91115198D01*
X47676921Y-91105491D01*
X47679306Y-91095972D01*
X47682612Y-91086732D01*
X47686808Y-91077860D01*
X47691853Y-91069443D01*
X47697699Y-91061561D01*
X47704289Y-91054289D01*
X47711561Y-91047699D01*
X47719443Y-91041853D01*
X47727860Y-91036808D01*
X47736732Y-91032612D01*
X47745972Y-91029306D01*
X47755491Y-91026921D01*
X47765198Y-91025482D01*
X47775000Y-91025000D01*
X47975000Y-91025000D01*
X47984802Y-91025482D01*
G37*
G36*
X48634802Y-91025482D02*
G01*
X48644509Y-91026921D01*
X48654028Y-91029306D01*
X48663268Y-91032612D01*
X48672140Y-91036808D01*
X48680557Y-91041853D01*
X48688439Y-91047699D01*
X48695711Y-91054289D01*
X48702301Y-91061561D01*
X48708147Y-91069443D01*
X48713192Y-91077860D01*
X48717388Y-91086732D01*
X48720694Y-91095972D01*
X48723079Y-91105491D01*
X48724518Y-91115198D01*
X48725000Y-91125000D01*
X48725000Y-92400000D01*
X48724518Y-92409802D01*
X48723079Y-92419509D01*
X48720694Y-92429028D01*
X48717388Y-92438268D01*
X48713192Y-92447140D01*
X48708147Y-92455557D01*
X48702301Y-92463439D01*
X48695711Y-92470711D01*
X48688439Y-92477301D01*
X48680557Y-92483147D01*
X48672140Y-92488192D01*
X48663268Y-92492388D01*
X48654028Y-92495694D01*
X48644509Y-92498079D01*
X48634802Y-92499518D01*
X48625000Y-92500000D01*
X48425000Y-92500000D01*
X48415198Y-92499518D01*
X48405491Y-92498079D01*
X48395972Y-92495694D01*
X48386732Y-92492388D01*
X48377860Y-92488192D01*
X48369443Y-92483147D01*
X48361561Y-92477301D01*
X48354289Y-92470711D01*
X48347699Y-92463439D01*
X48341853Y-92455557D01*
X48336808Y-92447140D01*
X48332612Y-92438268D01*
X48329306Y-92429028D01*
X48326921Y-92419509D01*
X48325482Y-92409802D01*
X48325000Y-92400000D01*
X48325000Y-91125000D01*
X48325482Y-91115198D01*
X48326921Y-91105491D01*
X48329306Y-91095972D01*
X48332612Y-91086732D01*
X48336808Y-91077860D01*
X48341853Y-91069443D01*
X48347699Y-91061561D01*
X48354289Y-91054289D01*
X48361561Y-91047699D01*
X48369443Y-91041853D01*
X48377860Y-91036808D01*
X48386732Y-91032612D01*
X48395972Y-91029306D01*
X48405491Y-91026921D01*
X48415198Y-91025482D01*
X48425000Y-91025000D01*
X48625000Y-91025000D01*
X48634802Y-91025482D01*
G37*
G36*
X49284802Y-91025482D02*
G01*
X49294509Y-91026921D01*
X49304028Y-91029306D01*
X49313268Y-91032612D01*
X49322140Y-91036808D01*
X49330557Y-91041853D01*
X49338439Y-91047699D01*
X49345711Y-91054289D01*
X49352301Y-91061561D01*
X49358147Y-91069443D01*
X49363192Y-91077860D01*
X49367388Y-91086732D01*
X49370694Y-91095972D01*
X49373079Y-91105491D01*
X49374518Y-91115198D01*
X49375000Y-91125000D01*
X49375000Y-92400000D01*
X49374518Y-92409802D01*
X49373079Y-92419509D01*
X49370694Y-92429028D01*
X49367388Y-92438268D01*
X49363192Y-92447140D01*
X49358147Y-92455557D01*
X49352301Y-92463439D01*
X49345711Y-92470711D01*
X49338439Y-92477301D01*
X49330557Y-92483147D01*
X49322140Y-92488192D01*
X49313268Y-92492388D01*
X49304028Y-92495694D01*
X49294509Y-92498079D01*
X49284802Y-92499518D01*
X49275000Y-92500000D01*
X49075000Y-92500000D01*
X49065198Y-92499518D01*
X49055491Y-92498079D01*
X49045972Y-92495694D01*
X49036732Y-92492388D01*
X49027860Y-92488192D01*
X49019443Y-92483147D01*
X49011561Y-92477301D01*
X49004289Y-92470711D01*
X48997699Y-92463439D01*
X48991853Y-92455557D01*
X48986808Y-92447140D01*
X48982612Y-92438268D01*
X48979306Y-92429028D01*
X48976921Y-92419509D01*
X48975482Y-92409802D01*
X48975000Y-92400000D01*
X48975000Y-91125000D01*
X48975482Y-91115198D01*
X48976921Y-91105491D01*
X48979306Y-91095972D01*
X48982612Y-91086732D01*
X48986808Y-91077860D01*
X48991853Y-91069443D01*
X48997699Y-91061561D01*
X49004289Y-91054289D01*
X49011561Y-91047699D01*
X49019443Y-91041853D01*
X49027860Y-91036808D01*
X49036732Y-91032612D01*
X49045972Y-91029306D01*
X49055491Y-91026921D01*
X49065198Y-91025482D01*
X49075000Y-91025000D01*
X49275000Y-91025000D01*
X49284802Y-91025482D01*
G37*
G36*
X49934802Y-91025482D02*
G01*
X49944509Y-91026921D01*
X49954028Y-91029306D01*
X49963268Y-91032612D01*
X49972140Y-91036808D01*
X49980557Y-91041853D01*
X49988439Y-91047699D01*
X49995711Y-91054289D01*
X50002301Y-91061561D01*
X50008147Y-91069443D01*
X50013192Y-91077860D01*
X50017388Y-91086732D01*
X50020694Y-91095972D01*
X50023079Y-91105491D01*
X50024518Y-91115198D01*
X50025000Y-91125000D01*
X50025000Y-92400000D01*
X50024518Y-92409802D01*
X50023079Y-92419509D01*
X50020694Y-92429028D01*
X50017388Y-92438268D01*
X50013192Y-92447140D01*
X50008147Y-92455557D01*
X50002301Y-92463439D01*
X49995711Y-92470711D01*
X49988439Y-92477301D01*
X49980557Y-92483147D01*
X49972140Y-92488192D01*
X49963268Y-92492388D01*
X49954028Y-92495694D01*
X49944509Y-92498079D01*
X49934802Y-92499518D01*
X49925000Y-92500000D01*
X49725000Y-92500000D01*
X49715198Y-92499518D01*
X49705491Y-92498079D01*
X49695972Y-92495694D01*
X49686732Y-92492388D01*
X49677860Y-92488192D01*
X49669443Y-92483147D01*
X49661561Y-92477301D01*
X49654289Y-92470711D01*
X49647699Y-92463439D01*
X49641853Y-92455557D01*
X49636808Y-92447140D01*
X49632612Y-92438268D01*
X49629306Y-92429028D01*
X49626921Y-92419509D01*
X49625482Y-92409802D01*
X49625000Y-92400000D01*
X49625000Y-91125000D01*
X49625482Y-91115198D01*
X49626921Y-91105491D01*
X49629306Y-91095972D01*
X49632612Y-91086732D01*
X49636808Y-91077860D01*
X49641853Y-91069443D01*
X49647699Y-91061561D01*
X49654289Y-91054289D01*
X49661561Y-91047699D01*
X49669443Y-91041853D01*
X49677860Y-91036808D01*
X49686732Y-91032612D01*
X49695972Y-91029306D01*
X49705491Y-91026921D01*
X49715198Y-91025482D01*
X49725000Y-91025000D01*
X49925000Y-91025000D01*
X49934802Y-91025482D01*
G37*
G36*
X50584802Y-91025482D02*
G01*
X50594509Y-91026921D01*
X50604028Y-91029306D01*
X50613268Y-91032612D01*
X50622140Y-91036808D01*
X50630557Y-91041853D01*
X50638439Y-91047699D01*
X50645711Y-91054289D01*
X50652301Y-91061561D01*
X50658147Y-91069443D01*
X50663192Y-91077860D01*
X50667388Y-91086732D01*
X50670694Y-91095972D01*
X50673079Y-91105491D01*
X50674518Y-91115198D01*
X50675000Y-91125000D01*
X50675000Y-92400000D01*
X50674518Y-92409802D01*
X50673079Y-92419509D01*
X50670694Y-92429028D01*
X50667388Y-92438268D01*
X50663192Y-92447140D01*
X50658147Y-92455557D01*
X50652301Y-92463439D01*
X50645711Y-92470711D01*
X50638439Y-92477301D01*
X50630557Y-92483147D01*
X50622140Y-92488192D01*
X50613268Y-92492388D01*
X50604028Y-92495694D01*
X50594509Y-92498079D01*
X50584802Y-92499518D01*
X50575000Y-92500000D01*
X50375000Y-92500000D01*
X50365198Y-92499518D01*
X50355491Y-92498079D01*
X50345972Y-92495694D01*
X50336732Y-92492388D01*
X50327860Y-92488192D01*
X50319443Y-92483147D01*
X50311561Y-92477301D01*
X50304289Y-92470711D01*
X50297699Y-92463439D01*
X50291853Y-92455557D01*
X50286808Y-92447140D01*
X50282612Y-92438268D01*
X50279306Y-92429028D01*
X50276921Y-92419509D01*
X50275482Y-92409802D01*
X50275000Y-92400000D01*
X50275000Y-91125000D01*
X50275482Y-91115198D01*
X50276921Y-91105491D01*
X50279306Y-91095972D01*
X50282612Y-91086732D01*
X50286808Y-91077860D01*
X50291853Y-91069443D01*
X50297699Y-91061561D01*
X50304289Y-91054289D01*
X50311561Y-91047699D01*
X50319443Y-91041853D01*
X50327860Y-91036808D01*
X50336732Y-91032612D01*
X50345972Y-91029306D01*
X50355491Y-91026921D01*
X50365198Y-91025482D01*
X50375000Y-91025000D01*
X50575000Y-91025000D01*
X50584802Y-91025482D01*
G37*
G36*
X51234802Y-91025482D02*
G01*
X51244509Y-91026921D01*
X51254028Y-91029306D01*
X51263268Y-91032612D01*
X51272140Y-91036808D01*
X51280557Y-91041853D01*
X51288439Y-91047699D01*
X51295711Y-91054289D01*
X51302301Y-91061561D01*
X51308147Y-91069443D01*
X51313192Y-91077860D01*
X51317388Y-91086732D01*
X51320694Y-91095972D01*
X51323079Y-91105491D01*
X51324518Y-91115198D01*
X51325000Y-91125000D01*
X51325000Y-92400000D01*
X51324518Y-92409802D01*
X51323079Y-92419509D01*
X51320694Y-92429028D01*
X51317388Y-92438268D01*
X51313192Y-92447140D01*
X51308147Y-92455557D01*
X51302301Y-92463439D01*
X51295711Y-92470711D01*
X51288439Y-92477301D01*
X51280557Y-92483147D01*
X51272140Y-92488192D01*
X51263268Y-92492388D01*
X51254028Y-92495694D01*
X51244509Y-92498079D01*
X51234802Y-92499518D01*
X51225000Y-92500000D01*
X51025000Y-92500000D01*
X51015198Y-92499518D01*
X51005491Y-92498079D01*
X50995972Y-92495694D01*
X50986732Y-92492388D01*
X50977860Y-92488192D01*
X50969443Y-92483147D01*
X50961561Y-92477301D01*
X50954289Y-92470711D01*
X50947699Y-92463439D01*
X50941853Y-92455557D01*
X50936808Y-92447140D01*
X50932612Y-92438268D01*
X50929306Y-92429028D01*
X50926921Y-92419509D01*
X50925482Y-92409802D01*
X50925000Y-92400000D01*
X50925000Y-91125000D01*
X50925482Y-91115198D01*
X50926921Y-91105491D01*
X50929306Y-91095972D01*
X50932612Y-91086732D01*
X50936808Y-91077860D01*
X50941853Y-91069443D01*
X50947699Y-91061561D01*
X50954289Y-91054289D01*
X50961561Y-91047699D01*
X50969443Y-91041853D01*
X50977860Y-91036808D01*
X50986732Y-91032612D01*
X50995972Y-91029306D01*
X51005491Y-91026921D01*
X51015198Y-91025482D01*
X51025000Y-91025000D01*
X51225000Y-91025000D01*
X51234802Y-91025482D01*
G37*
G36*
X51884802Y-91025482D02*
G01*
X51894509Y-91026921D01*
X51904028Y-91029306D01*
X51913268Y-91032612D01*
X51922140Y-91036808D01*
X51930557Y-91041853D01*
X51938439Y-91047699D01*
X51945711Y-91054289D01*
X51952301Y-91061561D01*
X51958147Y-91069443D01*
X51963192Y-91077860D01*
X51967388Y-91086732D01*
X51970694Y-91095972D01*
X51973079Y-91105491D01*
X51974518Y-91115198D01*
X51975000Y-91125000D01*
X51975000Y-92400000D01*
X51974518Y-92409802D01*
X51973079Y-92419509D01*
X51970694Y-92429028D01*
X51967388Y-92438268D01*
X51963192Y-92447140D01*
X51958147Y-92455557D01*
X51952301Y-92463439D01*
X51945711Y-92470711D01*
X51938439Y-92477301D01*
X51930557Y-92483147D01*
X51922140Y-92488192D01*
X51913268Y-92492388D01*
X51904028Y-92495694D01*
X51894509Y-92498079D01*
X51884802Y-92499518D01*
X51875000Y-92500000D01*
X51675000Y-92500000D01*
X51665198Y-92499518D01*
X51655491Y-92498079D01*
X51645972Y-92495694D01*
X51636732Y-92492388D01*
X51627860Y-92488192D01*
X51619443Y-92483147D01*
X51611561Y-92477301D01*
X51604289Y-92470711D01*
X51597699Y-92463439D01*
X51591853Y-92455557D01*
X51586808Y-92447140D01*
X51582612Y-92438268D01*
X51579306Y-92429028D01*
X51576921Y-92419509D01*
X51575482Y-92409802D01*
X51575000Y-92400000D01*
X51575000Y-91125000D01*
X51575482Y-91115198D01*
X51576921Y-91105491D01*
X51579306Y-91095972D01*
X51582612Y-91086732D01*
X51586808Y-91077860D01*
X51591853Y-91069443D01*
X51597699Y-91061561D01*
X51604289Y-91054289D01*
X51611561Y-91047699D01*
X51619443Y-91041853D01*
X51627860Y-91036808D01*
X51636732Y-91032612D01*
X51645972Y-91029306D01*
X51655491Y-91026921D01*
X51665198Y-91025482D01*
X51675000Y-91025000D01*
X51875000Y-91025000D01*
X51884802Y-91025482D01*
G37*
G36*
X52534802Y-91025482D02*
G01*
X52544509Y-91026921D01*
X52554028Y-91029306D01*
X52563268Y-91032612D01*
X52572140Y-91036808D01*
X52580557Y-91041853D01*
X52588439Y-91047699D01*
X52595711Y-91054289D01*
X52602301Y-91061561D01*
X52608147Y-91069443D01*
X52613192Y-91077860D01*
X52617388Y-91086732D01*
X52620694Y-91095972D01*
X52623079Y-91105491D01*
X52624518Y-91115198D01*
X52625000Y-91125000D01*
X52625000Y-92400000D01*
X52624518Y-92409802D01*
X52623079Y-92419509D01*
X52620694Y-92429028D01*
X52617388Y-92438268D01*
X52613192Y-92447140D01*
X52608147Y-92455557D01*
X52602301Y-92463439D01*
X52595711Y-92470711D01*
X52588439Y-92477301D01*
X52580557Y-92483147D01*
X52572140Y-92488192D01*
X52563268Y-92492388D01*
X52554028Y-92495694D01*
X52544509Y-92498079D01*
X52534802Y-92499518D01*
X52525000Y-92500000D01*
X52325000Y-92500000D01*
X52315198Y-92499518D01*
X52305491Y-92498079D01*
X52295972Y-92495694D01*
X52286732Y-92492388D01*
X52277860Y-92488192D01*
X52269443Y-92483147D01*
X52261561Y-92477301D01*
X52254289Y-92470711D01*
X52247699Y-92463439D01*
X52241853Y-92455557D01*
X52236808Y-92447140D01*
X52232612Y-92438268D01*
X52229306Y-92429028D01*
X52226921Y-92419509D01*
X52225482Y-92409802D01*
X52225000Y-92400000D01*
X52225000Y-91125000D01*
X52225482Y-91115198D01*
X52226921Y-91105491D01*
X52229306Y-91095972D01*
X52232612Y-91086732D01*
X52236808Y-91077860D01*
X52241853Y-91069443D01*
X52247699Y-91061561D01*
X52254289Y-91054289D01*
X52261561Y-91047699D01*
X52269443Y-91041853D01*
X52277860Y-91036808D01*
X52286732Y-91032612D01*
X52295972Y-91029306D01*
X52305491Y-91026921D01*
X52315198Y-91025482D01*
X52325000Y-91025000D01*
X52525000Y-91025000D01*
X52534802Y-91025482D01*
G37*
G36*
X53184802Y-91025482D02*
G01*
X53194509Y-91026921D01*
X53204028Y-91029306D01*
X53213268Y-91032612D01*
X53222140Y-91036808D01*
X53230557Y-91041853D01*
X53238439Y-91047699D01*
X53245711Y-91054289D01*
X53252301Y-91061561D01*
X53258147Y-91069443D01*
X53263192Y-91077860D01*
X53267388Y-91086732D01*
X53270694Y-91095972D01*
X53273079Y-91105491D01*
X53274518Y-91115198D01*
X53275000Y-91125000D01*
X53275000Y-92400000D01*
X53274518Y-92409802D01*
X53273079Y-92419509D01*
X53270694Y-92429028D01*
X53267388Y-92438268D01*
X53263192Y-92447140D01*
X53258147Y-92455557D01*
X53252301Y-92463439D01*
X53245711Y-92470711D01*
X53238439Y-92477301D01*
X53230557Y-92483147D01*
X53222140Y-92488192D01*
X53213268Y-92492388D01*
X53204028Y-92495694D01*
X53194509Y-92498079D01*
X53184802Y-92499518D01*
X53175000Y-92500000D01*
X52975000Y-92500000D01*
X52965198Y-92499518D01*
X52955491Y-92498079D01*
X52945972Y-92495694D01*
X52936732Y-92492388D01*
X52927860Y-92488192D01*
X52919443Y-92483147D01*
X52911561Y-92477301D01*
X52904289Y-92470711D01*
X52897699Y-92463439D01*
X52891853Y-92455557D01*
X52886808Y-92447140D01*
X52882612Y-92438268D01*
X52879306Y-92429028D01*
X52876921Y-92419509D01*
X52875482Y-92409802D01*
X52875000Y-92400000D01*
X52875000Y-91125000D01*
X52875482Y-91115198D01*
X52876921Y-91105491D01*
X52879306Y-91095972D01*
X52882612Y-91086732D01*
X52886808Y-91077860D01*
X52891853Y-91069443D01*
X52897699Y-91061561D01*
X52904289Y-91054289D01*
X52911561Y-91047699D01*
X52919443Y-91041853D01*
X52927860Y-91036808D01*
X52936732Y-91032612D01*
X52945972Y-91029306D01*
X52955491Y-91026921D01*
X52965198Y-91025482D01*
X52975000Y-91025000D01*
X53175000Y-91025000D01*
X53184802Y-91025482D01*
G37*
G36*
X53834802Y-91025482D02*
G01*
X53844509Y-91026921D01*
X53854028Y-91029306D01*
X53863268Y-91032612D01*
X53872140Y-91036808D01*
X53880557Y-91041853D01*
X53888439Y-91047699D01*
X53895711Y-91054289D01*
X53902301Y-91061561D01*
X53908147Y-91069443D01*
X53913192Y-91077860D01*
X53917388Y-91086732D01*
X53920694Y-91095972D01*
X53923079Y-91105491D01*
X53924518Y-91115198D01*
X53925000Y-91125000D01*
X53925000Y-92400000D01*
X53924518Y-92409802D01*
X53923079Y-92419509D01*
X53920694Y-92429028D01*
X53917388Y-92438268D01*
X53913192Y-92447140D01*
X53908147Y-92455557D01*
X53902301Y-92463439D01*
X53895711Y-92470711D01*
X53888439Y-92477301D01*
X53880557Y-92483147D01*
X53872140Y-92488192D01*
X53863268Y-92492388D01*
X53854028Y-92495694D01*
X53844509Y-92498079D01*
X53834802Y-92499518D01*
X53825000Y-92500000D01*
X53625000Y-92500000D01*
X53615198Y-92499518D01*
X53605491Y-92498079D01*
X53595972Y-92495694D01*
X53586732Y-92492388D01*
X53577860Y-92488192D01*
X53569443Y-92483147D01*
X53561561Y-92477301D01*
X53554289Y-92470711D01*
X53547699Y-92463439D01*
X53541853Y-92455557D01*
X53536808Y-92447140D01*
X53532612Y-92438268D01*
X53529306Y-92429028D01*
X53526921Y-92419509D01*
X53525482Y-92409802D01*
X53525000Y-92400000D01*
X53525000Y-91125000D01*
X53525482Y-91115198D01*
X53526921Y-91105491D01*
X53529306Y-91095972D01*
X53532612Y-91086732D01*
X53536808Y-91077860D01*
X53541853Y-91069443D01*
X53547699Y-91061561D01*
X53554289Y-91054289D01*
X53561561Y-91047699D01*
X53569443Y-91041853D01*
X53577860Y-91036808D01*
X53586732Y-91032612D01*
X53595972Y-91029306D01*
X53605491Y-91026921D01*
X53615198Y-91025482D01*
X53625000Y-91025000D01*
X53825000Y-91025000D01*
X53834802Y-91025482D01*
G37*
G36*
X53834802Y-85300482D02*
G01*
X53844509Y-85301921D01*
X53854028Y-85304306D01*
X53863268Y-85307612D01*
X53872140Y-85311808D01*
X53880557Y-85316853D01*
X53888439Y-85322699D01*
X53895711Y-85329289D01*
X53902301Y-85336561D01*
X53908147Y-85344443D01*
X53913192Y-85352860D01*
X53917388Y-85361732D01*
X53920694Y-85370972D01*
X53923079Y-85380491D01*
X53924518Y-85390198D01*
X53925000Y-85400000D01*
X53925000Y-86675000D01*
X53924518Y-86684802D01*
X53923079Y-86694509D01*
X53920694Y-86704028D01*
X53917388Y-86713268D01*
X53913192Y-86722140D01*
X53908147Y-86730557D01*
X53902301Y-86738439D01*
X53895711Y-86745711D01*
X53888439Y-86752301D01*
X53880557Y-86758147D01*
X53872140Y-86763192D01*
X53863268Y-86767388D01*
X53854028Y-86770694D01*
X53844509Y-86773079D01*
X53834802Y-86774518D01*
X53825000Y-86775000D01*
X53625000Y-86775000D01*
X53615198Y-86774518D01*
X53605491Y-86773079D01*
X53595972Y-86770694D01*
X53586732Y-86767388D01*
X53577860Y-86763192D01*
X53569443Y-86758147D01*
X53561561Y-86752301D01*
X53554289Y-86745711D01*
X53547699Y-86738439D01*
X53541853Y-86730557D01*
X53536808Y-86722140D01*
X53532612Y-86713268D01*
X53529306Y-86704028D01*
X53526921Y-86694509D01*
X53525482Y-86684802D01*
X53525000Y-86675000D01*
X53525000Y-85400000D01*
X53525482Y-85390198D01*
X53526921Y-85380491D01*
X53529306Y-85370972D01*
X53532612Y-85361732D01*
X53536808Y-85352860D01*
X53541853Y-85344443D01*
X53547699Y-85336561D01*
X53554289Y-85329289D01*
X53561561Y-85322699D01*
X53569443Y-85316853D01*
X53577860Y-85311808D01*
X53586732Y-85307612D01*
X53595972Y-85304306D01*
X53605491Y-85301921D01*
X53615198Y-85300482D01*
X53625000Y-85300000D01*
X53825000Y-85300000D01*
X53834802Y-85300482D01*
G37*
G36*
X53184802Y-85300482D02*
G01*
X53194509Y-85301921D01*
X53204028Y-85304306D01*
X53213268Y-85307612D01*
X53222140Y-85311808D01*
X53230557Y-85316853D01*
X53238439Y-85322699D01*
X53245711Y-85329289D01*
X53252301Y-85336561D01*
X53258147Y-85344443D01*
X53263192Y-85352860D01*
X53267388Y-85361732D01*
X53270694Y-85370972D01*
X53273079Y-85380491D01*
X53274518Y-85390198D01*
X53275000Y-85400000D01*
X53275000Y-86675000D01*
X53274518Y-86684802D01*
X53273079Y-86694509D01*
X53270694Y-86704028D01*
X53267388Y-86713268D01*
X53263192Y-86722140D01*
X53258147Y-86730557D01*
X53252301Y-86738439D01*
X53245711Y-86745711D01*
X53238439Y-86752301D01*
X53230557Y-86758147D01*
X53222140Y-86763192D01*
X53213268Y-86767388D01*
X53204028Y-86770694D01*
X53194509Y-86773079D01*
X53184802Y-86774518D01*
X53175000Y-86775000D01*
X52975000Y-86775000D01*
X52965198Y-86774518D01*
X52955491Y-86773079D01*
X52945972Y-86770694D01*
X52936732Y-86767388D01*
X52927860Y-86763192D01*
X52919443Y-86758147D01*
X52911561Y-86752301D01*
X52904289Y-86745711D01*
X52897699Y-86738439D01*
X52891853Y-86730557D01*
X52886808Y-86722140D01*
X52882612Y-86713268D01*
X52879306Y-86704028D01*
X52876921Y-86694509D01*
X52875482Y-86684802D01*
X52875000Y-86675000D01*
X52875000Y-85400000D01*
X52875482Y-85390198D01*
X52876921Y-85380491D01*
X52879306Y-85370972D01*
X52882612Y-85361732D01*
X52886808Y-85352860D01*
X52891853Y-85344443D01*
X52897699Y-85336561D01*
X52904289Y-85329289D01*
X52911561Y-85322699D01*
X52919443Y-85316853D01*
X52927860Y-85311808D01*
X52936732Y-85307612D01*
X52945972Y-85304306D01*
X52955491Y-85301921D01*
X52965198Y-85300482D01*
X52975000Y-85300000D01*
X53175000Y-85300000D01*
X53184802Y-85300482D01*
G37*
G36*
X52534802Y-85300482D02*
G01*
X52544509Y-85301921D01*
X52554028Y-85304306D01*
X52563268Y-85307612D01*
X52572140Y-85311808D01*
X52580557Y-85316853D01*
X52588439Y-85322699D01*
X52595711Y-85329289D01*
X52602301Y-85336561D01*
X52608147Y-85344443D01*
X52613192Y-85352860D01*
X52617388Y-85361732D01*
X52620694Y-85370972D01*
X52623079Y-85380491D01*
X52624518Y-85390198D01*
X52625000Y-85400000D01*
X52625000Y-86675000D01*
X52624518Y-86684802D01*
X52623079Y-86694509D01*
X52620694Y-86704028D01*
X52617388Y-86713268D01*
X52613192Y-86722140D01*
X52608147Y-86730557D01*
X52602301Y-86738439D01*
X52595711Y-86745711D01*
X52588439Y-86752301D01*
X52580557Y-86758147D01*
X52572140Y-86763192D01*
X52563268Y-86767388D01*
X52554028Y-86770694D01*
X52544509Y-86773079D01*
X52534802Y-86774518D01*
X52525000Y-86775000D01*
X52325000Y-86775000D01*
X52315198Y-86774518D01*
X52305491Y-86773079D01*
X52295972Y-86770694D01*
X52286732Y-86767388D01*
X52277860Y-86763192D01*
X52269443Y-86758147D01*
X52261561Y-86752301D01*
X52254289Y-86745711D01*
X52247699Y-86738439D01*
X52241853Y-86730557D01*
X52236808Y-86722140D01*
X52232612Y-86713268D01*
X52229306Y-86704028D01*
X52226921Y-86694509D01*
X52225482Y-86684802D01*
X52225000Y-86675000D01*
X52225000Y-85400000D01*
X52225482Y-85390198D01*
X52226921Y-85380491D01*
X52229306Y-85370972D01*
X52232612Y-85361732D01*
X52236808Y-85352860D01*
X52241853Y-85344443D01*
X52247699Y-85336561D01*
X52254289Y-85329289D01*
X52261561Y-85322699D01*
X52269443Y-85316853D01*
X52277860Y-85311808D01*
X52286732Y-85307612D01*
X52295972Y-85304306D01*
X52305491Y-85301921D01*
X52315198Y-85300482D01*
X52325000Y-85300000D01*
X52525000Y-85300000D01*
X52534802Y-85300482D01*
G37*
G36*
X51884802Y-85300482D02*
G01*
X51894509Y-85301921D01*
X51904028Y-85304306D01*
X51913268Y-85307612D01*
X51922140Y-85311808D01*
X51930557Y-85316853D01*
X51938439Y-85322699D01*
X51945711Y-85329289D01*
X51952301Y-85336561D01*
X51958147Y-85344443D01*
X51963192Y-85352860D01*
X51967388Y-85361732D01*
X51970694Y-85370972D01*
X51973079Y-85380491D01*
X51974518Y-85390198D01*
X51975000Y-85400000D01*
X51975000Y-86675000D01*
X51974518Y-86684802D01*
X51973079Y-86694509D01*
X51970694Y-86704028D01*
X51967388Y-86713268D01*
X51963192Y-86722140D01*
X51958147Y-86730557D01*
X51952301Y-86738439D01*
X51945711Y-86745711D01*
X51938439Y-86752301D01*
X51930557Y-86758147D01*
X51922140Y-86763192D01*
X51913268Y-86767388D01*
X51904028Y-86770694D01*
X51894509Y-86773079D01*
X51884802Y-86774518D01*
X51875000Y-86775000D01*
X51675000Y-86775000D01*
X51665198Y-86774518D01*
X51655491Y-86773079D01*
X51645972Y-86770694D01*
X51636732Y-86767388D01*
X51627860Y-86763192D01*
X51619443Y-86758147D01*
X51611561Y-86752301D01*
X51604289Y-86745711D01*
X51597699Y-86738439D01*
X51591853Y-86730557D01*
X51586808Y-86722140D01*
X51582612Y-86713268D01*
X51579306Y-86704028D01*
X51576921Y-86694509D01*
X51575482Y-86684802D01*
X51575000Y-86675000D01*
X51575000Y-85400000D01*
X51575482Y-85390198D01*
X51576921Y-85380491D01*
X51579306Y-85370972D01*
X51582612Y-85361732D01*
X51586808Y-85352860D01*
X51591853Y-85344443D01*
X51597699Y-85336561D01*
X51604289Y-85329289D01*
X51611561Y-85322699D01*
X51619443Y-85316853D01*
X51627860Y-85311808D01*
X51636732Y-85307612D01*
X51645972Y-85304306D01*
X51655491Y-85301921D01*
X51665198Y-85300482D01*
X51675000Y-85300000D01*
X51875000Y-85300000D01*
X51884802Y-85300482D01*
G37*
G36*
X51234802Y-85300482D02*
G01*
X51244509Y-85301921D01*
X51254028Y-85304306D01*
X51263268Y-85307612D01*
X51272140Y-85311808D01*
X51280557Y-85316853D01*
X51288439Y-85322699D01*
X51295711Y-85329289D01*
X51302301Y-85336561D01*
X51308147Y-85344443D01*
X51313192Y-85352860D01*
X51317388Y-85361732D01*
X51320694Y-85370972D01*
X51323079Y-85380491D01*
X51324518Y-85390198D01*
X51325000Y-85400000D01*
X51325000Y-86675000D01*
X51324518Y-86684802D01*
X51323079Y-86694509D01*
X51320694Y-86704028D01*
X51317388Y-86713268D01*
X51313192Y-86722140D01*
X51308147Y-86730557D01*
X51302301Y-86738439D01*
X51295711Y-86745711D01*
X51288439Y-86752301D01*
X51280557Y-86758147D01*
X51272140Y-86763192D01*
X51263268Y-86767388D01*
X51254028Y-86770694D01*
X51244509Y-86773079D01*
X51234802Y-86774518D01*
X51225000Y-86775000D01*
X51025000Y-86775000D01*
X51015198Y-86774518D01*
X51005491Y-86773079D01*
X50995972Y-86770694D01*
X50986732Y-86767388D01*
X50977860Y-86763192D01*
X50969443Y-86758147D01*
X50961561Y-86752301D01*
X50954289Y-86745711D01*
X50947699Y-86738439D01*
X50941853Y-86730557D01*
X50936808Y-86722140D01*
X50932612Y-86713268D01*
X50929306Y-86704028D01*
X50926921Y-86694509D01*
X50925482Y-86684802D01*
X50925000Y-86675000D01*
X50925000Y-85400000D01*
X50925482Y-85390198D01*
X50926921Y-85380491D01*
X50929306Y-85370972D01*
X50932612Y-85361732D01*
X50936808Y-85352860D01*
X50941853Y-85344443D01*
X50947699Y-85336561D01*
X50954289Y-85329289D01*
X50961561Y-85322699D01*
X50969443Y-85316853D01*
X50977860Y-85311808D01*
X50986732Y-85307612D01*
X50995972Y-85304306D01*
X51005491Y-85301921D01*
X51015198Y-85300482D01*
X51025000Y-85300000D01*
X51225000Y-85300000D01*
X51234802Y-85300482D01*
G37*
G36*
X50584802Y-85300482D02*
G01*
X50594509Y-85301921D01*
X50604028Y-85304306D01*
X50613268Y-85307612D01*
X50622140Y-85311808D01*
X50630557Y-85316853D01*
X50638439Y-85322699D01*
X50645711Y-85329289D01*
X50652301Y-85336561D01*
X50658147Y-85344443D01*
X50663192Y-85352860D01*
X50667388Y-85361732D01*
X50670694Y-85370972D01*
X50673079Y-85380491D01*
X50674518Y-85390198D01*
X50675000Y-85400000D01*
X50675000Y-86675000D01*
X50674518Y-86684802D01*
X50673079Y-86694509D01*
X50670694Y-86704028D01*
X50667388Y-86713268D01*
X50663192Y-86722140D01*
X50658147Y-86730557D01*
X50652301Y-86738439D01*
X50645711Y-86745711D01*
X50638439Y-86752301D01*
X50630557Y-86758147D01*
X50622140Y-86763192D01*
X50613268Y-86767388D01*
X50604028Y-86770694D01*
X50594509Y-86773079D01*
X50584802Y-86774518D01*
X50575000Y-86775000D01*
X50375000Y-86775000D01*
X50365198Y-86774518D01*
X50355491Y-86773079D01*
X50345972Y-86770694D01*
X50336732Y-86767388D01*
X50327860Y-86763192D01*
X50319443Y-86758147D01*
X50311561Y-86752301D01*
X50304289Y-86745711D01*
X50297699Y-86738439D01*
X50291853Y-86730557D01*
X50286808Y-86722140D01*
X50282612Y-86713268D01*
X50279306Y-86704028D01*
X50276921Y-86694509D01*
X50275482Y-86684802D01*
X50275000Y-86675000D01*
X50275000Y-85400000D01*
X50275482Y-85390198D01*
X50276921Y-85380491D01*
X50279306Y-85370972D01*
X50282612Y-85361732D01*
X50286808Y-85352860D01*
X50291853Y-85344443D01*
X50297699Y-85336561D01*
X50304289Y-85329289D01*
X50311561Y-85322699D01*
X50319443Y-85316853D01*
X50327860Y-85311808D01*
X50336732Y-85307612D01*
X50345972Y-85304306D01*
X50355491Y-85301921D01*
X50365198Y-85300482D01*
X50375000Y-85300000D01*
X50575000Y-85300000D01*
X50584802Y-85300482D01*
G37*
G36*
X49934802Y-85300482D02*
G01*
X49944509Y-85301921D01*
X49954028Y-85304306D01*
X49963268Y-85307612D01*
X49972140Y-85311808D01*
X49980557Y-85316853D01*
X49988439Y-85322699D01*
X49995711Y-85329289D01*
X50002301Y-85336561D01*
X50008147Y-85344443D01*
X50013192Y-85352860D01*
X50017388Y-85361732D01*
X50020694Y-85370972D01*
X50023079Y-85380491D01*
X50024518Y-85390198D01*
X50025000Y-85400000D01*
X50025000Y-86675000D01*
X50024518Y-86684802D01*
X50023079Y-86694509D01*
X50020694Y-86704028D01*
X50017388Y-86713268D01*
X50013192Y-86722140D01*
X50008147Y-86730557D01*
X50002301Y-86738439D01*
X49995711Y-86745711D01*
X49988439Y-86752301D01*
X49980557Y-86758147D01*
X49972140Y-86763192D01*
X49963268Y-86767388D01*
X49954028Y-86770694D01*
X49944509Y-86773079D01*
X49934802Y-86774518D01*
X49925000Y-86775000D01*
X49725000Y-86775000D01*
X49715198Y-86774518D01*
X49705491Y-86773079D01*
X49695972Y-86770694D01*
X49686732Y-86767388D01*
X49677860Y-86763192D01*
X49669443Y-86758147D01*
X49661561Y-86752301D01*
X49654289Y-86745711D01*
X49647699Y-86738439D01*
X49641853Y-86730557D01*
X49636808Y-86722140D01*
X49632612Y-86713268D01*
X49629306Y-86704028D01*
X49626921Y-86694509D01*
X49625482Y-86684802D01*
X49625000Y-86675000D01*
X49625000Y-85400000D01*
X49625482Y-85390198D01*
X49626921Y-85380491D01*
X49629306Y-85370972D01*
X49632612Y-85361732D01*
X49636808Y-85352860D01*
X49641853Y-85344443D01*
X49647699Y-85336561D01*
X49654289Y-85329289D01*
X49661561Y-85322699D01*
X49669443Y-85316853D01*
X49677860Y-85311808D01*
X49686732Y-85307612D01*
X49695972Y-85304306D01*
X49705491Y-85301921D01*
X49715198Y-85300482D01*
X49725000Y-85300000D01*
X49925000Y-85300000D01*
X49934802Y-85300482D01*
G37*
G36*
X49284802Y-85300482D02*
G01*
X49294509Y-85301921D01*
X49304028Y-85304306D01*
X49313268Y-85307612D01*
X49322140Y-85311808D01*
X49330557Y-85316853D01*
X49338439Y-85322699D01*
X49345711Y-85329289D01*
X49352301Y-85336561D01*
X49358147Y-85344443D01*
X49363192Y-85352860D01*
X49367388Y-85361732D01*
X49370694Y-85370972D01*
X49373079Y-85380491D01*
X49374518Y-85390198D01*
X49375000Y-85400000D01*
X49375000Y-86675000D01*
X49374518Y-86684802D01*
X49373079Y-86694509D01*
X49370694Y-86704028D01*
X49367388Y-86713268D01*
X49363192Y-86722140D01*
X49358147Y-86730557D01*
X49352301Y-86738439D01*
X49345711Y-86745711D01*
X49338439Y-86752301D01*
X49330557Y-86758147D01*
X49322140Y-86763192D01*
X49313268Y-86767388D01*
X49304028Y-86770694D01*
X49294509Y-86773079D01*
X49284802Y-86774518D01*
X49275000Y-86775000D01*
X49075000Y-86775000D01*
X49065198Y-86774518D01*
X49055491Y-86773079D01*
X49045972Y-86770694D01*
X49036732Y-86767388D01*
X49027860Y-86763192D01*
X49019443Y-86758147D01*
X49011561Y-86752301D01*
X49004289Y-86745711D01*
X48997699Y-86738439D01*
X48991853Y-86730557D01*
X48986808Y-86722140D01*
X48982612Y-86713268D01*
X48979306Y-86704028D01*
X48976921Y-86694509D01*
X48975482Y-86684802D01*
X48975000Y-86675000D01*
X48975000Y-85400000D01*
X48975482Y-85390198D01*
X48976921Y-85380491D01*
X48979306Y-85370972D01*
X48982612Y-85361732D01*
X48986808Y-85352860D01*
X48991853Y-85344443D01*
X48997699Y-85336561D01*
X49004289Y-85329289D01*
X49011561Y-85322699D01*
X49019443Y-85316853D01*
X49027860Y-85311808D01*
X49036732Y-85307612D01*
X49045972Y-85304306D01*
X49055491Y-85301921D01*
X49065198Y-85300482D01*
X49075000Y-85300000D01*
X49275000Y-85300000D01*
X49284802Y-85300482D01*
G37*
G36*
X48634802Y-85300482D02*
G01*
X48644509Y-85301921D01*
X48654028Y-85304306D01*
X48663268Y-85307612D01*
X48672140Y-85311808D01*
X48680557Y-85316853D01*
X48688439Y-85322699D01*
X48695711Y-85329289D01*
X48702301Y-85336561D01*
X48708147Y-85344443D01*
X48713192Y-85352860D01*
X48717388Y-85361732D01*
X48720694Y-85370972D01*
X48723079Y-85380491D01*
X48724518Y-85390198D01*
X48725000Y-85400000D01*
X48725000Y-86675000D01*
X48724518Y-86684802D01*
X48723079Y-86694509D01*
X48720694Y-86704028D01*
X48717388Y-86713268D01*
X48713192Y-86722140D01*
X48708147Y-86730557D01*
X48702301Y-86738439D01*
X48695711Y-86745711D01*
X48688439Y-86752301D01*
X48680557Y-86758147D01*
X48672140Y-86763192D01*
X48663268Y-86767388D01*
X48654028Y-86770694D01*
X48644509Y-86773079D01*
X48634802Y-86774518D01*
X48625000Y-86775000D01*
X48425000Y-86775000D01*
X48415198Y-86774518D01*
X48405491Y-86773079D01*
X48395972Y-86770694D01*
X48386732Y-86767388D01*
X48377860Y-86763192D01*
X48369443Y-86758147D01*
X48361561Y-86752301D01*
X48354289Y-86745711D01*
X48347699Y-86738439D01*
X48341853Y-86730557D01*
X48336808Y-86722140D01*
X48332612Y-86713268D01*
X48329306Y-86704028D01*
X48326921Y-86694509D01*
X48325482Y-86684802D01*
X48325000Y-86675000D01*
X48325000Y-85400000D01*
X48325482Y-85390198D01*
X48326921Y-85380491D01*
X48329306Y-85370972D01*
X48332612Y-85361732D01*
X48336808Y-85352860D01*
X48341853Y-85344443D01*
X48347699Y-85336561D01*
X48354289Y-85329289D01*
X48361561Y-85322699D01*
X48369443Y-85316853D01*
X48377860Y-85311808D01*
X48386732Y-85307612D01*
X48395972Y-85304306D01*
X48405491Y-85301921D01*
X48415198Y-85300482D01*
X48425000Y-85300000D01*
X48625000Y-85300000D01*
X48634802Y-85300482D01*
G37*
G36*
X47984802Y-85300482D02*
G01*
X47994509Y-85301921D01*
X48004028Y-85304306D01*
X48013268Y-85307612D01*
X48022140Y-85311808D01*
X48030557Y-85316853D01*
X48038439Y-85322699D01*
X48045711Y-85329289D01*
X48052301Y-85336561D01*
X48058147Y-85344443D01*
X48063192Y-85352860D01*
X48067388Y-85361732D01*
X48070694Y-85370972D01*
X48073079Y-85380491D01*
X48074518Y-85390198D01*
X48075000Y-85400000D01*
X48075000Y-86675000D01*
X48074518Y-86684802D01*
X48073079Y-86694509D01*
X48070694Y-86704028D01*
X48067388Y-86713268D01*
X48063192Y-86722140D01*
X48058147Y-86730557D01*
X48052301Y-86738439D01*
X48045711Y-86745711D01*
X48038439Y-86752301D01*
X48030557Y-86758147D01*
X48022140Y-86763192D01*
X48013268Y-86767388D01*
X48004028Y-86770694D01*
X47994509Y-86773079D01*
X47984802Y-86774518D01*
X47975000Y-86775000D01*
X47775000Y-86775000D01*
X47765198Y-86774518D01*
X47755491Y-86773079D01*
X47745972Y-86770694D01*
X47736732Y-86767388D01*
X47727860Y-86763192D01*
X47719443Y-86758147D01*
X47711561Y-86752301D01*
X47704289Y-86745711D01*
X47697699Y-86738439D01*
X47691853Y-86730557D01*
X47686808Y-86722140D01*
X47682612Y-86713268D01*
X47679306Y-86704028D01*
X47676921Y-86694509D01*
X47675482Y-86684802D01*
X47675000Y-86675000D01*
X47675000Y-85400000D01*
X47675482Y-85390198D01*
X47676921Y-85380491D01*
X47679306Y-85370972D01*
X47682612Y-85361732D01*
X47686808Y-85352860D01*
X47691853Y-85344443D01*
X47697699Y-85336561D01*
X47704289Y-85329289D01*
X47711561Y-85322699D01*
X47719443Y-85316853D01*
X47727860Y-85311808D01*
X47736732Y-85307612D01*
X47745972Y-85304306D01*
X47755491Y-85301921D01*
X47765198Y-85300482D01*
X47775000Y-85300000D01*
X47975000Y-85300000D01*
X47984802Y-85300482D01*
G37*
G36*
X81004802Y-91025482D02*
G01*
X81014509Y-91026921D01*
X81024028Y-91029306D01*
X81033268Y-91032612D01*
X81042140Y-91036808D01*
X81050557Y-91041853D01*
X81058439Y-91047699D01*
X81065711Y-91054289D01*
X81072301Y-91061561D01*
X81078147Y-91069443D01*
X81083192Y-91077860D01*
X81087388Y-91086732D01*
X81090694Y-91095972D01*
X81093079Y-91105491D01*
X81094518Y-91115198D01*
X81095000Y-91125000D01*
X81095000Y-92400000D01*
X81094518Y-92409802D01*
X81093079Y-92419509D01*
X81090694Y-92429028D01*
X81087388Y-92438268D01*
X81083192Y-92447140D01*
X81078147Y-92455557D01*
X81072301Y-92463439D01*
X81065711Y-92470711D01*
X81058439Y-92477301D01*
X81050557Y-92483147D01*
X81042140Y-92488192D01*
X81033268Y-92492388D01*
X81024028Y-92495694D01*
X81014509Y-92498079D01*
X81004802Y-92499518D01*
X80995000Y-92500000D01*
X80795000Y-92500000D01*
X80785198Y-92499518D01*
X80775491Y-92498079D01*
X80765972Y-92495694D01*
X80756732Y-92492388D01*
X80747860Y-92488192D01*
X80739443Y-92483147D01*
X80731561Y-92477301D01*
X80724289Y-92470711D01*
X80717699Y-92463439D01*
X80711853Y-92455557D01*
X80706808Y-92447140D01*
X80702612Y-92438268D01*
X80699306Y-92429028D01*
X80696921Y-92419509D01*
X80695482Y-92409802D01*
X80695000Y-92400000D01*
X80695000Y-91125000D01*
X80695482Y-91115198D01*
X80696921Y-91105491D01*
X80699306Y-91095972D01*
X80702612Y-91086732D01*
X80706808Y-91077860D01*
X80711853Y-91069443D01*
X80717699Y-91061561D01*
X80724289Y-91054289D01*
X80731561Y-91047699D01*
X80739443Y-91041853D01*
X80747860Y-91036808D01*
X80756732Y-91032612D01*
X80765972Y-91029306D01*
X80775491Y-91026921D01*
X80785198Y-91025482D01*
X80795000Y-91025000D01*
X80995000Y-91025000D01*
X81004802Y-91025482D01*
G37*
G36*
X81654802Y-91025482D02*
G01*
X81664509Y-91026921D01*
X81674028Y-91029306D01*
X81683268Y-91032612D01*
X81692140Y-91036808D01*
X81700557Y-91041853D01*
X81708439Y-91047699D01*
X81715711Y-91054289D01*
X81722301Y-91061561D01*
X81728147Y-91069443D01*
X81733192Y-91077860D01*
X81737388Y-91086732D01*
X81740694Y-91095972D01*
X81743079Y-91105491D01*
X81744518Y-91115198D01*
X81745000Y-91125000D01*
X81745000Y-92400000D01*
X81744518Y-92409802D01*
X81743079Y-92419509D01*
X81740694Y-92429028D01*
X81737388Y-92438268D01*
X81733192Y-92447140D01*
X81728147Y-92455557D01*
X81722301Y-92463439D01*
X81715711Y-92470711D01*
X81708439Y-92477301D01*
X81700557Y-92483147D01*
X81692140Y-92488192D01*
X81683268Y-92492388D01*
X81674028Y-92495694D01*
X81664509Y-92498079D01*
X81654802Y-92499518D01*
X81645000Y-92500000D01*
X81445000Y-92500000D01*
X81435198Y-92499518D01*
X81425491Y-92498079D01*
X81415972Y-92495694D01*
X81406732Y-92492388D01*
X81397860Y-92488192D01*
X81389443Y-92483147D01*
X81381561Y-92477301D01*
X81374289Y-92470711D01*
X81367699Y-92463439D01*
X81361853Y-92455557D01*
X81356808Y-92447140D01*
X81352612Y-92438268D01*
X81349306Y-92429028D01*
X81346921Y-92419509D01*
X81345482Y-92409802D01*
X81345000Y-92400000D01*
X81345000Y-91125000D01*
X81345482Y-91115198D01*
X81346921Y-91105491D01*
X81349306Y-91095972D01*
X81352612Y-91086732D01*
X81356808Y-91077860D01*
X81361853Y-91069443D01*
X81367699Y-91061561D01*
X81374289Y-91054289D01*
X81381561Y-91047699D01*
X81389443Y-91041853D01*
X81397860Y-91036808D01*
X81406732Y-91032612D01*
X81415972Y-91029306D01*
X81425491Y-91026921D01*
X81435198Y-91025482D01*
X81445000Y-91025000D01*
X81645000Y-91025000D01*
X81654802Y-91025482D01*
G37*
G36*
X82304802Y-91025482D02*
G01*
X82314509Y-91026921D01*
X82324028Y-91029306D01*
X82333268Y-91032612D01*
X82342140Y-91036808D01*
X82350557Y-91041853D01*
X82358439Y-91047699D01*
X82365711Y-91054289D01*
X82372301Y-91061561D01*
X82378147Y-91069443D01*
X82383192Y-91077860D01*
X82387388Y-91086732D01*
X82390694Y-91095972D01*
X82393079Y-91105491D01*
X82394518Y-91115198D01*
X82395000Y-91125000D01*
X82395000Y-92400000D01*
X82394518Y-92409802D01*
X82393079Y-92419509D01*
X82390694Y-92429028D01*
X82387388Y-92438268D01*
X82383192Y-92447140D01*
X82378147Y-92455557D01*
X82372301Y-92463439D01*
X82365711Y-92470711D01*
X82358439Y-92477301D01*
X82350557Y-92483147D01*
X82342140Y-92488192D01*
X82333268Y-92492388D01*
X82324028Y-92495694D01*
X82314509Y-92498079D01*
X82304802Y-92499518D01*
X82295000Y-92500000D01*
X82095000Y-92500000D01*
X82085198Y-92499518D01*
X82075491Y-92498079D01*
X82065972Y-92495694D01*
X82056732Y-92492388D01*
X82047860Y-92488192D01*
X82039443Y-92483147D01*
X82031561Y-92477301D01*
X82024289Y-92470711D01*
X82017699Y-92463439D01*
X82011853Y-92455557D01*
X82006808Y-92447140D01*
X82002612Y-92438268D01*
X81999306Y-92429028D01*
X81996921Y-92419509D01*
X81995482Y-92409802D01*
X81995000Y-92400000D01*
X81995000Y-91125000D01*
X81995482Y-91115198D01*
X81996921Y-91105491D01*
X81999306Y-91095972D01*
X82002612Y-91086732D01*
X82006808Y-91077860D01*
X82011853Y-91069443D01*
X82017699Y-91061561D01*
X82024289Y-91054289D01*
X82031561Y-91047699D01*
X82039443Y-91041853D01*
X82047860Y-91036808D01*
X82056732Y-91032612D01*
X82065972Y-91029306D01*
X82075491Y-91026921D01*
X82085198Y-91025482D01*
X82095000Y-91025000D01*
X82295000Y-91025000D01*
X82304802Y-91025482D01*
G37*
G36*
X82954802Y-91025482D02*
G01*
X82964509Y-91026921D01*
X82974028Y-91029306D01*
X82983268Y-91032612D01*
X82992140Y-91036808D01*
X83000557Y-91041853D01*
X83008439Y-91047699D01*
X83015711Y-91054289D01*
X83022301Y-91061561D01*
X83028147Y-91069443D01*
X83033192Y-91077860D01*
X83037388Y-91086732D01*
X83040694Y-91095972D01*
X83043079Y-91105491D01*
X83044518Y-91115198D01*
X83045000Y-91125000D01*
X83045000Y-92400000D01*
X83044518Y-92409802D01*
X83043079Y-92419509D01*
X83040694Y-92429028D01*
X83037388Y-92438268D01*
X83033192Y-92447140D01*
X83028147Y-92455557D01*
X83022301Y-92463439D01*
X83015711Y-92470711D01*
X83008439Y-92477301D01*
X83000557Y-92483147D01*
X82992140Y-92488192D01*
X82983268Y-92492388D01*
X82974028Y-92495694D01*
X82964509Y-92498079D01*
X82954802Y-92499518D01*
X82945000Y-92500000D01*
X82745000Y-92500000D01*
X82735198Y-92499518D01*
X82725491Y-92498079D01*
X82715972Y-92495694D01*
X82706732Y-92492388D01*
X82697860Y-92488192D01*
X82689443Y-92483147D01*
X82681561Y-92477301D01*
X82674289Y-92470711D01*
X82667699Y-92463439D01*
X82661853Y-92455557D01*
X82656808Y-92447140D01*
X82652612Y-92438268D01*
X82649306Y-92429028D01*
X82646921Y-92419509D01*
X82645482Y-92409802D01*
X82645000Y-92400000D01*
X82645000Y-91125000D01*
X82645482Y-91115198D01*
X82646921Y-91105491D01*
X82649306Y-91095972D01*
X82652612Y-91086732D01*
X82656808Y-91077860D01*
X82661853Y-91069443D01*
X82667699Y-91061561D01*
X82674289Y-91054289D01*
X82681561Y-91047699D01*
X82689443Y-91041853D01*
X82697860Y-91036808D01*
X82706732Y-91032612D01*
X82715972Y-91029306D01*
X82725491Y-91026921D01*
X82735198Y-91025482D01*
X82745000Y-91025000D01*
X82945000Y-91025000D01*
X82954802Y-91025482D01*
G37*
G36*
X83604802Y-91025482D02*
G01*
X83614509Y-91026921D01*
X83624028Y-91029306D01*
X83633268Y-91032612D01*
X83642140Y-91036808D01*
X83650557Y-91041853D01*
X83658439Y-91047699D01*
X83665711Y-91054289D01*
X83672301Y-91061561D01*
X83678147Y-91069443D01*
X83683192Y-91077860D01*
X83687388Y-91086732D01*
X83690694Y-91095972D01*
X83693079Y-91105491D01*
X83694518Y-91115198D01*
X83695000Y-91125000D01*
X83695000Y-92400000D01*
X83694518Y-92409802D01*
X83693079Y-92419509D01*
X83690694Y-92429028D01*
X83687388Y-92438268D01*
X83683192Y-92447140D01*
X83678147Y-92455557D01*
X83672301Y-92463439D01*
X83665711Y-92470711D01*
X83658439Y-92477301D01*
X83650557Y-92483147D01*
X83642140Y-92488192D01*
X83633268Y-92492388D01*
X83624028Y-92495694D01*
X83614509Y-92498079D01*
X83604802Y-92499518D01*
X83595000Y-92500000D01*
X83395000Y-92500000D01*
X83385198Y-92499518D01*
X83375491Y-92498079D01*
X83365972Y-92495694D01*
X83356732Y-92492388D01*
X83347860Y-92488192D01*
X83339443Y-92483147D01*
X83331561Y-92477301D01*
X83324289Y-92470711D01*
X83317699Y-92463439D01*
X83311853Y-92455557D01*
X83306808Y-92447140D01*
X83302612Y-92438268D01*
X83299306Y-92429028D01*
X83296921Y-92419509D01*
X83295482Y-92409802D01*
X83295000Y-92400000D01*
X83295000Y-91125000D01*
X83295482Y-91115198D01*
X83296921Y-91105491D01*
X83299306Y-91095972D01*
X83302612Y-91086732D01*
X83306808Y-91077860D01*
X83311853Y-91069443D01*
X83317699Y-91061561D01*
X83324289Y-91054289D01*
X83331561Y-91047699D01*
X83339443Y-91041853D01*
X83347860Y-91036808D01*
X83356732Y-91032612D01*
X83365972Y-91029306D01*
X83375491Y-91026921D01*
X83385198Y-91025482D01*
X83395000Y-91025000D01*
X83595000Y-91025000D01*
X83604802Y-91025482D01*
G37*
G36*
X84254802Y-91025482D02*
G01*
X84264509Y-91026921D01*
X84274028Y-91029306D01*
X84283268Y-91032612D01*
X84292140Y-91036808D01*
X84300557Y-91041853D01*
X84308439Y-91047699D01*
X84315711Y-91054289D01*
X84322301Y-91061561D01*
X84328147Y-91069443D01*
X84333192Y-91077860D01*
X84337388Y-91086732D01*
X84340694Y-91095972D01*
X84343079Y-91105491D01*
X84344518Y-91115198D01*
X84345000Y-91125000D01*
X84345000Y-92400000D01*
X84344518Y-92409802D01*
X84343079Y-92419509D01*
X84340694Y-92429028D01*
X84337388Y-92438268D01*
X84333192Y-92447140D01*
X84328147Y-92455557D01*
X84322301Y-92463439D01*
X84315711Y-92470711D01*
X84308439Y-92477301D01*
X84300557Y-92483147D01*
X84292140Y-92488192D01*
X84283268Y-92492388D01*
X84274028Y-92495694D01*
X84264509Y-92498079D01*
X84254802Y-92499518D01*
X84245000Y-92500000D01*
X84045000Y-92500000D01*
X84035198Y-92499518D01*
X84025491Y-92498079D01*
X84015972Y-92495694D01*
X84006732Y-92492388D01*
X83997860Y-92488192D01*
X83989443Y-92483147D01*
X83981561Y-92477301D01*
X83974289Y-92470711D01*
X83967699Y-92463439D01*
X83961853Y-92455557D01*
X83956808Y-92447140D01*
X83952612Y-92438268D01*
X83949306Y-92429028D01*
X83946921Y-92419509D01*
X83945482Y-92409802D01*
X83945000Y-92400000D01*
X83945000Y-91125000D01*
X83945482Y-91115198D01*
X83946921Y-91105491D01*
X83949306Y-91095972D01*
X83952612Y-91086732D01*
X83956808Y-91077860D01*
X83961853Y-91069443D01*
X83967699Y-91061561D01*
X83974289Y-91054289D01*
X83981561Y-91047699D01*
X83989443Y-91041853D01*
X83997860Y-91036808D01*
X84006732Y-91032612D01*
X84015972Y-91029306D01*
X84025491Y-91026921D01*
X84035198Y-91025482D01*
X84045000Y-91025000D01*
X84245000Y-91025000D01*
X84254802Y-91025482D01*
G37*
G36*
X84904802Y-91025482D02*
G01*
X84914509Y-91026921D01*
X84924028Y-91029306D01*
X84933268Y-91032612D01*
X84942140Y-91036808D01*
X84950557Y-91041853D01*
X84958439Y-91047699D01*
X84965711Y-91054289D01*
X84972301Y-91061561D01*
X84978147Y-91069443D01*
X84983192Y-91077860D01*
X84987388Y-91086732D01*
X84990694Y-91095972D01*
X84993079Y-91105491D01*
X84994518Y-91115198D01*
X84995000Y-91125000D01*
X84995000Y-92400000D01*
X84994518Y-92409802D01*
X84993079Y-92419509D01*
X84990694Y-92429028D01*
X84987388Y-92438268D01*
X84983192Y-92447140D01*
X84978147Y-92455557D01*
X84972301Y-92463439D01*
X84965711Y-92470711D01*
X84958439Y-92477301D01*
X84950557Y-92483147D01*
X84942140Y-92488192D01*
X84933268Y-92492388D01*
X84924028Y-92495694D01*
X84914509Y-92498079D01*
X84904802Y-92499518D01*
X84895000Y-92500000D01*
X84695000Y-92500000D01*
X84685198Y-92499518D01*
X84675491Y-92498079D01*
X84665972Y-92495694D01*
X84656732Y-92492388D01*
X84647860Y-92488192D01*
X84639443Y-92483147D01*
X84631561Y-92477301D01*
X84624289Y-92470711D01*
X84617699Y-92463439D01*
X84611853Y-92455557D01*
X84606808Y-92447140D01*
X84602612Y-92438268D01*
X84599306Y-92429028D01*
X84596921Y-92419509D01*
X84595482Y-92409802D01*
X84595000Y-92400000D01*
X84595000Y-91125000D01*
X84595482Y-91115198D01*
X84596921Y-91105491D01*
X84599306Y-91095972D01*
X84602612Y-91086732D01*
X84606808Y-91077860D01*
X84611853Y-91069443D01*
X84617699Y-91061561D01*
X84624289Y-91054289D01*
X84631561Y-91047699D01*
X84639443Y-91041853D01*
X84647860Y-91036808D01*
X84656732Y-91032612D01*
X84665972Y-91029306D01*
X84675491Y-91026921D01*
X84685198Y-91025482D01*
X84695000Y-91025000D01*
X84895000Y-91025000D01*
X84904802Y-91025482D01*
G37*
G36*
X85554802Y-91025482D02*
G01*
X85564509Y-91026921D01*
X85574028Y-91029306D01*
X85583268Y-91032612D01*
X85592140Y-91036808D01*
X85600557Y-91041853D01*
X85608439Y-91047699D01*
X85615711Y-91054289D01*
X85622301Y-91061561D01*
X85628147Y-91069443D01*
X85633192Y-91077860D01*
X85637388Y-91086732D01*
X85640694Y-91095972D01*
X85643079Y-91105491D01*
X85644518Y-91115198D01*
X85645000Y-91125000D01*
X85645000Y-92400000D01*
X85644518Y-92409802D01*
X85643079Y-92419509D01*
X85640694Y-92429028D01*
X85637388Y-92438268D01*
X85633192Y-92447140D01*
X85628147Y-92455557D01*
X85622301Y-92463439D01*
X85615711Y-92470711D01*
X85608439Y-92477301D01*
X85600557Y-92483147D01*
X85592140Y-92488192D01*
X85583268Y-92492388D01*
X85574028Y-92495694D01*
X85564509Y-92498079D01*
X85554802Y-92499518D01*
X85545000Y-92500000D01*
X85345000Y-92500000D01*
X85335198Y-92499518D01*
X85325491Y-92498079D01*
X85315972Y-92495694D01*
X85306732Y-92492388D01*
X85297860Y-92488192D01*
X85289443Y-92483147D01*
X85281561Y-92477301D01*
X85274289Y-92470711D01*
X85267699Y-92463439D01*
X85261853Y-92455557D01*
X85256808Y-92447140D01*
X85252612Y-92438268D01*
X85249306Y-92429028D01*
X85246921Y-92419509D01*
X85245482Y-92409802D01*
X85245000Y-92400000D01*
X85245000Y-91125000D01*
X85245482Y-91115198D01*
X85246921Y-91105491D01*
X85249306Y-91095972D01*
X85252612Y-91086732D01*
X85256808Y-91077860D01*
X85261853Y-91069443D01*
X85267699Y-91061561D01*
X85274289Y-91054289D01*
X85281561Y-91047699D01*
X85289443Y-91041853D01*
X85297860Y-91036808D01*
X85306732Y-91032612D01*
X85315972Y-91029306D01*
X85325491Y-91026921D01*
X85335198Y-91025482D01*
X85345000Y-91025000D01*
X85545000Y-91025000D01*
X85554802Y-91025482D01*
G37*
G36*
X86204802Y-91025482D02*
G01*
X86214509Y-91026921D01*
X86224028Y-91029306D01*
X86233268Y-91032612D01*
X86242140Y-91036808D01*
X86250557Y-91041853D01*
X86258439Y-91047699D01*
X86265711Y-91054289D01*
X86272301Y-91061561D01*
X86278147Y-91069443D01*
X86283192Y-91077860D01*
X86287388Y-91086732D01*
X86290694Y-91095972D01*
X86293079Y-91105491D01*
X86294518Y-91115198D01*
X86295000Y-91125000D01*
X86295000Y-92400000D01*
X86294518Y-92409802D01*
X86293079Y-92419509D01*
X86290694Y-92429028D01*
X86287388Y-92438268D01*
X86283192Y-92447140D01*
X86278147Y-92455557D01*
X86272301Y-92463439D01*
X86265711Y-92470711D01*
X86258439Y-92477301D01*
X86250557Y-92483147D01*
X86242140Y-92488192D01*
X86233268Y-92492388D01*
X86224028Y-92495694D01*
X86214509Y-92498079D01*
X86204802Y-92499518D01*
X86195000Y-92500000D01*
X85995000Y-92500000D01*
X85985198Y-92499518D01*
X85975491Y-92498079D01*
X85965972Y-92495694D01*
X85956732Y-92492388D01*
X85947860Y-92488192D01*
X85939443Y-92483147D01*
X85931561Y-92477301D01*
X85924289Y-92470711D01*
X85917699Y-92463439D01*
X85911853Y-92455557D01*
X85906808Y-92447140D01*
X85902612Y-92438268D01*
X85899306Y-92429028D01*
X85896921Y-92419509D01*
X85895482Y-92409802D01*
X85895000Y-92400000D01*
X85895000Y-91125000D01*
X85895482Y-91115198D01*
X85896921Y-91105491D01*
X85899306Y-91095972D01*
X85902612Y-91086732D01*
X85906808Y-91077860D01*
X85911853Y-91069443D01*
X85917699Y-91061561D01*
X85924289Y-91054289D01*
X85931561Y-91047699D01*
X85939443Y-91041853D01*
X85947860Y-91036808D01*
X85956732Y-91032612D01*
X85965972Y-91029306D01*
X85975491Y-91026921D01*
X85985198Y-91025482D01*
X85995000Y-91025000D01*
X86195000Y-91025000D01*
X86204802Y-91025482D01*
G37*
G36*
X86854802Y-91025482D02*
G01*
X86864509Y-91026921D01*
X86874028Y-91029306D01*
X86883268Y-91032612D01*
X86892140Y-91036808D01*
X86900557Y-91041853D01*
X86908439Y-91047699D01*
X86915711Y-91054289D01*
X86922301Y-91061561D01*
X86928147Y-91069443D01*
X86933192Y-91077860D01*
X86937388Y-91086732D01*
X86940694Y-91095972D01*
X86943079Y-91105491D01*
X86944518Y-91115198D01*
X86945000Y-91125000D01*
X86945000Y-92400000D01*
X86944518Y-92409802D01*
X86943079Y-92419509D01*
X86940694Y-92429028D01*
X86937388Y-92438268D01*
X86933192Y-92447140D01*
X86928147Y-92455557D01*
X86922301Y-92463439D01*
X86915711Y-92470711D01*
X86908439Y-92477301D01*
X86900557Y-92483147D01*
X86892140Y-92488192D01*
X86883268Y-92492388D01*
X86874028Y-92495694D01*
X86864509Y-92498079D01*
X86854802Y-92499518D01*
X86845000Y-92500000D01*
X86645000Y-92500000D01*
X86635198Y-92499518D01*
X86625491Y-92498079D01*
X86615972Y-92495694D01*
X86606732Y-92492388D01*
X86597860Y-92488192D01*
X86589443Y-92483147D01*
X86581561Y-92477301D01*
X86574289Y-92470711D01*
X86567699Y-92463439D01*
X86561853Y-92455557D01*
X86556808Y-92447140D01*
X86552612Y-92438268D01*
X86549306Y-92429028D01*
X86546921Y-92419509D01*
X86545482Y-92409802D01*
X86545000Y-92400000D01*
X86545000Y-91125000D01*
X86545482Y-91115198D01*
X86546921Y-91105491D01*
X86549306Y-91095972D01*
X86552612Y-91086732D01*
X86556808Y-91077860D01*
X86561853Y-91069443D01*
X86567699Y-91061561D01*
X86574289Y-91054289D01*
X86581561Y-91047699D01*
X86589443Y-91041853D01*
X86597860Y-91036808D01*
X86606732Y-91032612D01*
X86615972Y-91029306D01*
X86625491Y-91026921D01*
X86635198Y-91025482D01*
X86645000Y-91025000D01*
X86845000Y-91025000D01*
X86854802Y-91025482D01*
G37*
G36*
X86854802Y-85300482D02*
G01*
X86864509Y-85301921D01*
X86874028Y-85304306D01*
X86883268Y-85307612D01*
X86892140Y-85311808D01*
X86900557Y-85316853D01*
X86908439Y-85322699D01*
X86915711Y-85329289D01*
X86922301Y-85336561D01*
X86928147Y-85344443D01*
X86933192Y-85352860D01*
X86937388Y-85361732D01*
X86940694Y-85370972D01*
X86943079Y-85380491D01*
X86944518Y-85390198D01*
X86945000Y-85400000D01*
X86945000Y-86675000D01*
X86944518Y-86684802D01*
X86943079Y-86694509D01*
X86940694Y-86704028D01*
X86937388Y-86713268D01*
X86933192Y-86722140D01*
X86928147Y-86730557D01*
X86922301Y-86738439D01*
X86915711Y-86745711D01*
X86908439Y-86752301D01*
X86900557Y-86758147D01*
X86892140Y-86763192D01*
X86883268Y-86767388D01*
X86874028Y-86770694D01*
X86864509Y-86773079D01*
X86854802Y-86774518D01*
X86845000Y-86775000D01*
X86645000Y-86775000D01*
X86635198Y-86774518D01*
X86625491Y-86773079D01*
X86615972Y-86770694D01*
X86606732Y-86767388D01*
X86597860Y-86763192D01*
X86589443Y-86758147D01*
X86581561Y-86752301D01*
X86574289Y-86745711D01*
X86567699Y-86738439D01*
X86561853Y-86730557D01*
X86556808Y-86722140D01*
X86552612Y-86713268D01*
X86549306Y-86704028D01*
X86546921Y-86694509D01*
X86545482Y-86684802D01*
X86545000Y-86675000D01*
X86545000Y-85400000D01*
X86545482Y-85390198D01*
X86546921Y-85380491D01*
X86549306Y-85370972D01*
X86552612Y-85361732D01*
X86556808Y-85352860D01*
X86561853Y-85344443D01*
X86567699Y-85336561D01*
X86574289Y-85329289D01*
X86581561Y-85322699D01*
X86589443Y-85316853D01*
X86597860Y-85311808D01*
X86606732Y-85307612D01*
X86615972Y-85304306D01*
X86625491Y-85301921D01*
X86635198Y-85300482D01*
X86645000Y-85300000D01*
X86845000Y-85300000D01*
X86854802Y-85300482D01*
G37*
G36*
X86204802Y-85300482D02*
G01*
X86214509Y-85301921D01*
X86224028Y-85304306D01*
X86233268Y-85307612D01*
X86242140Y-85311808D01*
X86250557Y-85316853D01*
X86258439Y-85322699D01*
X86265711Y-85329289D01*
X86272301Y-85336561D01*
X86278147Y-85344443D01*
X86283192Y-85352860D01*
X86287388Y-85361732D01*
X86290694Y-85370972D01*
X86293079Y-85380491D01*
X86294518Y-85390198D01*
X86295000Y-85400000D01*
X86295000Y-86675000D01*
X86294518Y-86684802D01*
X86293079Y-86694509D01*
X86290694Y-86704028D01*
X86287388Y-86713268D01*
X86283192Y-86722140D01*
X86278147Y-86730557D01*
X86272301Y-86738439D01*
X86265711Y-86745711D01*
X86258439Y-86752301D01*
X86250557Y-86758147D01*
X86242140Y-86763192D01*
X86233268Y-86767388D01*
X86224028Y-86770694D01*
X86214509Y-86773079D01*
X86204802Y-86774518D01*
X86195000Y-86775000D01*
X85995000Y-86775000D01*
X85985198Y-86774518D01*
X85975491Y-86773079D01*
X85965972Y-86770694D01*
X85956732Y-86767388D01*
X85947860Y-86763192D01*
X85939443Y-86758147D01*
X85931561Y-86752301D01*
X85924289Y-86745711D01*
X85917699Y-86738439D01*
X85911853Y-86730557D01*
X85906808Y-86722140D01*
X85902612Y-86713268D01*
X85899306Y-86704028D01*
X85896921Y-86694509D01*
X85895482Y-86684802D01*
X85895000Y-86675000D01*
X85895000Y-85400000D01*
X85895482Y-85390198D01*
X85896921Y-85380491D01*
X85899306Y-85370972D01*
X85902612Y-85361732D01*
X85906808Y-85352860D01*
X85911853Y-85344443D01*
X85917699Y-85336561D01*
X85924289Y-85329289D01*
X85931561Y-85322699D01*
X85939443Y-85316853D01*
X85947860Y-85311808D01*
X85956732Y-85307612D01*
X85965972Y-85304306D01*
X85975491Y-85301921D01*
X85985198Y-85300482D01*
X85995000Y-85300000D01*
X86195000Y-85300000D01*
X86204802Y-85300482D01*
G37*
G36*
X85554802Y-85300482D02*
G01*
X85564509Y-85301921D01*
X85574028Y-85304306D01*
X85583268Y-85307612D01*
X85592140Y-85311808D01*
X85600557Y-85316853D01*
X85608439Y-85322699D01*
X85615711Y-85329289D01*
X85622301Y-85336561D01*
X85628147Y-85344443D01*
X85633192Y-85352860D01*
X85637388Y-85361732D01*
X85640694Y-85370972D01*
X85643079Y-85380491D01*
X85644518Y-85390198D01*
X85645000Y-85400000D01*
X85645000Y-86675000D01*
X85644518Y-86684802D01*
X85643079Y-86694509D01*
X85640694Y-86704028D01*
X85637388Y-86713268D01*
X85633192Y-86722140D01*
X85628147Y-86730557D01*
X85622301Y-86738439D01*
X85615711Y-86745711D01*
X85608439Y-86752301D01*
X85600557Y-86758147D01*
X85592140Y-86763192D01*
X85583268Y-86767388D01*
X85574028Y-86770694D01*
X85564509Y-86773079D01*
X85554802Y-86774518D01*
X85545000Y-86775000D01*
X85345000Y-86775000D01*
X85335198Y-86774518D01*
X85325491Y-86773079D01*
X85315972Y-86770694D01*
X85306732Y-86767388D01*
X85297860Y-86763192D01*
X85289443Y-86758147D01*
X85281561Y-86752301D01*
X85274289Y-86745711D01*
X85267699Y-86738439D01*
X85261853Y-86730557D01*
X85256808Y-86722140D01*
X85252612Y-86713268D01*
X85249306Y-86704028D01*
X85246921Y-86694509D01*
X85245482Y-86684802D01*
X85245000Y-86675000D01*
X85245000Y-85400000D01*
X85245482Y-85390198D01*
X85246921Y-85380491D01*
X85249306Y-85370972D01*
X85252612Y-85361732D01*
X85256808Y-85352860D01*
X85261853Y-85344443D01*
X85267699Y-85336561D01*
X85274289Y-85329289D01*
X85281561Y-85322699D01*
X85289443Y-85316853D01*
X85297860Y-85311808D01*
X85306732Y-85307612D01*
X85315972Y-85304306D01*
X85325491Y-85301921D01*
X85335198Y-85300482D01*
X85345000Y-85300000D01*
X85545000Y-85300000D01*
X85554802Y-85300482D01*
G37*
G36*
X84904802Y-85300482D02*
G01*
X84914509Y-85301921D01*
X84924028Y-85304306D01*
X84933268Y-85307612D01*
X84942140Y-85311808D01*
X84950557Y-85316853D01*
X84958439Y-85322699D01*
X84965711Y-85329289D01*
X84972301Y-85336561D01*
X84978147Y-85344443D01*
X84983192Y-85352860D01*
X84987388Y-85361732D01*
X84990694Y-85370972D01*
X84993079Y-85380491D01*
X84994518Y-85390198D01*
X84995000Y-85400000D01*
X84995000Y-86675000D01*
X84994518Y-86684802D01*
X84993079Y-86694509D01*
X84990694Y-86704028D01*
X84987388Y-86713268D01*
X84983192Y-86722140D01*
X84978147Y-86730557D01*
X84972301Y-86738439D01*
X84965711Y-86745711D01*
X84958439Y-86752301D01*
X84950557Y-86758147D01*
X84942140Y-86763192D01*
X84933268Y-86767388D01*
X84924028Y-86770694D01*
X84914509Y-86773079D01*
X84904802Y-86774518D01*
X84895000Y-86775000D01*
X84695000Y-86775000D01*
X84685198Y-86774518D01*
X84675491Y-86773079D01*
X84665972Y-86770694D01*
X84656732Y-86767388D01*
X84647860Y-86763192D01*
X84639443Y-86758147D01*
X84631561Y-86752301D01*
X84624289Y-86745711D01*
X84617699Y-86738439D01*
X84611853Y-86730557D01*
X84606808Y-86722140D01*
X84602612Y-86713268D01*
X84599306Y-86704028D01*
X84596921Y-86694509D01*
X84595482Y-86684802D01*
X84595000Y-86675000D01*
X84595000Y-85400000D01*
X84595482Y-85390198D01*
X84596921Y-85380491D01*
X84599306Y-85370972D01*
X84602612Y-85361732D01*
X84606808Y-85352860D01*
X84611853Y-85344443D01*
X84617699Y-85336561D01*
X84624289Y-85329289D01*
X84631561Y-85322699D01*
X84639443Y-85316853D01*
X84647860Y-85311808D01*
X84656732Y-85307612D01*
X84665972Y-85304306D01*
X84675491Y-85301921D01*
X84685198Y-85300482D01*
X84695000Y-85300000D01*
X84895000Y-85300000D01*
X84904802Y-85300482D01*
G37*
G36*
X84254802Y-85300482D02*
G01*
X84264509Y-85301921D01*
X84274028Y-85304306D01*
X84283268Y-85307612D01*
X84292140Y-85311808D01*
X84300557Y-85316853D01*
X84308439Y-85322699D01*
X84315711Y-85329289D01*
X84322301Y-85336561D01*
X84328147Y-85344443D01*
X84333192Y-85352860D01*
X84337388Y-85361732D01*
X84340694Y-85370972D01*
X84343079Y-85380491D01*
X84344518Y-85390198D01*
X84345000Y-85400000D01*
X84345000Y-86675000D01*
X84344518Y-86684802D01*
X84343079Y-86694509D01*
X84340694Y-86704028D01*
X84337388Y-86713268D01*
X84333192Y-86722140D01*
X84328147Y-86730557D01*
X84322301Y-86738439D01*
X84315711Y-86745711D01*
X84308439Y-86752301D01*
X84300557Y-86758147D01*
X84292140Y-86763192D01*
X84283268Y-86767388D01*
X84274028Y-86770694D01*
X84264509Y-86773079D01*
X84254802Y-86774518D01*
X84245000Y-86775000D01*
X84045000Y-86775000D01*
X84035198Y-86774518D01*
X84025491Y-86773079D01*
X84015972Y-86770694D01*
X84006732Y-86767388D01*
X83997860Y-86763192D01*
X83989443Y-86758147D01*
X83981561Y-86752301D01*
X83974289Y-86745711D01*
X83967699Y-86738439D01*
X83961853Y-86730557D01*
X83956808Y-86722140D01*
X83952612Y-86713268D01*
X83949306Y-86704028D01*
X83946921Y-86694509D01*
X83945482Y-86684802D01*
X83945000Y-86675000D01*
X83945000Y-85400000D01*
X83945482Y-85390198D01*
X83946921Y-85380491D01*
X83949306Y-85370972D01*
X83952612Y-85361732D01*
X83956808Y-85352860D01*
X83961853Y-85344443D01*
X83967699Y-85336561D01*
X83974289Y-85329289D01*
X83981561Y-85322699D01*
X83989443Y-85316853D01*
X83997860Y-85311808D01*
X84006732Y-85307612D01*
X84015972Y-85304306D01*
X84025491Y-85301921D01*
X84035198Y-85300482D01*
X84045000Y-85300000D01*
X84245000Y-85300000D01*
X84254802Y-85300482D01*
G37*
G36*
X83604802Y-85300482D02*
G01*
X83614509Y-85301921D01*
X83624028Y-85304306D01*
X83633268Y-85307612D01*
X83642140Y-85311808D01*
X83650557Y-85316853D01*
X83658439Y-85322699D01*
X83665711Y-85329289D01*
X83672301Y-85336561D01*
X83678147Y-85344443D01*
X83683192Y-85352860D01*
X83687388Y-85361732D01*
X83690694Y-85370972D01*
X83693079Y-85380491D01*
X83694518Y-85390198D01*
X83695000Y-85400000D01*
X83695000Y-86675000D01*
X83694518Y-86684802D01*
X83693079Y-86694509D01*
X83690694Y-86704028D01*
X83687388Y-86713268D01*
X83683192Y-86722140D01*
X83678147Y-86730557D01*
X83672301Y-86738439D01*
X83665711Y-86745711D01*
X83658439Y-86752301D01*
X83650557Y-86758147D01*
X83642140Y-86763192D01*
X83633268Y-86767388D01*
X83624028Y-86770694D01*
X83614509Y-86773079D01*
X83604802Y-86774518D01*
X83595000Y-86775000D01*
X83395000Y-86775000D01*
X83385198Y-86774518D01*
X83375491Y-86773079D01*
X83365972Y-86770694D01*
X83356732Y-86767388D01*
X83347860Y-86763192D01*
X83339443Y-86758147D01*
X83331561Y-86752301D01*
X83324289Y-86745711D01*
X83317699Y-86738439D01*
X83311853Y-86730557D01*
X83306808Y-86722140D01*
X83302612Y-86713268D01*
X83299306Y-86704028D01*
X83296921Y-86694509D01*
X83295482Y-86684802D01*
X83295000Y-86675000D01*
X83295000Y-85400000D01*
X83295482Y-85390198D01*
X83296921Y-85380491D01*
X83299306Y-85370972D01*
X83302612Y-85361732D01*
X83306808Y-85352860D01*
X83311853Y-85344443D01*
X83317699Y-85336561D01*
X83324289Y-85329289D01*
X83331561Y-85322699D01*
X83339443Y-85316853D01*
X83347860Y-85311808D01*
X83356732Y-85307612D01*
X83365972Y-85304306D01*
X83375491Y-85301921D01*
X83385198Y-85300482D01*
X83395000Y-85300000D01*
X83595000Y-85300000D01*
X83604802Y-85300482D01*
G37*
G36*
X82954802Y-85300482D02*
G01*
X82964509Y-85301921D01*
X82974028Y-85304306D01*
X82983268Y-85307612D01*
X82992140Y-85311808D01*
X83000557Y-85316853D01*
X83008439Y-85322699D01*
X83015711Y-85329289D01*
X83022301Y-85336561D01*
X83028147Y-85344443D01*
X83033192Y-85352860D01*
X83037388Y-85361732D01*
X83040694Y-85370972D01*
X83043079Y-85380491D01*
X83044518Y-85390198D01*
X83045000Y-85400000D01*
X83045000Y-86675000D01*
X83044518Y-86684802D01*
X83043079Y-86694509D01*
X83040694Y-86704028D01*
X83037388Y-86713268D01*
X83033192Y-86722140D01*
X83028147Y-86730557D01*
X83022301Y-86738439D01*
X83015711Y-86745711D01*
X83008439Y-86752301D01*
X83000557Y-86758147D01*
X82992140Y-86763192D01*
X82983268Y-86767388D01*
X82974028Y-86770694D01*
X82964509Y-86773079D01*
X82954802Y-86774518D01*
X82945000Y-86775000D01*
X82745000Y-86775000D01*
X82735198Y-86774518D01*
X82725491Y-86773079D01*
X82715972Y-86770694D01*
X82706732Y-86767388D01*
X82697860Y-86763192D01*
X82689443Y-86758147D01*
X82681561Y-86752301D01*
X82674289Y-86745711D01*
X82667699Y-86738439D01*
X82661853Y-86730557D01*
X82656808Y-86722140D01*
X82652612Y-86713268D01*
X82649306Y-86704028D01*
X82646921Y-86694509D01*
X82645482Y-86684802D01*
X82645000Y-86675000D01*
X82645000Y-85400000D01*
X82645482Y-85390198D01*
X82646921Y-85380491D01*
X82649306Y-85370972D01*
X82652612Y-85361732D01*
X82656808Y-85352860D01*
X82661853Y-85344443D01*
X82667699Y-85336561D01*
X82674289Y-85329289D01*
X82681561Y-85322699D01*
X82689443Y-85316853D01*
X82697860Y-85311808D01*
X82706732Y-85307612D01*
X82715972Y-85304306D01*
X82725491Y-85301921D01*
X82735198Y-85300482D01*
X82745000Y-85300000D01*
X82945000Y-85300000D01*
X82954802Y-85300482D01*
G37*
G36*
X82304802Y-85300482D02*
G01*
X82314509Y-85301921D01*
X82324028Y-85304306D01*
X82333268Y-85307612D01*
X82342140Y-85311808D01*
X82350557Y-85316853D01*
X82358439Y-85322699D01*
X82365711Y-85329289D01*
X82372301Y-85336561D01*
X82378147Y-85344443D01*
X82383192Y-85352860D01*
X82387388Y-85361732D01*
X82390694Y-85370972D01*
X82393079Y-85380491D01*
X82394518Y-85390198D01*
X82395000Y-85400000D01*
X82395000Y-86675000D01*
X82394518Y-86684802D01*
X82393079Y-86694509D01*
X82390694Y-86704028D01*
X82387388Y-86713268D01*
X82383192Y-86722140D01*
X82378147Y-86730557D01*
X82372301Y-86738439D01*
X82365711Y-86745711D01*
X82358439Y-86752301D01*
X82350557Y-86758147D01*
X82342140Y-86763192D01*
X82333268Y-86767388D01*
X82324028Y-86770694D01*
X82314509Y-86773079D01*
X82304802Y-86774518D01*
X82295000Y-86775000D01*
X82095000Y-86775000D01*
X82085198Y-86774518D01*
X82075491Y-86773079D01*
X82065972Y-86770694D01*
X82056732Y-86767388D01*
X82047860Y-86763192D01*
X82039443Y-86758147D01*
X82031561Y-86752301D01*
X82024289Y-86745711D01*
X82017699Y-86738439D01*
X82011853Y-86730557D01*
X82006808Y-86722140D01*
X82002612Y-86713268D01*
X81999306Y-86704028D01*
X81996921Y-86694509D01*
X81995482Y-86684802D01*
X81995000Y-86675000D01*
X81995000Y-85400000D01*
X81995482Y-85390198D01*
X81996921Y-85380491D01*
X81999306Y-85370972D01*
X82002612Y-85361732D01*
X82006808Y-85352860D01*
X82011853Y-85344443D01*
X82017699Y-85336561D01*
X82024289Y-85329289D01*
X82031561Y-85322699D01*
X82039443Y-85316853D01*
X82047860Y-85311808D01*
X82056732Y-85307612D01*
X82065972Y-85304306D01*
X82075491Y-85301921D01*
X82085198Y-85300482D01*
X82095000Y-85300000D01*
X82295000Y-85300000D01*
X82304802Y-85300482D01*
G37*
G36*
X81654802Y-85300482D02*
G01*
X81664509Y-85301921D01*
X81674028Y-85304306D01*
X81683268Y-85307612D01*
X81692140Y-85311808D01*
X81700557Y-85316853D01*
X81708439Y-85322699D01*
X81715711Y-85329289D01*
X81722301Y-85336561D01*
X81728147Y-85344443D01*
X81733192Y-85352860D01*
X81737388Y-85361732D01*
X81740694Y-85370972D01*
X81743079Y-85380491D01*
X81744518Y-85390198D01*
X81745000Y-85400000D01*
X81745000Y-86675000D01*
X81744518Y-86684802D01*
X81743079Y-86694509D01*
X81740694Y-86704028D01*
X81737388Y-86713268D01*
X81733192Y-86722140D01*
X81728147Y-86730557D01*
X81722301Y-86738439D01*
X81715711Y-86745711D01*
X81708439Y-86752301D01*
X81700557Y-86758147D01*
X81692140Y-86763192D01*
X81683268Y-86767388D01*
X81674028Y-86770694D01*
X81664509Y-86773079D01*
X81654802Y-86774518D01*
X81645000Y-86775000D01*
X81445000Y-86775000D01*
X81435198Y-86774518D01*
X81425491Y-86773079D01*
X81415972Y-86770694D01*
X81406732Y-86767388D01*
X81397860Y-86763192D01*
X81389443Y-86758147D01*
X81381561Y-86752301D01*
X81374289Y-86745711D01*
X81367699Y-86738439D01*
X81361853Y-86730557D01*
X81356808Y-86722140D01*
X81352612Y-86713268D01*
X81349306Y-86704028D01*
X81346921Y-86694509D01*
X81345482Y-86684802D01*
X81345000Y-86675000D01*
X81345000Y-85400000D01*
X81345482Y-85390198D01*
X81346921Y-85380491D01*
X81349306Y-85370972D01*
X81352612Y-85361732D01*
X81356808Y-85352860D01*
X81361853Y-85344443D01*
X81367699Y-85336561D01*
X81374289Y-85329289D01*
X81381561Y-85322699D01*
X81389443Y-85316853D01*
X81397860Y-85311808D01*
X81406732Y-85307612D01*
X81415972Y-85304306D01*
X81425491Y-85301921D01*
X81435198Y-85300482D01*
X81445000Y-85300000D01*
X81645000Y-85300000D01*
X81654802Y-85300482D01*
G37*
G36*
X81004802Y-85300482D02*
G01*
X81014509Y-85301921D01*
X81024028Y-85304306D01*
X81033268Y-85307612D01*
X81042140Y-85311808D01*
X81050557Y-85316853D01*
X81058439Y-85322699D01*
X81065711Y-85329289D01*
X81072301Y-85336561D01*
X81078147Y-85344443D01*
X81083192Y-85352860D01*
X81087388Y-85361732D01*
X81090694Y-85370972D01*
X81093079Y-85380491D01*
X81094518Y-85390198D01*
X81095000Y-85400000D01*
X81095000Y-86675000D01*
X81094518Y-86684802D01*
X81093079Y-86694509D01*
X81090694Y-86704028D01*
X81087388Y-86713268D01*
X81083192Y-86722140D01*
X81078147Y-86730557D01*
X81072301Y-86738439D01*
X81065711Y-86745711D01*
X81058439Y-86752301D01*
X81050557Y-86758147D01*
X81042140Y-86763192D01*
X81033268Y-86767388D01*
X81024028Y-86770694D01*
X81014509Y-86773079D01*
X81004802Y-86774518D01*
X80995000Y-86775000D01*
X80795000Y-86775000D01*
X80785198Y-86774518D01*
X80775491Y-86773079D01*
X80765972Y-86770694D01*
X80756732Y-86767388D01*
X80747860Y-86763192D01*
X80739443Y-86758147D01*
X80731561Y-86752301D01*
X80724289Y-86745711D01*
X80717699Y-86738439D01*
X80711853Y-86730557D01*
X80706808Y-86722140D01*
X80702612Y-86713268D01*
X80699306Y-86704028D01*
X80696921Y-86694509D01*
X80695482Y-86684802D01*
X80695000Y-86675000D01*
X80695000Y-85400000D01*
X80695482Y-85390198D01*
X80696921Y-85380491D01*
X80699306Y-85370972D01*
X80702612Y-85361732D01*
X80706808Y-85352860D01*
X80711853Y-85344443D01*
X80717699Y-85336561D01*
X80724289Y-85329289D01*
X80731561Y-85322699D01*
X80739443Y-85316853D01*
X80747860Y-85311808D01*
X80756732Y-85307612D01*
X80765972Y-85304306D01*
X80775491Y-85301921D01*
X80785198Y-85300482D01*
X80795000Y-85300000D01*
X80995000Y-85300000D01*
X81004802Y-85300482D01*
G37*
G36*
X70844802Y-91025482D02*
G01*
X70854509Y-91026921D01*
X70864028Y-91029306D01*
X70873268Y-91032612D01*
X70882140Y-91036808D01*
X70890557Y-91041853D01*
X70898439Y-91047699D01*
X70905711Y-91054289D01*
X70912301Y-91061561D01*
X70918147Y-91069443D01*
X70923192Y-91077860D01*
X70927388Y-91086732D01*
X70930694Y-91095972D01*
X70933079Y-91105491D01*
X70934518Y-91115198D01*
X70935000Y-91125000D01*
X70935000Y-92400000D01*
X70934518Y-92409802D01*
X70933079Y-92419509D01*
X70930694Y-92429028D01*
X70927388Y-92438268D01*
X70923192Y-92447140D01*
X70918147Y-92455557D01*
X70912301Y-92463439D01*
X70905711Y-92470711D01*
X70898439Y-92477301D01*
X70890557Y-92483147D01*
X70882140Y-92488192D01*
X70873268Y-92492388D01*
X70864028Y-92495694D01*
X70854509Y-92498079D01*
X70844802Y-92499518D01*
X70835000Y-92500000D01*
X70635000Y-92500000D01*
X70625198Y-92499518D01*
X70615491Y-92498079D01*
X70605972Y-92495694D01*
X70596732Y-92492388D01*
X70587860Y-92488192D01*
X70579443Y-92483147D01*
X70571561Y-92477301D01*
X70564289Y-92470711D01*
X70557699Y-92463439D01*
X70551853Y-92455557D01*
X70546808Y-92447140D01*
X70542612Y-92438268D01*
X70539306Y-92429028D01*
X70536921Y-92419509D01*
X70535482Y-92409802D01*
X70535000Y-92400000D01*
X70535000Y-91125000D01*
X70535482Y-91115198D01*
X70536921Y-91105491D01*
X70539306Y-91095972D01*
X70542612Y-91086732D01*
X70546808Y-91077860D01*
X70551853Y-91069443D01*
X70557699Y-91061561D01*
X70564289Y-91054289D01*
X70571561Y-91047699D01*
X70579443Y-91041853D01*
X70587860Y-91036808D01*
X70596732Y-91032612D01*
X70605972Y-91029306D01*
X70615491Y-91026921D01*
X70625198Y-91025482D01*
X70635000Y-91025000D01*
X70835000Y-91025000D01*
X70844802Y-91025482D01*
G37*
G36*
X71494802Y-91025482D02*
G01*
X71504509Y-91026921D01*
X71514028Y-91029306D01*
X71523268Y-91032612D01*
X71532140Y-91036808D01*
X71540557Y-91041853D01*
X71548439Y-91047699D01*
X71555711Y-91054289D01*
X71562301Y-91061561D01*
X71568147Y-91069443D01*
X71573192Y-91077860D01*
X71577388Y-91086732D01*
X71580694Y-91095972D01*
X71583079Y-91105491D01*
X71584518Y-91115198D01*
X71585000Y-91125000D01*
X71585000Y-92400000D01*
X71584518Y-92409802D01*
X71583079Y-92419509D01*
X71580694Y-92429028D01*
X71577388Y-92438268D01*
X71573192Y-92447140D01*
X71568147Y-92455557D01*
X71562301Y-92463439D01*
X71555711Y-92470711D01*
X71548439Y-92477301D01*
X71540557Y-92483147D01*
X71532140Y-92488192D01*
X71523268Y-92492388D01*
X71514028Y-92495694D01*
X71504509Y-92498079D01*
X71494802Y-92499518D01*
X71485000Y-92500000D01*
X71285000Y-92500000D01*
X71275198Y-92499518D01*
X71265491Y-92498079D01*
X71255972Y-92495694D01*
X71246732Y-92492388D01*
X71237860Y-92488192D01*
X71229443Y-92483147D01*
X71221561Y-92477301D01*
X71214289Y-92470711D01*
X71207699Y-92463439D01*
X71201853Y-92455557D01*
X71196808Y-92447140D01*
X71192612Y-92438268D01*
X71189306Y-92429028D01*
X71186921Y-92419509D01*
X71185482Y-92409802D01*
X71185000Y-92400000D01*
X71185000Y-91125000D01*
X71185482Y-91115198D01*
X71186921Y-91105491D01*
X71189306Y-91095972D01*
X71192612Y-91086732D01*
X71196808Y-91077860D01*
X71201853Y-91069443D01*
X71207699Y-91061561D01*
X71214289Y-91054289D01*
X71221561Y-91047699D01*
X71229443Y-91041853D01*
X71237860Y-91036808D01*
X71246732Y-91032612D01*
X71255972Y-91029306D01*
X71265491Y-91026921D01*
X71275198Y-91025482D01*
X71285000Y-91025000D01*
X71485000Y-91025000D01*
X71494802Y-91025482D01*
G37*
G36*
X72144802Y-91025482D02*
G01*
X72154509Y-91026921D01*
X72164028Y-91029306D01*
X72173268Y-91032612D01*
X72182140Y-91036808D01*
X72190557Y-91041853D01*
X72198439Y-91047699D01*
X72205711Y-91054289D01*
X72212301Y-91061561D01*
X72218147Y-91069443D01*
X72223192Y-91077860D01*
X72227388Y-91086732D01*
X72230694Y-91095972D01*
X72233079Y-91105491D01*
X72234518Y-91115198D01*
X72235000Y-91125000D01*
X72235000Y-92400000D01*
X72234518Y-92409802D01*
X72233079Y-92419509D01*
X72230694Y-92429028D01*
X72227388Y-92438268D01*
X72223192Y-92447140D01*
X72218147Y-92455557D01*
X72212301Y-92463439D01*
X72205711Y-92470711D01*
X72198439Y-92477301D01*
X72190557Y-92483147D01*
X72182140Y-92488192D01*
X72173268Y-92492388D01*
X72164028Y-92495694D01*
X72154509Y-92498079D01*
X72144802Y-92499518D01*
X72135000Y-92500000D01*
X71935000Y-92500000D01*
X71925198Y-92499518D01*
X71915491Y-92498079D01*
X71905972Y-92495694D01*
X71896732Y-92492388D01*
X71887860Y-92488192D01*
X71879443Y-92483147D01*
X71871561Y-92477301D01*
X71864289Y-92470711D01*
X71857699Y-92463439D01*
X71851853Y-92455557D01*
X71846808Y-92447140D01*
X71842612Y-92438268D01*
X71839306Y-92429028D01*
X71836921Y-92419509D01*
X71835482Y-92409802D01*
X71835000Y-92400000D01*
X71835000Y-91125000D01*
X71835482Y-91115198D01*
X71836921Y-91105491D01*
X71839306Y-91095972D01*
X71842612Y-91086732D01*
X71846808Y-91077860D01*
X71851853Y-91069443D01*
X71857699Y-91061561D01*
X71864289Y-91054289D01*
X71871561Y-91047699D01*
X71879443Y-91041853D01*
X71887860Y-91036808D01*
X71896732Y-91032612D01*
X71905972Y-91029306D01*
X71915491Y-91026921D01*
X71925198Y-91025482D01*
X71935000Y-91025000D01*
X72135000Y-91025000D01*
X72144802Y-91025482D01*
G37*
G36*
X72794802Y-91025482D02*
G01*
X72804509Y-91026921D01*
X72814028Y-91029306D01*
X72823268Y-91032612D01*
X72832140Y-91036808D01*
X72840557Y-91041853D01*
X72848439Y-91047699D01*
X72855711Y-91054289D01*
X72862301Y-91061561D01*
X72868147Y-91069443D01*
X72873192Y-91077860D01*
X72877388Y-91086732D01*
X72880694Y-91095972D01*
X72883079Y-91105491D01*
X72884518Y-91115198D01*
X72885000Y-91125000D01*
X72885000Y-92400000D01*
X72884518Y-92409802D01*
X72883079Y-92419509D01*
X72880694Y-92429028D01*
X72877388Y-92438268D01*
X72873192Y-92447140D01*
X72868147Y-92455557D01*
X72862301Y-92463439D01*
X72855711Y-92470711D01*
X72848439Y-92477301D01*
X72840557Y-92483147D01*
X72832140Y-92488192D01*
X72823268Y-92492388D01*
X72814028Y-92495694D01*
X72804509Y-92498079D01*
X72794802Y-92499518D01*
X72785000Y-92500000D01*
X72585000Y-92500000D01*
X72575198Y-92499518D01*
X72565491Y-92498079D01*
X72555972Y-92495694D01*
X72546732Y-92492388D01*
X72537860Y-92488192D01*
X72529443Y-92483147D01*
X72521561Y-92477301D01*
X72514289Y-92470711D01*
X72507699Y-92463439D01*
X72501853Y-92455557D01*
X72496808Y-92447140D01*
X72492612Y-92438268D01*
X72489306Y-92429028D01*
X72486921Y-92419509D01*
X72485482Y-92409802D01*
X72485000Y-92400000D01*
X72485000Y-91125000D01*
X72485482Y-91115198D01*
X72486921Y-91105491D01*
X72489306Y-91095972D01*
X72492612Y-91086732D01*
X72496808Y-91077860D01*
X72501853Y-91069443D01*
X72507699Y-91061561D01*
X72514289Y-91054289D01*
X72521561Y-91047699D01*
X72529443Y-91041853D01*
X72537860Y-91036808D01*
X72546732Y-91032612D01*
X72555972Y-91029306D01*
X72565491Y-91026921D01*
X72575198Y-91025482D01*
X72585000Y-91025000D01*
X72785000Y-91025000D01*
X72794802Y-91025482D01*
G37*
G36*
X73444802Y-91025482D02*
G01*
X73454509Y-91026921D01*
X73464028Y-91029306D01*
X73473268Y-91032612D01*
X73482140Y-91036808D01*
X73490557Y-91041853D01*
X73498439Y-91047699D01*
X73505711Y-91054289D01*
X73512301Y-91061561D01*
X73518147Y-91069443D01*
X73523192Y-91077860D01*
X73527388Y-91086732D01*
X73530694Y-91095972D01*
X73533079Y-91105491D01*
X73534518Y-91115198D01*
X73535000Y-91125000D01*
X73535000Y-92400000D01*
X73534518Y-92409802D01*
X73533079Y-92419509D01*
X73530694Y-92429028D01*
X73527388Y-92438268D01*
X73523192Y-92447140D01*
X73518147Y-92455557D01*
X73512301Y-92463439D01*
X73505711Y-92470711D01*
X73498439Y-92477301D01*
X73490557Y-92483147D01*
X73482140Y-92488192D01*
X73473268Y-92492388D01*
X73464028Y-92495694D01*
X73454509Y-92498079D01*
X73444802Y-92499518D01*
X73435000Y-92500000D01*
X73235000Y-92500000D01*
X73225198Y-92499518D01*
X73215491Y-92498079D01*
X73205972Y-92495694D01*
X73196732Y-92492388D01*
X73187860Y-92488192D01*
X73179443Y-92483147D01*
X73171561Y-92477301D01*
X73164289Y-92470711D01*
X73157699Y-92463439D01*
X73151853Y-92455557D01*
X73146808Y-92447140D01*
X73142612Y-92438268D01*
X73139306Y-92429028D01*
X73136921Y-92419509D01*
X73135482Y-92409802D01*
X73135000Y-92400000D01*
X73135000Y-91125000D01*
X73135482Y-91115198D01*
X73136921Y-91105491D01*
X73139306Y-91095972D01*
X73142612Y-91086732D01*
X73146808Y-91077860D01*
X73151853Y-91069443D01*
X73157699Y-91061561D01*
X73164289Y-91054289D01*
X73171561Y-91047699D01*
X73179443Y-91041853D01*
X73187860Y-91036808D01*
X73196732Y-91032612D01*
X73205972Y-91029306D01*
X73215491Y-91026921D01*
X73225198Y-91025482D01*
X73235000Y-91025000D01*
X73435000Y-91025000D01*
X73444802Y-91025482D01*
G37*
G36*
X74094802Y-91025482D02*
G01*
X74104509Y-91026921D01*
X74114028Y-91029306D01*
X74123268Y-91032612D01*
X74132140Y-91036808D01*
X74140557Y-91041853D01*
X74148439Y-91047699D01*
X74155711Y-91054289D01*
X74162301Y-91061561D01*
X74168147Y-91069443D01*
X74173192Y-91077860D01*
X74177388Y-91086732D01*
X74180694Y-91095972D01*
X74183079Y-91105491D01*
X74184518Y-91115198D01*
X74185000Y-91125000D01*
X74185000Y-92400000D01*
X74184518Y-92409802D01*
X74183079Y-92419509D01*
X74180694Y-92429028D01*
X74177388Y-92438268D01*
X74173192Y-92447140D01*
X74168147Y-92455557D01*
X74162301Y-92463439D01*
X74155711Y-92470711D01*
X74148439Y-92477301D01*
X74140557Y-92483147D01*
X74132140Y-92488192D01*
X74123268Y-92492388D01*
X74114028Y-92495694D01*
X74104509Y-92498079D01*
X74094802Y-92499518D01*
X74085000Y-92500000D01*
X73885000Y-92500000D01*
X73875198Y-92499518D01*
X73865491Y-92498079D01*
X73855972Y-92495694D01*
X73846732Y-92492388D01*
X73837860Y-92488192D01*
X73829443Y-92483147D01*
X73821561Y-92477301D01*
X73814289Y-92470711D01*
X73807699Y-92463439D01*
X73801853Y-92455557D01*
X73796808Y-92447140D01*
X73792612Y-92438268D01*
X73789306Y-92429028D01*
X73786921Y-92419509D01*
X73785482Y-92409802D01*
X73785000Y-92400000D01*
X73785000Y-91125000D01*
X73785482Y-91115198D01*
X73786921Y-91105491D01*
X73789306Y-91095972D01*
X73792612Y-91086732D01*
X73796808Y-91077860D01*
X73801853Y-91069443D01*
X73807699Y-91061561D01*
X73814289Y-91054289D01*
X73821561Y-91047699D01*
X73829443Y-91041853D01*
X73837860Y-91036808D01*
X73846732Y-91032612D01*
X73855972Y-91029306D01*
X73865491Y-91026921D01*
X73875198Y-91025482D01*
X73885000Y-91025000D01*
X74085000Y-91025000D01*
X74094802Y-91025482D01*
G37*
G36*
X74744802Y-91025482D02*
G01*
X74754509Y-91026921D01*
X74764028Y-91029306D01*
X74773268Y-91032612D01*
X74782140Y-91036808D01*
X74790557Y-91041853D01*
X74798439Y-91047699D01*
X74805711Y-91054289D01*
X74812301Y-91061561D01*
X74818147Y-91069443D01*
X74823192Y-91077860D01*
X74827388Y-91086732D01*
X74830694Y-91095972D01*
X74833079Y-91105491D01*
X74834518Y-91115198D01*
X74835000Y-91125000D01*
X74835000Y-92400000D01*
X74834518Y-92409802D01*
X74833079Y-92419509D01*
X74830694Y-92429028D01*
X74827388Y-92438268D01*
X74823192Y-92447140D01*
X74818147Y-92455557D01*
X74812301Y-92463439D01*
X74805711Y-92470711D01*
X74798439Y-92477301D01*
X74790557Y-92483147D01*
X74782140Y-92488192D01*
X74773268Y-92492388D01*
X74764028Y-92495694D01*
X74754509Y-92498079D01*
X74744802Y-92499518D01*
X74735000Y-92500000D01*
X74535000Y-92500000D01*
X74525198Y-92499518D01*
X74515491Y-92498079D01*
X74505972Y-92495694D01*
X74496732Y-92492388D01*
X74487860Y-92488192D01*
X74479443Y-92483147D01*
X74471561Y-92477301D01*
X74464289Y-92470711D01*
X74457699Y-92463439D01*
X74451853Y-92455557D01*
X74446808Y-92447140D01*
X74442612Y-92438268D01*
X74439306Y-92429028D01*
X74436921Y-92419509D01*
X74435482Y-92409802D01*
X74435000Y-92400000D01*
X74435000Y-91125000D01*
X74435482Y-91115198D01*
X74436921Y-91105491D01*
X74439306Y-91095972D01*
X74442612Y-91086732D01*
X74446808Y-91077860D01*
X74451853Y-91069443D01*
X74457699Y-91061561D01*
X74464289Y-91054289D01*
X74471561Y-91047699D01*
X74479443Y-91041853D01*
X74487860Y-91036808D01*
X74496732Y-91032612D01*
X74505972Y-91029306D01*
X74515491Y-91026921D01*
X74525198Y-91025482D01*
X74535000Y-91025000D01*
X74735000Y-91025000D01*
X74744802Y-91025482D01*
G37*
G36*
X75394802Y-91025482D02*
G01*
X75404509Y-91026921D01*
X75414028Y-91029306D01*
X75423268Y-91032612D01*
X75432140Y-91036808D01*
X75440557Y-91041853D01*
X75448439Y-91047699D01*
X75455711Y-91054289D01*
X75462301Y-91061561D01*
X75468147Y-91069443D01*
X75473192Y-91077860D01*
X75477388Y-91086732D01*
X75480694Y-91095972D01*
X75483079Y-91105491D01*
X75484518Y-91115198D01*
X75485000Y-91125000D01*
X75485000Y-92400000D01*
X75484518Y-92409802D01*
X75483079Y-92419509D01*
X75480694Y-92429028D01*
X75477388Y-92438268D01*
X75473192Y-92447140D01*
X75468147Y-92455557D01*
X75462301Y-92463439D01*
X75455711Y-92470711D01*
X75448439Y-92477301D01*
X75440557Y-92483147D01*
X75432140Y-92488192D01*
X75423268Y-92492388D01*
X75414028Y-92495694D01*
X75404509Y-92498079D01*
X75394802Y-92499518D01*
X75385000Y-92500000D01*
X75185000Y-92500000D01*
X75175198Y-92499518D01*
X75165491Y-92498079D01*
X75155972Y-92495694D01*
X75146732Y-92492388D01*
X75137860Y-92488192D01*
X75129443Y-92483147D01*
X75121561Y-92477301D01*
X75114289Y-92470711D01*
X75107699Y-92463439D01*
X75101853Y-92455557D01*
X75096808Y-92447140D01*
X75092612Y-92438268D01*
X75089306Y-92429028D01*
X75086921Y-92419509D01*
X75085482Y-92409802D01*
X75085000Y-92400000D01*
X75085000Y-91125000D01*
X75085482Y-91115198D01*
X75086921Y-91105491D01*
X75089306Y-91095972D01*
X75092612Y-91086732D01*
X75096808Y-91077860D01*
X75101853Y-91069443D01*
X75107699Y-91061561D01*
X75114289Y-91054289D01*
X75121561Y-91047699D01*
X75129443Y-91041853D01*
X75137860Y-91036808D01*
X75146732Y-91032612D01*
X75155972Y-91029306D01*
X75165491Y-91026921D01*
X75175198Y-91025482D01*
X75185000Y-91025000D01*
X75385000Y-91025000D01*
X75394802Y-91025482D01*
G37*
G36*
X76044802Y-91025482D02*
G01*
X76054509Y-91026921D01*
X76064028Y-91029306D01*
X76073268Y-91032612D01*
X76082140Y-91036808D01*
X76090557Y-91041853D01*
X76098439Y-91047699D01*
X76105711Y-91054289D01*
X76112301Y-91061561D01*
X76118147Y-91069443D01*
X76123192Y-91077860D01*
X76127388Y-91086732D01*
X76130694Y-91095972D01*
X76133079Y-91105491D01*
X76134518Y-91115198D01*
X76135000Y-91125000D01*
X76135000Y-92400000D01*
X76134518Y-92409802D01*
X76133079Y-92419509D01*
X76130694Y-92429028D01*
X76127388Y-92438268D01*
X76123192Y-92447140D01*
X76118147Y-92455557D01*
X76112301Y-92463439D01*
X76105711Y-92470711D01*
X76098439Y-92477301D01*
X76090557Y-92483147D01*
X76082140Y-92488192D01*
X76073268Y-92492388D01*
X76064028Y-92495694D01*
X76054509Y-92498079D01*
X76044802Y-92499518D01*
X76035000Y-92500000D01*
X75835000Y-92500000D01*
X75825198Y-92499518D01*
X75815491Y-92498079D01*
X75805972Y-92495694D01*
X75796732Y-92492388D01*
X75787860Y-92488192D01*
X75779443Y-92483147D01*
X75771561Y-92477301D01*
X75764289Y-92470711D01*
X75757699Y-92463439D01*
X75751853Y-92455557D01*
X75746808Y-92447140D01*
X75742612Y-92438268D01*
X75739306Y-92429028D01*
X75736921Y-92419509D01*
X75735482Y-92409802D01*
X75735000Y-92400000D01*
X75735000Y-91125000D01*
X75735482Y-91115198D01*
X75736921Y-91105491D01*
X75739306Y-91095972D01*
X75742612Y-91086732D01*
X75746808Y-91077860D01*
X75751853Y-91069443D01*
X75757699Y-91061561D01*
X75764289Y-91054289D01*
X75771561Y-91047699D01*
X75779443Y-91041853D01*
X75787860Y-91036808D01*
X75796732Y-91032612D01*
X75805972Y-91029306D01*
X75815491Y-91026921D01*
X75825198Y-91025482D01*
X75835000Y-91025000D01*
X76035000Y-91025000D01*
X76044802Y-91025482D01*
G37*
G36*
X76694802Y-91025482D02*
G01*
X76704509Y-91026921D01*
X76714028Y-91029306D01*
X76723268Y-91032612D01*
X76732140Y-91036808D01*
X76740557Y-91041853D01*
X76748439Y-91047699D01*
X76755711Y-91054289D01*
X76762301Y-91061561D01*
X76768147Y-91069443D01*
X76773192Y-91077860D01*
X76777388Y-91086732D01*
X76780694Y-91095972D01*
X76783079Y-91105491D01*
X76784518Y-91115198D01*
X76785000Y-91125000D01*
X76785000Y-92400000D01*
X76784518Y-92409802D01*
X76783079Y-92419509D01*
X76780694Y-92429028D01*
X76777388Y-92438268D01*
X76773192Y-92447140D01*
X76768147Y-92455557D01*
X76762301Y-92463439D01*
X76755711Y-92470711D01*
X76748439Y-92477301D01*
X76740557Y-92483147D01*
X76732140Y-92488192D01*
X76723268Y-92492388D01*
X76714028Y-92495694D01*
X76704509Y-92498079D01*
X76694802Y-92499518D01*
X76685000Y-92500000D01*
X76485000Y-92500000D01*
X76475198Y-92499518D01*
X76465491Y-92498079D01*
X76455972Y-92495694D01*
X76446732Y-92492388D01*
X76437860Y-92488192D01*
X76429443Y-92483147D01*
X76421561Y-92477301D01*
X76414289Y-92470711D01*
X76407699Y-92463439D01*
X76401853Y-92455557D01*
X76396808Y-92447140D01*
X76392612Y-92438268D01*
X76389306Y-92429028D01*
X76386921Y-92419509D01*
X76385482Y-92409802D01*
X76385000Y-92400000D01*
X76385000Y-91125000D01*
X76385482Y-91115198D01*
X76386921Y-91105491D01*
X76389306Y-91095972D01*
X76392612Y-91086732D01*
X76396808Y-91077860D01*
X76401853Y-91069443D01*
X76407699Y-91061561D01*
X76414289Y-91054289D01*
X76421561Y-91047699D01*
X76429443Y-91041853D01*
X76437860Y-91036808D01*
X76446732Y-91032612D01*
X76455972Y-91029306D01*
X76465491Y-91026921D01*
X76475198Y-91025482D01*
X76485000Y-91025000D01*
X76685000Y-91025000D01*
X76694802Y-91025482D01*
G37*
G36*
X76694802Y-85300482D02*
G01*
X76704509Y-85301921D01*
X76714028Y-85304306D01*
X76723268Y-85307612D01*
X76732140Y-85311808D01*
X76740557Y-85316853D01*
X76748439Y-85322699D01*
X76755711Y-85329289D01*
X76762301Y-85336561D01*
X76768147Y-85344443D01*
X76773192Y-85352860D01*
X76777388Y-85361732D01*
X76780694Y-85370972D01*
X76783079Y-85380491D01*
X76784518Y-85390198D01*
X76785000Y-85400000D01*
X76785000Y-86675000D01*
X76784518Y-86684802D01*
X76783079Y-86694509D01*
X76780694Y-86704028D01*
X76777388Y-86713268D01*
X76773192Y-86722140D01*
X76768147Y-86730557D01*
X76762301Y-86738439D01*
X76755711Y-86745711D01*
X76748439Y-86752301D01*
X76740557Y-86758147D01*
X76732140Y-86763192D01*
X76723268Y-86767388D01*
X76714028Y-86770694D01*
X76704509Y-86773079D01*
X76694802Y-86774518D01*
X76685000Y-86775000D01*
X76485000Y-86775000D01*
X76475198Y-86774518D01*
X76465491Y-86773079D01*
X76455972Y-86770694D01*
X76446732Y-86767388D01*
X76437860Y-86763192D01*
X76429443Y-86758147D01*
X76421561Y-86752301D01*
X76414289Y-86745711D01*
X76407699Y-86738439D01*
X76401853Y-86730557D01*
X76396808Y-86722140D01*
X76392612Y-86713268D01*
X76389306Y-86704028D01*
X76386921Y-86694509D01*
X76385482Y-86684802D01*
X76385000Y-86675000D01*
X76385000Y-85400000D01*
X76385482Y-85390198D01*
X76386921Y-85380491D01*
X76389306Y-85370972D01*
X76392612Y-85361732D01*
X76396808Y-85352860D01*
X76401853Y-85344443D01*
X76407699Y-85336561D01*
X76414289Y-85329289D01*
X76421561Y-85322699D01*
X76429443Y-85316853D01*
X76437860Y-85311808D01*
X76446732Y-85307612D01*
X76455972Y-85304306D01*
X76465491Y-85301921D01*
X76475198Y-85300482D01*
X76485000Y-85300000D01*
X76685000Y-85300000D01*
X76694802Y-85300482D01*
G37*
G36*
X76044802Y-85300482D02*
G01*
X76054509Y-85301921D01*
X76064028Y-85304306D01*
X76073268Y-85307612D01*
X76082140Y-85311808D01*
X76090557Y-85316853D01*
X76098439Y-85322699D01*
X76105711Y-85329289D01*
X76112301Y-85336561D01*
X76118147Y-85344443D01*
X76123192Y-85352860D01*
X76127388Y-85361732D01*
X76130694Y-85370972D01*
X76133079Y-85380491D01*
X76134518Y-85390198D01*
X76135000Y-85400000D01*
X76135000Y-86675000D01*
X76134518Y-86684802D01*
X76133079Y-86694509D01*
X76130694Y-86704028D01*
X76127388Y-86713268D01*
X76123192Y-86722140D01*
X76118147Y-86730557D01*
X76112301Y-86738439D01*
X76105711Y-86745711D01*
X76098439Y-86752301D01*
X76090557Y-86758147D01*
X76082140Y-86763192D01*
X76073268Y-86767388D01*
X76064028Y-86770694D01*
X76054509Y-86773079D01*
X76044802Y-86774518D01*
X76035000Y-86775000D01*
X75835000Y-86775000D01*
X75825198Y-86774518D01*
X75815491Y-86773079D01*
X75805972Y-86770694D01*
X75796732Y-86767388D01*
X75787860Y-86763192D01*
X75779443Y-86758147D01*
X75771561Y-86752301D01*
X75764289Y-86745711D01*
X75757699Y-86738439D01*
X75751853Y-86730557D01*
X75746808Y-86722140D01*
X75742612Y-86713268D01*
X75739306Y-86704028D01*
X75736921Y-86694509D01*
X75735482Y-86684802D01*
X75735000Y-86675000D01*
X75735000Y-85400000D01*
X75735482Y-85390198D01*
X75736921Y-85380491D01*
X75739306Y-85370972D01*
X75742612Y-85361732D01*
X75746808Y-85352860D01*
X75751853Y-85344443D01*
X75757699Y-85336561D01*
X75764289Y-85329289D01*
X75771561Y-85322699D01*
X75779443Y-85316853D01*
X75787860Y-85311808D01*
X75796732Y-85307612D01*
X75805972Y-85304306D01*
X75815491Y-85301921D01*
X75825198Y-85300482D01*
X75835000Y-85300000D01*
X76035000Y-85300000D01*
X76044802Y-85300482D01*
G37*
G36*
X75394802Y-85300482D02*
G01*
X75404509Y-85301921D01*
X75414028Y-85304306D01*
X75423268Y-85307612D01*
X75432140Y-85311808D01*
X75440557Y-85316853D01*
X75448439Y-85322699D01*
X75455711Y-85329289D01*
X75462301Y-85336561D01*
X75468147Y-85344443D01*
X75473192Y-85352860D01*
X75477388Y-85361732D01*
X75480694Y-85370972D01*
X75483079Y-85380491D01*
X75484518Y-85390198D01*
X75485000Y-85400000D01*
X75485000Y-86675000D01*
X75484518Y-86684802D01*
X75483079Y-86694509D01*
X75480694Y-86704028D01*
X75477388Y-86713268D01*
X75473192Y-86722140D01*
X75468147Y-86730557D01*
X75462301Y-86738439D01*
X75455711Y-86745711D01*
X75448439Y-86752301D01*
X75440557Y-86758147D01*
X75432140Y-86763192D01*
X75423268Y-86767388D01*
X75414028Y-86770694D01*
X75404509Y-86773079D01*
X75394802Y-86774518D01*
X75385000Y-86775000D01*
X75185000Y-86775000D01*
X75175198Y-86774518D01*
X75165491Y-86773079D01*
X75155972Y-86770694D01*
X75146732Y-86767388D01*
X75137860Y-86763192D01*
X75129443Y-86758147D01*
X75121561Y-86752301D01*
X75114289Y-86745711D01*
X75107699Y-86738439D01*
X75101853Y-86730557D01*
X75096808Y-86722140D01*
X75092612Y-86713268D01*
X75089306Y-86704028D01*
X75086921Y-86694509D01*
X75085482Y-86684802D01*
X75085000Y-86675000D01*
X75085000Y-85400000D01*
X75085482Y-85390198D01*
X75086921Y-85380491D01*
X75089306Y-85370972D01*
X75092612Y-85361732D01*
X75096808Y-85352860D01*
X75101853Y-85344443D01*
X75107699Y-85336561D01*
X75114289Y-85329289D01*
X75121561Y-85322699D01*
X75129443Y-85316853D01*
X75137860Y-85311808D01*
X75146732Y-85307612D01*
X75155972Y-85304306D01*
X75165491Y-85301921D01*
X75175198Y-85300482D01*
X75185000Y-85300000D01*
X75385000Y-85300000D01*
X75394802Y-85300482D01*
G37*
G36*
X74744802Y-85300482D02*
G01*
X74754509Y-85301921D01*
X74764028Y-85304306D01*
X74773268Y-85307612D01*
X74782140Y-85311808D01*
X74790557Y-85316853D01*
X74798439Y-85322699D01*
X74805711Y-85329289D01*
X74812301Y-85336561D01*
X74818147Y-85344443D01*
X74823192Y-85352860D01*
X74827388Y-85361732D01*
X74830694Y-85370972D01*
X74833079Y-85380491D01*
X74834518Y-85390198D01*
X74835000Y-85400000D01*
X74835000Y-86675000D01*
X74834518Y-86684802D01*
X74833079Y-86694509D01*
X74830694Y-86704028D01*
X74827388Y-86713268D01*
X74823192Y-86722140D01*
X74818147Y-86730557D01*
X74812301Y-86738439D01*
X74805711Y-86745711D01*
X74798439Y-86752301D01*
X74790557Y-86758147D01*
X74782140Y-86763192D01*
X74773268Y-86767388D01*
X74764028Y-86770694D01*
X74754509Y-86773079D01*
X74744802Y-86774518D01*
X74735000Y-86775000D01*
X74535000Y-86775000D01*
X74525198Y-86774518D01*
X74515491Y-86773079D01*
X74505972Y-86770694D01*
X74496732Y-86767388D01*
X74487860Y-86763192D01*
X74479443Y-86758147D01*
X74471561Y-86752301D01*
X74464289Y-86745711D01*
X74457699Y-86738439D01*
X74451853Y-86730557D01*
X74446808Y-86722140D01*
X74442612Y-86713268D01*
X74439306Y-86704028D01*
X74436921Y-86694509D01*
X74435482Y-86684802D01*
X74435000Y-86675000D01*
X74435000Y-85400000D01*
X74435482Y-85390198D01*
X74436921Y-85380491D01*
X74439306Y-85370972D01*
X74442612Y-85361732D01*
X74446808Y-85352860D01*
X74451853Y-85344443D01*
X74457699Y-85336561D01*
X74464289Y-85329289D01*
X74471561Y-85322699D01*
X74479443Y-85316853D01*
X74487860Y-85311808D01*
X74496732Y-85307612D01*
X74505972Y-85304306D01*
X74515491Y-85301921D01*
X74525198Y-85300482D01*
X74535000Y-85300000D01*
X74735000Y-85300000D01*
X74744802Y-85300482D01*
G37*
G36*
X74094802Y-85300482D02*
G01*
X74104509Y-85301921D01*
X74114028Y-85304306D01*
X74123268Y-85307612D01*
X74132140Y-85311808D01*
X74140557Y-85316853D01*
X74148439Y-85322699D01*
X74155711Y-85329289D01*
X74162301Y-85336561D01*
X74168147Y-85344443D01*
X74173192Y-85352860D01*
X74177388Y-85361732D01*
X74180694Y-85370972D01*
X74183079Y-85380491D01*
X74184518Y-85390198D01*
X74185000Y-85400000D01*
X74185000Y-86675000D01*
X74184518Y-86684802D01*
X74183079Y-86694509D01*
X74180694Y-86704028D01*
X74177388Y-86713268D01*
X74173192Y-86722140D01*
X74168147Y-86730557D01*
X74162301Y-86738439D01*
X74155711Y-86745711D01*
X74148439Y-86752301D01*
X74140557Y-86758147D01*
X74132140Y-86763192D01*
X74123268Y-86767388D01*
X74114028Y-86770694D01*
X74104509Y-86773079D01*
X74094802Y-86774518D01*
X74085000Y-86775000D01*
X73885000Y-86775000D01*
X73875198Y-86774518D01*
X73865491Y-86773079D01*
X73855972Y-86770694D01*
X73846732Y-86767388D01*
X73837860Y-86763192D01*
X73829443Y-86758147D01*
X73821561Y-86752301D01*
X73814289Y-86745711D01*
X73807699Y-86738439D01*
X73801853Y-86730557D01*
X73796808Y-86722140D01*
X73792612Y-86713268D01*
X73789306Y-86704028D01*
X73786921Y-86694509D01*
X73785482Y-86684802D01*
X73785000Y-86675000D01*
X73785000Y-85400000D01*
X73785482Y-85390198D01*
X73786921Y-85380491D01*
X73789306Y-85370972D01*
X73792612Y-85361732D01*
X73796808Y-85352860D01*
X73801853Y-85344443D01*
X73807699Y-85336561D01*
X73814289Y-85329289D01*
X73821561Y-85322699D01*
X73829443Y-85316853D01*
X73837860Y-85311808D01*
X73846732Y-85307612D01*
X73855972Y-85304306D01*
X73865491Y-85301921D01*
X73875198Y-85300482D01*
X73885000Y-85300000D01*
X74085000Y-85300000D01*
X74094802Y-85300482D01*
G37*
G36*
X73444802Y-85300482D02*
G01*
X73454509Y-85301921D01*
X73464028Y-85304306D01*
X73473268Y-85307612D01*
X73482140Y-85311808D01*
X73490557Y-85316853D01*
X73498439Y-85322699D01*
X73505711Y-85329289D01*
X73512301Y-85336561D01*
X73518147Y-85344443D01*
X73523192Y-85352860D01*
X73527388Y-85361732D01*
X73530694Y-85370972D01*
X73533079Y-85380491D01*
X73534518Y-85390198D01*
X73535000Y-85400000D01*
X73535000Y-86675000D01*
X73534518Y-86684802D01*
X73533079Y-86694509D01*
X73530694Y-86704028D01*
X73527388Y-86713268D01*
X73523192Y-86722140D01*
X73518147Y-86730557D01*
X73512301Y-86738439D01*
X73505711Y-86745711D01*
X73498439Y-86752301D01*
X73490557Y-86758147D01*
X73482140Y-86763192D01*
X73473268Y-86767388D01*
X73464028Y-86770694D01*
X73454509Y-86773079D01*
X73444802Y-86774518D01*
X73435000Y-86775000D01*
X73235000Y-86775000D01*
X73225198Y-86774518D01*
X73215491Y-86773079D01*
X73205972Y-86770694D01*
X73196732Y-86767388D01*
X73187860Y-86763192D01*
X73179443Y-86758147D01*
X73171561Y-86752301D01*
X73164289Y-86745711D01*
X73157699Y-86738439D01*
X73151853Y-86730557D01*
X73146808Y-86722140D01*
X73142612Y-86713268D01*
X73139306Y-86704028D01*
X73136921Y-86694509D01*
X73135482Y-86684802D01*
X73135000Y-86675000D01*
X73135000Y-85400000D01*
X73135482Y-85390198D01*
X73136921Y-85380491D01*
X73139306Y-85370972D01*
X73142612Y-85361732D01*
X73146808Y-85352860D01*
X73151853Y-85344443D01*
X73157699Y-85336561D01*
X73164289Y-85329289D01*
X73171561Y-85322699D01*
X73179443Y-85316853D01*
X73187860Y-85311808D01*
X73196732Y-85307612D01*
X73205972Y-85304306D01*
X73215491Y-85301921D01*
X73225198Y-85300482D01*
X73235000Y-85300000D01*
X73435000Y-85300000D01*
X73444802Y-85300482D01*
G37*
G36*
X72794802Y-85300482D02*
G01*
X72804509Y-85301921D01*
X72814028Y-85304306D01*
X72823268Y-85307612D01*
X72832140Y-85311808D01*
X72840557Y-85316853D01*
X72848439Y-85322699D01*
X72855711Y-85329289D01*
X72862301Y-85336561D01*
X72868147Y-85344443D01*
X72873192Y-85352860D01*
X72877388Y-85361732D01*
X72880694Y-85370972D01*
X72883079Y-85380491D01*
X72884518Y-85390198D01*
X72885000Y-85400000D01*
X72885000Y-86675000D01*
X72884518Y-86684802D01*
X72883079Y-86694509D01*
X72880694Y-86704028D01*
X72877388Y-86713268D01*
X72873192Y-86722140D01*
X72868147Y-86730557D01*
X72862301Y-86738439D01*
X72855711Y-86745711D01*
X72848439Y-86752301D01*
X72840557Y-86758147D01*
X72832140Y-86763192D01*
X72823268Y-86767388D01*
X72814028Y-86770694D01*
X72804509Y-86773079D01*
X72794802Y-86774518D01*
X72785000Y-86775000D01*
X72585000Y-86775000D01*
X72575198Y-86774518D01*
X72565491Y-86773079D01*
X72555972Y-86770694D01*
X72546732Y-86767388D01*
X72537860Y-86763192D01*
X72529443Y-86758147D01*
X72521561Y-86752301D01*
X72514289Y-86745711D01*
X72507699Y-86738439D01*
X72501853Y-86730557D01*
X72496808Y-86722140D01*
X72492612Y-86713268D01*
X72489306Y-86704028D01*
X72486921Y-86694509D01*
X72485482Y-86684802D01*
X72485000Y-86675000D01*
X72485000Y-85400000D01*
X72485482Y-85390198D01*
X72486921Y-85380491D01*
X72489306Y-85370972D01*
X72492612Y-85361732D01*
X72496808Y-85352860D01*
X72501853Y-85344443D01*
X72507699Y-85336561D01*
X72514289Y-85329289D01*
X72521561Y-85322699D01*
X72529443Y-85316853D01*
X72537860Y-85311808D01*
X72546732Y-85307612D01*
X72555972Y-85304306D01*
X72565491Y-85301921D01*
X72575198Y-85300482D01*
X72585000Y-85300000D01*
X72785000Y-85300000D01*
X72794802Y-85300482D01*
G37*
G36*
X72144802Y-85300482D02*
G01*
X72154509Y-85301921D01*
X72164028Y-85304306D01*
X72173268Y-85307612D01*
X72182140Y-85311808D01*
X72190557Y-85316853D01*
X72198439Y-85322699D01*
X72205711Y-85329289D01*
X72212301Y-85336561D01*
X72218147Y-85344443D01*
X72223192Y-85352860D01*
X72227388Y-85361732D01*
X72230694Y-85370972D01*
X72233079Y-85380491D01*
X72234518Y-85390198D01*
X72235000Y-85400000D01*
X72235000Y-86675000D01*
X72234518Y-86684802D01*
X72233079Y-86694509D01*
X72230694Y-86704028D01*
X72227388Y-86713268D01*
X72223192Y-86722140D01*
X72218147Y-86730557D01*
X72212301Y-86738439D01*
X72205711Y-86745711D01*
X72198439Y-86752301D01*
X72190557Y-86758147D01*
X72182140Y-86763192D01*
X72173268Y-86767388D01*
X72164028Y-86770694D01*
X72154509Y-86773079D01*
X72144802Y-86774518D01*
X72135000Y-86775000D01*
X71935000Y-86775000D01*
X71925198Y-86774518D01*
X71915491Y-86773079D01*
X71905972Y-86770694D01*
X71896732Y-86767388D01*
X71887860Y-86763192D01*
X71879443Y-86758147D01*
X71871561Y-86752301D01*
X71864289Y-86745711D01*
X71857699Y-86738439D01*
X71851853Y-86730557D01*
X71846808Y-86722140D01*
X71842612Y-86713268D01*
X71839306Y-86704028D01*
X71836921Y-86694509D01*
X71835482Y-86684802D01*
X71835000Y-86675000D01*
X71835000Y-85400000D01*
X71835482Y-85390198D01*
X71836921Y-85380491D01*
X71839306Y-85370972D01*
X71842612Y-85361732D01*
X71846808Y-85352860D01*
X71851853Y-85344443D01*
X71857699Y-85336561D01*
X71864289Y-85329289D01*
X71871561Y-85322699D01*
X71879443Y-85316853D01*
X71887860Y-85311808D01*
X71896732Y-85307612D01*
X71905972Y-85304306D01*
X71915491Y-85301921D01*
X71925198Y-85300482D01*
X71935000Y-85300000D01*
X72135000Y-85300000D01*
X72144802Y-85300482D01*
G37*
G36*
X71494802Y-85300482D02*
G01*
X71504509Y-85301921D01*
X71514028Y-85304306D01*
X71523268Y-85307612D01*
X71532140Y-85311808D01*
X71540557Y-85316853D01*
X71548439Y-85322699D01*
X71555711Y-85329289D01*
X71562301Y-85336561D01*
X71568147Y-85344443D01*
X71573192Y-85352860D01*
X71577388Y-85361732D01*
X71580694Y-85370972D01*
X71583079Y-85380491D01*
X71584518Y-85390198D01*
X71585000Y-85400000D01*
X71585000Y-86675000D01*
X71584518Y-86684802D01*
X71583079Y-86694509D01*
X71580694Y-86704028D01*
X71577388Y-86713268D01*
X71573192Y-86722140D01*
X71568147Y-86730557D01*
X71562301Y-86738439D01*
X71555711Y-86745711D01*
X71548439Y-86752301D01*
X71540557Y-86758147D01*
X71532140Y-86763192D01*
X71523268Y-86767388D01*
X71514028Y-86770694D01*
X71504509Y-86773079D01*
X71494802Y-86774518D01*
X71485000Y-86775000D01*
X71285000Y-86775000D01*
X71275198Y-86774518D01*
X71265491Y-86773079D01*
X71255972Y-86770694D01*
X71246732Y-86767388D01*
X71237860Y-86763192D01*
X71229443Y-86758147D01*
X71221561Y-86752301D01*
X71214289Y-86745711D01*
X71207699Y-86738439D01*
X71201853Y-86730557D01*
X71196808Y-86722140D01*
X71192612Y-86713268D01*
X71189306Y-86704028D01*
X71186921Y-86694509D01*
X71185482Y-86684802D01*
X71185000Y-86675000D01*
X71185000Y-85400000D01*
X71185482Y-85390198D01*
X71186921Y-85380491D01*
X71189306Y-85370972D01*
X71192612Y-85361732D01*
X71196808Y-85352860D01*
X71201853Y-85344443D01*
X71207699Y-85336561D01*
X71214289Y-85329289D01*
X71221561Y-85322699D01*
X71229443Y-85316853D01*
X71237860Y-85311808D01*
X71246732Y-85307612D01*
X71255972Y-85304306D01*
X71265491Y-85301921D01*
X71275198Y-85300482D01*
X71285000Y-85300000D01*
X71485000Y-85300000D01*
X71494802Y-85300482D01*
G37*
G36*
X70844802Y-85300482D02*
G01*
X70854509Y-85301921D01*
X70864028Y-85304306D01*
X70873268Y-85307612D01*
X70882140Y-85311808D01*
X70890557Y-85316853D01*
X70898439Y-85322699D01*
X70905711Y-85329289D01*
X70912301Y-85336561D01*
X70918147Y-85344443D01*
X70923192Y-85352860D01*
X70927388Y-85361732D01*
X70930694Y-85370972D01*
X70933079Y-85380491D01*
X70934518Y-85390198D01*
X70935000Y-85400000D01*
X70935000Y-86675000D01*
X70934518Y-86684802D01*
X70933079Y-86694509D01*
X70930694Y-86704028D01*
X70927388Y-86713268D01*
X70923192Y-86722140D01*
X70918147Y-86730557D01*
X70912301Y-86738439D01*
X70905711Y-86745711D01*
X70898439Y-86752301D01*
X70890557Y-86758147D01*
X70882140Y-86763192D01*
X70873268Y-86767388D01*
X70864028Y-86770694D01*
X70854509Y-86773079D01*
X70844802Y-86774518D01*
X70835000Y-86775000D01*
X70635000Y-86775000D01*
X70625198Y-86774518D01*
X70615491Y-86773079D01*
X70605972Y-86770694D01*
X70596732Y-86767388D01*
X70587860Y-86763192D01*
X70579443Y-86758147D01*
X70571561Y-86752301D01*
X70564289Y-86745711D01*
X70557699Y-86738439D01*
X70551853Y-86730557D01*
X70546808Y-86722140D01*
X70542612Y-86713268D01*
X70539306Y-86704028D01*
X70536921Y-86694509D01*
X70535482Y-86684802D01*
X70535000Y-86675000D01*
X70535000Y-85400000D01*
X70535482Y-85390198D01*
X70536921Y-85380491D01*
X70539306Y-85370972D01*
X70542612Y-85361732D01*
X70546808Y-85352860D01*
X70551853Y-85344443D01*
X70557699Y-85336561D01*
X70564289Y-85329289D01*
X70571561Y-85322699D01*
X70579443Y-85316853D01*
X70587860Y-85311808D01*
X70596732Y-85307612D01*
X70605972Y-85304306D01*
X70615491Y-85301921D01*
X70625198Y-85300482D01*
X70635000Y-85300000D01*
X70835000Y-85300000D01*
X70844802Y-85300482D01*
G37*
D11*
X39644000Y-80264000D03*
X42144000Y-80264000D03*
D10*
G36*
X72773504Y-82080204D02*
G01*
X72797773Y-82083804D01*
X72821571Y-82089765D01*
X72844671Y-82098030D01*
X72866849Y-82108520D01*
X72887893Y-82121133D01*
X72907598Y-82135747D01*
X72925777Y-82152223D01*
X72942253Y-82170402D01*
X72956867Y-82190107D01*
X72969480Y-82211151D01*
X72979970Y-82233329D01*
X72988235Y-82256429D01*
X72994196Y-82280227D01*
X72997796Y-82304496D01*
X72999000Y-82329000D01*
X72999000Y-83279000D01*
X72997796Y-83303504D01*
X72994196Y-83327773D01*
X72988235Y-83351571D01*
X72979970Y-83374671D01*
X72969480Y-83396849D01*
X72956867Y-83417893D01*
X72942253Y-83437598D01*
X72925777Y-83455777D01*
X72907598Y-83472253D01*
X72887893Y-83486867D01*
X72866849Y-83499480D01*
X72844671Y-83509970D01*
X72821571Y-83518235D01*
X72797773Y-83524196D01*
X72773504Y-83527796D01*
X72749000Y-83529000D01*
X72074000Y-83529000D01*
X72049496Y-83527796D01*
X72025227Y-83524196D01*
X72001429Y-83518235D01*
X71978329Y-83509970D01*
X71956151Y-83499480D01*
X71935107Y-83486867D01*
X71915402Y-83472253D01*
X71897223Y-83455777D01*
X71880747Y-83437598D01*
X71866133Y-83417893D01*
X71853520Y-83396849D01*
X71843030Y-83374671D01*
X71834765Y-83351571D01*
X71828804Y-83327773D01*
X71825204Y-83303504D01*
X71824000Y-83279000D01*
X71824000Y-82329000D01*
X71825204Y-82304496D01*
X71828804Y-82280227D01*
X71834765Y-82256429D01*
X71843030Y-82233329D01*
X71853520Y-82211151D01*
X71866133Y-82190107D01*
X71880747Y-82170402D01*
X71897223Y-82152223D01*
X71915402Y-82135747D01*
X71935107Y-82121133D01*
X71956151Y-82108520D01*
X71978329Y-82098030D01*
X72001429Y-82089765D01*
X72025227Y-82083804D01*
X72049496Y-82080204D01*
X72074000Y-82079000D01*
X72749000Y-82079000D01*
X72773504Y-82080204D01*
G37*
G36*
X70698504Y-82080204D02*
G01*
X70722773Y-82083804D01*
X70746571Y-82089765D01*
X70769671Y-82098030D01*
X70791849Y-82108520D01*
X70812893Y-82121133D01*
X70832598Y-82135747D01*
X70850777Y-82152223D01*
X70867253Y-82170402D01*
X70881867Y-82190107D01*
X70894480Y-82211151D01*
X70904970Y-82233329D01*
X70913235Y-82256429D01*
X70919196Y-82280227D01*
X70922796Y-82304496D01*
X70924000Y-82329000D01*
X70924000Y-83279000D01*
X70922796Y-83303504D01*
X70919196Y-83327773D01*
X70913235Y-83351571D01*
X70904970Y-83374671D01*
X70894480Y-83396849D01*
X70881867Y-83417893D01*
X70867253Y-83437598D01*
X70850777Y-83455777D01*
X70832598Y-83472253D01*
X70812893Y-83486867D01*
X70791849Y-83499480D01*
X70769671Y-83509970D01*
X70746571Y-83518235D01*
X70722773Y-83524196D01*
X70698504Y-83527796D01*
X70674000Y-83529000D01*
X69999000Y-83529000D01*
X69974496Y-83527796D01*
X69950227Y-83524196D01*
X69926429Y-83518235D01*
X69903329Y-83509970D01*
X69881151Y-83499480D01*
X69860107Y-83486867D01*
X69840402Y-83472253D01*
X69822223Y-83455777D01*
X69805747Y-83437598D01*
X69791133Y-83417893D01*
X69778520Y-83396849D01*
X69768030Y-83374671D01*
X69759765Y-83351571D01*
X69753804Y-83327773D01*
X69750204Y-83303504D01*
X69749000Y-83279000D01*
X69749000Y-82329000D01*
X69750204Y-82304496D01*
X69753804Y-82280227D01*
X69759765Y-82256429D01*
X69768030Y-82233329D01*
X69778520Y-82211151D01*
X69791133Y-82190107D01*
X69805747Y-82170402D01*
X69822223Y-82152223D01*
X69840402Y-82135747D01*
X69860107Y-82121133D01*
X69881151Y-82108520D01*
X69903329Y-82098030D01*
X69926429Y-82089765D01*
X69950227Y-82083804D01*
X69974496Y-82080204D01*
X69999000Y-82079000D01*
X70674000Y-82079000D01*
X70698504Y-82080204D01*
G37*
G36*
X83187504Y-81826204D02*
G01*
X83211773Y-81829804D01*
X83235571Y-81835765D01*
X83258671Y-81844030D01*
X83280849Y-81854520D01*
X83301893Y-81867133D01*
X83321598Y-81881747D01*
X83339777Y-81898223D01*
X83356253Y-81916402D01*
X83370867Y-81936107D01*
X83383480Y-81957151D01*
X83393970Y-81979329D01*
X83402235Y-82002429D01*
X83408196Y-82026227D01*
X83411796Y-82050496D01*
X83413000Y-82075000D01*
X83413000Y-83025000D01*
X83411796Y-83049504D01*
X83408196Y-83073773D01*
X83402235Y-83097571D01*
X83393970Y-83120671D01*
X83383480Y-83142849D01*
X83370867Y-83163893D01*
X83356253Y-83183598D01*
X83339777Y-83201777D01*
X83321598Y-83218253D01*
X83301893Y-83232867D01*
X83280849Y-83245480D01*
X83258671Y-83255970D01*
X83235571Y-83264235D01*
X83211773Y-83270196D01*
X83187504Y-83273796D01*
X83163000Y-83275000D01*
X82488000Y-83275000D01*
X82463496Y-83273796D01*
X82439227Y-83270196D01*
X82415429Y-83264235D01*
X82392329Y-83255970D01*
X82370151Y-83245480D01*
X82349107Y-83232867D01*
X82329402Y-83218253D01*
X82311223Y-83201777D01*
X82294747Y-83183598D01*
X82280133Y-83163893D01*
X82267520Y-83142849D01*
X82257030Y-83120671D01*
X82248765Y-83097571D01*
X82242804Y-83073773D01*
X82239204Y-83049504D01*
X82238000Y-83025000D01*
X82238000Y-82075000D01*
X82239204Y-82050496D01*
X82242804Y-82026227D01*
X82248765Y-82002429D01*
X82257030Y-81979329D01*
X82267520Y-81957151D01*
X82280133Y-81936107D01*
X82294747Y-81916402D01*
X82311223Y-81898223D01*
X82329402Y-81881747D01*
X82349107Y-81867133D01*
X82370151Y-81854520D01*
X82392329Y-81844030D01*
X82415429Y-81835765D01*
X82439227Y-81829804D01*
X82463496Y-81826204D01*
X82488000Y-81825000D01*
X83163000Y-81825000D01*
X83187504Y-81826204D01*
G37*
G36*
X81112504Y-81826204D02*
G01*
X81136773Y-81829804D01*
X81160571Y-81835765D01*
X81183671Y-81844030D01*
X81205849Y-81854520D01*
X81226893Y-81867133D01*
X81246598Y-81881747D01*
X81264777Y-81898223D01*
X81281253Y-81916402D01*
X81295867Y-81936107D01*
X81308480Y-81957151D01*
X81318970Y-81979329D01*
X81327235Y-82002429D01*
X81333196Y-82026227D01*
X81336796Y-82050496D01*
X81338000Y-82075000D01*
X81338000Y-83025000D01*
X81336796Y-83049504D01*
X81333196Y-83073773D01*
X81327235Y-83097571D01*
X81318970Y-83120671D01*
X81308480Y-83142849D01*
X81295867Y-83163893D01*
X81281253Y-83183598D01*
X81264777Y-83201777D01*
X81246598Y-83218253D01*
X81226893Y-83232867D01*
X81205849Y-83245480D01*
X81183671Y-83255970D01*
X81160571Y-83264235D01*
X81136773Y-83270196D01*
X81112504Y-83273796D01*
X81088000Y-83275000D01*
X80413000Y-83275000D01*
X80388496Y-83273796D01*
X80364227Y-83270196D01*
X80340429Y-83264235D01*
X80317329Y-83255970D01*
X80295151Y-83245480D01*
X80274107Y-83232867D01*
X80254402Y-83218253D01*
X80236223Y-83201777D01*
X80219747Y-83183598D01*
X80205133Y-83163893D01*
X80192520Y-83142849D01*
X80182030Y-83120671D01*
X80173765Y-83097571D01*
X80167804Y-83073773D01*
X80164204Y-83049504D01*
X80163000Y-83025000D01*
X80163000Y-82075000D01*
X80164204Y-82050496D01*
X80167804Y-82026227D01*
X80173765Y-82002429D01*
X80182030Y-81979329D01*
X80192520Y-81957151D01*
X80205133Y-81936107D01*
X80219747Y-81916402D01*
X80236223Y-81898223D01*
X80254402Y-81881747D01*
X80274107Y-81867133D01*
X80295151Y-81854520D01*
X80317329Y-81844030D01*
X80340429Y-81835765D01*
X80364227Y-81829804D01*
X80388496Y-81826204D01*
X80413000Y-81825000D01*
X81088000Y-81825000D01*
X81112504Y-81826204D01*
G37*
M02*
