G04 #@! TF.GenerationSoftware,KiCad,Pcbnew,5.1.5+dfsg1-2build2*
G04 #@! TF.CreationDate,2022-10-01T19:43:28+01:00*
G04 #@! TF.ProjectId,zx-memory-16-32,7a782d6d-656d-46f7-9279-2d31362d3332,rev?*
G04 #@! TF.SameCoordinates,Original*
G04 #@! TF.FileFunction,Soldermask,Top*
G04 #@! TF.FilePolarity,Negative*
%FSLAX46Y46*%
G04 Gerber Fmt 4.6, Leading zero omitted, Abs format (unit mm)*
G04 Created by KiCad (PCBNEW 5.1.5+dfsg1-2build2) date 2022-10-01 19:43:28*
%MOMM*%
%LPD*%
G04 APERTURE LIST*
%ADD10C,0.100000*%
G04 APERTURE END LIST*
D10*
G36*
X91071000Y-97951000D02*
G01*
X89269000Y-97951000D01*
X89269000Y-94349000D01*
X91071000Y-94349000D01*
X91071000Y-97951000D01*
G37*
G36*
X63131000Y-97951000D02*
G01*
X61329000Y-97951000D01*
X61329000Y-94349000D01*
X63131000Y-94349000D01*
X63131000Y-97951000D01*
G37*
G36*
X85991000Y-97951000D02*
G01*
X84189000Y-97951000D01*
X84189000Y-94349000D01*
X85991000Y-94349000D01*
X85991000Y-97951000D01*
G37*
G36*
X83451000Y-97951000D02*
G01*
X81649000Y-97951000D01*
X81649000Y-94349000D01*
X83451000Y-94349000D01*
X83451000Y-97951000D01*
G37*
G36*
X80911000Y-97951000D02*
G01*
X79109000Y-97951000D01*
X79109000Y-94349000D01*
X80911000Y-94349000D01*
X80911000Y-97951000D01*
G37*
G36*
X78371000Y-97951000D02*
G01*
X76569000Y-97951000D01*
X76569000Y-94349000D01*
X78371000Y-94349000D01*
X78371000Y-97951000D01*
G37*
G36*
X75831000Y-97951000D02*
G01*
X74029000Y-97951000D01*
X74029000Y-94349000D01*
X75831000Y-94349000D01*
X75831000Y-97951000D01*
G37*
G36*
X73291000Y-97951000D02*
G01*
X71489000Y-97951000D01*
X71489000Y-94349000D01*
X73291000Y-94349000D01*
X73291000Y-97951000D01*
G37*
G36*
X70751000Y-97951000D02*
G01*
X68949000Y-97951000D01*
X68949000Y-94349000D01*
X70751000Y-94349000D01*
X70751000Y-97951000D01*
G37*
G36*
X68211000Y-97951000D02*
G01*
X66409000Y-97951000D01*
X66409000Y-94349000D01*
X68211000Y-94349000D01*
X68211000Y-97951000D01*
G37*
G36*
X65671000Y-97951000D02*
G01*
X63869000Y-97951000D01*
X63869000Y-94349000D01*
X65671000Y-94349000D01*
X65671000Y-97951000D01*
G37*
G36*
X58051000Y-97951000D02*
G01*
X56249000Y-97951000D01*
X56249000Y-94349000D01*
X58051000Y-94349000D01*
X58051000Y-97951000D01*
G37*
G36*
X55511000Y-97951000D02*
G01*
X53709000Y-97951000D01*
X53709000Y-94349000D01*
X55511000Y-94349000D01*
X55511000Y-97951000D01*
G37*
G36*
X52971000Y-97951000D02*
G01*
X51169000Y-97951000D01*
X51169000Y-94349000D01*
X52971000Y-94349000D01*
X52971000Y-97951000D01*
G37*
G36*
X50431000Y-97951000D02*
G01*
X48629000Y-97951000D01*
X48629000Y-94349000D01*
X50431000Y-94349000D01*
X50431000Y-97951000D01*
G37*
G36*
X47891000Y-97951000D02*
G01*
X46089000Y-97951000D01*
X46089000Y-94349000D01*
X47891000Y-94349000D01*
X47891000Y-97951000D01*
G37*
G36*
X45351000Y-97951000D02*
G01*
X43549000Y-97951000D01*
X43549000Y-94349000D01*
X45351000Y-94349000D01*
X45351000Y-97951000D01*
G37*
G36*
X42811000Y-97951000D02*
G01*
X41009000Y-97951000D01*
X41009000Y-94349000D01*
X42811000Y-94349000D01*
X42811000Y-97951000D01*
G37*
G36*
X88531000Y-97951000D02*
G01*
X86729000Y-97951000D01*
X86729000Y-94349000D01*
X88531000Y-94349000D01*
X88531000Y-97951000D01*
G37*
G36*
X60591000Y-97951000D02*
G01*
X58789000Y-97951000D01*
X58789000Y-94349000D01*
X60591000Y-94349000D01*
X60591000Y-97951000D01*
G37*
G36*
X36286000Y-97246000D02*
G01*
X34834000Y-97246000D01*
X34834000Y-95794000D01*
X36286000Y-95794000D01*
X36286000Y-97246000D01*
G37*
G36*
X30173983Y-94986434D02*
G01*
X30211372Y-94997776D01*
X30245826Y-95016191D01*
X30276025Y-95040975D01*
X30300809Y-95071174D01*
X30319224Y-95105628D01*
X30330566Y-95143017D01*
X30335000Y-95188035D01*
X30335000Y-96327965D01*
X30330566Y-96372983D01*
X30319224Y-96410372D01*
X30300809Y-96444826D01*
X30276025Y-96475025D01*
X30245826Y-96499809D01*
X30211372Y-96518224D01*
X30173983Y-96529566D01*
X30128965Y-96534000D01*
X29264035Y-96534000D01*
X29219017Y-96529566D01*
X29181628Y-96518224D01*
X29147174Y-96499809D01*
X29116975Y-96475025D01*
X29092191Y-96444826D01*
X29073776Y-96410372D01*
X29062434Y-96372983D01*
X29058000Y-96327965D01*
X29058000Y-95188035D01*
X29062434Y-95143017D01*
X29073776Y-95105628D01*
X29092191Y-95071174D01*
X29116975Y-95040975D01*
X29147174Y-95016191D01*
X29181628Y-94997776D01*
X29219017Y-94986434D01*
X29264035Y-94982000D01*
X30128965Y-94982000D01*
X30173983Y-94986434D01*
G37*
G36*
X32248983Y-94986434D02*
G01*
X32286372Y-94997776D01*
X32320826Y-95016191D01*
X32351025Y-95040975D01*
X32375809Y-95071174D01*
X32394224Y-95105628D01*
X32405566Y-95143017D01*
X32410000Y-95188035D01*
X32410000Y-96327965D01*
X32405566Y-96372983D01*
X32394224Y-96410372D01*
X32375809Y-96444826D01*
X32351025Y-96475025D01*
X32320826Y-96499809D01*
X32286372Y-96518224D01*
X32248983Y-96529566D01*
X32203965Y-96534000D01*
X31339035Y-96534000D01*
X31294017Y-96529566D01*
X31256628Y-96518224D01*
X31222174Y-96499809D01*
X31191975Y-96475025D01*
X31167191Y-96444826D01*
X31148776Y-96410372D01*
X31137434Y-96372983D01*
X31133000Y-96327965D01*
X31133000Y-95188035D01*
X31137434Y-95143017D01*
X31148776Y-95105628D01*
X31167191Y-95071174D01*
X31191975Y-95040975D01*
X31222174Y-95016191D01*
X31256628Y-94997776D01*
X31294017Y-94986434D01*
X31339035Y-94982000D01*
X32203965Y-94982000D01*
X32248983Y-94986434D01*
G37*
G36*
X101713512Y-93083927D02*
G01*
X101862812Y-93113624D01*
X102026784Y-93181544D01*
X102174354Y-93280147D01*
X102299853Y-93405646D01*
X102398456Y-93553216D01*
X102466376Y-93717188D01*
X102501000Y-93891259D01*
X102501000Y-94068741D01*
X102466376Y-94242812D01*
X102398456Y-94406784D01*
X102299853Y-94554354D01*
X102174354Y-94679853D01*
X102026784Y-94778456D01*
X101862812Y-94846376D01*
X101713512Y-94876073D01*
X101688742Y-94881000D01*
X101511258Y-94881000D01*
X101486488Y-94876073D01*
X101337188Y-94846376D01*
X101173216Y-94778456D01*
X101025646Y-94679853D01*
X100900147Y-94554354D01*
X100801544Y-94406784D01*
X100733624Y-94242812D01*
X100699000Y-94068741D01*
X100699000Y-93891259D01*
X100733624Y-93717188D01*
X100801544Y-93553216D01*
X100900147Y-93405646D01*
X101025646Y-93280147D01*
X101173216Y-93181544D01*
X101337188Y-93113624D01*
X101486488Y-93083927D01*
X101511258Y-93079000D01*
X101688742Y-93079000D01*
X101713512Y-93083927D01*
G37*
G36*
X33821000Y-93101000D02*
G01*
X32219000Y-93101000D01*
X32219000Y-90999000D01*
X33821000Y-90999000D01*
X33821000Y-93101000D01*
G37*
G36*
X36121000Y-93101000D02*
G01*
X34519000Y-93101000D01*
X34519000Y-90999000D01*
X36121000Y-90999000D01*
X36121000Y-93101000D01*
G37*
G36*
X31521000Y-93101000D02*
G01*
X29919000Y-93101000D01*
X29919000Y-90999000D01*
X31521000Y-90999000D01*
X31521000Y-93101000D01*
G37*
G36*
X101713512Y-90543927D02*
G01*
X101862812Y-90573624D01*
X102026784Y-90641544D01*
X102174354Y-90740147D01*
X102299853Y-90865646D01*
X102398456Y-91013216D01*
X102466376Y-91177188D01*
X102501000Y-91351259D01*
X102501000Y-91528741D01*
X102466376Y-91702812D01*
X102398456Y-91866784D01*
X102299853Y-92014354D01*
X102174354Y-92139853D01*
X102026784Y-92238456D01*
X101862812Y-92306376D01*
X101713512Y-92336073D01*
X101688742Y-92341000D01*
X101511258Y-92341000D01*
X101486488Y-92336073D01*
X101337188Y-92306376D01*
X101173216Y-92238456D01*
X101025646Y-92139853D01*
X100900147Y-92014354D01*
X100801544Y-91866784D01*
X100733624Y-91702812D01*
X100699000Y-91528741D01*
X100699000Y-91351259D01*
X100733624Y-91177188D01*
X100801544Y-91013216D01*
X100900147Y-90865646D01*
X101025646Y-90740147D01*
X101173216Y-90641544D01*
X101337188Y-90573624D01*
X101486488Y-90543927D01*
X101511258Y-90539000D01*
X101688742Y-90539000D01*
X101713512Y-90543927D01*
G37*
G36*
X66766000Y-92166000D02*
G01*
X65314000Y-92166000D01*
X65314000Y-90714000D01*
X66766000Y-90714000D01*
X66766000Y-92166000D01*
G37*
G36*
X59146000Y-92166000D02*
G01*
X57694000Y-92166000D01*
X57694000Y-90714000D01*
X59146000Y-90714000D01*
X59146000Y-92166000D01*
G37*
G36*
X42317395Y-88170546D02*
G01*
X42490466Y-88242234D01*
X42490467Y-88242235D01*
X42646227Y-88346310D01*
X42778690Y-88478773D01*
X42831081Y-88557182D01*
X42882766Y-88634534D01*
X42954454Y-88807605D01*
X42991000Y-88991333D01*
X42991000Y-89178667D01*
X42954454Y-89362395D01*
X42882766Y-89535466D01*
X42882765Y-89535467D01*
X42778690Y-89691227D01*
X42646227Y-89823690D01*
X42567818Y-89876081D01*
X42490466Y-89927766D01*
X42317395Y-89999454D01*
X42133667Y-90036000D01*
X41946333Y-90036000D01*
X41762605Y-89999454D01*
X41589534Y-89927766D01*
X41512182Y-89876081D01*
X41433773Y-89823690D01*
X41301310Y-89691227D01*
X41197235Y-89535467D01*
X41197234Y-89535466D01*
X41125546Y-89362395D01*
X41089000Y-89178667D01*
X41089000Y-88991333D01*
X41125546Y-88807605D01*
X41197234Y-88634534D01*
X41248919Y-88557182D01*
X41301310Y-88478773D01*
X41433773Y-88346310D01*
X41589533Y-88242235D01*
X41589534Y-88242234D01*
X41762605Y-88170546D01*
X41946333Y-88134000D01*
X42133667Y-88134000D01*
X42317395Y-88170546D01*
G37*
G36*
X92641000Y-89801000D02*
G01*
X89039000Y-89801000D01*
X89039000Y-87999000D01*
X92641000Y-87999000D01*
X92641000Y-89801000D01*
G37*
G36*
X102501000Y-89801000D02*
G01*
X100699000Y-89801000D01*
X100699000Y-87999000D01*
X102501000Y-87999000D01*
X102501000Y-89801000D01*
G37*
G36*
X66766000Y-89626000D02*
G01*
X65314000Y-89626000D01*
X65314000Y-88174000D01*
X66766000Y-88174000D01*
X66766000Y-89626000D01*
G37*
G36*
X59146000Y-89626000D02*
G01*
X57694000Y-89626000D01*
X57694000Y-88174000D01*
X59146000Y-88174000D01*
X59146000Y-89626000D01*
G37*
G36*
X45303642Y-88014781D02*
G01*
X45449414Y-88075162D01*
X45449416Y-88075163D01*
X45580608Y-88162822D01*
X45692178Y-88274392D01*
X45779837Y-88405584D01*
X45779838Y-88405586D01*
X45840219Y-88551358D01*
X45871000Y-88706107D01*
X45871000Y-88863893D01*
X45840219Y-89018642D01*
X45779838Y-89164414D01*
X45779837Y-89164416D01*
X45692178Y-89295608D01*
X45580608Y-89407178D01*
X45449416Y-89494837D01*
X45449415Y-89494838D01*
X45449414Y-89494838D01*
X45303642Y-89555219D01*
X45148893Y-89586000D01*
X44991107Y-89586000D01*
X44836358Y-89555219D01*
X44690586Y-89494838D01*
X44690585Y-89494838D01*
X44690584Y-89494837D01*
X44559392Y-89407178D01*
X44447822Y-89295608D01*
X44360163Y-89164416D01*
X44360162Y-89164414D01*
X44299781Y-89018642D01*
X44269000Y-88863893D01*
X44269000Y-88706107D01*
X44299781Y-88551358D01*
X44360162Y-88405586D01*
X44360163Y-88405584D01*
X44447822Y-88274392D01*
X44559392Y-88162822D01*
X44690584Y-88075163D01*
X44690586Y-88075162D01*
X44836358Y-88014781D01*
X44991107Y-87984000D01*
X45148893Y-87984000D01*
X45303642Y-88014781D01*
G37*
G36*
X92641000Y-87261000D02*
G01*
X89039000Y-87261000D01*
X89039000Y-85459000D01*
X92641000Y-85459000D01*
X92641000Y-87261000D01*
G37*
G36*
X66766000Y-87086000D02*
G01*
X65314000Y-87086000D01*
X65314000Y-85634000D01*
X66766000Y-85634000D01*
X66766000Y-87086000D01*
G37*
G36*
X59146000Y-87086000D02*
G01*
X57694000Y-87086000D01*
X57694000Y-85634000D01*
X59146000Y-85634000D01*
X59146000Y-87086000D01*
G37*
G36*
X34971000Y-86801000D02*
G01*
X31069000Y-86801000D01*
X31069000Y-84699000D01*
X34971000Y-84699000D01*
X34971000Y-86801000D01*
G37*
G36*
X45303642Y-83164781D02*
G01*
X45449414Y-83225162D01*
X45449416Y-83225163D01*
X45580608Y-83312822D01*
X45692178Y-83424392D01*
X45770316Y-83541335D01*
X45779838Y-83555586D01*
X45840219Y-83701358D01*
X45871000Y-83856107D01*
X45871000Y-84013893D01*
X45840219Y-84168642D01*
X45810154Y-84241225D01*
X45779837Y-84314416D01*
X45692178Y-84445608D01*
X45580608Y-84557178D01*
X45449416Y-84644837D01*
X45449415Y-84644838D01*
X45449414Y-84644838D01*
X45303642Y-84705219D01*
X45148893Y-84736000D01*
X44991107Y-84736000D01*
X44836358Y-84705219D01*
X44690586Y-84644838D01*
X44690585Y-84644838D01*
X44690584Y-84644837D01*
X44559392Y-84557178D01*
X44447822Y-84445608D01*
X44360163Y-84314416D01*
X44329846Y-84241225D01*
X44299781Y-84168642D01*
X44269000Y-84013893D01*
X44269000Y-83856107D01*
X44299781Y-83701358D01*
X44360162Y-83555586D01*
X44369684Y-83541335D01*
X44447822Y-83424392D01*
X44559392Y-83312822D01*
X44690584Y-83225163D01*
X44690586Y-83225162D01*
X44836358Y-83164781D01*
X44991107Y-83134000D01*
X45148893Y-83134000D01*
X45303642Y-83164781D01*
G37*
G36*
X92641000Y-84721000D02*
G01*
X89039000Y-84721000D01*
X89039000Y-82919000D01*
X92641000Y-82919000D01*
X92641000Y-84721000D01*
G37*
G36*
X42317395Y-82720546D02*
G01*
X42490466Y-82792234D01*
X42490467Y-82792235D01*
X42646227Y-82896310D01*
X42778690Y-83028773D01*
X42778691Y-83028775D01*
X42882766Y-83184534D01*
X42954454Y-83357605D01*
X42991000Y-83541333D01*
X42991000Y-83728667D01*
X42954454Y-83912395D01*
X42882766Y-84085466D01*
X42882765Y-84085467D01*
X42778690Y-84241227D01*
X42646227Y-84373690D01*
X42615301Y-84394354D01*
X42490466Y-84477766D01*
X42317395Y-84549454D01*
X42133667Y-84586000D01*
X41946333Y-84586000D01*
X41762605Y-84549454D01*
X41589534Y-84477766D01*
X41464699Y-84394354D01*
X41433773Y-84373690D01*
X41301310Y-84241227D01*
X41197235Y-84085467D01*
X41197234Y-84085466D01*
X41125546Y-83912395D01*
X41089000Y-83728667D01*
X41089000Y-83541333D01*
X41125546Y-83357605D01*
X41197234Y-83184534D01*
X41301309Y-83028775D01*
X41301310Y-83028773D01*
X41433773Y-82896310D01*
X41589533Y-82792235D01*
X41589534Y-82792234D01*
X41762605Y-82720546D01*
X41946333Y-82684000D01*
X42133667Y-82684000D01*
X42317395Y-82720546D01*
G37*
G36*
X99786000Y-84546000D02*
G01*
X98334000Y-84546000D01*
X98334000Y-83094000D01*
X99786000Y-83094000D01*
X99786000Y-84546000D01*
G37*
G36*
X66766000Y-84546000D02*
G01*
X65314000Y-84546000D01*
X65314000Y-83094000D01*
X66766000Y-83094000D01*
X66766000Y-84546000D01*
G37*
G36*
X97246000Y-82006000D02*
G01*
X95794000Y-82006000D01*
X95794000Y-80554000D01*
X97246000Y-80554000D01*
X97246000Y-82006000D01*
G37*
G36*
X87086000Y-82006000D02*
G01*
X85634000Y-82006000D01*
X85634000Y-80554000D01*
X87086000Y-80554000D01*
X87086000Y-82006000D01*
G37*
G36*
X76926000Y-82006000D02*
G01*
X75474000Y-82006000D01*
X75474000Y-80554000D01*
X76926000Y-80554000D01*
X76926000Y-82006000D01*
G37*
G36*
X66766000Y-82006000D02*
G01*
X65314000Y-82006000D01*
X65314000Y-80554000D01*
X66766000Y-80554000D01*
X66766000Y-82006000D01*
G37*
G36*
X46446000Y-82006000D02*
G01*
X44994000Y-82006000D01*
X44994000Y-80554000D01*
X46446000Y-80554000D01*
X46446000Y-82006000D01*
G37*
G36*
X36286000Y-82006000D02*
G01*
X34834000Y-82006000D01*
X34834000Y-80554000D01*
X36286000Y-80554000D01*
X36286000Y-82006000D01*
G37*
G36*
X99786000Y-82006000D02*
G01*
X98334000Y-82006000D01*
X98334000Y-80554000D01*
X99786000Y-80554000D01*
X99786000Y-82006000D01*
G37*
G36*
X56606000Y-82006000D02*
G01*
X55154000Y-82006000D01*
X55154000Y-80554000D01*
X56606000Y-80554000D01*
X56606000Y-82006000D01*
G37*
G36*
X107406000Y-82006000D02*
G01*
X105954000Y-82006000D01*
X105954000Y-80554000D01*
X107406000Y-80554000D01*
X107406000Y-82006000D01*
G37*
G36*
X107406000Y-79466000D02*
G01*
X105954000Y-79466000D01*
X105954000Y-78014000D01*
X107406000Y-78014000D01*
X107406000Y-79466000D01*
G37*
G36*
X31348983Y-77619434D02*
G01*
X31386372Y-77630776D01*
X31420826Y-77649191D01*
X31451025Y-77673975D01*
X31475809Y-77704174D01*
X31494224Y-77738628D01*
X31505566Y-77776017D01*
X31510000Y-77821035D01*
X31510000Y-78685965D01*
X31505566Y-78730983D01*
X31494224Y-78768372D01*
X31475809Y-78802826D01*
X31451025Y-78833025D01*
X31420826Y-78857809D01*
X31386372Y-78876224D01*
X31348983Y-78887566D01*
X31303965Y-78892000D01*
X30164035Y-78892000D01*
X30119017Y-78887566D01*
X30081628Y-78876224D01*
X30047174Y-78857809D01*
X30016975Y-78833025D01*
X29992191Y-78802826D01*
X29973776Y-78768372D01*
X29962434Y-78730983D01*
X29958000Y-78685965D01*
X29958000Y-77821035D01*
X29962434Y-77776017D01*
X29973776Y-77738628D01*
X29992191Y-77704174D01*
X30016975Y-77673975D01*
X30047174Y-77649191D01*
X30081628Y-77630776D01*
X30119017Y-77619434D01*
X30164035Y-77615000D01*
X31303965Y-77615000D01*
X31348983Y-77619434D01*
G37*
G36*
X52971000Y-78371000D02*
G01*
X51169000Y-78371000D01*
X51169000Y-74769000D01*
X52971000Y-74769000D01*
X52971000Y-78371000D01*
G37*
G36*
X55511000Y-78371000D02*
G01*
X53709000Y-78371000D01*
X53709000Y-74769000D01*
X55511000Y-74769000D01*
X55511000Y-78371000D01*
G37*
G36*
X58051000Y-78371000D02*
G01*
X56249000Y-78371000D01*
X56249000Y-74769000D01*
X58051000Y-74769000D01*
X58051000Y-78371000D01*
G37*
G36*
X60591000Y-78371000D02*
G01*
X58789000Y-78371000D01*
X58789000Y-74769000D01*
X60591000Y-74769000D01*
X60591000Y-78371000D01*
G37*
G36*
X63131000Y-78371000D02*
G01*
X61329000Y-78371000D01*
X61329000Y-74769000D01*
X63131000Y-74769000D01*
X63131000Y-78371000D01*
G37*
G36*
X65671000Y-78371000D02*
G01*
X63869000Y-78371000D01*
X63869000Y-74769000D01*
X65671000Y-74769000D01*
X65671000Y-78371000D01*
G37*
G36*
X68211000Y-78371000D02*
G01*
X66409000Y-78371000D01*
X66409000Y-74769000D01*
X68211000Y-74769000D01*
X68211000Y-78371000D01*
G37*
G36*
X70751000Y-78371000D02*
G01*
X68949000Y-78371000D01*
X68949000Y-74769000D01*
X70751000Y-74769000D01*
X70751000Y-78371000D01*
G37*
G36*
X42811000Y-78371000D02*
G01*
X41009000Y-78371000D01*
X41009000Y-74769000D01*
X42811000Y-74769000D01*
X42811000Y-78371000D01*
G37*
G36*
X80911000Y-78371000D02*
G01*
X79109000Y-78371000D01*
X79109000Y-74769000D01*
X80911000Y-74769000D01*
X80911000Y-78371000D01*
G37*
G36*
X50431000Y-78371000D02*
G01*
X48629000Y-78371000D01*
X48629000Y-74769000D01*
X50431000Y-74769000D01*
X50431000Y-78371000D01*
G37*
G36*
X47891000Y-78371000D02*
G01*
X46089000Y-78371000D01*
X46089000Y-74769000D01*
X47891000Y-74769000D01*
X47891000Y-78371000D01*
G37*
G36*
X45351000Y-78371000D02*
G01*
X43549000Y-78371000D01*
X43549000Y-74769000D01*
X45351000Y-74769000D01*
X45351000Y-78371000D01*
G37*
G36*
X73291000Y-78371000D02*
G01*
X71489000Y-78371000D01*
X71489000Y-74769000D01*
X73291000Y-74769000D01*
X73291000Y-78371000D01*
G37*
G36*
X75831000Y-78371000D02*
G01*
X74029000Y-78371000D01*
X74029000Y-74769000D01*
X75831000Y-74769000D01*
X75831000Y-78371000D01*
G37*
G36*
X78371000Y-78371000D02*
G01*
X76569000Y-78371000D01*
X76569000Y-74769000D01*
X78371000Y-74769000D01*
X78371000Y-78371000D01*
G37*
G36*
X83451000Y-78371000D02*
G01*
X81649000Y-78371000D01*
X81649000Y-74769000D01*
X83451000Y-74769000D01*
X83451000Y-78371000D01*
G37*
G36*
X85991000Y-78371000D02*
G01*
X84189000Y-78371000D01*
X84189000Y-74769000D01*
X85991000Y-74769000D01*
X85991000Y-78371000D01*
G37*
G36*
X88531000Y-78371000D02*
G01*
X86729000Y-78371000D01*
X86729000Y-74769000D01*
X88531000Y-74769000D01*
X88531000Y-78371000D01*
G37*
G36*
X91071000Y-78371000D02*
G01*
X89269000Y-78371000D01*
X89269000Y-74769000D01*
X91071000Y-74769000D01*
X91071000Y-78371000D01*
G37*
G36*
X97246000Y-76926000D02*
G01*
X95794000Y-76926000D01*
X95794000Y-75474000D01*
X97246000Y-75474000D01*
X97246000Y-76926000D01*
G37*
G36*
X107406000Y-76926000D02*
G01*
X105954000Y-76926000D01*
X105954000Y-75474000D01*
X107406000Y-75474000D01*
X107406000Y-76926000D01*
G37*
G36*
X36286000Y-76926000D02*
G01*
X34834000Y-76926000D01*
X34834000Y-75474000D01*
X36286000Y-75474000D01*
X36286000Y-76926000D01*
G37*
G36*
X31348983Y-75544434D02*
G01*
X31386372Y-75555776D01*
X31420826Y-75574191D01*
X31451025Y-75598975D01*
X31475809Y-75629174D01*
X31494224Y-75663628D01*
X31505566Y-75701017D01*
X31510000Y-75746035D01*
X31510000Y-76610965D01*
X31505566Y-76655983D01*
X31494224Y-76693372D01*
X31475809Y-76727826D01*
X31451025Y-76758025D01*
X31420826Y-76782809D01*
X31386372Y-76801224D01*
X31348983Y-76812566D01*
X31303965Y-76817000D01*
X30164035Y-76817000D01*
X30119017Y-76812566D01*
X30081628Y-76801224D01*
X30047174Y-76782809D01*
X30016975Y-76758025D01*
X29992191Y-76727826D01*
X29973776Y-76693372D01*
X29962434Y-76655983D01*
X29958000Y-76610965D01*
X29958000Y-75746035D01*
X29962434Y-75701017D01*
X29973776Y-75663628D01*
X29992191Y-75629174D01*
X30016975Y-75598975D01*
X30047174Y-75574191D01*
X30081628Y-75555776D01*
X30119017Y-75544434D01*
X30164035Y-75540000D01*
X31303965Y-75540000D01*
X31348983Y-75544434D01*
G37*
M02*
